<svg width="43.454834" height="40.000000" viewBox="0 0 43.4548 40" fill="none" xmlns="http://www.w3.org/2000/svg" xmlns:xlink="http://www.w3.org/1999/xlink">
	<desc>
			Created with Pixso.
	</desc>
	<defs>
		<linearGradient x1="0.000000" y1="20.000000" x2="43.454773" y2="20.000000" id="paint_linear_20_5626_0" gradientUnits="userSpaceOnUse">
			<stop stop-color="#F7941D"/>
			<stop offset="1.000000" stop-color="#27AAE1"/>
		</linearGradient>
	</defs>
	<path id="path" d="M0 33C0 30.97 0 28.95 0 26.92C0.96 24.81 2.03 22.77 4.41 21.66C1.94 19.42 0.93 16.88 2.34 13.96C3.73 11.09 6.18 9.98 9.37 10.61C10.21 10.77 10.73 10.11 11.18 9.61C11.78 8.95 10.83 8.68 10.57 8.27C9.21 6.19 9.23 3.87 10.69 2.01C12.17 0.14 14.56 -0.5 16.73 0.4C18.86 1.28 20.14 3.53 19.98 5.79C19.87 7.29 17.98 8.49 18.45 9.5C19.03 10.73 20.61 11.54 21.22 13C21.31 13.2 21.23 13.62 21.75 13.53C22.37 12.54 22.76 11.28 23.8 10.59C24.99 9.81 25.13 9.22 24.21 7.99C22.67 5.92 23.19 2.97 25.08 1.31C27.03 -0.41 29.86 -0.45 31.84 1.22C33.81 2.89 34.23 5.67 32.97 7.92C32.66 8.48 31.51 8.81 32.09 9.6C32.66 10.38 33.47 10.78 34.71 10.55C37.3 10.06 39.42 11.14 40.79 13.39C42.12 15.56 42.02 17.8 40.61 19.93C40.23 20.51 39.7 21 39.1 21.69C41.39 22.79 42.48 24.82 43.45 26.93C43.45 28.96 43.45 30.98 43.45 33.01C39.06 35.51 34.4 34.83 29.64 34.13C29.61 34.71 29.46 35.3 29.56 35.84C30 38.21 28.69 39.09 26.67 39.49C23.95 40.02 21.21 40.16 18.48 39.77C14.2 39.15 14.13 39.03 13.88 34.77C13.87 34.56 13.78 34.35 13.73 34.15C6.47 35.15 3.17 34.88 0 33ZM7.75 32.98C9.35 33.08 10.92 32.86 12.48 32.51C13.01 32.39 13.61 32.32 13.87 31.66C15.3 28.07 12.48 23.2 8.64 22.64C5.22 22.14 2.08 24.72 1.76 28.27C1.4 32.32 1.99 32.87 6.88 32.99C7.17 32.99 7.46 32.98 7.75 32.98ZM35.61 32.98C37.22 33.08 38.79 32.85 40.34 32.49C40.86 32.37 41.45 32.3 41.69 31.6C42.87 28.22 40.66 23.81 37.24 22.83C34.85 22.16 32.82 22.85 31.14 24.62C29.81 26.02 28.69 30.62 29.69 31.73C30.97 33.15 32.99 32.82 34.75 32.98C35.04 33.01 35.33 32.98 35.61 32.98ZM22.09 38.2C23.35 38.31 24.85 38.04 26.33 37.73C26.87 37.62 27.68 37.57 27.72 36.92C27.88 34.62 28.13 32.27 26.57 30.26C25.12 28.4 23.2 27.55 20.87 27.87C17.27 28.36 15.12 31.42 15.73 36.02C16.13 39.06 19.11 37.66 20.96 38.19C21.22 38.27 21.53 38.2 22.09 38.2ZM32.14 21.61C28.98 18.27 28.75 16.06 31.19 12.43C31.73 11.62 31.51 11.35 30.84 10.97C28.11 9.4 24.09 11.23 23.48 14.34C23.32 15.14 23.36 15.71 24.28 16.26C28.36 18.72 28.96 22.4 25.94 26.01C25.39 26.67 25.24 26.96 26.04 27.42C26.59 27.73 27.07 28.16 27.71 28.64C28.03 25.51 29.44 23.21 32.14 21.61ZM18.13 26.83C14.42 22.49 14.75 19.31 19.27 16.21C19.88 15.79 19.99 15.42 19.93 14.81C19.59 11.5 15.3 9.29 12.47 10.97C11.9 11.31 11.51 11.6 12.14 12.26C13.41 13.57 14 15.16 13.88 16.99C13.76 18.87 12.69 20.28 11.28 21.63C14.07 23.21 15.4 25.56 15.75 28.66C16.66 27.95 17.39 27.39 18.13 26.83ZM3.49 16.32C3.39 18.72 5.34 20.78 7.75 20.82C10.07 20.85 12.05 18.98 12.14 16.66C12.25 14.27 10.29 12.21 7.87 12.16C5.56 12.11 3.58 13.99 3.49 16.32ZM35.72 20.82C38.04 20.77 39.95 18.83 39.96 16.51C39.96 14.09 37.94 12.1 35.54 12.16C33.19 12.22 31.3 14.15 31.3 16.47C31.3 18.89 33.31 20.87 35.72 20.82ZM26.05 21.7C26.05 19.37 24.15 17.43 21.82 17.37C19.41 17.31 17.39 19.29 17.39 21.71C17.4 24.12 19.43 26.1 21.84 26.03C24.16 25.97 26.05 24.02 26.05 21.7ZM18.23 5.29C18.29 3.41 16.79 1.81 14.92 1.73C13.05 1.65 11.43 3.11 11.31 4.99C11.19 6.94 12.76 8.62 14.72 8.65C16.59 8.68 18.17 7.16 18.23 5.29ZM28.56 8.65C30.44 8.62 32 7.02 31.96 5.13C31.93 3.25 30.34 1.69 28.46 1.72C26.56 1.75 25.08 3.3 25.1 5.23C25.13 7.18 26.65 8.68 28.56 8.65Z" fill="url(#paint_linear_20_5626_0)" fill-opacity="1.000000" fill-rule="nonzero"/>
</svg>
