<svg width="49.808838" height="40.000000" viewBox="0 0 49.8088 40" fill="none" xmlns="http://www.w3.org/2000/svg" xmlns:xlink="http://www.w3.org/1999/xlink">
	<desc>
			Created with Pixso.
	</desc>
	<defs>
		<linearGradient x1="0.000000" y1="20.000000" x2="49.808918" y2="20.000000" id="paint_linear_88_3536_0" gradientUnits="userSpaceOnUse">
			<stop stop-color="#F7941D"/>
			<stop offset="1.000000" stop-color="#27AAE1"/>
		</linearGradient>
	</defs>
	<path id="Vector" d="M23.18 35.92C23.18 34.77 24.07 33.88 25.22 33.88C26.36 33.88 27.26 34.77 27.26 35.92C27.26 37.07 26.36 37.96 25.22 37.96C24.2 37.96 23.18 37.07 23.18 35.92ZM21.27 34.9L1.01 34.9C0.5 34.9 0 35.41 0 35.92C0 36.43 0.5 36.94 1.01 36.94L21.27 36.94C21.78 38.72 23.31 40 25.22 40C27.13 40 28.66 38.72 29.17 36.94L48.78 36.94C49.29 36.94 49.8 36.43 49.8 35.92C49.8 35.41 49.29 34.9 48.78 34.9L29.17 34.9C28.66 33.12 27.13 31.84 25.22 31.84C23.31 31.84 21.78 33.12 21.27 34.9ZM21.14 9.68L28.02 14.52L21.14 19.36L21.14 9.68ZM19.61 6.75C19.23 6.87 19.1 7.26 19.1 7.64L19.1 21.4C19.1 21.78 19.36 22.16 19.61 22.29C20.12 22.54 20.5 22.29 20.63 22.16L30.31 15.28C30.57 15.03 30.7 14.77 30.7 14.39C30.7 14.01 30.57 13.75 30.31 13.5L20.63 6.62C20.5 6.49 20.25 6.49 20 6.49C20 6.75 19.74 6.75 19.61 6.75ZM2.16 26.62L2.16 2.67C2.16 2.42 2.42 2.16 2.67 2.16L47.26 2.16C47.51 2.16 47.77 2.42 47.77 2.67L47.77 26.62C47.77 26.87 47.51 27.13 47.26 27.13L2.67 27.13C2.42 27 2.16 26.87 2.16 26.62ZM2.67 0C1.27 0 0.12 1.14 0.12 2.54L0.12 26.49C0.12 27.89 1.27 29.04 2.67 29.04L47.26 29.04C48.66 29.04 49.8 27.89 49.8 26.49L49.8 2.54C49.8 1.14 48.66 0 47.26 0L2.67 0Z" fill="url(#paint_linear_88_3536_0)" fill-opacity="1.000000" fill-rule="nonzero"/>
</svg>
