<svg width="38.177246" height="40.000000" viewBox="0 0 38.1772 40" fill="none" xmlns="http://www.w3.org/2000/svg" xmlns:xlink="http://www.w3.org/1999/xlink">
	<desc>
			Created with Pixso.
	</desc>
	<defs>
		<linearGradient x1="0.000000" y1="19.999996" x2="38.177212" y2="19.999996" id="paint_linear_88_3538_0" gradientUnits="userSpaceOnUse">
			<stop stop-color="#F7941D"/>
			<stop offset="1.000000" stop-color="#27AAE1"/>
		</linearGradient>
	</defs>
	<path id="Vector" d="M9.82 34.43C9.82 33.82 10.02 33.31 10.22 32.91C10.53 32.3 11.03 31.69 11.54 31.29C11.64 31.18 11.74 31.18 11.84 31.08C12.35 30.78 13.16 30.58 13.77 30.58L24.3 30.58C24.91 30.58 25.51 30.78 25.92 30.98L26.43 31.29C26.93 31.69 27.24 31.89 27.64 32.5C28.05 33.11 28.25 33.92 28.25 34.63L28.25 38.37L25.21 38.37L25.21 35.94C25.21 35.44 24.4 34.93 23.79 35.44C23.69 35.54 23.59 35.84 23.59 35.94L23.59 38.27L14.48 38.27L14.48 36.05C14.48 35.64 14.27 35.34 13.97 35.24C13.77 35.13 13.56 35.13 13.26 35.24C13.16 35.34 13.06 35.34 12.96 35.44C12.86 35.54 12.75 35.74 12.75 36.05L12.75 38.27L9.72 38.27L9.72 34.43L9.82 34.43ZM14.07 28.86C13.67 28.86 13.16 28.86 12.75 28.96C12.65 28.96 12.55 28.96 12.45 29.06L11.64 29.36C11.24 29.56 11.13 29.67 10.73 29.87L10.32 30.17C9.92 30.58 9.31 31.18 9.01 31.69C8.6 32.5 8.2 33.41 8.2 34.53L8.2 39.18C8.2 39.59 8.6 40 9.01 40L29.06 40C29.56 40 29.97 39.59 29.97 39.08L29.97 34.83C29.97 32.81 29.16 31.08 27.54 29.97C27.54 29.97 27.44 29.97 27.44 29.87L27.13 29.67C26.53 29.36 26.22 29.26 25.51 29.06C25.21 28.96 24.6 28.96 24.2 28.96L14.07 28.96L14.07 28.86ZM16.3 24.91L16 24.7C15.79 24.5 15.49 24.1 15.29 23.79L14.88 22.88C14.78 22.48 14.68 21.97 14.68 21.46C14.68 21.16 14.78 20.75 14.78 20.45C14.88 20.15 14.98 19.84 15.08 19.64C15.29 19.13 15.39 19.03 15.69 18.63C15.79 18.53 15.89 18.43 16 18.32C17.41 16.91 19.74 16.6 21.46 17.82C21.56 17.82 21.56 17.92 21.56 17.92C22.58 18.63 23.29 20.05 23.29 21.26C23.29 21.77 23.29 21.97 23.18 22.48C23.08 22.88 23.08 22.88 22.88 23.29L22.58 23.79C22.58 23.79 22.58 23.79 22.58 23.89C22.58 23.89 22.58 24 22.48 24C21.97 24.7 21.26 25.21 20.45 25.51C19.94 25.72 19.54 25.82 19.03 25.82C18.12 25.82 17.11 25.51 16.3 24.91ZM17.51 15.69L17.01 15.89C16.81 16 16.7 16 16.5 16.1L16.3 16.2C16.2 16.2 16.2 16.2 16.2 16.3L15.59 16.6C14.88 17.11 14.37 17.72 13.87 18.43C13.87 18.53 13.77 18.53 13.77 18.63C13.36 19.24 13.06 20.45 13.06 21.16C13.06 21.87 13.06 22.58 13.36 23.29C13.46 23.39 13.46 23.59 13.56 23.79C13.97 24.7 14.27 25.01 14.98 25.72C15.29 26.02 15.69 26.22 16 26.53C16.1 26.53 16.1 26.63 16.2 26.63C16.7 26.93 16.91 27.03 17.51 27.13C17.92 27.24 18.83 27.34 19.13 27.34C19.54 27.24 19.74 27.34 20.45 27.13C20.86 27.03 21.46 26.83 21.77 26.63L21.97 26.53C22.48 26.22 22.48 26.22 22.88 25.92C22.98 25.82 22.98 25.82 23.08 25.72C23.18 25.62 23.18 25.62 23.29 25.51L23.59 25.11C24.81 23.59 25.31 21.77 24.81 19.84C24.5 18.83 24 17.82 23.29 17.01L23.18 16.91C23.18 16.91 23.18 16.91 23.08 16.91C22.68 16.6 22.78 16.6 22.27 16.3L21.56 15.89C20.96 15.59 19.94 15.29 19.24 15.29C19.13 15.29 19.13 15.29 19.03 15.29C18.53 15.49 18.22 15.49 17.51 15.69ZM29.97 15.79C29.97 15.59 30.07 15.39 30.07 15.29C30.17 14.58 30.27 14.48 29.67 13.97L28.55 12.86C28.45 12.75 28.45 12.75 28.55 12.75C28.65 12.65 30.27 12.55 30.58 12.45C30.68 12.45 30.88 12.35 30.98 12.25C30.98 12.25 31.08 12.15 31.08 12.05L32 10.22C32 10.32 32.4 11.03 32.5 11.24C33.11 12.45 32.91 12.35 34.22 12.55C34.43 12.55 34.63 12.65 34.83 12.65C34.93 12.65 35.44 12.75 35.44 12.75C35.44 12.75 35.44 12.75 35.44 12.86C35.34 12.96 35.34 12.96 35.34 12.96L34.63 13.67C34.53 13.77 34.53 13.77 34.43 13.87C34.22 14.07 34.12 14.17 34.02 14.37C33.82 14.68 34.02 15.39 34.12 15.79L34.32 16.91L33.31 16.4C33.11 16.3 32.4 15.89 32.3 15.89C31.79 15.89 31.79 16 31.29 16.2L30.78 16.3L30.27 16.6C30.27 16.6 30.17 16.6 30.17 16.7L29.77 16.91L29.97 15.79ZM31.39 7.79C31.18 8 30.78 8.81 30.68 9.11C30.68 9.21 30.68 9.21 30.58 9.31C30.48 9.51 29.97 10.53 29.77 10.83C29.77 10.93 29.77 10.93 29.56 10.93L28.65 11.03C28.45 11.03 28.25 11.13 28.05 11.13C27.64 11.24 26.63 11.34 26.32 11.44C26.02 11.54 25.82 11.84 25.82 12.25C25.82 12.45 25.92 12.65 26.02 12.75L27.03 13.77C27.34 14.07 27.64 14.37 27.94 14.58L28.05 14.58C28.25 14.68 28.35 14.88 28.45 14.98C28.35 15.29 28.25 16.3 28.15 16.6L27.94 17.82C27.94 18.12 27.74 18.43 28.05 18.83C28.25 19.03 28.45 19.13 28.75 19.13C28.96 19.13 29.46 18.83 29.77 18.73L30.07 18.53C30.17 18.43 30.27 18.43 30.37 18.32L31.89 17.51C32 17.51 32 17.51 32.2 17.62L34.43 18.73C34.63 18.83 34.83 19.03 35.13 19.03C35.44 19.03 35.64 19.03 35.84 18.83C36.25 18.43 36.05 17.92 35.94 17.31C35.94 17.21 35.94 17.01 35.84 16.91L35.54 14.88C35.64 14.88 35.64 14.78 35.74 14.78C36.05 14.58 36.96 13.56 37.46 13.06C37.77 12.75 38.07 12.55 38.17 12.15L38.17 11.94C38.17 11.84 38.17 11.84 38.07 11.74C37.87 11.24 37.46 11.24 37.06 11.13C36.86 11.13 36.65 11.03 36.45 11.03C36.25 11.03 36.05 10.93 35.84 10.93L34.73 10.73C34.12 10.63 34.32 10.83 34.02 10.12L33.11 8.4C33.11 8.3 33.11 8.3 33.01 8.2C32.81 7.89 32.91 7.79 32.6 7.59C32.5 7.49 32.3 7.39 32 7.39C31.79 7.49 31.59 7.59 31.39 7.79ZM4.15 15.29C4.25 14.98 4.25 14.68 4.15 14.37C4.05 14.27 4.05 14.27 3.94 14.17C3.74 13.97 3.64 13.87 3.54 13.77L2.63 12.86C2.93 12.75 4.15 12.65 4.55 12.55C4.75 12.55 4.96 12.45 5.06 12.35C5.16 12.25 5.26 12.05 5.36 11.84L5.87 10.83C5.97 10.73 6.07 10.43 6.07 10.32C6.07 10.43 6.48 11.13 6.58 11.34C6.68 11.54 6.98 12.15 7.08 12.35C7.39 12.65 7.79 12.65 8.2 12.65C8.4 12.65 9.41 12.86 9.51 12.86C9.41 12.96 8.4 13.97 8.2 14.17C8.1 14.27 8 14.27 8 14.37C7.79 14.68 7.89 14.98 8 15.39L8.3 17.01C8 16.81 7.59 16.7 7.29 16.5C7.08 16.4 6.48 16 6.27 16C5.77 16 5.77 16.1 5.26 16.3L3.94 17.01L4.15 15.29ZM5.56 7.79C5.36 8 4.96 8.81 4.86 9.11C4.86 9.11 4.86 9.21 4.75 9.21L3.94 10.93C3.84 11.03 3.74 11.03 3.44 11.03L1.72 11.24C1.41 11.24 0.81 11.34 0.6 11.44C0.3 11.54 0 11.84 0 12.15C0 12.65 0.2 12.75 0.5 13.06L1.51 14.07C1.72 14.27 2.53 14.98 2.53 15.08L2.12 17.62C2.12 17.92 2.02 18.12 2.02 18.53C2.02 19.03 2.63 19.54 3.34 19.13L5.87 17.82C5.97 17.82 5.97 17.72 6.07 17.72C6.17 17.82 6.27 17.82 6.37 17.92C6.48 17.92 6.48 17.92 6.58 18.02C6.78 18.12 7.49 18.43 7.69 18.63L8.81 19.24C8.91 19.34 8.91 19.24 8.91 19.44C9.31 19.44 9.62 19.44 9.82 19.24C10.22 18.93 10.02 18.43 9.92 17.92C9.82 17.62 9.82 17.41 9.82 17.11L9.62 16C9.62 15.89 9.51 15.69 9.51 15.59C9.51 15.29 9.41 15.39 9.82 15.08L10.83 14.07L11.24 13.67C11.74 13.16 12.45 12.65 11.94 12.05C11.84 11.84 11.64 11.74 11.34 11.74C10.63 11.64 9.72 11.54 8.91 11.44L8.1 11.34L7.69 10.43C7.59 10.32 6.68 8.4 6.58 8.3C6.37 8.1 6.17 8 5.97 8C5.87 7.49 5.67 7.59 5.56 7.79ZM17.21 7.39C17.21 7.08 17.21 6.88 17.11 6.78C17.01 6.68 16.7 6.37 16.6 6.27C16.4 6.07 15.69 5.46 15.59 5.36C15.69 5.36 16.1 5.26 16.2 5.26C16.5 5.26 17.62 5.06 17.82 4.96C18.02 4.86 18.12 4.75 18.22 4.55L18.83 3.34C18.83 3.34 18.83 3.24 18.93 3.24L19.13 2.83C19.24 2.93 19.84 4.15 19.94 4.35C20.15 4.65 20.25 5.06 20.65 5.06L21.97 5.26C22.07 5.26 22.17 5.26 22.27 5.26C22.37 5.26 22.48 5.26 22.58 5.26C22.58 5.36 22.27 5.56 22.17 5.67L21.06 6.78C20.86 7.18 20.96 7.59 21.06 8C21.06 8.2 21.16 8.4 21.16 8.6C21.16 8.7 21.16 8.81 21.16 8.91C21.16 9.01 21.26 9.11 21.26 9.21C21.16 9.21 20.25 8.7 19.94 8.5L19.34 8.2C19.13 8.1 18.83 8.2 18.53 8.4L17.21 9.11C17.11 9.11 17.01 9.21 16.91 9.21L17.21 7.39ZM18.53 0.2C18.32 0.4 18.02 1.11 17.82 1.51L16.91 3.24C16.81 3.44 16.91 3.34 16.5 3.44C16.3 3.44 16.1 3.54 15.89 3.54C15.39 3.64 13.87 3.84 13.56 3.84C13.26 3.94 12.96 4.25 12.96 4.55C12.96 5.06 13.16 5.16 13.46 5.46L13.97 5.97C14.07 6.07 14.07 6.07 14.17 6.17C14.37 6.37 14.58 6.58 14.88 6.88L15.18 7.18C15.29 7.29 15.39 7.49 15.49 7.49C15.49 7.69 15.39 8.1 15.39 8.3L15.08 9.92C14.98 10.32 14.78 11.03 15.18 11.34C15.49 11.64 15.89 11.64 16.3 11.44C16.4 11.34 16.6 11.34 16.7 11.24C17.11 10.93 18.12 10.53 18.63 10.22C18.73 10.22 19.03 10.02 19.03 10.02L21.36 11.24C21.67 11.44 22.27 11.84 22.78 11.34C23.18 10.93 22.98 10.43 22.88 9.82C22.78 9.51 22.78 9.21 22.68 8.81C22.58 8.5 22.58 8.1 22.48 7.79C22.37 7.29 22.37 7.49 22.78 7.08C22.88 6.98 22.98 6.88 23.08 6.78L24.6 5.36C24.91 5.06 25.01 4.96 25.01 4.55C25.01 4.15 24.7 3.94 24.5 3.84C24.3 3.84 22.07 3.44 21.77 3.44L21.16 3.34L19.84 0.6C19.64 0.2 19.44 0 18.93 0C18.83 0.1 18.63 0.1 18.53 0.2Z" fill="url(#paint_linear_88_3538_0)" fill-opacity="1.000000" fill-rule="nonzero"/>
</svg>
