<svg width="84.053711" height="73.000000" viewBox="0 0 84.0537 73" fill="none" xmlns="http://www.w3.org/2000/svg" xmlns:xlink="http://www.w3.org/1999/xlink">
	<desc>
			Created with Pixso.
	</desc>
	<defs/>
	<path id="Vector" d="M16.46 70.64C7.38 70.64 0 63.26 0 54.17C0 45.09 7.38 37.71 16.46 37.71C25.54 37.71 32.93 45.09 32.93 54.17C32.93 63.31 25.54 70.64 16.46 70.64Z" fill="#00093C" fill-opacity="1.000000" fill-rule="nonzero"/>
	<path id="Vector" d="M16.46 70.64C7.38 70.64 0 63.26 0 54.17C0 45.09 7.38 37.71 16.46 37.71C25.54 37.71 32.93 45.09 32.93 54.17C32.93 63.31 25.54 70.64 16.46 70.64Z" fill="#00093C" fill-opacity="1.000000" fill-rule="nonzero"/>
	<path id="Vector" d="M55.38 1.83L37.52 31.02C37.02 31.87 37.57 32.92 38.52 32.92L56.38 32.92L74.25 32.92C75.19 32.92 75.74 31.82 75.25 31.02L57.38 1.83C56.88 1.08 55.83 1.08 55.38 1.83Z" fill="#00093C" fill-opacity="1.000000" fill-rule="nonzero"/>
	<path id="Vector" d="M32.58 6.77L26.14 0.33C25.69 -0.12 24.9 -0.12 24.45 0.33L17.36 7.42C16.91 7.87 16.11 7.87 15.66 7.42L8.58 0.33C8.13 -0.12 7.33 -0.12 6.88 0.33L0.44 6.77C-0.01 7.22 -0.01 8.02 0.44 8.47L7.53 15.55C7.98 16 7.98 16.8 7.53 17.25L0.44 24.33C-0.01 24.78 -0.01 25.58 0.44 26.03L6.88 32.47C7.33 32.92 8.13 32.92 8.58 32.47L15.66 25.38C16.11 24.93 16.91 24.93 17.36 25.38L24.45 32.47C24.9 32.92 25.69 32.92 26.14 32.47L32.58 26.03C33.03 25.58 33.03 24.78 32.58 24.33L25.49 17.25C25.04 16.8 25.04 16 25.49 15.55L32.58 8.47C33.08 8.02 33.08 7.27 32.58 6.77Z" fill="#00093C" fill-opacity="1.000000" fill-rule="nonzero"/>
	<path id="English Expert" d="M64.29 47.44Q64.61 47.67 65.1 47.67Q65.57 47.67 65.89 47.45Q65.96 47.4 66.02 47.35Q66.18 47.2 66.27 47.03Q66.37 46.8 66.37 46.53Q66.37 46.28 66.28 46.07Q66.19 45.89 66.02 45.75Q65.99 45.72 65.95 45.69Q65.61 45.45 65.1 45.45Q64.62 45.45 64.3 45.67Q64.23 45.72 64.17 45.77Q64 45.93 63.91 46.12Q63.82 46.32 63.82 46.56Q63.82 46.79 63.91 46.99Q64 47.19 64.17 47.35Q64.23 47.4 64.29 47.44ZM62.7 46.13L60.61 46.13L60.61 54.29L62.7 54.29L62.7 46.13ZM78.85 48.62Q78.25 48.23 77.4 48.23Q76.87 48.23 76.41 48.4Q76.05 48.53 75.76 48.75Q75.68 48.81 75.6 48.88L75.6 46.13L73.51 46.13L73.51 54.29L75.6 54.29L75.6 51.41Q75.6 50.71 75.93 50.36Q76.03 50.24 76.16 50.16Q76.43 50 76.79 50Q77.18 50 77.41 50.19Q77.77 50.48 77.77 51.22L77.77 54.29L79.86 54.29L79.86 50.88Q79.86 49.58 79.21 48.92Q79.2 48.9 79.18 48.89Q79.03 48.74 78.85 48.62ZM44 54.29L44 52.61L39.98 52.61L39.98 51.2L43.39 51.2L43.39 49.57L39.98 49.57L39.98 48.27L43.86 48.27L43.86 46.59L37.82 46.59L37.82 54.29L44 54.29ZM50.45 48.62Q49.85 48.23 49 48.23Q48.42 48.23 47.94 48.43Q47.63 48.55 47.38 48.74Q47.23 48.85 47.1 48.98L47.1 48.33L45.11 48.33L45.11 54.29L47.2 54.29L47.2 51.41Q47.2 50.71 47.53 50.36Q47.63 50.24 47.76 50.16Q48.03 50 48.39 50Q48.77 50 49.01 50.19Q49.37 50.48 49.37 51.22L49.37 54.29L51.46 54.29L51.46 50.88Q51.46 49.58 50.81 48.92Q50.79 48.9 50.78 48.89Q50.63 48.74 50.45 48.62ZM59.27 53.2L59.27 48.33L57.28 48.33L57.28 49.06Q57.13 48.86 56.95 48.71Q56.38 48.23 55.41 48.23Q54.87 48.23 54.4 48.39Q54.16 48.47 53.94 48.59Q53.64 48.75 53.38 48.98Q53.09 49.25 52.88 49.6Q52.81 49.71 52.76 49.82Q52.48 50.39 52.48 51.1Q52.48 51.87 52.79 52.47Q52.83 52.54 52.88 52.62Q53.09 52.96 53.37 53.22Q53.63 53.46 53.94 53.63Q54.16 53.74 54.4 53.82Q54.87 53.98 55.41 53.98Q56.35 53.98 56.92 53.53Q57.06 53.42 57.18 53.28L57.18 53.48Q57.18 54.14 56.85 54.5Q56.82 54.53 56.79 54.56Q56.41 54.92 55.58 54.92Q55.04 54.92 54.49 54.75Q53.93 54.58 53.57 54.28L52.81 55.75Q53.35 56.13 54.12 56.33Q54.89 56.52 55.77 56.52Q57.46 56.52 58.37 55.69Q58.44 55.63 58.51 55.55Q59.27 54.73 59.27 53.2ZM68.74 54.33Q69.2 54.39 69.66 54.39Q70.6 54.39 71.26 54.14Q71.93 53.88 72.27 53.44Q72.44 53.22 72.53 52.97Q72.61 52.72 72.61 52.43Q72.61 51.79 72.29 51.42Q72.27 51.4 72.25 51.37Q72.03 51.13 71.75 50.99Q71.59 50.9 71.41 50.85Q70.93 50.71 70.19 50.6Q69.61 50.51 69.36 50.43Q69.19 50.37 69.13 50.26Q69.1 50.21 69.1 50.14Q69.1 50.09 69.12 50.05Q69.16 49.92 69.33 49.83Q69.57 49.72 70.06 49.72Q70.59 49.72 71.08 49.86Q71.44 49.97 71.78 50.16L72.4 48.74Q71.97 48.49 71.33 48.36Q71.02 48.3 70.69 48.26Q70.37 48.23 70.05 48.23Q69.14 48.23 68.48 48.49Q67.83 48.75 67.49 49.2Q67.33 49.39 67.25 49.62Q67.15 49.89 67.15 50.21Q67.15 50.86 67.47 51.24Q67.49 51.27 67.51 51.29Q67.71 51.5 67.95 51.64Q68.15 51.76 68.37 51.82Q68.87 51.96 69.59 52.05Q70.15 52.13 70.41 52.21Q70.59 52.27 70.65 52.39Q70.67 52.43 70.67 52.49Q70.67 52.56 70.64 52.61Q70.59 52.72 70.45 52.79Q70.24 52.9 69.73 52.9Q69.18 52.9 68.62 52.75Q68.06 52.6 67.65 52.35L67.02 53.77Q67.46 54.05 68.19 54.22Q68.47 54.29 68.74 54.33ZM66.14 48.33L64.05 48.33L64.05 54.29L66.14 54.29L66.14 48.33ZM56.6 52.15Q56.3 52.32 55.9 52.32Q55.52 52.32 55.22 52.17Q55.09 52.09 54.97 51.98Q54.82 51.85 54.73 51.68Q54.59 51.43 54.59 51.1Q54.59 50.76 54.74 50.51Q54.82 50.35 54.96 50.23Q55.05 50.15 55.15 50.09Q55.47 49.89 55.9 49.89Q56.34 49.89 56.65 50.09Q56.75 50.15 56.84 50.23Q56.97 50.35 57.05 50.5Q57.2 50.76 57.2 51.1Q57.2 51.43 57.06 51.68Q56.98 51.85 56.83 51.98Q56.72 52.08 56.6 52.15ZM44 67.29L44 65.61L39.98 65.61L39.98 64.2L43.39 64.2L43.39 62.57L39.98 62.57L39.98 61.27L43.86 61.27L43.86 59.59L37.82 59.59L37.82 67.29L44 67.29ZM75.1 67.3Q75.48 67.22 75.75 67.05L75.23 65.59Q75.16 65.64 75.08 65.67Q74.86 65.78 74.59 65.78Q74.38 65.78 74.24 65.68Q74.18 65.65 74.13 65.6Q74.12 65.58 74.11 65.57Q73.96 65.39 73.96 65.09L73.96 63.11L75.33 63.11L75.33 61.55L73.96 61.55L73.96 60L71.87 60L71.87 61.55L71 61.55L71 63.11L71.87 63.11L71.87 65.12Q71.87 66.14 72.38 66.7Q72.44 66.76 72.5 66.82Q73.13 67.39 74.29 67.39Q74.72 67.39 75.1 67.3ZM56.75 61.43Q56.23 61.23 55.64 61.23Q54.65 61.23 54.08 61.72Q53.97 61.81 53.88 61.92L53.88 61.33L51.89 61.33L51.89 69.43L53.98 69.43L53.98 66.76Q54.11 66.9 54.27 67.01Q54.82 67.39 55.64 67.39Q56.24 67.39 56.76 67.19Q56.94 67.11 57.12 67.01Q57.36 66.88 57.56 66.7Q57.92 66.38 58.17 65.93Q58.56 65.24 58.56 64.31Q58.56 63.39 58.17 62.69Q57.92 62.24 57.55 61.92Q57.35 61.75 57.12 61.61Q56.94 61.51 56.75 61.43ZM65.59 64.84Q65.63 64.34 65.63 64.32Q65.63 63.37 65.2 62.67L65.2 62.67Q64.99 62.32 64.7 62.05Q64.42 61.79 64.05 61.6Q63.98 61.57 63.91 61.53Q63.24 61.23 62.44 61.23Q61.59 61.23 60.9 61.55Q60.83 61.59 60.75 61.63Q60.29 61.87 59.95 62.23Q59.74 62.45 59.58 62.72Q59.48 62.89 59.4 63.07Q59.16 63.63 59.16 64.3Q59.16 64.97 59.41 65.54Q59.49 65.72 59.59 65.9Q59.71 66.09 59.85 66.26Q60.24 66.71 60.82 67Q61.61 67.39 62.66 67.39Q64.08 67.39 64.92 66.69Q65.07 66.57 65.2 66.42L64.1 65.28Q63.78 65.56 63.46 65.68Q63.15 65.8 62.72 65.8Q62.15 65.8 61.77 65.55Q61.63 65.46 61.52 65.33Q61.34 65.13 61.26 64.84L65.59 64.84ZM68.77 61.84Q68.67 61.94 68.59 62.05L68.59 61.33L66.6 61.33L66.6 67.29L68.68 67.29L68.68 64.55Q68.68 63.82 69.05 63.46Q69.06 63.45 69.06 63.44Q69.1 63.41 69.15 63.37Q69.51 63.08 70.12 63.08Q70.3 63.08 70.59 63.11L70.59 61.23Q69.93 61.23 69.41 61.44Q69.04 61.58 68.77 61.84ZM47.8 65.73L48.86 67.29L51.25 67.29L48.97 64.23L51.17 61.33L48.96 61.33L47.86 62.84L46.81 61.33L44.45 61.33L46.65 64.31L44.39 67.29L46.65 67.29L47.8 65.73ZM61.81 62.87Q62.08 62.72 62.45 62.72Q62.82 62.72 63.1 62.88Q63.18 62.93 63.26 62.99Q63.33 63.06 63.39 63.13Q63.6 63.38 63.67 63.74L61.23 63.74Q61.29 63.38 61.5 63.14Q61.56 63.06 61.64 62.99Q61.72 62.93 61.81 62.87ZM55.79 65.59Q55.53 65.73 55.2 65.73Q54.87 65.73 54.61 65.59Q54.44 65.5 54.3 65.35Q54.27 65.32 54.24 65.29Q53.95 64.92 53.95 64.31Q53.95 63.71 54.24 63.34Q54.27 63.3 54.3 63.27Q54.44 63.12 54.61 63.03Q54.87 62.89 55.2 62.89Q55.53 62.89 55.79 63.03Q55.96 63.12 56.1 63.27Q56.13 63.3 56.16 63.34Q56.45 63.71 56.45 64.31Q56.45 64.92 56.16 65.29Q56.13 65.32 56.1 65.35Q55.96 65.5 55.79 65.59Z" fill="#00093C" fill-opacity="1.000000" fill-rule="evenodd"/>
</svg>
