<svg width="39.843262" height="40.000000" viewBox="0 0 39.8433 40" fill="none" xmlns="http://www.w3.org/2000/svg" xmlns:xlink="http://www.w3.org/1999/xlink">
	<desc>
			Created with Pixso.
	</desc>
	<defs>
		<linearGradient x1="0.822754" y1="29.562080" x2="39.002918" y2="29.562080" id="paint_linear_20_27_0" gradientUnits="userSpaceOnUse">
			<stop stop-color="#F7941D"/>
			<stop offset="1.000000" stop-color="#27AAE1"/>
		</linearGradient>
		<linearGradient x1="4.337646" y1="7.806679" x2="23.384586" y2="7.806679" id="paint_linear_20_28_0" gradientUnits="userSpaceOnUse">
			<stop stop-color="#F7941D"/>
			<stop offset="1.000000" stop-color="#27AAE1"/>
		</linearGradient>
		<linearGradient x1="18.572510" y1="10.448721" x2="33.784225" y2="10.448721" id="paint_linear_20_29_0" gradientUnits="userSpaceOnUse">
			<stop stop-color="#F7941D"/>
			<stop offset="1.000000" stop-color="#27AAE1"/>
		</linearGradient>
		<linearGradient x1="0.000000" y1="16.490707" x2="5.994354" y2="16.490707" id="paint_linear_20_30_0" gradientUnits="userSpaceOnUse">
			<stop stop-color="#F7941D"/>
			<stop offset="1.000000" stop-color="#27AAE1"/>
		</linearGradient>
		<linearGradient x1="33.836670" y1="16.491842" x2="39.841858" y2="16.491842" id="paint_linear_20_31_0" gradientUnits="userSpaceOnUse">
			<stop stop-color="#F7941D"/>
			<stop offset="1.000000" stop-color="#27AAE1"/>
		</linearGradient>
		<linearGradient x1="0.030029" y1="22.127180" x2="2.525514" y2="22.127180" id="paint_linear_20_32_0" gradientUnits="userSpaceOnUse">
			<stop stop-color="#F7941D"/>
			<stop offset="1.000000" stop-color="#27AAE1"/>
		</linearGradient>
		<linearGradient x1="37.336426" y1="22.127956" x2="39.843166" y2="22.127956" id="paint_linear_20_33_0" gradientUnits="userSpaceOnUse">
			<stop stop-color="#F7941D"/>
			<stop offset="1.000000" stop-color="#27AAE1"/>
		</linearGradient>
	</defs>
	<path id="path" d="M19.96 38.29C20.86 35.58 22.73 34.77 24.58 33.92C26.79 32.89 27.15 32.32 25.67 30.37C24.05 28.24 24.36 25.93 24.32 23.66C24.28 20.94 26.56 19.04 29.35 19.12C31.78 19.2 33.88 21.48 33.79 24.04C33.7 26.35 33.88 28.69 32.17 30.69C30.97 32.09 31.63 33.16 33.28 33.78C35.03 34.43 36.89 34.94 38.08 36.55C38.68 37.37 39.3 38.31 38.83 39.33C38.37 40.33 37.29 39.9 36.48 39.91C25.35 39.93 14.23 39.93 3.11 39.92C0.76 39.92 0.3 39.13 1.36 37.04C2.22 35.36 3.84 34.7 5.41 33.97C7.7 32.89 8.08 32.35 6.61 30.46C4.96 28.33 5.28 26.02 5.22 23.74C5.16 21.01 7.34 19.11 10.18 19.13C12.57 19.14 14.78 21.43 14.68 23.96C14.59 26.26 14.84 28.61 13.12 30.61C11.83 32.11 12.56 33.2 14.31 33.82C16.49 34.59 18.7 35.36 19.96 38.29Z" fill="url(#paint_linear_20_27_0)" fill-opacity="1.000000" fill-rule="nonzero"/>
	<path id="path" d="M13.91 0C19.36 0.02 23.36 3.3 23.38 7.74C23.4 12.16 19.36 15.54 13.98 15.61C12.37 15.63 10.81 15.35 9.33 14.74C6.44 13.56 4.46 11.57 4.34 8.3C4.21 4.93 5.92 2.54 8.87 1.04C10.44 0.25 12.15 -0.04 13.91 0Z" fill="url(#paint_linear_20_28_0)" fill-opacity="1.000000" fill-rule="nonzero"/>
	<path id="path" d="M18.57 16.76C25.34 12.34 26.37 9.55 23.88 2.91C27.16 1.83 32.63 4.72 33.55 8.46C34.49 12.28 32.54 15.9 28.38 17.44C25.09 18.66 21.89 18.42 18.57 16.76Z" fill="url(#paint_linear_20_29_0)" fill-opacity="1.000000" fill-rule="nonzero"/>
	<path id="path" d="M2.66 19.07C1.36 18.87 0.12 18.26 0 16.51C-0.1 15.07 1.41 13.81 3.08 13.91C4.66 14.01 5.85 14.73 5.98 16.46C6.1 17.89 4.58 19.11 2.66 19.07Z" fill="url(#paint_linear_20_30_0)" fill-opacity="1.000000" fill-rule="nonzero"/>
	<path id="path" d="M36.57 19.07C35.26 18.9 34.02 18.3 33.84 16.57C33.7 15.13 35.18 13.84 36.85 13.91C38.45 13.97 39.64 14.68 39.83 16.4C39.99 17.82 38.49 19.08 36.57 19.07Z" fill="url(#paint_linear_20_31_0)" fill-opacity="1.000000" fill-rule="nonzero"/>
	<path id="path" d="M2.52 21.91C2.5 22.76 2.11 23.27 1.41 23.35C0.59 23.45 0.05 22.95 0.03 22.12C0.01 21.4 0.48 20.93 1.21 20.88C1.97 20.83 2.31 21.37 2.52 21.91Z" fill="url(#paint_linear_20_32_0)" fill-opacity="1.000000" fill-rule="nonzero"/>
	<path id="path" d="M39.84 22.18C39.7 22.88 39.3 23.38 38.57 23.36C37.74 23.34 37.25 22.79 37.34 21.97C37.43 21.27 37.94 20.81 38.68 20.89C39.4 20.96 39.78 21.45 39.84 22.18Z" fill="url(#paint_linear_20_33_0)" fill-opacity="1.000000" fill-rule="nonzero"/>
</svg>
