<svg width="32.558105" height="40.000000" viewBox="0 0 32.5581 40" fill="none" xmlns="http://www.w3.org/2000/svg" xmlns:xlink="http://www.w3.org/1999/xlink">
	<desc>
			Created with Pixso.
	</desc>
	<defs>
		<linearGradient x1="1.731934" y1="21.301662" x2="20.922945" y2="21.301662" id="paint_linear_20_44_0" gradientUnits="userSpaceOnUse">
			<stop stop-color="#F7941D"/>
			<stop offset="1.000000" stop-color="#27AAE1"/>
		</linearGradient>
		<linearGradient x1="13.955322" y1="11.099855" x2="29.097601" y2="11.099855" id="paint_linear_20_45_0" gradientUnits="userSpaceOnUse">
			<stop stop-color="#F7941D"/>
			<stop offset="1.000000" stop-color="#27AAE1"/>
		</linearGradient>
		<linearGradient x1="0.000000" y1="31.612141" x2="30.875275" y2="31.612141" id="paint_linear_20_46_0" gradientUnits="userSpaceOnUse">
			<stop stop-color="#F7941D"/>
			<stop offset="1.000000" stop-color="#27AAE1"/>
		</linearGradient>
		<linearGradient x1="17.928467" y1="7.361095" x2="32.558174" y2="7.361095" id="paint_linear_20_47_0" gradientUnits="userSpaceOnUse">
			<stop stop-color="#F7941D"/>
			<stop offset="1.000000" stop-color="#27AAE1"/>
		</linearGradient>
	</defs>
	<path id="path" d="M20.92 19.96C20.91 20.5 20.51 20.7 20.18 20.92C15.91 23.81 11.75 26.84 7.95 30.33C7.8 30.47 7.63 30.63 7.44 30.67C4.7 31.28 3.96 28.69 2.43 27.43C1.33 26.53 1.63 25.37 2.57 24.36C5.86 20.84 8.67 16.94 11.37 12.97C12.26 11.67 12.81 11.2 13.51 13.11C14.59 16.03 16.7 18.01 19.59 19.18C20.07 19.37 20.7 19.37 20.92 19.96Z" fill="url(#paint_linear_20_44_0)" fill-opacity="1.000000" fill-rule="nonzero"/>
	<path id="path" d="M23.72 18.62C16.09 18.51 11.72 10.94 15.11 4.84C15.89 3.44 16.54 3.04 17.84 4.38C21.27 7.94 24.79 11.42 28.32 14.87C29.41 15.94 29.38 16.61 28.03 17.36C26.49 18.21 24.88 18.7 23.72 18.62Z" fill="url(#paint_linear_20_45_0)" fill-opacity="1.000000" fill-rule="nonzero"/>
	<path id="path" d="M30.86 29.26C30.95 30.55 30.52 31.87 29.57 32.91C27.76 34.89 25.85 36.76 23.97 38.66C23.51 39.13 22.93 39.46 22.34 38.95C21.65 38.36 21.97 37.68 22.47 37.15C23.89 35.66 25.36 34.23 26.8 32.75C28.92 30.58 29.23 28.21 27.63 26.6C25.96 24.91 23.52 25.17 21.3 27.36C17.78 30.83 14.3 34.34 10.81 37.84C9.33 39.32 7.61 40.16 5.46 39.97C3.14 39.75 1.44 38.59 0.53 36.46C-0.36 34.43 -0.14 32.43 1.19 30.62C1.57 30.11 1.93 29.31 2.8 29.8C3.65 30.29 3.51 30.93 3.08 31.72C1.85 34.01 2.1 35.89 3.68 37.06C5.28 38.24 7.55 37.96 9.27 36.27C12.94 32.66 16.53 28.97 20.22 25.39C22.91 22.77 26.17 22.53 28.75 24.62C30.18 25.77 30.88 27.27 30.86 29.26Z" fill="url(#paint_linear_20_46_0)" fill-opacity="1.000000" fill-rule="nonzero"/>
	<path id="path" d="M32.55 9.55C32.52 9.91 32.54 10.47 32.43 11C32.14 12.42 31.91 14.17 30.53 14.66C29.45 15.04 28.72 13.44 27.93 12.66C24.83 9.64 21.83 6.53 18.72 3.53C17.49 2.33 17.73 1.72 19.15 1C25.25 -2.12 32.57 2.42 32.55 9.55Z" fill="url(#paint_linear_20_47_0)" fill-opacity="1.000000" fill-rule="nonzero"/>
</svg>
