<svg width="51.273926" height="40.000000" viewBox="0 0 51.2739 40" fill="none" xmlns="http://www.w3.org/2000/svg" xmlns:xlink="http://www.w3.org/1999/xlink">
	<desc>
			Created with Pixso.
	</desc>
	<defs>
		<linearGradient x1="13.335938" y1="21.963486" x2="43.298454" y2="21.963486" id="paint_linear_20_51_0" gradientUnits="userSpaceOnUse">
			<stop stop-color="#F7941D"/>
			<stop offset="1.000000" stop-color="#27AAE1"/>
		</linearGradient>
		<linearGradient x1="8.183838" y1="18.238249" x2="26.767241" y2="18.238249" id="paint_linear_20_52_0" gradientUnits="userSpaceOnUse">
			<stop stop-color="#F7941D"/>
			<stop offset="1.000000" stop-color="#27AAE1"/>
		</linearGradient>
		<linearGradient x1="0.000244" y1="18.281284" x2="15.986001" y2="18.281284" id="paint_linear_20_53_0" gradientUnits="userSpaceOnUse">
			<stop stop-color="#F7941D"/>
			<stop offset="1.000000" stop-color="#27AAE1"/>
		</linearGradient>
		<linearGradient x1="43.360596" y1="24.889921" x2="51.273754" y2="24.889921" id="paint_linear_20_54_0" gradientUnits="userSpaceOnUse">
			<stop stop-color="#F7941D"/>
			<stop offset="1.000000" stop-color="#27AAE1"/>
		</linearGradient>
		<linearGradient x1="2.952148" y1="35.838638" x2="10.029736" y2="35.838638" id="paint_linear_20_55_0" gradientUnits="userSpaceOnUse">
			<stop stop-color="#F7941D"/>
			<stop offset="1.000000" stop-color="#27AAE1"/>
		</linearGradient>
		<linearGradient x1="23.352051" y1="2.566243" x2="28.882626" y2="2.566243" id="paint_linear_20_56_0" gradientUnits="userSpaceOnUse">
			<stop stop-color="#F7941D"/>
			<stop offset="1.000000" stop-color="#27AAE1"/>
		</linearGradient>
	</defs>
	<path id="path" d="M43.13 30.66C43.69 32.03 42.78 32.5 41.33 32.77C39.11 33.19 36.93 33.78 34.73 34.24C32.23 34.78 29.86 34.27 27.65 33.05C23.71 30.85 19.8 28.6 15.85 26.44C13.86 25.35 12.75 23.82 13.64 21.6C14.55 19.34 16.49 19.16 18.61 19.75C21.24 20.47 23.88 21.15 26.5 21.87C27.53 22.15 28.53 22.12 28.74 20.94C28.92 19.94 27.77 19.89 27.17 19.83C23.9 19.5 24.26 18.1 25.74 15.95C26.9 14.26 27.78 12.35 28.65 10.48C29.19 9.34 29.7 9.19 30.76 9.88C33.76 11.82 36.8 13.69 39.86 15.53C40.76 16.08 41.1 16.79 41.24 17.81C41.82 22 42.47 26.17 43.13 30.66Z" fill="url(#paint_linear_20_51_0)" fill-opacity="1.000000" fill-rule="nonzero"/>
	<path id="path" d="M11.11 23.16C11.09 24.64 11.82 26.31 13.43 27.29C15.4 28.49 14.13 29.42 13.37 30.36C12.6 31.3 12.29 33.13 10.22 31.74C8.49 30.57 7.37 29.84 8.91 27.55C9.91 26.07 10.29 24.06 10.58 22.22C11.71 15.03 17.06 10.35 20.77 4.7C21.29 3.9 21.86 4.3 22.47 4.57C27.53 6.79 27.69 7.23 25.16 12.03C24.81 12.7 24.39 13.33 24.1 14.02C22.91 16.86 21.51 18.46 17.84 17.17C14.36 15.94 11.08 19.01 11.11 23.16Z" fill="url(#paint_linear_20_52_0)" fill-opacity="1.000000" fill-rule="nonzero"/>
	<path id="path" d="M15.98 7.13C13.66 10.8 11.75 14.14 9.48 17.2C8.73 18.21 8.47 19.04 8.4 20.17C8.26 22.43 7.74 24.63 6.96 26.76C6.21 28.81 4.7 29.91 2.57 29.21C0.49 28.53 -0.49 26.52 0.23 24.67C2.2 19.5 4.58 14.48 6.82 9.41C7.1 8.79 7.67 8.41 8.36 8.3C10.75 7.93 13.13 7.57 15.98 7.13Z" fill="url(#paint_linear_20_53_0)" fill-opacity="1.000000" fill-rule="nonzero"/>
	<path id="path" d="M43.36 16.69C43.26 14.34 45.32 15.28 46.4 14.86C47.36 14.48 48.37 14.41 48.6 16.04C49.4 21.71 50.29 27.38 51.22 33.03C51.55 35.01 49.98 34.62 49.08 34.76C47.96 34.94 46.31 35.93 45.96 33.74C45.07 28.07 44.23 22.4 43.36 16.69Z" fill="url(#paint_linear_20_54_0)" fill-opacity="1.000000" fill-rule="nonzero"/>
	<path id="path" d="M10.02 34.63C8.59 37 5.73 37.65 4.1 39.73C3.85 40.05 3.42 40.1 3.14 39.75C3 39.57 2.88 39.16 2.99 39.01C4.22 37.3 3.78 35.2 4.27 33.32C4.76 31.42 5.48 31.25 6.91 32.36C7.92 33.16 9.24 33.55 10.02 34.63Z" fill="url(#paint_linear_20_55_0)" fill-opacity="1.000000" fill-rule="nonzero"/>
	<path id="path" d="M28.86 3C28.6 3.74 29.14 4.94 27.76 5.13C27.17 5.21 23.15 2.28 23.35 2.01C24.21 0.85 25.38 0.01 26.85 0C28.82 -0.02 28.93 1.45 28.86 3Z" fill="url(#paint_linear_20_56_0)" fill-opacity="1.000000" fill-rule="nonzero"/>
</svg>
