<svg width="455.189941" height="244.256531" viewBox="0 0 455.19 244.257" fill="none" xmlns="http://www.w3.org/2000/svg" xmlns:xlink="http://www.w3.org/1999/xlink">
	<desc>
			Created with Pixso.
	</desc>
	<defs>
		<linearGradient x1="302.518066" y1="60.239990" x2="1.000122" y2="60.239990" id="paint_linear_88_6041_0" gradientUnits="userSpaceOnUse">
			<stop stop-color="#F7941D"/>
			<stop offset="1.000000" stop-color="#27AAE1"/>
		</linearGradient>
	</defs>
	<mask id="mask_88_6041" fill="white">
		<path id="Union" d="M21 1L282.518 1C293.564 1 302.518 9.95431 302.518 21L302.518 75.7872C302.518 86.1891 294.577 94.7362 284.427 95.6973L284.427 117.476C284.427 119.154 282.487 120.086 281.177 119.038L252.122 95.7872L21 95.7872C9.95435 95.7872 1 86.8329 1 75.7872L1 21C1 9.95431 9.95435 1 21 1Z" clip-rule="evenodd" fill="" fill-opacity="1.000000" fill-rule="evenodd"/>
	</mask>
	<path id="Union" d="M21 1L282.518 1C293.564 1 302.518 9.95431 302.518 21L302.518 75.7872C302.518 86.1891 294.577 94.7362 284.427 95.6973L284.427 117.476C284.427 119.154 282.487 120.086 281.177 119.038L252.122 95.7872L21 95.7872C9.95435 95.7872 1 86.8329 1 75.7872L1 21C1 9.95431 9.95435 1 21 1Z" clip-rule="evenodd" fill="#FFFFFF" fill-opacity="1.000000" fill-rule="evenodd" mask="url(#mask_88_6041)"/>
	<path id="Union" d="M21 2L282.518 2Q290.388 2 295.953 7.56497Q301.518 13.1299 301.518 21L301.518 75.7872Q301.518 83.1669 296.541 88.6076Q291.595 94.014 284.333 94.7018L283.427 94.7875L283.427 117.476Q283.427 118.105 282.86 118.378Q282.293 118.65 281.802 118.257L252.472 94.7872L21 94.7872Q13.1299 94.7872 7.56494 89.2223Q2 83.6572 2 75.7872L2 21Q2.00024 13.1301 7.56494 7.56497Q13.1299 2 21 2L21 2ZM21 0Q12.3015 -1.90735e-06 6.15088 6.15076Q0 12.3017 0 21L0 75.7872Q0 84.4855 6.15088 90.6365Q12.3015 96.7872 21 96.7872L252.122 96.7872L252.122 95.7872L251.497 96.568L280.552 119.819Q282.026 120.998 283.726 120.18Q285.427 119.363 285.427 117.476L285.427 95.6973L284.427 95.6973L284.521 96.6929Q292.551 95.9326 298.017 89.9575Q303.518 83.9437 303.518 75.7872L303.518 21Q303.518 12.3015 297.367 6.15076Q291.217 1.90735e-06 282.518 1.90735e-06L21 1.90735e-06L21 0Z" fill="url(#paint_linear_88_6041_0)" fill-opacity="1.000000" fill-rule="nonzero"/>
	<path id="1 занятие бесплатное" d="M155.08 45.93Q153.81 45.31 152.24 45.31Q150.75 45.31 149.54 45.88Q149.43 45.93 149.33 45.99Q148.73 46.3 148.23 46.73Q147.66 47.22 147.22 47.88Q147.39 45.41 148.61 44.09Q149.83 42.77 152.33 42.21L157.69 41.07L157.35 38.95L151.54 40.25Q148.62 40.88 147.02 42.69Q146.81 42.93 146.62 43.19Q145.01 45.41 145.01 49.32Q145.01 53.35 146.78 55.57Q147.35 56.3 148.09 56.79Q149.6 57.79 151.78 57.79Q153.7 57.79 155.2 57Q156.11 56.52 156.77 55.81Q157.2 55.35 157.53 54.78Q157.61 54.64 157.69 54.49Q158.35 53.16 158.35 51.51Q158.35 49.8 157.66 48.45Q157.62 48.38 157.57 48.3Q157.18 47.59 156.62 47.03Q156.09 46.49 155.4 46.11Q155.24 46.01 155.08 45.93ZM26.31 57.6L26.31 40.8L20.14 40.8L20.14 42.89L23.93 42.89L23.93 57.6L26.31 57.6ZM46.37 52.06Q45.68 51.31 44.4 50.98Q45.46 50.59 46.08 49.85Q46.45 49.42 46.6 48.92Q46.71 48.56 46.71 48.17Q46.71 47.75 46.59 47.38Q46.42 46.84 46.01 46.37Q45.31 45.58 44.09 45.14Q42.87 44.71 41.33 44.71Q40.35 44.71 39.41 44.88Q37.89 45.16 36.46 45.89L37.08 47.66Q39.2 46.68 41.09 46.68Q42.58 46.68 43.45 47.16Q44.01 47.47 44.21 47.93Q44.33 48.19 44.33 48.51Q44.33 48.82 44.21 49.08Q44.04 49.48 43.59 49.76Q42.84 50.21 41.55 50.21L39.39 50.21L39.39 51.86L41.72 51.86Q43.13 51.86 43.91 52.35Q44.33 52.61 44.53 52.98Q44.69 53.3 44.69 53.71Q44.69 54.04 44.58 54.32Q44.36 54.87 43.72 55.24Q42.75 55.8 41.11 55.8Q40.87 55.8 40.63 55.79Q39.68 55.74 38.74 55.48Q37.56 55.15 36.65 54.58L35.96 56.33Q37.01 57.03 38.37 57.4Q39 57.57 39.64 57.67Q40.38 57.77 41.14 57.77Q42.82 57.77 44.17 57.28Q45.53 56.79 46.3 55.91Q46.73 55.42 46.92 54.84Q47.07 54.4 47.07 53.9Q47.07 53.2 46.78 52.64Q46.62 52.33 46.37 52.06ZM59.15 46.06Q57.75 44.76 55.11 44.76Q53.57 44.76 52.2 45.19Q50.84 45.6 49.85 46.39L50.81 48.12Q51.56 47.5 52.63 47.13Q53.37 46.88 54.12 46.79Q54.48 46.76 54.84 46.76Q56.53 46.76 57.39 47.55Q57.53 47.67 57.64 47.82Q58.25 48.58 58.25 49.83L58.25 50.28L54.6 50.28Q51.94 50.28 50.72 51.3Q50.2 51.74 49.9 52.29Q49.49 53.04 49.49 54Q49.49 54.88 49.84 55.58Q50.16 56.22 50.78 56.72Q52.06 57.75 54.2 57.75Q55.66 57.75 56.72 57.28Q57.57 56.91 58.11 56.28Q58.25 56.11 58.37 55.92L58.37 57.6L60.56 57.6L60.56 49.92Q60.56 47.59 59.4 46.31Q59.28 46.18 59.15 46.06ZM135.68 52.01Q135.72 51.58 135.72 51.31Q135.72 49.41 134.93 47.93Q134.92 47.92 134.92 47.9Q134.45 47.04 133.77 46.4Q133.28 45.94 132.68 45.59Q132.49 45.48 132.29 45.38Q131.01 44.76 129.44 44.76Q127.92 44.76 126.65 45.34Q126.4 45.45 126.16 45.59Q125.55 45.94 125.05 46.4Q124.36 47.04 123.88 47.9Q123.73 48.16 123.61 48.43Q123.05 49.71 123.05 51.24Q123.05 52.78 123.62 54.06Q123.75 54.34 123.9 54.6Q124.25 55.2 124.71 55.7Q125.39 56.43 126.31 56.92Q127.87 57.75 129.89 57.75Q131.48 57.75 132.76 57.22Q133.68 56.84 134.38 56.22Q134.66 55.97 134.9 55.68L133.63 54.19Q133.13 54.74 132.52 55.1Q131.42 55.73 129.96 55.73Q128.44 55.73 127.32 55.06Q127.07 54.9 126.83 54.71Q126.29 54.27 125.94 53.72Q125.48 52.97 125.35 52.01L135.68 52.01ZM173.09 52.01Q173.14 51.58 173.14 51.31Q173.14 49.41 172.35 47.93Q172.34 47.92 172.33 47.9Q171.87 47.04 171.19 46.4Q170.7 45.94 170.1 45.59Q169.9 45.48 169.7 45.38Q168.43 44.76 166.85 44.76Q165.33 44.76 164.07 45.34Q163.82 45.45 163.57 45.59Q162.96 45.94 162.46 46.4Q161.78 47.04 161.29 47.9Q161.15 48.16 161.03 48.43Q160.47 49.71 160.47 51.24Q160.47 52.78 161.04 54.06Q161.16 54.34 161.32 54.6Q161.66 55.2 162.13 55.7Q162.8 56.43 163.73 56.92Q165.29 57.75 167.3 57.75Q168.89 57.75 170.18 57.22Q171.09 56.84 171.79 56.22Q172.07 55.97 172.32 55.68L171.05 54.19Q170.55 54.74 169.94 55.1Q168.84 55.73 167.38 55.73Q165.86 55.73 164.74 55.06Q164.48 54.9 164.25 54.71Q163.71 54.27 163.36 53.72Q162.89 52.97 162.77 52.01L173.09 52.01ZM179 57.02Q180.45 57.75 182.26 57.75Q183.99 57.75 185.34 57.04Q186.07 56.66 186.63 56.1Q187.1 55.62 187.45 55.01L185.69 53.9Q185.19 54.67 184.48 55.12Q184.34 55.2 184.2 55.28Q184.06 55.35 183.92 55.4Q183.15 55.73 182.24 55.73Q181.17 55.73 180.28 55.33Q180.13 55.26 179.99 55.18Q179.57 54.95 179.22 54.63Q178.75 54.19 178.43 53.61Q177.86 52.59 177.86 51.24Q177.86 49.94 178.41 48.93Q178.42 48.91 178.43 48.9Q178.76 48.31 179.24 47.87Q179.58 47.56 179.99 47.33Q180.13 47.25 180.28 47.18Q181.17 46.78 182.24 46.78Q183.15 46.78 183.92 47.11Q184.06 47.17 184.2 47.24Q184.34 47.31 184.47 47.39Q185.18 47.83 185.69 48.6L187.45 47.47Q187.09 46.84 186.59 46.35Q186.05 45.82 185.34 45.46Q183.99 44.76 182.26 44.76Q180.4 44.76 178.93 45.51Q178.86 45.55 178.79 45.59Q177.97 46.04 177.33 46.68Q176.8 47.22 176.4 47.89Q176.25 48.14 176.13 48.41Q175.54 49.69 175.54 51.24Q175.54 52.77 176.12 54.04Q176.24 54.32 176.4 54.59Q176.78 55.24 177.29 55.77Q177.94 56.44 178.79 56.91Q178.89 56.97 179 57.02ZM230.63 46.06Q229.23 44.76 226.59 44.76Q225.05 44.76 223.68 45.19Q222.32 45.6 221.33 46.39L222.29 48.12Q223.04 47.5 224.12 47.13Q224.85 46.88 225.6 46.79Q225.96 46.76 226.32 46.76Q228.01 46.76 228.87 47.55Q229.01 47.67 229.13 47.82Q229.73 48.58 229.73 49.83L229.73 50.28L226.08 50.28Q223.42 50.28 222.2 51.3Q221.68 51.74 221.38 52.29Q220.97 53.04 220.97 54Q220.97 54.88 221.32 55.58Q221.64 56.22 222.26 56.72Q223.54 57.75 225.68 57.75Q227.14 57.75 228.2 57.28Q229.05 56.91 229.59 56.28Q229.73 56.11 229.85 55.92L229.85 57.6L232.04 57.6L232.04 49.92Q232.04 47.59 230.88 46.31Q230.76 46.18 230.63 46.06ZM266.83 57.13Q268.18 57.75 269.81 57.75Q271.46 57.75 272.8 57.12Q273.01 57.02 273.21 56.91Q274.01 56.46 274.63 55.82Q275.16 55.27 275.56 54.59Q275.7 54.34 275.82 54.07Q276.41 52.79 276.41 51.24Q276.41 49.67 275.81 48.38Q275.69 48.13 275.56 47.89Q275.15 47.18 274.59 46.62Q273.98 46.02 273.21 45.59Q273.04 45.5 272.87 45.41Q271.49 44.76 269.81 44.76Q268.14 44.76 266.76 45.41Q266.58 45.49 266.4 45.59Q265.6 46.03 264.98 46.65Q264.44 47.2 264.04 47.89Q263.91 48.12 263.8 48.35Q263.19 49.65 263.19 51.24Q263.19 52.81 263.78 54.1Q263.9 54.35 264.04 54.59Q264.42 55.25 264.94 55.79Q265.57 56.44 266.4 56.91Q266.61 57.03 266.83 57.13ZM291.2 52.01Q291.24 51.58 291.24 51.31Q291.24 49.41 290.45 47.93Q290.44 47.92 290.44 47.9Q289.97 47.04 289.29 46.4Q288.8 45.94 288.2 45.59Q288.01 45.48 287.81 45.38Q286.53 44.76 284.96 44.76Q283.44 44.76 282.17 45.34Q281.92 45.45 281.68 45.59Q281.07 45.94 280.57 46.4Q279.88 47.04 279.4 47.9Q279.25 48.16 279.13 48.43Q278.57 49.71 278.57 51.24Q278.57 52.78 279.14 54.06Q279.27 54.34 279.42 54.6Q279.77 55.2 280.23 55.7Q280.91 56.43 281.83 56.92Q283.39 57.75 285.41 57.75Q287 57.75 288.28 57.22Q289.2 56.84 289.9 56.22Q290.18 55.97 290.42 55.68L289.15 54.19Q288.65 54.74 288.04 55.1Q286.95 55.73 285.48 55.73Q283.96 55.73 282.84 55.06Q282.59 54.9 282.35 54.71Q281.81 54.27 281.46 53.72Q281 52.97 280.87 52.01L291.2 52.01ZM67.01 44.88L64.71 44.88L64.71 57.6L67.01 57.6L67.01 52.28L74.26 52.28L74.26 57.6L76.56 57.6L76.56 44.88L74.26 44.88L74.26 50.28L67.01 50.28L67.01 44.88ZM91.25 57.6L91.25 44.88L85.68 44.88Q83.07 44.88 81.58 46.02Q81.12 46.37 80.8 46.82Q80.09 47.83 80.09 49.35Q80.09 50.66 80.69 51.59Q80.77 51.71 80.86 51.83Q80.9 51.89 80.95 51.94Q81.71 52.85 83.07 53.26L79.97 57.6L82.44 57.6L85.23 53.57L89.18 53.57L89.18 57.6L91.25 57.6ZM100.56 46.9L105.22 46.9L105.22 44.88L93.6 44.88L93.6 46.9L98.26 46.9L98.26 57.6L100.56 57.6L100.56 46.9ZM109.88 44.88L107.57 44.88L107.57 57.6L109.68 57.6L117.46 48.34L117.46 57.6L119.77 57.6L119.77 44.88L117.67 44.88L109.88 54.14L109.88 44.88ZM202.2 57.6L202.2 44.88L190.42 44.88L190.42 57.6L192.72 57.6L192.72 46.9L199.9 46.9L199.9 57.6L202.2 57.6ZM217.59 57.6L217.59 44.88L207.82 44.88L207.61 49.59Q207.48 51.72 207.34 52.87Q207.2 54.03 206.72 54.86Q206.47 55.29 206.11 55.5Q205.75 55.7 205.27 55.7Q205.01 55.7 204.7 55.63L204.55 57.58Q205.35 57.79 205.97 57.79Q206.77 57.79 207.36 57.45Q207.79 57.2 208.11 56.76Q208.88 55.73 209.21 54.02Q209.55 52.3 209.67 49.73L209.82 46.9L215.28 46.9L215.28 57.6L217.59 57.6ZM241.01 46.9L245.67 46.9L245.67 44.88L234.05 44.88L234.05 46.9L238.71 46.9L238.71 57.6L241.01 57.6L241.01 46.9ZM250.32 44.88L248.02 44.88L248.02 57.6L250.32 57.6L250.32 52.28L257.57 52.28L257.57 57.6L259.87 57.6L259.87 44.88L257.57 44.88L257.57 50.28L250.32 50.28L250.32 44.88ZM127.42 47.17Q128.3 46.7 129.44 46.7Q130.53 46.7 131.39 47.15Q131.83 47.38 132.2 47.73Q132.61 48.1 132.9 48.55Q133.39 49.33 133.52 50.35L125.35 50.35Q125.49 49.24 126.05 48.41Q126.31 48.03 126.66 47.71Q127.01 47.39 127.42 47.17ZM164.84 47.17Q165.72 46.7 166.85 46.7Q167.95 46.7 168.81 47.15Q169.24 47.38 169.62 47.73Q170.03 48.1 170.31 48.55Q170.81 49.33 170.93 50.35L162.77 50.35Q162.9 49.24 163.46 48.41Q163.72 48.03 164.08 47.71Q164.43 47.39 164.84 47.17ZM282.94 47.17Q283.82 46.7 284.96 46.7Q286.05 46.7 286.91 47.15Q287.35 47.38 287.72 47.73Q288.13 48.1 288.42 48.55Q288.91 49.33 289.04 50.35L280.87 50.35Q281.01 49.24 281.57 48.41Q281.83 48.03 282.18 47.71Q282.53 47.39 282.94 47.17ZM271.6 55.38Q270.78 55.73 269.81 55.73Q268.82 55.73 267.99 55.36Q267.8 55.28 267.62 55.17Q267.25 54.96 266.95 54.68Q266.43 54.22 266.07 53.58Q266.06 53.55 266.04 53.52Q265.51 52.52 265.51 51.24Q265.51 49.94 266.06 48.93Q266.07 48.91 266.07 48.9Q266.44 48.24 266.98 47.78Q267.27 47.52 267.62 47.33Q267.77 47.24 267.93 47.17Q268.78 46.78 269.81 46.78Q270.82 46.78 271.66 47.15Q271.83 47.23 272.01 47.33Q272.38 47.54 272.69 47.82Q273.19 48.27 273.53 48.9Q274.09 49.92 274.09 51.24Q274.09 52.55 273.54 53.56Q273.54 53.57 273.53 53.58Q273.2 54.19 272.72 54.64Q272.4 54.94 272.01 55.17Q271.81 55.28 271.6 55.38ZM82.92 50.99Q82.44 50.4 82.44 49.42Q82.44 48.49 82.88 47.91Q83.65 46.9 85.76 46.9L89.18 46.9L89.18 51.91L85.66 51.91Q84.05 51.91 83.24 51.3Q83.06 51.16 82.92 50.99ZM153.79 55.44Q152.92 55.87 151.83 55.87Q150.87 55.87 150.06 55.52Q149.86 55.43 149.66 55.32Q149.23 55.07 148.87 54.73Q148.46 54.32 148.16 53.8Q148.13 53.74 148.1 53.68Q147.63 52.75 147.63 51.58Q147.63 50.17 148.27 49.18Q148.49 48.83 148.79 48.53Q149.12 48.21 149.5 47.97Q150.48 47.38 151.83 47.38Q153.2 47.38 154.18 48Q154.54 48.22 154.85 48.53Q155.14 48.82 155.35 49.15Q156 50.15 156 51.58Q156 52.79 155.51 53.74Q155.49 53.77 155.48 53.8Q155.2 54.31 154.8 54.71Q154.45 55.06 154 55.32Q153.89 55.38 153.79 55.44ZM56.86 55.38Q55.9 55.97 54.58 55.97Q53.26 55.97 52.52 55.42Q52.18 55.17 52 54.83Q51.77 54.43 51.77 53.9Q51.77 53.29 52.06 52.87Q52.68 51.94 54.7 51.94L58.25 51.94L58.25 53.71Q58 54.35 57.56 54.82Q57.25 55.14 56.86 55.38ZM228.34 55.38Q227.38 55.97 226.06 55.97Q224.74 55.97 224 55.42Q223.66 55.17 223.48 54.83Q223.25 54.43 223.25 53.9Q223.25 53.29 223.54 52.87Q224.17 51.94 226.18 51.94L229.73 51.94L229.73 53.71Q229.48 54.35 229.04 54.82Q228.73 55.14 228.34 55.38Z" fill="#000000" fill-opacity="1.000000" fill-rule="evenodd"/>
	<path id="baseLayer" d="M326.5 174.6C314.55 174.04 303.54 173.58 294.77 169.28C283.86 163.91 274.95 149.09 281.97 134.23C290.21 116.75 306.23 107.2 325.7 100.38C325.46 91.92 327.78 85.05 331.03 78.38C337.05 66.07 343.43 53.67 359.02 49.37C364.7 47.79 371.21 47.72 368.89 54.68C363.37 68.15 342.52 72.89 340.63 89.02C340.07 93.68 340.81 98.08 342.23 101.59C345.13 105.92 346.89 100.09 348.63 97.48C350.23 95.06 351.67 93.39 352.63 91.92C355.29 87.85 357.21 83.36 359.82 80.07C363.34 75.67 369.88 71.75 374.76 68.71C380.44 65.18 386.27 61.77 393.95 61.94C394.97 63.12 395.9 64.36 395.82 66.53C393.63 76.69 380.49 77.14 373.16 82.73C367.02 87.4 363.5 93.37 359.56 102.07C358.68 103.69 361.77 107.73 363.02 109.08C365.1 111.35 368.65 112.59 371.29 114.64C373.42 116.31 375.61 118.51 377.96 120.45C380.25 122.33 382.81 124.48 384.35 126.49C388.09 131.35 392.06 139.28 390.22 149.46C389.71 152.28 386.25 157.58 384.35 159.61C379.5 164.86 368.41 169.28 359.82 171.7C349.43 174.62 338.17 175.16 326.5 174.6ZM445.36 208.23C443.07 208.23 436.83 207.99 433.5 208.79C433.02 202.21 431.39 195.85 428.32 189.86C425.39 184.13 421.31 178.78 415.52 173.08C415.52 172.86 415.52 172.64 415.52 172.4C414.51 170.76 413.07 169.47 411.52 168.29C411.31 168.34 411.12 168.39 410.91 168.41C407.5 165.39 403.77 162.27 399.26 159.9C399.26 159.73 399.29 159.56 399.29 159.37C396.59 158.11 394.43 156.37 391.29 155.5C389.69 158.47 387.95 161.55 385.42 163.48C380.3 167.42 372.6 170.9 364.62 173.63C350.87 178.35 335.8 178.78 319.56 177.26C314.92 185.99 316.1 199.43 317.7 210.14C319.35 221.21 321.54 231.97 327.83 237.94C329.77 235.16 331.59 231.39 333.96 227.06C335.45 224.31 338.68 216.43 343.03 218.12C343.93 221.87 341.37 228.8 344.09 232.38C346.55 227.11 349.91 222.66 356.89 221.5C356.65 217.22 358.04 215.1 359.02 211.59C362.04 200.71 365.88 193.34 373.16 187.17C374.84 185.75 379.05 183.01 381.16 186.2C380.3 187.8 378.28 187.61 376.89 188.38C375.05 189.42 372.62 192.06 370.76 194.18C364.73 201.1 360.92 213.69 361.16 223.44C358.62 225.56 354.23 224.4 352.09 226.82C351.13 227.91 349.83 231.05 350.23 233.35C350.55 235.16 353.88 237.8 356.09 238.67C359.85 240.17 366.01 239.9 372.36 239.63C378.41 239.37 384.75 239.39 389.69 238.91C397.47 238.16 405.02 235.94 411.28 234.07C413.9 233.3 416.54 233.25 418.75 232.62C425.12 230.81 427.79 227.38 430.75 222.47C431.12 221.87 431.44 221.21 431.74 220.54C433.6 220.83 436.11 220.39 435.26 222.01C438 223.7 441.2 225.01 445.12 225.64C448.24 223.07 450.4 218.67 450.13 213.38C450.24 213.31 450.37 213.21 450.45 213.11L450.75 212.87L450.75 212.56C450.72 209.85 448.72 208.23 445.36 208.23Z" fill="#D3D3D3" fill-opacity="1.000000" fill-rule="evenodd"/>
	<path id="しっぽ_2_" d="M442.32 225.61C439.41 225.61 436.64 223.92 435.15 221.16L434.78 220.46L435.02 219.59C436.14 215.53 440.13 212.8 443.15 212.8C446.51 212.8 448.51 215.89 448.53 221.12L448.53 221.72L448.27 222.13C446.88 224.38 444.77 225.61 442.32 225.61Z" fill="#FFFFFF" fill-opacity="1.000000" fill-rule="evenodd"/>
	<path id="足" d="M356.86 225.68C356.86 225.68 370.22 233.32 400.22 225.61C400.22 225.61 423.42 212.82 428.35 227.06C430.24 232.5 421.15 234.48 421.15 234.48C421.15 234.48 374.14 243.65 359.82 241.33C345.51 239.01 345.64 224.57 356.86 225.68Z" fill="#FFFFFF" fill-opacity="1.000000" fill-rule="evenodd"/>
	<path id="おなか" d="M326.57 237.92C326.57 237.92 321.72 213.84 335.61 204.89C349.51 195.95 362.54 201.02 362.54 201.02L355.72 222.98L344.57 235.89L338.31 228.71L326.57 237.92Z" fill="#FFFFFF" fill-opacity="1.000000" fill-rule="evenodd"/>
	<path id="Vector" d="M359.61 100.11C363.61 91.31 367.16 85.27 373.42 80.48C376.04 78.5 379.37 77.12 382.6 75.82C388.7 73.32 394.46 70.98 395.79 64.69L397.37 64.81C397.63 72.36 391.29 78.55 387.5 81.59C384.09 84.3 380.25 86.69 376.54 89.02C373.32 91.05 370.25 92.96 367.74 94.89C366.86 95.59 366.01 96.49 365.18 97.36C363.8 98.83 362.36 100.35 360.6 101.06L358.78 101.76L359.61 100.11Z" fill="#FFFFFF" fill-opacity="1.000000" fill-rule="evenodd"/>
	<path id="Vector" d="M341.35 101.68C339.77 97.77 339.05 92.38 339.56 87.98C340.65 78.67 347.83 73.06 354.79 67.62C360.3 63.32 366.01 59.33 368.38 53.57C368.01 57.71 367.05 61.38 365.1 64.72C364.84 65.2 364.54 65.69 364.28 66.14C363.56 67.4 362.89 68.73 362.25 69.99C361.02 72.41 359.74 74.92 358.12 77.1C357.37 78.11 356.47 78.96 355.59 79.78C354.76 80.58 353.96 81.33 353.32 82.17C352.39 83.38 351.61 84.66 350.79 86.04C350.41 86.65 350.04 87.3 349.61 87.93C346.89 92.21 344.49 96.15 342.73 100.86L342.23 102.82L341.35 101.68Z" fill="#FFFFFF" fill-opacity="1.000000" fill-rule="evenodd"/>
	<path id="あご" d="M388.54 136.14C388.54 136.14 404.62 169.28 345.43 176.29C345.43 176.29 334.28 179 325.72 174.12L325.27 174.09C344.63 170.54 375.29 162.51 388.54 136.14Z" fill="#FFFFFF" fill-opacity="1.000000" fill-rule="evenodd"/>
	<path id="口内色" d="M343.56 132.53C343.67 139.78 336.6 147.33 328.1 148.25C324.9 148.59 319.62 148.85 317.7 148.25C314.84 147.33 310.9 142.35 311.03 138.58C315.96 138.6 319.48 140.51 323.83 139.78C330.49 138.67 337.56 134.56 343.29 132.53C343.35 132.27 343.56 132.39 343.56 132.53Z" fill="#FFFFFF" fill-opacity="0.400000" fill-rule="evenodd"/>
	<path id="ノーマル" d="M323.14 152.91C316.23 152.91 311.24 150.45 307.88 145.35C307.08 144.14 304.66 137.42 305.88 134.44C306.18 133.72 306.68 133.23 307.38 133.02C307.75 132.89 308.07 132.85 308.39 132.85C309.43 132.85 309.99 133.45 310.42 133.91C310.71 134.23 310.98 134.52 311.38 134.68C313.54 134.76 315.32 135.1 316.9 135.39C318.44 135.68 319.75 135.92 321.19 135.92C321.43 135.92 321.67 135.92 321.91 135.89C328.12 135.53 338.76 130.24 343.53 127.5C344.12 127.17 344.73 127 345.37 127C346.01 127 346.65 127.17 347.27 127.5L347.45 127.6L347.51 127.79C349.05 133.04 348.2 138.19 345.08 142.69C341.67 147.62 335.72 151.22 329.24 152.33C327.08 152.72 325.03 152.91 323.14 152.91ZM311.56 139.06C311.78 142.45 315.27 146.97 317.86 147.79C318.34 147.93 319.38 148.13 321.62 148.13C323.51 148.13 325.88 147.98 328.01 147.76C335.88 146.92 342.73 140.17 343 133.14C341.16 133.81 339.19 134.68 337.13 135.6C332.81 137.54 328.33 139.52 323.91 140.25C323.22 140.37 322.52 140.41 321.78 140.41C320.04 140.41 318.42 140.1 316.71 139.76C315.11 139.47 313.43 139.13 311.56 139.06Z" fill="#000000" fill-opacity="1.000000" fill-rule="evenodd"/>
	<path id="Vector" d="M342.04 124.31C341.93 124.31 341.85 124.31 341.75 124.31C339.99 124.24 338.33 123.08 337.53 121.36C337.03 120.3 336.89 119.07 337.13 117.91C337.21 117.54 338.01 114.35 342.12 114.11L342.15 114.11L342.17 114.11C342.95 114.16 345.59 114.52 346.71 116.43C347.08 117.08 347.24 117.86 347.21 118.68C347.05 122.16 345.05 124.31 342.04 124.31Z" fill="#FFFFFF" fill-opacity="0.600000" fill-rule="evenodd"/>
	<path id="Vector" d="M306.23 127.29C305.25 127.43 301.91 127.58 300.85 123.9C300.45 122.5 300.37 121.27 300.58 120.18C300.98 118.2 302.31 117.37 303.57 116.82L303.62 116.79L303.67 116.79C306.55 116.41 308.31 117.54 308.9 120.18C309.27 121.82 309.27 123.35 308.9 124.58C308.39 126.37 307.14 127.17 306.23 127.29Z" fill="#FFFFFF" fill-opacity="0.600000" fill-rule="evenodd"/>
	<path id="Vector" d="M341.69 122.38C339.88 125.3 335.29 126.03 333.43 123.83C326.92 116.09 339.37 108.38 342.23 117.3C342.28 117.42 342.33 117.57 342.36 117.69C342.87 119.48 342.04 121.7 341.69 122.38Z" fill="#000000" fill-opacity="1.000000" fill-rule="evenodd"/>
	<path id="Vector" d="M304.9 125.52C304.58 124.29 304.02 123.25 304.1 121.65C304.53 118.32 307.83 114.16 312.36 116.09C319 118.92 313.43 133.26 304.9 125.52Z" fill="#000000" fill-opacity="1.000000" fill-rule="evenodd"/>
	<path id="輪郭" d="M328.2 244.25C324.63 244.25 321.99 238.96 320.39 235.81C320.2 235.45 320.04 235.14 319.91 234.87C317.8 230.83 315.86 226.89 315.06 222.83C311.19 203.3 311 188.19 314.5 177.91C300.98 176.87 290.85 173.34 284.34 167.37C277.73 161.3 274.34 152.74 275.04 143.85C276.07 130.67 284.82 121.17 292.34 114.38C301.27 106.28 312.95 100.96 322.23 97.26C322.39 88.51 326.15 79.95 328.95 74.22C332.31 67.4 336.09 60.44 340.81 55.65C345.13 51.28 353.45 45.88 362.65 45.01C363.1 44.97 363.58 44.94 364.09 44.94C367.18 44.94 371.13 45.81 372.49 47.75C375 51.32 372.62 58.17 371.5 60.97C370.68 62.98 369.66 64.72 368.68 66.36C368.17 67.23 367.66 68.08 367.21 68.92C367.98 68.44 368.76 67.93 369.58 67.4C371.88 65.9 374.46 64.23 377.29 62.74C383.47 59.5 388.35 57.9 392.19 57.9C394.11 57.9 395.77 58.31 397.07 59.13C399.93 60.92 400.78 65.49 400.35 69C399.29 77.77 391.21 83.6 384.73 88.29L384.33 88.58C382.3 90.05 380.22 91.43 378.22 92.79C373.21 96.15 368.46 99.31 365 103.4C366.04 106.11 368.65 107.9 371.16 109.61C371.56 109.88 371.93 110.15 372.33 110.41C374.94 112.27 377.16 114.28 379.48 116.41C379.88 116.77 380.28 117.13 380.68 117.5C381 117.79 381.34 118.1 381.66 118.39C386.94 123.15 391.47 127.24 393.93 135.22C395.15 139.16 395.69 147.72 393.93 152.43C404.17 156.37 413.12 163.04 422.06 173.42C422.78 174.24 423.52 175.08 424.22 175.88C427.28 179.34 430.46 182.89 432.8 187.32C435.68 192.71 436.96 198.87 438.05 205.23C440.69 204.31 443.25 203.83 445.57 203.83C450.88 203.83 454.32 206.44 455.01 210.99C455.55 214.51 454.83 218.96 453.09 222.86C451.28 226.89 448.85 229.48 446.37 229.94C445.84 230.04 445.31 230.08 444.75 230.08C442.03 230.08 439.63 228.9 437.31 227.76C436.11 227.18 434.99 226.63 433.9 226.26C430 234.29 420.11 236.39 409.63 238.64C408.49 238.88 407.34 239.13 406.17 239.39C404.73 239.71 403.31 240.07 401.79 240.46C397.93 241.42 393.93 242.44 389.53 242.8C386.06 243.09 382.04 243.12 378.14 243.14C375.34 243.16 372.46 243.16 369.77 243.28C368.14 243.36 366.7 243.38 365.34 243.38C358.3 243.38 350.68 242.58 346.79 237C346.71 237.14 346.63 237.31 346.55 237.46C345.99 238.55 345.32 239.92 343.37 239.92C343.24 239.92 343.11 239.92 342.97 239.9C339.88 239.63 338.68 233.11 338.23 229.21C337.4 230.76 336.55 232.24 335.67 233.76C334.73 235.36 333.77 237 332.84 238.76C332.68 239.08 332.49 239.47 332.31 239.9C331.43 241.81 330.41 243.99 328.82 244.25C328.58 244.25 328.39 244.25 328.2 244.25ZM378.46 184C379.88 184 381.05 184.63 381.85 185.84L382.06 186.18L381.88 186.54C381.18 187.87 379.82 188.24 378.73 188.53C378.2 188.67 377.69 188.82 377.29 189.03C375.5 190.05 373.05 192.73 371.37 194.67C365.74 201.12 361.69 213.5 361.93 223.46L361.93 223.8L361.66 224.02C360.3 225.18 358.52 225.47 356.84 225.73C355.19 226 353.61 226.26 352.71 227.3C351.91 228.22 350.65 231.17 351 233.28C351.24 234.73 354.25 237.19 356.38 238.04C358.3 238.79 361.1 239.15 365.18 239.15C367.48 239.15 370.04 239.03 372.28 238.93C374.38 238.84 376.54 238.79 378.65 238.72C382.62 238.62 386.38 238.5 389.55 238.21C397.37 237.46 404.91 235.21 410.99 233.4C412.43 232.96 413.84 232.77 415.23 232.55C416.4 232.38 417.5 232.21 418.46 231.95C424.75 230.13 427.31 226.6 430 222.13C431.6 219.5 432.62 215.89 432.83 212.29C433.12 193.22 423.42 181.22 414.91 172.91L414.86 172.83L414.8 172.76C413.79 171.09 412.3 169.86 410.99 168.85L410.96 168.82L410.94 168.8C407.39 165.65 403.53 162.37 398.86 159.97C397.87 159.51 396.94 158.98 396.06 158.47C394.62 157.65 393.29 156.88 391.66 156.35C390.06 159.32 388.35 162.1 385.9 163.99C379.96 168.56 371.18 172.11 364.86 174.26C356.12 177.26 346.36 178.71 335.05 178.71C330.39 178.71 325.46 178.47 320.02 177.98C315.64 186.74 317.03 200.42 318.47 209.99C319.99 220.2 321.96 230.64 327.7 236.68C328.89 234.82 330.09 232.6 331.43 230.04C331.99 228.95 332.6 227.84 333.21 226.68C333.4 226.34 333.61 225.9 333.85 225.42C335.53 222.11 338.07 217.1 341.77 217.1C342.28 217.1 342.79 217.2 343.29 217.39L343.67 217.54L343.75 217.9C344.12 219.47 343.96 221.45 343.77 223.56C343.56 226.07 343.32 228.66 344.01 230.59C346.2 226.34 349.48 222.15 356.01 220.85C355.96 217.95 356.62 216.01 357.34 213.96C357.64 213.14 357.93 212.29 358.2 211.35C361.45 199.65 365.61 192.47 372.57 186.57C373.34 186.01 375.93 184 378.46 184ZM436.3 221.72C438.91 223.24 441.73 224.26 444.91 224.81C447.68 222.35 450.19 217.63 449.17 211.44L449.17 211.4L449.17 211.35C449.15 208.95 447.09 208.47 445.39 208.47C442.75 208.47 439.6 209.73 438.75 211.08C438.4 214.56 437.84 218.5 436.3 221.72ZM364.52 49.22C363.05 49.22 361.24 49.51 359.24 50.04C343.64 54.35 337.32 67.26 331.75 78.64C329 84.25 326.23 91.24 326.5 100.33L326.52 100.84L325.99 101.03C303.19 109.03 289.83 119.36 282.71 134.49C276.07 148.54 284.02 163.16 295.17 168.63C303.62 172.76 314.42 173.29 325.83 173.83L326.55 173.85C329.27 173.97 331.88 174.04 334.33 174.04C344.01 174.04 352.28 173.05 359.61 170.97C368.22 168.56 379.1 164.16 383.77 159.1C385.69 157.02 388.99 151.9 389.45 149.29C391.26 139.28 387.34 131.57 383.71 126.85C382.28 124.97 379.93 122.98 377.42 120.93C376.33 120.03 375.26 119.07 374.25 118.15C373.05 117.06 371.9 116.02 370.78 115.15C369.72 114.33 368.49 113.6 367.26 112.93C365.53 111.93 363.72 110.92 362.41 109.49C362.36 109.44 357.5 104.13 358.84 101.68L358.97 101.44L359.24 101.35C360.68 100.79 361.93 99.46 363.24 98.03C364.09 97.11 364.97 96.17 365.96 95.4C368.52 93.39 371.61 91.46 374.89 89.43C378.54 87.13 382.36 84.76 385.69 82.1C389.29 79.25 395.26 73.42 395.02 66.48L395.02 66.46L395.02 66.43C395.07 64.67 394.41 63.61 393.55 62.59C393.5 62.59 393.45 62.59 393.39 62.59C386.41 62.59 381.02 65.61 375.21 69.24L374.25 69.84C369.56 72.77 363.69 76.42 360.49 80.43C359 82.32 357.72 84.59 356.38 87.01C355.43 88.72 354.44 90.51 353.32 92.21C352.87 92.91 352.33 93.61 351.72 94.43C351 95.4 350.17 96.46 349.32 97.77C348.97 98.27 348.65 98.93 348.28 99.6C347.19 101.66 346.07 103.79 344.28 103.79C343.32 103.79 342.41 103.16 341.56 101.88L341.37 101.59L341.48 101.27C343.27 96.44 345.69 92.45 348.47 88.1C348.87 87.47 349.24 86.84 349.61 86.23C350.41 84.9 351.27 83.53 352.23 82.25C352.95 81.3 353.83 80.48 354.65 79.68C355.53 78.86 356.33 78.09 357.02 77.17C358.6 75.09 359.77 72.74 361.05 70.28C361.72 69 362.38 67.67 363.13 66.36C363.4 65.88 363.69 65.39 363.96 64.91C365.82 61.7 367.77 58.38 368.09 54.54L368.09 54.47L368.12 54.39C368.76 52.51 368.73 51.11 368.04 50.26C367.42 49.61 366.22 49.22 364.52 49.22Z" fill="#000000" fill-opacity="1.000000" fill-rule="evenodd"/>
</svg>
