<svg width="1920.000000" height="310.000000" viewBox="0 0 1920 310" fill="none" xmlns="http://www.w3.org/2000/svg" xmlns:xlink="http://www.w3.org/1999/xlink">
	<desc>
			Created with Pixso.
	</desc>
	<defs/>
	<path id="Subtract" d="M20 10L20 0L40 0L40 10L60 10L60 0L80 0L80 10L100 10L100 0L120 0L120 10L140 10L140 0L160 0L160 10L180 10L180 0L200 0L200 10L220 10L220 0L240 0L240 10L260 10L260 0L280 0L280 10L300 10L300 0L320 0L320 10L340 10L340 0L360 0L360 10L380 10L380 0L400 0L400 10L420 10L420 0L440 0L440 10L460 10L460 0L480 0L480 10L500 10L500 0L520 0L520 10L540 10L540 0L560 0L560 10L580 10L580 0L600 0L600 10L620 10L620 0L640 0L640 10L660 10L660 0L680 0L680 10L700 10L700 0L720 0L720 10L740 10L740 0L760 0L760 10L780 10L780 0L800 0L800 10L820 10L820 0L840 0L840 10L860 10L860 0L880 0L880 10L900 10L900 0L920 0L920 10L940 10L940 0L960 0L960 10L980 10L980 0L1000 0L1000 10L1020 10L1020 0L1040 0L1040 10L1060 10L1060 0L1080 0L1080 10L1100 10L1100 0L1120 0L1120 10L1140 10L1140 0L1160 0L1160 10L1180 10L1180 0L1200 0L1200 10L1220 10L1220 0L1240 0L1240 10L1260 10L1260 0L1280 0L1280 10L1300 10L1300 0L1320 0L1320 10L1340 10L1340 0L1360 0L1360 10L1380 10L1380 0L1400 0L1400 10L1420 10L1420 0L1440 0L1440 10L1460 10L1460 0L1480 0L1480 10L1500 10L1500 0L1520 0L1520 10L1540 10L1540 0L1560 0L1560 10L1580 10L1580 0L1600 0L1600 10L1620 10L1620 0L1640 0L1640 10L1660 10L1660 0L1680 0L1680 10L1700 10L1700 0L1720 0L1720 10L1740 10L1740 0L1760 0L1760 10L1780 10L1780 0L1800 0L1800 10L1820 10L1820 0L1840 0L1840 10L1860 10L1860 0L1880 0L1880 10L1900 10L1900 0L1920 0L1920 310L0 310L0 10L20 10Z" clip-rule="evenodd" fill="#00093C" fill-opacity="1.000000" fill-rule="evenodd"/>
</svg>
