<svg width="36.445984" height="51.649048" viewBox="0 0 36.446 51.649" fill="none" xmlns="http://www.w3.org/2000/svg" xmlns:xlink="http://www.w3.org/1999/xlink">
	<desc>
			Created with Pixso.
	</desc>
	<defs/>
	<path id="path" d="M36.25 1.02C36.25 0.55 35.89 0.19 35.41 0.19L5.79 0.19C2.63 0.19 0.19 2.39 0.19 5.29L0.19 46.11C0.19 49.19 2.81 51.45 5.32 51.45L35.35 51.45C36.07 51.45 36.48 50.62 36.07 50.08C34.7 48.3 34.46 44.8 36.13 42.08C36.19 41.96 36.25 41.78 36.25 41.66C36.25 36.5 36.25 6.12 36.25 1.02ZM1.92 5.29C1.92 3.04 3.88 1.85 5.79 1.85L34.52 1.85L34.52 40.71L5.79 40.71C4.36 40.71 3.05 41.13 1.92 42.13C1.92 37.63 1.92 9.92 1.92 5.29ZM33.98 49.73L5.61 49.73C3.59 49.73 1.98 48.13 1.98 46.11C1.98 44.27 3.41 42.49 5.85 42.49L34.1 42.49C33.09 44.86 32.97 47.36 33.98 49.73Z" fill="#00093C" fill-opacity="1.000000" fill-rule="nonzero"/>
	<path id="path" d="M35.41 0.19L5.79 0.19C2.63 0.19 0.19 2.39 0.19 5.29L0.19 46.11C0.19 49.19 2.81 51.45 5.32 51.45L35.35 51.45C36.07 51.45 36.48 50.62 36.07 50.08C34.7 48.3 34.46 44.8 36.13 42.08C36.19 41.96 36.25 41.78 36.25 41.66C36.25 36.5 36.25 6.12 36.25 1.02C36.25 0.55 35.89 0.19 35.41 0.19ZM5.79 1.85L34.52 1.85L34.52 40.71L5.79 40.71C4.36 40.71 3.05 41.13 1.92 42.13C1.92 37.63 1.92 9.92 1.92 5.29C1.92 3.04 3.88 1.85 5.79 1.85ZM5.61 49.73C3.59 49.73 1.98 48.13 1.98 46.11C1.98 44.27 3.41 42.49 5.85 42.49L34.1 42.49C33.09 44.86 32.97 47.36 33.98 49.73L5.61 49.73Z" stroke="#00093C" stroke-opacity="1.000000" stroke-width="0.390625"/>
	<path id="path" d="M5.79 31.4L31.12 31.4C31.6 31.4 31.95 31.04 31.95 30.57L31.95 12.65C31.95 12.17 31.6 11.82 31.12 11.82L5.79 11.82C5.31 11.82 4.96 12.17 4.96 12.65L4.96 29.08L4.96 30.62C4.96 30.98 5.31 31.4 5.79 31.4ZM16.52 19L16.52 13.42L19.98 13.42L19.98 19C19.98 19.47 20.33 19.83 20.81 19.83L30.23 19.83L30.23 23.27L20.81 23.27C20.33 23.27 19.98 23.62 19.98 24.1L19.98 29.68L16.52 29.68L16.52 24.1C16.52 23.62 16.16 23.27 15.68 23.27L6.69 23.27L6.69 19.83L15.68 19.83C16.16 19.83 16.52 19.47 16.52 19ZM30.29 27.6L26.83 24.99L30.29 24.99L30.29 27.6ZM30.29 18.11L26.83 18.11L30.29 15.5L30.29 18.11ZM9.72 24.99L6.68 27.3L6.68 24.99L9.72 24.99ZM6.68 18.11L6.68 15.79L9.72 18.11L6.68 18.11ZM6.68 29.68L6.68 29.38L12.58 24.93L14.85 24.93L8.59 29.62L6.68 29.68ZM14.79 27.12L14.79 29.68L11.39 29.68L14.79 27.12ZM21.7 27.12L25.1 29.68L21.7 29.68L21.7 27.12ZM27.96 29.68L21.7 24.99L23.97 24.99L30.23 29.68L27.96 29.68ZM30.23 13.42L23.91 18.11L21.64 18.11L27.9 13.42L30.23 13.42ZM21.7 15.97L21.7 13.42L25.1 13.42L21.7 15.97ZM14.79 15.97L11.39 13.42L14.79 13.42L14.79 15.97ZM6.68 13.42L8.59 13.42L14.79 18.11L12.53 18.11L6.63 13.66L6.68 13.42Z" fill="#00093C" fill-opacity="1.000000" fill-rule="nonzero"/>
	<path id="path" d="M31.12 31.4C31.6 31.4 31.95 31.04 31.95 30.57L31.95 12.65C31.95 12.17 31.6 11.82 31.12 11.82L5.79 11.82C5.31 11.82 4.96 12.17 4.96 12.65L4.96 29.08L4.96 30.62C4.96 30.98 5.31 31.4 5.79 31.4L31.12 31.4ZM16.52 13.42L19.98 13.42L19.98 19C19.98 19.47 20.33 19.83 20.81 19.83L30.23 19.83L30.23 23.27L20.81 23.27C20.33 23.27 19.98 23.62 19.98 24.1L19.98 29.68L16.52 29.68L16.52 24.1C16.52 23.62 16.16 23.27 15.68 23.27L6.69 23.27L6.69 19.83L15.68 19.83C16.16 19.83 16.52 19.47 16.52 19L16.52 13.42ZM26.83 24.99L30.29 24.99L30.29 27.6L26.83 24.99ZM26.83 18.11L30.29 15.5L30.29 18.11L26.83 18.11ZM6.68 27.3L6.68 24.99L9.72 24.99L6.68 27.3ZM6.68 15.79L9.72 18.11L6.68 18.11L6.68 15.79ZM6.68 29.38L12.58 24.93L14.85 24.93L8.59 29.62L6.68 29.68L6.68 29.38ZM14.79 29.68L11.39 29.68L14.79 27.12L14.79 29.68ZM25.1 29.68L21.7 29.68L21.7 27.12L25.1 29.68ZM21.7 24.99L23.97 24.99L30.23 29.68L27.96 29.68L21.7 24.99ZM23.91 18.11L21.64 18.11L27.9 13.42L30.23 13.42L23.91 18.11ZM21.7 13.42L25.1 13.42L21.7 15.97L21.7 13.42ZM11.39 13.42L14.79 13.42L14.79 15.97L11.39 13.42ZM8.59 13.42L14.79 18.11L12.53 18.11L6.63 13.66L6.68 13.42L8.59 13.42Z" stroke="#00093C" stroke-opacity="1.000000" stroke-width="0.390625"/>
</svg>
