<svg width="43.242188" height="60.000000" viewBox="0 0 43.2422 60" fill="none" xmlns="http://www.w3.org/2000/svg" xmlns:xlink="http://www.w3.org/1999/xlink">
	<desc>
			Created with Pixso.
	</desc>
	<defs/>
	<path id="Vector" d="M3.61 59.99L27.76 59.99C28.24 59.99 28.64 59.6 28.64 59.12C28.64 58.63 28.24 58.24 27.76 58.24L9.79 58.24L9.79 50.18C9.79 49.7 9.4 49.31 8.91 49.31C8.42 49.31 8.03 49.7 8.03 50.18L8.03 58.24L3.61 58.24C2.23 58.24 1.58 57.65 1.78 56.16C4.19 44.41 4.19 43.46 4.59 42.5C4.65 42.4 5.03 41.05 6.89 40.26C7.08 40.18 6.96 40.23 7.62 40.03C7.66 40.02 7.46 40.09 10.62 38.99L12.73 42.88C12.96 43.3 13.49 43.46 13.92 43.23C14.34 43 14.5 42.47 14.27 42.04L12.3 38.41L13.65 37.94C14.3 39.14 20.04 49.74 20.67 50.9C21.05 51.61 22.03 51.64 22.49 51.02C22.57 50.91 22.1 51.75 29.57 37.94L30.92 38.4L23.8 51.56C22.86 53.3 20.37 53.3 19.43 51.57L16.23 45.65C15.99 45.22 15.46 45.06 15.03 45.29C14.61 45.52 14.45 46.06 14.68 46.48L17.89 52.4C19.49 55.36 23.75 55.36 25.35 52.4L32.6 38.99C35.75 40.08 35.56 40.02 35.61 40.03C36.22 40.22 36.16 40.18 36.34 40.26C37.01 40.54 37.41 40.87 37.4 40.87C38.09 41.42 38.56 42.06 38.82 43.01C38.86 43.16 41.47 56.1 41.48 56.53C41.51 57.64 41.03 58.24 39.62 58.24L35.2 58.24L35.2 50.18C35.2 49.7 34.81 49.31 34.32 49.31C33.84 49.31 33.44 49.7 33.44 50.18L33.44 58.24L31.86 58.24C31.37 58.24 30.98 58.63 30.98 59.12C30.98 59.6 31.37 60 31.86 60L39.62 60C41.71 60 43.01 58.94 43.21 57.09C43.26 56.65 43.23 56.11 43.18 55.84C40.51 42.42 40.62 42.99 40.61 42.94C40.26 41.24 39.27 39.83 37.67 38.95C36.93 38.54 36.5 38.47 36.12 38.35L29.55 36.07L27.36 34.57L27.36 32.86C30.56 30.96 32.6 27.69 32.97 24.14C35.65 24.27 37.51 21.71 36.39 19.47L36.39 12.31C36.39 7.13 33.57 5.33 32.71 4.9C28.5 -0.13 20.63 -1.42 14.67 1.64L14.66 1.64C14.56 1.7 13.33 2.27 11.81 3.54C11.45 3.85 11.41 4.41 11.72 4.78C12.04 5.14 12.6 5.18 12.96 4.87C18.8 -0.04 27.47 1.22 31.48 6.16C31.58 6.29 31.7 6.38 31.85 6.43C31.96 6.48 34.63 7.6 34.63 12.31L34.63 17.86C34.15 17.65 33.61 17.54 33.04 17.56L33.04 14.69C33.04 13.96 32.49 13.35 31.76 13.28C30.29 13.14 29.46 12.18 29.03 11.4C28.48 10.42 27.18 10.18 26.33 10.91C22.41 14.26 17.9 14.43 14.81 13.98C12.47 13.65 10.29 15.24 9.92 17.56C9.35 17.54 8.79 17.64 8.27 17.86C8.27 14.83 7.92 11.54 10.4 7.77C10.66 7.36 10.55 6.81 10.14 6.55C9.74 6.28 9.19 6.4 8.93 6.8C5.56 11.96 6.76 16.59 6.51 19.47C5.39 21.71 7.25 24.27 9.93 24.14C10.36 28.32 12.93 30.72 13 30.82L13 30.82C13.45 31.26 14.27 32.17 15.87 33.05L15.87 34.57L13.68 36.07C5.12 39.04 5.99 38.68 5.29 39.11C3.97 39.92 3.06 41.16 2.68 42.68C2.61 42.98 2.73 42.41 0.05 55.84C0 56.12 -0.03 56.64 0.02 57.09C0.22 58.94 1.53 59.99 3.61 59.99ZM23.14 34.36C23.63 34.29 24.16 34.17 24.47 34.09C24.55 34.06 24.97 33.96 25.61 33.72L25.61 34.69L21.62 39.13L17.63 34.69L17.63 33.84C19.46 34.48 21.36 34.62 23.14 34.36ZM25.33 42.08C25.1 41.92 23.19 40.51 22.92 40.31L26.62 36.19L28 37.14C27.12 38.78 25.91 41.02 25.33 42.08ZM23.93 44.67L23.71 44.01L24.05 43.32L24.49 43.64L23.93 44.67ZM18.74 43.65L19.19 43.32L19.52 44.01L19.3 44.68L18.74 43.65ZM20.31 40.31C20.1 40.47 18.11 41.93 17.9 42.08L15.23 37.14L16.61 36.19L20.31 40.31ZM20.63 42.26L21.62 41.54L22.61 42.26L22.22 43.06L21.01 43.06L20.63 42.26ZM21.62 48.96L20.45 46.81L21.1 44.82L22.13 44.82L22.78 46.81C22.41 47.49 22.07 48.12 21.62 48.96ZM34.96 20.85C34.96 21.77 34.04 22.44 33.04 22.39L33.04 19.32C34.05 19.26 34.96 19.95 34.96 20.85ZM31.59 15.03C31.59 15.03 31.59 15.03 31.59 15.03C31.59 15.03 31.59 15.03 31.59 15.03ZM14.56 15.72C18.01 16.22 23.06 16.02 27.47 12.25L27.49 12.25C28.34 13.78 29.68 14.74 31.28 14.99L31.28 18.11L30.28 18.7C29.87 18.1 29.18 17.71 28.4 17.71L24.38 17.71C23.43 17.71 22.62 18.29 22.27 19.12L20.63 19.12C20.28 18.29 19.47 17.71 18.52 17.71L14.5 17.71C13.72 17.71 13.03 18.1 12.62 18.7L11.62 18.11C11.71 16.61 13.07 15.51 14.56 15.72ZM23.85 20C23.85 19.71 24.1 19.47 24.38 19.47L28.4 19.47C28.69 19.47 28.93 19.71 28.93 20L28.93 21.75C28.93 22.51 28.31 23.13 27.55 23.13L25.24 23.13C24.47 23.13 23.85 22.51 23.85 21.75L23.85 20L23.85 20ZM19.05 20L19.05 21.75C19.05 22.51 18.43 23.13 17.66 23.13L15.35 23.13C14.59 23.13 13.97 22.51 13.97 21.75L13.97 20C13.97 19.71 14.21 19.47 14.5 19.47L18.52 19.47C18.81 19.47 19.05 19.71 19.05 20ZM7.94 20.85C7.94 19.94 8.86 19.27 9.86 19.32L9.86 22.39C8.85 22.44 7.94 21.76 7.94 20.85ZM13.99 29.3C11.14 25.98 11.69 22.76 11.62 20.15L12.21 20.5L12.21 21.75C12.21 23.48 13.62 24.89 15.35 24.89L17.66 24.89C19.4 24.89 20.8 23.48 20.8 21.75L20.8 20.88L22.1 20.88L22.1 21.75C22.1 23.48 23.5 24.89 25.24 24.89L27.55 24.89C29.28 24.89 30.69 23.48 30.69 21.75L30.69 20.5L31.28 20.15L31.28 22.89C31.28 28.12 27.15 32.66 21.45 32.73C21.44 32.73 21.32 32.73 21.33 32.73C19.81 32.71 18.65 32.32 18.76 32.35C17.04 31.88 15.39 30.89 13.99 29.3Z" fill="#00093C" fill-opacity="1.000000" fill-rule="nonzero"/>
</svg>
