<svg width="17.279297" height="18.322998" viewBox="0 0 17.2793 18.323" fill="none" xmlns="http://www.w3.org/2000/svg" xmlns:xlink="http://www.w3.org/1999/xlink">
	<desc>
			Created with Pixso.
	</desc>
	<defs/>
	<rect id="Rectangle 113" x="5.180176" y="1.000000" rx="3.319165" width="6.638330" height="8.411078" stroke="#FFFFFF" stroke-opacity="1.000000" stroke-width="2.000000"/>
	<path id="Rectangle 9" d="M4 11.41C1.79 11.41 0 13.2 0 15.41L0 16.32C0 17.42 0.89 18.32 2 18.32L15.27 18.32C16.38 18.32 17.27 17.42 17.27 16.32L17.27 15.41C17.27 13.2 15.48 11.41 13.27 11.41L4 11.41ZM4 13.41L13.27 13.41C13.44 13.41 13.6 13.43 13.76 13.46C13.86 13.49 13.96 13.52 14.05 13.56C14.16 13.61 14.26 13.66 14.35 13.72C14.47 13.8 14.58 13.89 14.69 13.99C14.79 14.1 14.88 14.21 14.96 14.33C15.02 14.42 15.07 14.52 15.12 14.63C15.16 14.73 15.19 14.82 15.22 14.92C15.26 15.08 15.27 15.24 15.27 15.41L15.27 16.32L2 16.32L2 15.41C2 15.24 2.01 15.08 2.05 14.92C2.08 14.82 2.11 14.73 2.15 14.63C2.2 14.52 2.25 14.42 2.31 14.33C2.39 14.21 2.48 14.1 2.58 13.99C2.68 13.89 2.8 13.8 2.92 13.72C3.01 13.66 3.11 13.61 3.22 13.56C3.31 13.52 3.41 13.49 3.51 13.46C3.67 13.43 3.83 13.41 4 13.41Z" fill="#FFFFFF" fill-opacity="1.000000" fill-rule="evenodd"/>
</svg>
