<svg width="47.821289" height="46.089966" viewBox="0 0 47.8213 46.09" fill="none" xmlns="http://www.w3.org/2000/svg" xmlns:xlink="http://www.w3.org/1999/xlink">
	<desc>
			Created with Pixso.
	</desc>
	<defs/>
	<path id="path" d="M43.31 40.71L43.31 40.73C42.95 41.16 42.33 41.21 41.9 40.85C41.48 40.48 41.43 39.86 41.79 39.44L41.82 39.43L43.31 40.71ZM39.59 41.06L39.57 41.08C39.01 41.1 38.56 40.67 38.54 40.11C38.53 39.55 38.96 39.1 39.52 39.09L39.54 39.1L39.59 41.06Z" fill="#000000" fill-opacity="0" fill-rule="nonzero"/>
	<path id="path" d="M42.55 40.09C44.02 38.37 45.49 36.64 46.81 35.08C45.98 30.43 43.87 27.61 39.54 27.13C36.16 26.75 33.5 28.31 32.66 31.62C32.19 33.46 32.44 35.77 33.15 37.54C34.09 39.89 35.8 41.91 37.18 44.08C36.97 44.41 36.75 44.76 36.54 45.09L42.65 45.09C41.29 42.89 43.8 39.99 39.54 40.09" stroke="#000000" stroke-opacity="1.000000" stroke-width="2.000000" stroke-linejoin="round" stroke-linecap="round"/>
	<path id="path" d="M6.58 11.73L6.59 11.7C7.09 11.44 7.68 11.63 7.94 12.12C8.2 12.62 8.01 13.21 7.52 13.47L7.49 13.46L6.58 11.73ZM32.53 42.11L32.55 42.09C33.11 42.09 33.55 42.52 33.55 43.09C33.55 43.65 33.11 44.09 32.55 44.09L32.53 44.06L32.53 42.11Z" fill="#000000" fill-opacity="0" fill-rule="nonzero"/>
	<path id="path" d="M7.05 12.59C1.7 15.38 0.81 20.15 1.01 25.59C1.21 31.08 1.05 36.59 1.05 43.09L32.55 43.09" stroke="#000000" stroke-opacity="1.000000" stroke-width="2.000000" stroke-linejoin="round" stroke-linecap="round"/>
	<path id="path" d="M12.57 13.06L12.55 13.09C11.99 13.09 11.55 12.65 11.55 12.09C11.55 11.52 11.99 11.09 12.55 11.09L12.57 11.11L12.57 13.06ZM31.53 11.11L31.55 11.09C32.11 11.09 32.55 11.52 32.55 12.09C32.55 12.65 32.11 13.09 31.55 13.09L31.53 13.06L31.53 11.11Z" fill="#000000" fill-opacity="0" fill-rule="nonzero"/>
	<path id="path" d="M12.55 12.09L31.55 12.09" stroke="#000000" stroke-opacity="1.000000" stroke-width="2.000000" stroke-linejoin="round" stroke-linecap="round"/>
	<path id="path" d="M41.45 18.81L41.46 18.78C41.9 18.45 42.52 18.54 42.85 18.99C43.19 19.43 43.1 20.05 42.65 20.39L42.63 20.38L41.45 18.81ZM8.53 23.06L8.55 23.09C8.55 23.65 8.11 24.09 7.55 24.09C6.99 24.09 6.55 23.65 6.55 23.09L6.57 23.06L8.53 23.06Z" fill="#000000" fill-opacity="0" fill-rule="nonzero"/>
	<path id="path" d="M42.05 19.59C40.42 20.8 38.79 22.02 36.3 23.9L36.3 5.08L7.55 5.08L7.55 23.09" stroke="#000000" stroke-opacity="1.000000" stroke-width="2.000000" stroke-linejoin="round" stroke-linecap="round"/>
	<path id="path" d="M29.64 28.3L29.67 28.3C30.11 28.64 30.19 29.26 29.84 29.7C29.5 30.14 28.88 30.22 28.44 29.87L28.43 29.85L29.64 28.3ZM2.65 39.36L2.64 39.39C2.19 39.72 1.58 39.63 1.25 39.17C0.92 38.72 1.01 38.11 1.46 37.78L1.49 37.78L2.65 39.36Z" fill="#000000" fill-opacity="0" fill-rule="nonzero"/>
	<path id="path" d="M29.05 29.09C22.15 23.7 22.12 23.73 15.04 29.08C10.76 32.31 6.38 35.43 2.05 38.59" stroke="#000000" stroke-opacity="1.000000" stroke-width="2.000000" stroke-linejoin="round" stroke-linecap="round"/>
	<path id="path" d="M12.57 18.06L12.55 18.09C11.99 18.09 11.55 17.65 11.55 17.09C11.55 16.52 11.99 16.09 12.55 16.09L12.57 16.11L12.57 18.06ZM24.53 16.11L24.55 16.09C25.11 16.09 25.55 16.52 25.55 17.09C25.55 17.65 25.11 18.09 24.55 18.09L24.53 18.06L24.53 16.11Z" fill="#000000" fill-opacity="0" fill-rule="nonzero"/>
	<path id="path" d="M12.55 17.09L24.55 17.09" stroke="#000000" stroke-opacity="1.000000" stroke-width="2.000000" stroke-linejoin="round" stroke-linecap="round"/>
	<path id="path" d="M27.25 3.39L27.28 3.39C27.66 3.8 27.65 4.42 27.24 4.81C26.84 5.2 26.22 5.18 25.83 4.78L25.83 4.75L27.25 3.39ZM18.28 4.75L18.28 4.78C17.89 5.18 17.27 5.2 16.86 4.81C16.46 4.42 16.44 3.8 16.83 3.39L16.86 3.39L18.28 4.75Z" fill="#000000" fill-opacity="0" fill-rule="nonzero"/>
	<path id="path" d="M26.55 4.08C22.62 -0.04 21.48 -0.04 17.55 4.08" stroke="#000000" stroke-opacity="1.000000" stroke-width="2.000000" stroke-linejoin="round" stroke-linecap="round"/>
	<path id="path" d="M36.59 13.45L36.56 13.45C36.07 13.18 35.91 12.58 36.18 12.09C36.46 11.6 37.06 11.44 37.55 11.72L37.56 11.74L36.59 13.45ZM44.03 24.65L44.05 24.67C44 25.23 43.53 25.63 42.97 25.58C42.41 25.53 42.01 25.06 42.06 24.5L42.08 24.48L44.03 24.65Z" fill="#000000" fill-opacity="0" fill-rule="nonzero"/>
	<path id="path" d="M37.05 12.59C41.72 15.25 43.5 19.36 43.05 24.59" stroke="#000000" stroke-opacity="1.000000" stroke-width="2.000000" stroke-linejoin="round" stroke-linecap="round"/>
	<path id="path" d="M1.46 20.36L1.43 20.37C0.99 20.02 0.92 19.4 1.27 18.96C1.62 18.52 2.24 18.45 2.68 18.8L2.68 18.83L1.46 20.36ZM15.15 28.81L15.18 28.8C15.62 29.15 15.68 29.77 15.34 30.21C14.99 30.65 14.37 30.72 13.93 30.37L13.93 30.34L15.15 28.81Z" fill="#000000" fill-opacity="0" fill-rule="nonzero"/>
	<path id="path" d="M2.05 19.59C6.22 22.91 10.38 26.26 14.55 29.59" stroke="#000000" stroke-opacity="1.000000" stroke-width="2.000000" stroke-linejoin="round" stroke-linecap="round"/>
</svg>
