<svg width="107.439453" height="106.415039" viewBox="0 0 107.439 106.415" fill="none" xmlns="http://www.w3.org/2000/svg" xmlns:xlink="http://www.w3.org/1999/xlink">
	<desc>
			Created with Pixso.
	</desc>
	<defs/>
	<path id="25" d="M52.1 66.12L52.1 53.86L24.14 53.86L39.09 39.74Q45.5 33.8 47.73 29.16Q48.54 27.48 49.05 25.71Q49.96 22.6 49.96 19.22C49.96 15.32 48.94 11.94 46.9 9.1C44.91 6.19 42.1 3.96 38.44 2.41Q33.06 0 25.81 0C20.06 0 14.95 1.08 10.49 3.25Q5.29 5.7 1.83 9.67Q0.84 10.81 0 12.07L10.95 19.13Q12.59 16.83 14.78 15.37Q15.7 14.76 16.71 14.3C19 13.18 21.57 12.63 24.42 12.63Q29.53 12.63 32.13 14.76C33.92 16.12 34.82 18.11 34.82 20.71C34.82 22.5 34.36 24.33 33.43 26.19C32.5 27.98 30.71 30.15 28.04 32.69L2.97 56.37L2.97 66.12L52.1 66.12ZM100.84 31.01C96.51 27.36 89.76 25.54 80.59 25.54L75.3 25.54L76.32 13.18L103.44 13.18L103.44 1.11L63.78 1.11L60.44 37.7L77.06 37.7C82.64 37.7 86.54 38.41 88.77 39.84Q90.37 40.83 91.22 42.27Q92.2 43.92 92.2 46.15C92.2 48.82 91.12 50.89 88.95 52.38C86.79 53.86 83.81 54.6 80.04 54.6C76.63 54.6 73.32 54.11 70.1 53.12C66.88 52.07 64.03 50.61 61.56 48.75L55.61 60.27C58.71 62.5 62.45 64.23 66.85 65.47C71.31 66.65 75.83 67.24 80.41 67.24Q89.32 67.24 95.36 64.36C99.45 62.37 102.48 59.77 104.46 56.55C106.44 53.27 107.43 49.65 107.43 45.69C107.43 39.56 105.24 34.67 100.84 31.01Z" fill="#000000" fill-opacity="1.000000" fill-rule="evenodd"/>
	<path id="ноября" d="M67.33 87.69L67.33 87.69Q65.88 86.99 64.09 86.99C62.86 86.99 61.75 87.24 60.76 87.76C59.77 88.27 58.96 89 58.34 89.93Q58.53 87.1 59.93 85.58C60.87 84.58 62.29 83.86 64.2 83.44L70.33 82.12L69.95 79.7L63.29 81.18C60.76 81.73 58.88 82.86 57.65 84.57Q55.81 87.1 55.81 91.58Q55.81 96.2 57.82 98.76Q58.48 99.58 59.31 100.14L59.31 100.14Q61.06 101.29 63.57 101.29C65.03 101.29 66.33 100.99 67.47 100.39C68.63 99.78 69.52 98.94 70.14 97.85C70.78 96.75 71.1 95.5 71.1 94.08C71.1 92.71 70.8 91.49 70.2 90.43C69.61 89.34 68.78 88.5 67.72 87.89Q67.53 87.79 67.33 87.69ZM25.53 100.54L25.53 100.54L25.53 100.54Q27.06 101.24 28.92 101.24C30.37 101.24 31.66 100.92 32.8 100.28Q33.81 99.71 34.56 98.9Q35.09 98.33 35.49 97.63C36.15 96.5 36.48 95.21 36.48 93.78C36.48 92.35 36.15 91.08 35.49 89.96Q35.03 89.14 34.39 88.49Q33.7 87.8 32.8 87.32C31.66 86.67 30.37 86.35 28.92 86.35Q27.06 86.35 25.53 87.06L25.53 87.06L25.53 87.06L25.53 87.06Q25.27 87.18 25.01 87.32C23.86 87.94 22.95 88.82 22.29 89.96Q22.17 90.17 22.06 90.38L22.06 90.38Q21.33 91.9 21.33 93.78Q21.33 95.59 22.01 97.09Q22.14 97.37 22.29 97.63C22.95 98.75 23.86 99.63 25.01 100.28Q25.27 100.42 25.53 100.54ZM82.61 86.35C84.02 86.35 85.28 86.67 86.4 87.29C87.52 87.91 88.39 88.78 89.02 89.9C89.66 91.02 89.98 92.31 89.98 93.78C89.98 95.25 89.66 96.55 89.02 97.69C88.39 98.81 87.52 99.68 86.4 100.3C85.28 100.93 84.02 101.24 82.61 101.24C81.56 101.24 80.6 101.04 79.72 100.63C78.86 100.23 78.12 99.64 77.52 98.87L77.52 106.41L74.88 106.41L74.88 86.49L77.41 86.49L77.41 88.8C77.99 88 78.74 87.39 79.64 86.99C80.53 86.56 81.52 86.35 82.61 86.35ZM3.95 86.49L6.59 86.49L6.59 92.68L14.9 92.68L14.9 86.49L17.54 86.49L17.54 101.07L14.9 101.07L14.9 94.97L6.59 94.97L6.59 101.07L3.95 101.07L3.95 86.49ZM51.51 86.49L51.51 101.07L49.14 101.07L49.14 96.45L44.6 96.45L41.41 101.07L38.58 101.07L42.13 96.09C41.02 95.76 40.18 95.22 39.59 94.47C39.01 93.7 38.71 92.75 38.71 91.61C38.71 89.94 39.28 88.67 40.42 87.81Q42.13 86.49 45.12 86.49L51.51 86.49ZM105.03 101.07L105.03 86.49L98.64 86.49C96.64 86.49 95.08 86.93 93.94 87.81C92.8 88.67 92.23 89.94 92.23 91.61C92.23 92.75 92.53 93.7 93.11 94.47C93.7 95.22 94.54 95.76 95.64 96.09L92.1 101.07L94.93 101.07L98.12 96.45L102.66 96.45L102.66 101.07L105.03 101.07ZM31.42 98.29C30.69 98.72 29.85 98.93 28.92 98.93C27.98 98.93 27.14 98.72 26.39 98.29C25.65 97.85 25.07 97.25 24.63 96.48Q24.61 96.46 24.6 96.43L24.6 96.43Q23.99 95.27 23.99 93.78C23.99 92.77 24.21 91.88 24.63 91.11C25.07 90.32 25.65 89.72 26.39 89.3C27.14 88.88 27.98 88.67 28.92 88.67C29.85 88.67 30.69 88.88 31.42 89.3C32.17 89.72 32.76 90.32 33.18 91.11C33.6 91.88 33.82 92.77 33.82 93.78Q33.82 95.27 33.21 96.43Q33.2 96.44 33.19 96.46Q33.19 96.47 33.18 96.48C32.76 97.25 32.17 97.85 31.42 98.29ZM82.39 98.93C83.32 98.93 84.16 98.72 84.89 98.29C85.64 97.85 86.23 97.25 86.65 96.48C87.09 95.69 87.31 94.79 87.31 93.78C87.31 92.77 87.09 91.88 86.65 91.11C86.23 90.32 85.64 89.72 84.89 89.3C84.16 88.88 83.32 88.67 82.39 88.67C81.47 88.67 80.63 88.89 79.88 89.33C79.15 89.75 78.56 90.34 78.12 91.11C77.7 91.88 77.49 92.77 77.49 93.78Q77.49 95.27 78.1 96.43Q78.11 96.45 78.12 96.47L78.12 96.48C78.54 97.25 79.13 97.85 79.88 98.29C80.63 98.72 81.47 98.93 82.39 98.93ZM41.41 91.69C41.41 92.66 41.71 93.39 42.32 93.86Q43.25 94.55 45.1 94.55L49.14 94.55L49.14 88.8L45.21 88.8C42.68 88.8 41.41 89.77 41.41 91.69ZM95.84 93.86C95.23 93.39 94.93 92.66 94.93 91.69C94.93 89.77 96.19 88.8 98.73 88.8L102.66 88.8L102.66 94.55L98.62 94.55C97.39 94.55 96.46 94.32 95.84 93.86ZM66.1 98.46C65.38 98.88 64.56 99.09 63.62 99.09C62.7 99.09 61.88 98.88 61.14 98.46C60.41 98.04 59.83 97.46 59.41 96.73C59.01 95.97 58.81 95.12 58.81 94.17C58.81 92.72 59.25 91.55 60.13 90.67C61.03 89.79 62.19 89.35 63.62 89.35C65.05 89.35 66.21 89.79 67.09 90.67Q67.42 91 67.66 91.39Q68.41 92.54 68.41 94.17Q68.41 95.52 67.87 96.6L67.86 96.61L67.86 96.61Q67.83 96.67 67.8 96.73C67.4 97.46 66.83 98.04 66.1 98.46Z" fill="#000000" fill-opacity="1.000000" fill-rule="evenodd"/>
</svg>
