<svg width="40.677734" height="44.379150" viewBox="0 0 40.6777 44.3792" fill="none" xmlns="http://www.w3.org/2000/svg" xmlns:xlink="http://www.w3.org/1999/xlink">
	<desc>
			Created with Pixso.
	</desc>
	<defs/>
	<path id="path" d="M31.47 24.13L31.49 24.15C31.49 24.71 31.05 25.15 30.49 25.15C29.93 25.15 29.49 24.71 29.49 24.15L29.51 24.13L31.47 24.13ZM15.17 40.21L15.19 40.19C15.75 40.19 16.19 40.63 16.19 41.19C16.19 41.75 15.75 42.19 15.19 42.19L15.17 42.17L15.17 40.21Z" fill="#000000" fill-opacity="0" fill-rule="nonzero"/>
	<path id="path" d="M30.49 24.15C30.49 24 30.47 23.85 30.49 23.71C32.53 13.29 26.11 7.56 18.76 2.21C18.01 1.66 17.41 1.02 16.5 1.01C11.4 0.97 6.3 1 1 1L1 41.19L15.19 41.19" stroke="#000000" stroke-opacity="1.000000" stroke-width="2.000000" stroke-linejoin="round" stroke-linecap="round"/>
	<path id="path" d="M39.09 24.8L39.11 24.81C39.48 25.23 39.44 25.85 39.01 26.22C38.59 26.58 37.97 26.54 37.6 26.12L37.6 26.09L39.09 24.8ZM21.86 41.16L21.88 41.18C21.89 41.74 21.46 42.18 20.9 42.19C20.34 42.2 19.89 41.76 19.88 41.2L19.9 41.18L21.86 41.16Z" fill="#000000" fill-opacity="0" fill-rule="nonzero"/>
	<path id="path" d="M38.36 25.46C36.9 23.77 35.41 23.09 33.54 25.01C29.51 29.13 25.47 33.26 21.28 37.21C19.79 38.62 20.87 39.86 20.88 41.19" stroke="#000000" stroke-opacity="1.000000" stroke-width="2.000000" stroke-linejoin="round" stroke-linecap="round"/>
	<path id="path" d="M17.75 2.5L17.73 2.47C17.88 1.93 18.43 1.63 18.97 1.78C19.51 1.93 19.81 2.47 19.66 3.01L19.64 3.03L17.75 2.5ZM28.94 11.84L28.95 11.82C29.5 11.69 30.03 12.02 30.16 12.56C30.29 13.1 29.96 13.63 29.41 13.76L29.39 13.75L28.94 11.84Z" fill="#000000" fill-opacity="0" fill-rule="nonzero"/>
	<path id="path" d="M18.7 2.74C17.76 6.09 18.53 9.44 18.09 13.35C22.19 13.04 25.69 13.62 29.18 12.79" stroke="#000000" stroke-opacity="1.000000" stroke-width="2.000000" stroke-linejoin="round" stroke-linecap="round"/>
	<path id="path" d="M6.48 18.58L6.46 18.6C5.9 18.6 5.46 18.16 5.46 17.6C5.46 17.04 5.9 16.6 6.46 16.6L6.48 16.62L6.48 18.58ZM24.79 16.62L24.81 16.6C25.37 16.6 25.81 17.04 25.81 17.6C25.81 18.16 25.37 18.6 24.81 18.6L24.79 18.58L24.79 16.62Z" fill="#000000" fill-opacity="0" fill-rule="nonzero"/>
	<path id="path" d="M6.46 17.6L24.81 17.6" stroke="#000000" stroke-opacity="1.000000" stroke-width="2.000000" stroke-linejoin="round" stroke-linecap="round"/>
	<path id="path" d="M6.48 23.82L6.46 23.84C5.9 23.84 5.46 23.4 5.46 22.84C5.46 22.28 5.9 21.84 6.46 21.84L6.48 21.86L6.48 23.82ZM24.79 21.86L24.81 21.84C25.37 21.84 25.81 22.28 25.81 22.84C25.81 23.4 25.37 23.84 24.81 23.84L24.79 23.82L24.79 21.86Z" fill="#000000" fill-opacity="0" fill-rule="nonzero"/>
	<path id="path" d="M6.46 22.84L24.81 22.84" stroke="#000000" stroke-opacity="1.000000" stroke-width="2.000000" stroke-linejoin="round" stroke-linecap="round"/>
	<path id="path" d="M38.95 24.79L38.95 24.77C39.34 24.36 39.96 24.35 40.36 24.74C40.77 25.13 40.78 25.75 40.39 26.16L40.36 26.16L38.95 24.79ZM20.54 43.21L20.56 43.23C20.64 43.78 20.27 44.28 19.72 44.36C19.17 44.45 18.66 44.08 18.58 43.52L18.6 43.5L20.54 43.21Z" fill="#000000" fill-opacity="0" fill-rule="nonzero"/>
	<path id="path" d="M39.67 25.46C35.3 29.98 30.96 34.51 26.54 38.99C25.14 40.41 24.05 42.57 21.27 41.29C20.73 41.05 19.37 42.03 19.57 43.37" stroke="#000000" stroke-opacity="1.000000" stroke-width="2.000000" stroke-linejoin="round" stroke-linecap="round"/>
	<path id="path" d="M6.48 29.06L6.46 29.08C5.9 29.08 5.46 28.64 5.46 28.08C5.46 27.52 5.9 27.08 6.46 27.08L6.48 27.1L6.48 29.06ZM24.79 27.1L24.81 27.08C25.37 27.08 25.81 27.52 25.81 28.08C25.81 28.64 25.37 29.08 24.81 29.08L24.79 29.06L24.79 27.1Z" fill="#000000" fill-opacity="0" fill-rule="nonzero"/>
	<path id="path" d="M6.46 28.08L24.81 28.08" stroke="#000000" stroke-opacity="1.000000" stroke-width="2.000000" stroke-linejoin="round" stroke-linecap="round"/>
	<path id="path" d="M6.48 34.3L6.46 34.32C5.9 34.32 5.46 33.88 5.46 33.32C5.46 32.76 5.9 32.32 6.46 32.32L6.48 32.34L6.48 34.3ZM16.93 32.34L16.95 32.32C17.5 32.32 17.95 32.76 17.95 33.32C17.95 33.88 17.5 34.32 16.95 34.32L16.93 34.3L16.93 32.34Z" fill="#000000" fill-opacity="0" fill-rule="nonzero"/>
	<path id="path" d="M6.46 33.32L16.95 33.32" stroke="#000000" stroke-opacity="1.000000" stroke-width="2.000000" stroke-linejoin="round" stroke-linecap="round"/>
</svg>
