<svg width="56.936157" height="46.150574" viewBox="0 0 56.9362 46.1506" fill="none" xmlns="http://www.w3.org/2000/svg" xmlns:xlink="http://www.w3.org/1999/xlink">
	<desc>
			Created with Pixso.
	</desc>
	<defs/>
	<path id="Vector" d="M53.61 3.06L51.26 3.06L51.26 0.82C51.26 0.37 50.89 0 50.43 0L45.4 0C44.95 0 44.57 0.37 44.57 0.82L44.57 3.06L17.03 3.06L17.03 0.82C17.03 0.37 16.66 0 16.2 0L11.18 0C10.72 0 10.35 0.37 10.35 0.82L10.35 3.06L8.41 3.06C6.38 3.06 4.72 4.72 4.72 6.75L4.72 27.03C4.72 27.49 5.09 27.86 5.55 27.86C6.01 27.86 6.38 27.49 6.38 27.03L6.38 6.75C6.38 5.64 7.28 4.72 8.41 4.72L53.63 4.72C54.52 4.72 55.24 5.45 55.24 6.34L55.24 33.89C55.24 34.78 54.52 35.51 53.63 35.51L51.85 35.51L51.85 32.35C51.85 31.89 51.48 31.52 51.02 31.52L42.07 31.52C41.61 31.52 41.24 31.89 41.24 32.35L41.24 35.51L27.85 35.51L31 34.65C32.63 34.2 34.07 33.27 35.14 31.97L40.5 25.45C40.6 25.31 40.68 25.15 40.69 24.99L41.17 18.77C41.21 18.16 40.84 17.55 40.28 17.31C40.53 17.17 40.71 16.9 40.71 16.59C40.71 16.13 40.34 15.76 39.88 15.76L36.23 15.76C35.77 15.76 35.4 16.13 35.4 16.59C35.4 17.05 35.77 17.42 36.23 17.42L38.96 17.42C38.87 17.48 38.78 17.55 38.71 17.63L35.66 20.68C35.06 21.27 34.57 22.01 34.06 22.66C33.77 23.02 33.82 23.55 34.19 23.83C34.54 24.11 35.08 24.07 35.36 23.7L36.32 22.51L38.78 24.97L33.91 30.92C33.05 31.95 31.92 32.69 30.62 33.05L17.46 36.84C16.44 37.17 16.96 38.75 17.97 38.43L20.86 37.49L20.86 44.47L19.7 44.47C19.24 44.47 18.87 44.84 18.87 45.3C18.87 45.76 19.24 46.13 19.7 46.13L24.8 46.13C25.26 46.13 25.63 45.76 25.63 45.3C25.63 44.84 25.26 44.47 24.8 44.47L22.53 44.47L22.53 37.18L53.66 37.18C55.46 37.18 56.93 35.72 56.93 33.91L56.93 6.35C56.89 4.53 55.42 3.06 53.61 3.06ZM46.22 1.65L49.58 1.65L49.58 3.05L46.22 3.05L46.22 1.65ZM12 1.65L15.36 1.65L15.36 3.05L12 3.05L12 1.65ZM39.46 19.18L39.17 23.03L37.39 21.26L39.46 19.18ZM42.87 35.51L42.87 33.18L50.16 33.18L50.16 35.51L42.87 35.51Z" fill="#00093C" fill-opacity="1.000000" fill-rule="nonzero"/>
	<path id="Vector" d="M15.67 44.47L4.97 44.47L4.97 40.04C4.97 37.23 5.62 34.43 6.85 31.91C7.54 30.53 8.96 29.64 10.5 29.64L24.54 29.64C27.48 29.64 30.34 28.6 32.59 26.72C32.94 26.43 32.99 25.91 32.69 25.55C32.4 25.2 31.88 25.15 31.52 25.45C29.57 27.08 27.09 27.98 24.56 27.98L18.51 27.98C19.45 27 20.03 25.69 20.03 24.23L20.03 21.17C22.17 21.02 23.86 19.24 23.86 17.06C23.86 14.8 22.01 12.94 19.74 12.94C18.35 12.91 17.03 13.24 16.07 14.29C15.6 14.81 14.91 15.11 14.22 15.11L11.92 15.11C10.01 15.11 8.45 16.66 8.45 18.57L8.45 24.83C8.45 25.54 8.62 26.23 9.05 26.81C9.24 27.08 9.48 27.3 9.74 27.48C10.04 27.67 10.45 27.74 10.69 27.98C8.45 27.94 6.34 29.17 5.36 31.18C4.01 33.94 3.3 36.99 3.3 40.06L3.3 44.49L0.82 44.49C0.37 44.49 0 44.86 0 45.32C0 45.78 0.37 46.15 0.82 46.15L15.67 46.15C16.13 46.15 16.5 45.78 16.5 45.32C16.51 44.84 16.13 44.47 15.67 44.47ZM14.37 27.95C13.91 27.92 13.45 27.8 13.03 27.61C13.23 27.51 13.42 27.39 13.58 27.26C14.28 26.68 14.66 25.83 14.66 24.87L14.66 21.17L18.35 21.17L18.35 24.22C18.35 26.28 16.68 27.97 14.6 27.97C14.51 27.97 14.44 27.97 14.37 27.95ZM10.13 24.81L10.13 18.56C10.13 17.57 10.94 16.75 11.94 16.75L14.22 16.75C15.39 16.75 16.5 16.26 17.3 15.4C17.95 14.69 18.84 14.56 19.76 14.59C21.11 14.59 22.2 15.68 22.2 17.03C22.2 18.38 21.11 19.48 19.76 19.48L13.83 19.48C13.37 19.48 13 19.85 13 20.31L13 24.86C13 25.83 12.14 26.44 11.21 26.26C10.47 26.14 10.13 25.54 10.13 24.81Z" fill="#00093C" fill-opacity="1.000000" fill-rule="nonzero"/>
	<path id="Vector" d="M28.53 12.72L33.06 12.72C33.52 12.72 33.89 12.35 33.89 11.89L33.89 8.83C33.89 8.37 33.52 8 33.06 8L28.53 8C28.07 8 27.7 8.37 27.7 8.83L27.7 11.89C27.69 12.35 28.06 12.72 28.53 12.72ZM29.36 9.65L32.23 9.65L32.23 11.05L29.36 11.05L29.36 9.65Z" fill="#00093C" fill-opacity="1.000000" fill-rule="nonzero"/>
	<path id="Vector" d="M27.69 18.1C27.69 18.56 28.06 18.93 28.51 18.93L33.05 18.93C33.51 18.93 33.88 18.56 33.88 18.1L33.88 15.03C33.88 14.57 33.51 14.2 33.05 14.2L28.51 14.2C28.06 14.2 27.69 14.57 27.69 15.03L27.69 18.1ZM29.36 15.88L32.23 15.88L32.23 17.27L29.36 17.27L29.36 15.88Z" fill="#00093C" fill-opacity="1.000000" fill-rule="nonzero"/>
	<path id="Vector" d="M36.2 11.18L50.99 11.18C51.45 11.18 51.82 10.81 51.82 10.35C51.82 9.89 51.45 9.52 50.99 9.52L36.2 9.52C35.74 9.52 35.37 9.89 35.37 10.35C35.37 10.81 35.74 11.18 36.2 11.18Z" fill="#00093C" fill-opacity="1.000000" fill-rule="nonzero"/>
</svg>
