<svg width="107.439453" height="101.713867" viewBox="0 0 107.439 101.714" fill="none" xmlns="http://www.w3.org/2000/svg" xmlns:xlink="http://www.w3.org/1999/xlink">
	<desc>
			Created with Pixso.
	</desc>
	<defs/>
	<path id="25" d="M52.1 66.12L52.1 53.86L24.14 53.86L39.09 39.74C43.37 35.78 46.25 32.25 47.73 29.16Q48.54 27.48 49.05 25.71Q49.96 22.6 49.96 19.22C49.96 15.32 48.94 11.94 46.9 9.1C44.91 6.19 42.1 3.96 38.44 2.41Q33.06 0 25.81 0C20.06 0 14.95 1.08 10.49 3.25Q5.29 5.7 1.83 9.67Q0.84 10.81 0 12.07L10.95 19.13Q12.59 16.83 14.78 15.37Q15.7 14.76 16.71 14.3C19 13.18 21.57 12.63 24.42 12.63Q29.53 12.63 32.13 14.76C33.92 16.12 34.82 18.11 34.82 20.71C34.82 22.5 34.36 24.33 33.43 26.19C32.5 27.98 30.71 30.15 28.04 32.69L2.97 56.37L2.97 66.12L52.1 66.12ZM100.84 31.01C96.51 27.36 89.76 25.54 80.59 25.54L75.3 25.54L76.32 13.18L103.44 13.18L103.44 1.11L63.78 1.11L60.44 37.7L77.07 37.7C82.64 37.7 86.54 38.41 88.77 39.84Q90.37 40.83 91.22 42.27Q92.2 43.92 92.2 46.15C92.2 48.82 91.12 50.89 88.95 52.38C86.79 53.86 83.81 54.6 80.04 54.6C76.63 54.6 73.32 54.11 70.1 53.12C66.88 52.07 64.03 50.61 61.56 48.75L55.61 60.27C58.71 62.5 62.45 64.23 66.85 65.47C71.31 66.65 75.83 67.24 80.41 67.24Q89.32 67.24 95.36 64.36C99.45 62.37 102.48 59.77 104.46 56.55C106.44 53.27 107.43 49.65 107.43 45.69C107.43 39.56 105.24 34.67 100.84 31.01Z" fill="#000000" fill-opacity="1.000000" fill-rule="evenodd"/>
	<path id="ноября" d="M69.38 82.99L69.38 82.99Q67.93 82.29 66.14 82.29C64.91 82.29 63.8 82.54 62.81 83.06C61.82 83.57 61.01 84.29 60.39 85.23Q60.58 82.4 61.98 80.88C62.92 79.87 64.34 79.16 66.25 78.74L72.38 77.42L72 75L65.34 76.48C62.81 77.03 60.93 78.16 59.7 79.86Q57.86 82.4 57.86 86.88Q57.86 91.5 59.86 94.06Q60.52 94.88 61.36 95.44Q63.1 96.59 65.61 96.59C67.08 96.59 68.38 96.29 69.52 95.68C70.68 95.08 71.56 94.23 72.19 93.15C72.83 92.05 73.15 90.8 73.15 89.38C73.15 88.01 72.85 86.79 72.24 85.72C71.66 84.64 70.83 83.8 69.77 83.19Q69.58 83.09 69.38 82.99ZM27.58 95.84L27.58 95.84Q29.11 96.54 30.97 96.54C32.42 96.54 33.71 96.22 34.85 95.57C36 94.93 36.9 94.05 37.54 92.93C38.2 91.8 38.53 90.51 38.53 89.08C38.53 87.65 38.2 86.38 37.54 85.26Q37.08 84.43 36.43 83.79Q35.74 83.1 34.85 82.62C33.71 81.97 32.42 81.65 30.97 81.65Q29.11 81.65 27.58 82.35L27.58 82.35L27.58 82.35L27.58 82.35Q27.31 82.48 27.06 82.62C25.9 83.24 25 84.12 24.34 85.26Q24.22 85.47 24.11 85.68L24.11 85.68Q23.37 87.2 23.37 89.08Q23.37 90.89 24.06 92.39Q24.18 92.66 24.34 92.93C25 94.05 25.9 94.93 27.06 95.57Q27.31 95.71 27.58 95.84L27.58 95.84ZM84.65 81.65C86.07 81.65 87.33 81.96 88.45 82.59C89.57 83.21 90.44 84.08 91.06 85.2C91.71 86.32 92.03 87.61 92.03 89.08C92.03 90.55 91.71 91.85 91.06 92.99C90.44 94.11 89.57 94.98 88.45 95.6C87.33 96.22 86.07 96.54 84.65 96.54C83.61 96.54 82.65 96.33 81.77 95.93C80.9 95.53 80.17 94.94 79.56 94.17L79.56 101.71L76.92 101.71L76.92 81.79L79.45 81.79L79.45 84.1C80.04 83.29 80.78 82.69 81.68 82.29C82.58 81.86 83.57 81.65 84.65 81.65ZM6 81.79L8.64 81.79L8.64 87.98L16.94 87.98L16.94 81.79L19.59 81.79L19.59 96.37L16.94 96.37L16.94 90.26L8.64 90.26L8.64 96.37L6 96.37L6 81.79ZM53.55 81.79L53.55 96.37L51.19 96.37L51.19 91.75L46.65 91.75L43.46 96.37L40.62 96.37L44.17 91.39C43.07 91.06 42.23 90.52 41.64 89.77C41.06 89 40.76 88.04 40.76 86.91C40.76 85.24 41.33 83.97 42.47 83.11C43.6 82.23 45.17 81.79 47.17 81.79L53.55 81.79ZM107.07 96.37L107.07 81.79L100.69 81.79C98.69 81.79 97.12 82.23 95.99 83.11C94.85 83.97 94.28 85.24 94.28 86.91C94.28 88.04 94.57 89 95.16 89.77C95.75 90.52 96.59 91.06 97.69 91.39L94.14 96.37L96.98 96.37L100.17 91.75L104.71 91.75L104.71 96.37L107.07 96.37ZM33.47 93.59C32.74 94.01 31.9 94.23 30.97 94.23C30.03 94.23 29.19 94.01 28.44 93.59C27.7 93.15 27.11 92.55 26.67 91.78Q26.66 91.75 26.65 91.73L26.65 91.73Q26.04 90.56 26.04 89.08C26.04 88.07 26.25 87.18 26.67 86.41C27.11 85.62 27.7 85.02 28.44 84.6C29.19 84.17 30.03 83.96 30.97 83.96C31.9 83.96 32.74 84.17 33.47 84.6Q33.9 84.84 34.26 85.16L34.26 85.16Q34.84 85.68 35.23 86.41C35.65 87.18 35.86 88.07 35.86 89.08Q35.86 90.56 35.25 91.73Q35.25 91.74 35.24 91.75Q35.24 91.77 35.23 91.78Q34.9 92.39 34.42 92.86Q34 93.28 33.47 93.59ZM84.43 94.23C85.37 94.23 86.2 94.01 86.94 93.59C87.69 93.15 88.28 92.55 88.7 91.78C89.14 90.99 89.36 90.09 89.36 89.08C89.36 88.07 89.14 87.18 88.7 86.41C88.28 85.62 87.69 85.02 86.94 84.6C86.2 84.17 85.37 83.96 84.43 83.96C83.52 83.96 82.68 84.18 81.93 84.62C81.2 85.05 80.61 85.64 80.17 86.41C79.75 87.18 79.54 88.07 79.54 89.08Q79.54 90.56 80.15 91.73Q80.16 91.75 80.17 91.77L80.17 91.78C80.59 92.55 81.18 93.15 81.93 93.59C82.68 94.01 83.52 94.23 84.43 94.23ZM43.46 86.99C43.46 87.96 43.76 88.69 44.37 89.16Q45.3 89.85 47.14 89.85L51.19 89.85L51.19 84.1L47.25 84.1C44.72 84.1 43.46 85.06 43.46 86.99ZM97.88 89.16C97.28 88.69 96.98 87.96 96.98 86.99C96.98 85.06 98.24 84.1 100.77 84.1L104.71 84.1L104.71 89.85L100.66 89.85C99.43 89.85 98.51 89.62 97.88 89.16ZM68.14 93.76C67.43 94.18 66.6 94.39 65.67 94.39C64.75 94.39 63.93 94.18 63.19 93.76C62.46 93.34 61.88 92.76 61.46 92.02C61.06 91.27 60.85 90.42 60.85 89.47C60.85 88.02 61.29 86.85 62.17 85.97C63.07 85.09 64.24 84.65 65.67 84.65C67.1 84.65 68.25 85.09 69.13 85.97Q69.46 86.3 69.71 86.69Q70.46 87.84 70.46 89.47Q70.46 90.82 69.91 91.9L69.91 91.9L69.91 91.9Q69.88 91.97 69.85 92.02C69.45 92.76 68.88 93.34 68.14 93.76Z" fill="#000000" fill-opacity="1.000000" fill-rule="evenodd"/>
</svg>
