<svg width="58.747559" height="70.253418" viewBox="0 0 58.7476 70.2534" fill="none" xmlns="http://www.w3.org/2000/svg" xmlns:xlink="http://www.w3.org/1999/xlink">
	<desc>
			Created with Pixso.
	</desc>
	<defs>
		<linearGradient x1="0.997559" y1="34.724606" x2="57.997543" y2="34.724606" id="paint_linear_27_7578_0" gradientUnits="userSpaceOnUse">
			<stop stop-color="#F7941D"/>
			<stop offset="1.000000" stop-color="#27AAE1"/>
		</linearGradient>
	</defs>
	<path id="600" d="M45.55 33.58Q50.02 35.8 52.37 39.42Q54.74 43.03 54.74 47.77Q54.74 53.36 51.55 57.54Q48.38 61.69 42.61 63.98Q36.85 66.25 29.3 66.25Q21.72 66.25 15.98 63.98Q10.27 61.69 7.12 57.54Q4 53.36 4 47.77Q4 43.03 6.37 39.42Q8.74 35.8 13.13 33.58Q9.77 31.5 7.96 28.37Q6.16 25.22 6.16 21.19Q6.16 15.94 9.08 12.08Q11.99 8.19 17.24 6.09Q22.49 4 29.3 4Q36.16 4 41.45 6.09Q46.74 8.19 49.66 12.08Q52.6 15.94 52.6 21.19Q52.6 25.22 50.8 28.37Q48.99 31.5 45.55 33.58ZM29.3 14.22Q25.08 14.22 22.53 16.26Q19.99 18.27 19.99 21.8Q19.99 25.22 22.49 27.22Q24.99 29.19 29.3 29.19Q33.58 29.19 36.16 27.22Q38.74 25.22 38.74 21.8Q38.74 18.27 36.16 16.26Q33.58 14.22 29.3 14.22ZM29.3 56.02Q34.52 56.02 37.57 53.65Q40.63 51.28 40.63 47.33Q40.63 43.38 37.57 41.05Q34.52 38.72 29.3 38.72Q24.13 38.72 21.11 41.05Q18.1 43.38 18.1 47.33Q18.1 51.38 21.11 53.71Q24.13 56.02 29.3 56.02Z" stroke="url(#paint_linear_27_7578_0)" stroke-opacity="1.000000" stroke-width="4.000000"/>
</svg>
