<svg width="313.001221" height="305.267212" viewBox="0 0 313.001 305.267" fill="none" xmlns="http://www.w3.org/2000/svg" xmlns:xlink="http://www.w3.org/1999/xlink">
	<desc>
			Created with Pixso.
	</desc>
	<defs>
		<linearGradient x1="52.001221" y1="66.012512" x2="312.001160" y2="66.012512" id="paint_linear_27_4964_0" gradientUnits="userSpaceOnUse">
			<stop stop-color="#F7941D"/>
			<stop offset="1.000000" stop-color="#27AAE1"/>
		</linearGradient>
		<linearGradient x1="140.833603" y1="185.435043" x2="140.349457" y2="192.409164" id="paint_linear_27_4980_0" gradientUnits="userSpaceOnUse">
			<stop stop-color="#FFFFFF"/>
			<stop offset="0.372600" stop-color="#FDFDFD"/>
			<stop offset="0.506900" stop-color="#F6F6F6"/>
			<stop offset="0.602600" stop-color="#EBEBEB"/>
			<stop offset="0.680000" stop-color="#DADADA"/>
			<stop offset="0.746300" stop-color="#C4C4C4"/>
			<stop offset="0.805000" stop-color="#A8A8A8"/>
			<stop offset="0.858100" stop-color="#888888"/>
			<stop offset="0.906900" stop-color="#626262"/>
			<stop offset="0.952300" stop-color="#373737"/>
			<stop offset="0.992600" stop-color="#090909"/>
			<stop offset="1.000000" stop-color="#000000"/>
		</linearGradient>
	</defs>
	<mask id="mask_27_4964" fill="white">
		<path id="Union" d="M72.0012 1L292.001 1C303.047 1 312.001 9.95435 312.001 21L312.001 94.3027C312.001 105.349 303.047 114.303 292.001 114.303L229.501 114.303L194.862 130.828C193.535 131.461 192.001 130.493 192.001 129.023L192.001 114.303L72.0012 114.303C60.9556 114.303 52.0012 105.349 52.0012 94.3027L52.0012 21C52.0012 9.95435 60.9556 1 72.0012 1Z" clip-rule="evenodd" fill="" fill-opacity="1.000000" fill-rule="evenodd"/>
	</mask>
	<path id="Union" d="M72.0012 1L292.001 1C303.047 1 312.001 9.95435 312.001 21L312.001 94.3027C312.001 105.349 303.047 114.303 292.001 114.303L229.501 114.303L194.862 130.828C193.535 131.461 192.001 130.493 192.001 129.023L192.001 114.303L72.0012 114.303C60.9556 114.303 52.0012 105.349 52.0012 94.3027L52.0012 21C52.0012 9.95435 60.9556 1 72.0012 1Z" clip-rule="evenodd" fill="#FFFFFF" fill-opacity="1.000000" fill-rule="evenodd" mask="url(#mask_27_4964)"/>
	<path id="Union" d="M72.0012 0L292.001 0Q300.7 0 306.85 6.15076Q313.001 12.3015 313.001 21L313.001 94.3027Q313.001 103.001 306.85 109.152Q300.7 115.303 292.001 115.303L229.501 115.303L229.501 114.303L229.932 115.205L195.293 131.73Q193.8 132.443 192.401 131.56Q191.001 130.677 191.001 129.023L191.001 114.303L192.001 114.303L192.001 115.303L72.0012 115.303Q63.3027 115.303 57.152 109.152Q51.0012 103.001 51.0012 94.3027L51.0012 21Q51.0012 12.3015 57.152 6.15076Q63.3027 0 72.0012 0ZM72.0012 2Q64.1311 2 58.5662 7.56494Q53.0012 13.1299 53.0012 21L53.0012 94.3027Q53.0012 102.173 58.5662 107.738Q64.1311 113.303 72.0012 113.303L193.001 113.303L193.001 129.023Q193.001 129.574 193.468 129.868Q193.934 130.163 194.432 129.925L229.275 113.303L292.001 113.303Q299.871 113.303 305.436 107.738Q311.001 102.173 311.001 94.3027L311.001 21Q311.001 13.1299 305.436 7.56494Q299.871 2 292.001 2L72.0012 2Z" fill="url(#paint_linear_27_4964_0)" fill-opacity="1.000000" fill-rule="nonzero"/>
	<path id="baseLayer" d="M133.65 232.83C146.06 232.25 157.5 231.77 166.61 227.3C177.93 221.72 187.18 206.31 179.9 190.84C171.34 172.67 154.7 162.74 134.48 155.64C134.73 146.85 132.32 139.71 128.95 132.77C122.69 119.97 116.07 107.07 99.87 102.6C93.97 100.96 87.21 100.89 89.62 108.13C95.35 122.13 117.01 127.06 118.98 143.83C119.56 148.68 118.78 153.26 117.31 156.9C114.3 161.4 112.47 155.34 110.67 152.63C109.01 150.11 107.51 148.38 106.51 146.85C103.75 142.62 101.75 137.95 99.04 134.53C95.38 129.95 88.6 125.88 83.53 122.71C77.63 119.04 71.57 115.49 63.59 115.67C62.54 116.9 61.57 118.18 61.65 120.45C63.92 131.01 77.58 131.48 85.19 137.29C91.56 142.14 95.22 148.35 99.31 157.41C100.23 159.09 97.02 163.29 95.71 164.7C93.55 167.06 89.87 168.34 87.13 170.48C84.91 172.21 82.64 174.5 80.21 176.51C77.82 178.47 75.17 180.71 73.56 182.8C69.68 187.85 65.56 196.1 67.47 206.68C67.99 209.62 71.59 215.13 73.56 217.24C78.6 222.7 90.12 227.3 99.04 229.81C109.84 232.86 121.52 233.41 133.65 232.83ZM10.2 267.8C12.58 267.8 19.06 267.55 22.52 268.38C23.02 261.54 24.71 254.93 27.89 248.69C30.94 242.74 35.18 237.18 41.19 231.25C41.19 231.02 41.19 230.79 41.19 230.54C42.24 228.83 43.73 227.5 45.34 226.27C45.56 226.32 45.76 226.37 45.98 226.39C49.52 223.25 53.4 220.01 58.08 217.54C58.08 217.37 58.05 217.19 58.05 216.99C60.85 215.68 63.09 213.87 66.36 212.97C68.02 216.06 69.82 219.25 72.45 221.26C77.77 225.36 85.77 228.98 94.05 231.82C108.34 236.73 123.99 237.18 140.85 235.6C145.67 244.67 144.45 258.65 142.79 269.79C141.07 281.3 138.8 292.49 132.27 298.7C130.25 295.81 128.36 291.89 125.9 287.39C124.35 284.52 121 276.32 116.48 278.08C115.54 281.98 118.2 289.2 115.38 292.92C112.83 287.44 109.34 282.81 102.08 281.6C102.33 277.15 100.89 274.94 99.87 271.3C96.74 259.98 92.75 252.31 85.19 245.9C83.45 244.42 79.07 241.58 76.88 244.9C77.77 246.56 79.87 246.36 81.31 247.16C83.22 248.24 85.74 250.98 87.68 253.19C93.94 260.39 97.9 273.48 97.65 283.62C100.28 285.83 104.85 284.62 107.07 287.14C108.07 288.27 109.42 291.54 109.01 293.92C108.67 295.81 105.21 298.55 102.91 299.46C99.01 301.01 92.61 300.74 86.02 300.46C79.74 300.18 73.14 300.21 68.02 299.71C59.94 298.93 52.1 296.61 45.59 294.68C42.88 293.87 40.13 293.82 37.84 293.17C31.22 291.28 28.45 287.71 25.37 282.61C24.99 281.98 24.65 281.3 24.35 280.6C22.41 280.9 19.81 280.45 20.69 282.13C17.84 283.89 14.52 285.25 10.45 285.9C7.21 283.24 4.97 278.66 5.24 273.16C5.13 273.08 4.99 272.98 4.91 272.88L4.61 272.63L4.61 272.3C4.63 269.49 6.71 267.8 10.2 267.8Z" fill="#D3D3D3" fill-opacity="1.000000" fill-rule="evenodd"/>
	<path id="しっぽ_2_" d="M13.36 285.88C16.37 285.88 19.25 284.12 20.81 281.25L21.19 280.52L20.94 279.62C19.78 275.39 15.63 272.55 12.5 272.55C9.01 272.55 6.93 275.77 6.9 281.2L6.9 281.83L7.18 282.26C8.62 284.6 10.81 285.88 13.36 285.88Z" fill="#FFFFFF" fill-opacity="1.000000" fill-rule="evenodd"/>
	<path id="足" d="M102.11 285.95C102.11 285.95 88.24 293.9 57.08 285.88C57.08 285.88 32.99 272.58 27.87 287.39C25.9 293.04 35.34 295.1 35.34 295.1C35.34 295.1 84.17 304.63 99.04 302.22C113.91 299.81 113.77 284.8 102.11 285.95Z" fill="#FFFFFF" fill-opacity="1.000000" fill-rule="evenodd"/>
	<path id="おなか" d="M133.57 298.68C133.57 298.68 138.61 273.63 124.18 264.33C109.75 255.03 96.21 260.31 96.21 260.31L103.3 283.14L114.88 296.56L121.39 289.1L133.57 298.68Z" fill="#FFFFFF" fill-opacity="1.000000" fill-rule="evenodd"/>
	<path id="Vector" d="M99.26 155.37C95.1 146.22 91.42 139.93 84.91 134.95C82.2 132.89 78.74 131.46 75.39 130.1C69.05 127.51 63.06 125.07 61.68 118.54L60.05 118.66C59.77 126.51 66.36 132.94 70.29 136.11C73.84 138.93 77.82 141.42 81.67 143.83C85.02 145.94 88.21 147.93 90.81 149.94C91.73 150.67 92.61 151.6 93.47 152.5C94.91 154.04 96.41 155.62 98.23 156.35L100.12 157.08L99.26 155.37Z" fill="#FFFFFF" fill-opacity="1.000000" fill-rule="evenodd"/>
	<path id="Vector" d="M118.23 157C119.86 152.93 120.61 147.32 120.08 142.75C118.95 133.07 111.5 127.24 104.27 121.58C98.54 117.1 92.61 112.95 90.15 106.97C90.54 111.27 91.53 115.09 93.55 118.56C93.83 119.06 94.14 119.57 94.41 120.04C95.16 121.35 95.85 122.74 96.52 124.04C97.79 126.56 99.12 129.17 100.81 131.43C101.59 132.49 102.53 133.37 103.44 134.22C104.3 135.05 105.13 135.83 105.79 136.71C106.76 137.97 107.57 139.3 108.43 140.74C108.81 141.36 109.2 142.04 109.64 142.7C112.47 147.15 114.96 151.25 116.79 156.15L117.31 158.18L118.23 157Z" fill="#FFFFFF" fill-opacity="1.000000" fill-rule="evenodd"/>
	<path id="あご" d="M69.21 192.83C69.21 192.83 52.51 227.3 113.99 234.59C113.99 234.59 125.57 237.41 134.46 232.33L134.93 232.3C114.82 228.61 82.98 220.26 69.21 192.83Z" fill="#FFFFFF" fill-opacity="1.000000" fill-rule="evenodd"/>
	<path id="輪郭" d="M131.88 305.26C135.59 305.26 138.33 299.76 140 296.49C140.19 296.11 140.35 295.78 140.49 295.51C142.68 291.31 144.7 287.21 145.53 282.99C149.55 262.67 149.74 246.96 146.12 236.27C160.16 235.19 170.68 231.52 177.44 225.31C184.3 219 187.82 210.1 187.1 200.85C186.02 187.15 176.94 177.27 169.13 170.2C159.85 161.78 147.72 156.25 138.08 152.4C137.92 143.3 134.01 134.4 131.11 128.44C127.62 121.35 123.68 114.11 118.78 109.13C114.3 104.58 105.66 98.98 96.1 98.07C95.63 98.02 95.13 98 94.61 98C91.39 98 87.3 98.9 85.88 100.91C83.28 104.63 85.74 111.75 86.91 114.66C87.77 116.75 88.82 118.56 89.84 120.27C90.37 121.18 90.9 122.06 91.37 122.94C90.56 122.43 89.76 121.91 88.9 121.35C86.52 119.79 83.83 118.06 80.9 116.5C74.47 113.13 69.41 111.47 65.42 111.47C63.42 111.47 61.71 111.9 60.35 112.75C57.39 114.61 56.5 119.37 56.94 123.01C58.05 132.14 66.44 138.2 73.17 143.07L73.59 143.38C75.69 144.91 77.85 146.34 79.93 147.75C85.14 151.25 90.06 154.54 93.66 158.79C92.58 161.6 89.87 163.46 87.27 165.25C86.85 165.53 86.46 165.8 86.05 166.08C83.34 168.01 81.04 170.1 78.63 172.31C78.21 172.69 77.8 173.07 77.38 173.45C77.05 173.75 76.69 174.07 76.36 174.38C70.87 179.33 66.17 183.58 63.62 191.87C62.34 195.97 61.79 204.87 63.62 209.78C52.98 213.87 43.68 220.81 34.4 231.6C33.65 232.45 32.88 233.33 32.16 234.16C28.97 237.76 25.68 241.45 23.24 246.05C20.25 251.66 18.92 258.07 17.79 264.68C15.05 263.73 12.39 263.23 9.98 263.23C4.47 263.23 0.89 265.94 0.17 270.67C-0.38 274.34 0.37 278.96 2.17 283.01C4.05 287.21 6.57 289.9 9.15 290.38C9.7 290.48 10.25 290.53 10.84 290.53C13.66 290.53 16.15 289.3 18.56 288.12C19.81 287.51 20.97 286.93 22.11 286.56C26.15 294.9 36.42 297.09 47.31 299.43C48.5 299.68 49.69 299.93 50.91 300.21C52.4 300.54 53.87 300.91 55.45 301.32C59.46 302.32 63.62 303.38 68.19 303.75C71.79 304.06 75.97 304.08 80.01 304.11C82.92 304.13 85.91 304.13 88.71 304.26C90.4 304.33 91.89 304.36 93.3 304.36C100.62 304.36 108.54 303.53 112.58 297.72C112.66 297.87 112.75 298.05 112.83 298.2C113.41 299.33 114.1 300.76 116.12 300.76C116.26 300.76 116.4 300.76 116.54 300.74C119.75 300.46 121 293.67 121.47 289.62C122.33 291.23 123.21 292.77 124.13 294.35C125.1 296.01 126.09 297.72 127.06 299.56C127.23 299.88 127.42 300.28 127.62 300.74C128.53 302.72 129.58 304.99 131.24 305.26C131.49 305.26 131.69 305.26 131.88 305.26ZM79.68 242.61C78.21 242.61 76.99 243.26 76.16 244.52L75.94 244.87L76.14 245.25C76.86 246.63 78.27 247.01 79.4 247.31C79.96 247.46 80.48 247.61 80.9 247.84C82.75 248.9 85.3 251.69 87.05 253.7C92.89 260.41 97.1 273.28 96.85 283.64L96.85 283.99L97.13 284.22C98.54 285.43 100.39 285.73 102.14 286C103.86 286.28 105.49 286.56 106.43 287.64C107.26 288.59 108.56 291.66 108.2 293.85C107.95 295.36 104.83 297.92 102.61 298.8C100.62 299.58 97.71 299.96 93.47 299.96C91.09 299.96 88.43 299.83 86.1 299.73C83.92 299.63 81.67 299.58 79.49 299.51C75.36 299.4 71.46 299.28 68.16 298.98C60.05 298.2 52.21 295.86 45.89 293.97C44.4 293.52 42.93 293.32 41.49 293.09C40.27 292.92 39.14 292.74 38.14 292.47C31.61 290.58 28.95 286.91 26.15 282.26C24.49 279.52 23.44 275.77 23.21 272.03C22.91 252.19 32.99 239.72 41.82 231.07L41.88 230.99L41.93 230.92C42.99 229.18 44.54 227.9 45.89 226.85L45.92 226.82L45.95 226.8C49.63 223.53 53.65 220.11 58.5 217.62C59.52 217.14 60.49 216.59 61.4 216.06C62.9 215.21 64.28 214.4 65.97 213.85C67.63 216.94 69.41 219.83 71.95 221.79C78.13 226.54 87.24 230.24 93.8 232.48C102.89 235.6 113.02 237.1 124.76 237.1C129.61 237.1 134.73 236.85 140.38 236.35C144.92 245.45 143.48 259.68 141.99 269.64C140.41 280.25 138.36 291.11 132.41 297.39C131.16 295.46 129.91 293.14 128.53 290.48C127.95 289.35 127.31 288.19 126.67 286.98C126.48 286.63 126.26 286.18 126.01 285.68C124.27 282.23 121.63 277.03 117.79 277.03C117.26 277.03 116.73 277.13 116.21 277.33L115.82 277.48L115.74 277.86C115.35 279.49 115.51 281.55 115.71 283.74C115.93 286.36 116.18 289.05 115.46 291.06C113.19 286.63 109.78 282.28 103 280.93C103.05 277.91 102.36 275.9 101.61 273.76C101.31 272.91 101 272.03 100.73 271.04C97.35 258.88 93.03 251.41 85.8 245.27C85 244.7 82.31 242.61 79.68 242.61ZM19.61 281.83C16.9 283.41 13.97 284.47 10.67 285.05C7.79 282.48 5.19 277.58 6.24 271.15L6.24 271.1L6.24 271.04C6.27 268.56 8.4 268.05 10.17 268.05C12.91 268.05 16.18 269.36 17.07 270.77C17.43 274.39 18.01 278.49 19.61 281.83ZM94.16 102.45C95.69 102.45 97.57 102.75 99.65 103.3C115.85 107.78 122.41 121.2 128.2 133.04C131.05 138.88 133.93 146.14 133.65 155.59L133.63 156.12L134.18 156.32C157.86 164.65 171.73 175.38 179.12 191.12C186.02 205.73 177.77 220.94 166.19 226.62C157.41 230.92 146.2 231.47 134.35 232.03L133.6 232.05C130.77 232.18 128.06 232.25 125.51 232.25C115.46 232.25 106.87 231.22 99.26 229.06C90.31 226.54 79.02 221.97 74.17 216.71C72.18 214.55 68.74 209.22 68.27 206.51C66.39 196.1 70.46 188.08 74.22 183.18C75.72 181.21 78.16 179.15 80.76 177.02C81.9 176.09 83 175.08 84.06 174.12C85.3 172.99 86.49 171.91 87.66 171.01C88.76 170.15 90.04 169.4 91.31 168.69C93.11 167.66 94.99 166.61 96.35 165.12C96.41 165.07 101.45 159.54 100.06 157L99.92 156.75L99.65 156.65C98.15 156.07 96.85 154.69 95.49 153.21C94.61 152.25 93.69 151.27 92.67 150.47C90.01 148.38 86.8 146.37 83.39 144.25C79.6 141.87 75.64 139.4 72.18 136.64C68.44 133.67 62.23 127.61 62.48 120.4L62.48 120.37L62.48 120.35C62.43 118.51 63.12 117.4 64.01 116.35C64.06 116.35 64.12 116.35 64.17 116.35C71.43 116.35 77.02 119.49 83.06 123.26L84.06 123.89C88.93 126.93 95.02 130.73 98.34 134.9C99.9 136.86 101.23 139.23 102.61 141.74C103.61 143.53 104.63 145.39 105.79 147.15C106.27 147.88 106.82 148.61 107.46 149.46C108.2 150.47 109.06 151.57 109.95 152.93C110.31 153.46 110.64 154.14 111.03 154.84C112.16 156.98 113.33 159.19 115.18 159.19C116.18 159.19 117.12 158.54 118.01 157.2L118.2 156.9L118.09 156.58C116.23 151.55 113.71 147.4 110.83 142.87C110.42 142.22 110.03 141.57 109.64 140.94C108.81 139.55 107.93 138.12 106.93 136.79C106.18 135.81 105.27 134.95 104.41 134.12C103.5 133.27 102.67 132.46 101.95 131.51C100.31 129.35 99.09 126.91 97.76 124.34C97.07 123.01 96.38 121.63 95.6 120.27C95.33 119.77 95.02 119.27 94.74 118.76C92.81 115.42 90.78 111.97 90.45 107.98L90.45 107.9L90.42 107.83C89.76 105.86 89.79 104.41 90.51 103.53C91.14 102.85 92.39 102.45 94.16 102.45Z" fill="#000000" fill-opacity="1.000000" fill-rule="evenodd"/>
	<path id="口内色" d="M115.93 189.08C115.82 196.63 123.16 204.47 131.99 205.43C135.32 205.78 140.8 206.05 142.79 205.43C145.75 204.47 149.85 199.29 149.72 195.37C144.59 195.39 140.94 197.38 136.42 196.63C129.5 195.47 122.16 191.2 116.21 189.08C116.15 188.81 115.93 188.93 115.93 189.08Z" fill="#FFFFFF" fill-opacity="0.400000" fill-rule="evenodd"/>
	<path id="ノーマル" d="M137.14 210.28C144.32 210.28 149.49 207.71 152.98 202.41C153.81 201.15 156.33 194.16 155.06 191.07C154.75 190.32 154.23 189.81 153.51 189.59C153.12 189.46 152.79 189.41 152.46 189.41C151.38 189.41 150.8 190.04 150.35 190.52C150.05 190.84 149.77 191.15 149.36 191.32C147.11 191.4 145.26 191.75 143.62 192.05C142.02 192.35 140.66 192.6 139.16 192.6C138.91 192.6 138.67 192.6 138.42 192.58C131.96 192.2 120.91 186.7 115.96 183.85C115.35 183.5 114.71 183.33 114.05 183.33C113.38 183.33 112.72 183.5 112.08 183.85L111.89 183.95L111.83 184.16C110.23 189.61 111.11 194.97 114.35 199.64C117.9 204.77 124.07 208.52 130.8 209.67C133.04 210.08 135.18 210.28 137.14 210.28ZM149.16 195.87C148.94 199.39 145.31 204.09 142.63 204.95C142.13 205.1 141.05 205.3 138.72 205.3C136.75 205.3 134.29 205.15 132.07 204.92C123.91 204.04 116.79 197.03 116.51 189.71C118.42 190.42 120.47 191.32 122.6 192.28C127.09 194.29 131.74 196.35 136.34 197.1C137.06 197.23 137.78 197.28 138.55 197.28C140.35 197.28 142.04 196.95 143.82 196.6C145.48 196.3 147.22 195.95 149.16 195.87Z" fill="#000000" fill-opacity="1.000000" fill-rule="evenodd"/>
	<path id="Vector" d="M117.51 180.54C117.62 180.54 117.7 180.54 117.81 180.54C119.64 180.46 121.36 179.25 122.19 177.47C122.71 176.36 122.85 175.08 122.6 173.87C122.52 173.5 121.69 170.18 117.43 169.93L117.4 169.93L117.37 169.93C116.57 169.98 113.83 170.35 112.66 172.34C112.27 173.02 112.11 173.82 112.14 174.68C112.3 178.3 114.38 180.54 117.51 180.54Z" fill="#FFFFFF" fill-opacity="0.600000" fill-rule="evenodd"/>
	<path id="Vector" d="M154.7 183.63C155.72 183.78 159.19 183.93 160.29 180.11C160.71 178.65 160.79 177.37 160.57 176.24C160.16 174.17 158.77 173.32 157.47 172.74L157.41 172.72L157.36 172.72C154.37 172.31 152.54 173.5 151.93 176.24C151.54 177.95 151.54 179.53 151.93 180.81C152.46 182.67 153.76 183.5 154.7 183.63Z" fill="#FFFFFF" fill-opacity="0.600000" fill-rule="evenodd"/>
	<path id="Vector" d="M117.87 178.52C119.75 181.57 124.51 182.32 126.45 180.03C133.21 171.99 120.28 163.97 117.31 173.24C117.26 173.37 117.2 173.52 117.18 173.65C116.65 175.51 117.51 177.82 117.87 178.52Z" fill="#000000" fill-opacity="1.000000" fill-rule="evenodd"/>
	<path id="Vector" d="M156.08 181.79C156.42 180.51 157 179.43 156.92 177.77C156.47 174.3 153.04 169.98 148.33 171.99C141.43 174.93 147.22 189.84 156.08 181.79Z" fill="#000000" fill-opacity="1.000000" fill-rule="evenodd"/>
</svg>
