<svg width="32.846680" height="32.809448" viewBox="0 0 32.8467 32.8094" fill="none" xmlns="http://www.w3.org/2000/svg" xmlns:xlink="http://www.w3.org/1999/xlink">
	<desc>
			Created with Pixso.
	</desc>
	<defs/>
	<path id="Vector" d="M32.47 6.77L26.03 0.33C25.58 -0.12 24.78 -0.12 24.33 0.33L17.25 7.42C16.8 7.87 16 7.87 15.55 7.42L8.47 0.33C8.02 -0.12 7.22 -0.12 6.77 0.33L0.33 6.77C-0.12 7.22 -0.12 8.02 0.33 8.47L7.42 15.55C7.87 16 7.87 16.8 7.42 17.25L0.33 24.33C-0.12 24.78 -0.12 25.58 0.33 26.03L6.77 32.47C7.22 32.92 8.02 32.92 8.47 32.47L15.55 25.38C16 24.93 16.8 24.93 17.25 25.38L24.33 32.47C24.78 32.92 25.58 32.92 26.03 32.47L32.47 26.03C32.92 25.58 32.92 24.78 32.47 24.33L25.38 17.25C24.93 16.8 24.93 16 25.38 15.55L32.47 8.47C32.97 8.02 32.97 7.27 32.47 6.77Z" fill="#00093C" fill-opacity="1.000000" fill-rule="nonzero"/>
</svg>
