<svg width="46.614258" height="40.000000" viewBox="0 0 46.6143 40" fill="none" xmlns="http://www.w3.org/2000/svg" xmlns:xlink="http://www.w3.org/1999/xlink">
	<desc>
			Created with Pixso.
	</desc>
	<defs>
		<linearGradient x1="0.000000" y1="20.000000" x2="46.614185" y2="20.000000" id="paint_linear_88_3534_0" gradientUnits="userSpaceOnUse">
			<stop stop-color="#F7941D"/>
			<stop offset="1.000000" stop-color="#27AAE1"/>
		</linearGradient>
	</defs>
	<path id="Vector" d="M22.02 15.3C23.22 15.3 23.22 13.44 22.02 13.44C20.82 13.44 20.82 15.3 22.02 15.3ZM32.51 23.93C32.73 23.82 32.95 23.6 33.06 23.38L33.71 21.74C33.82 21.53 34.15 21.42 34.37 21.42L40.38 21.42C40.6 21.42 40.93 21.53 41.04 21.74L44.97 28.08C45.08 28.19 45.08 28.41 45.08 28.41C45.08 28.63 44.97 28.85 44.75 28.96C44.64 29.07 44.42 29.07 44.2 29.07C44.1 29.07 43.88 28.96 43.77 28.85L41.91 25.57C41.69 25.24 41.25 25.02 40.93 25.13C40.49 25.24 40.27 25.57 40.27 26.01L40.27 31.8L40.27 38.03L38.19 38.03L38.19 31.8C38.19 31.25 37.76 30.92 37.32 30.92C36.77 30.92 36.45 31.36 36.45 31.8L36.45 38.03L34.37 38.03L34.37 31.8L34.37 26.01C34.37 25.46 33.93 25.13 33.49 25.13C32.95 25.13 32.62 25.57 32.62 26.01L32.62 26.12L27.05 23.16L26.94 23.16C26.72 23.06 26.5 22.84 26.5 22.51C26.5 22.4 26.5 22.4 26.5 22.29C26.61 22.07 26.72 21.96 26.83 21.96C26.94 21.85 27.16 21.85 27.27 21.96L31.86 23.93C31.96 23.93 32.07 24.04 32.18 24.04C32.29 24.04 32.4 24.04 32.51 23.93ZM35.02 17.37C35.02 16.06 36.01 15.08 37.32 15.08C38.63 15.08 39.61 16.06 39.61 17.37C39.61 18.68 38.63 19.67 37.32 19.67C36.01 19.67 35.02 18.68 35.02 17.37ZM10.43 4.8C10.43 3.16 11.86 1.74 13.49 1.74C15.13 1.74 16.55 3.16 16.55 4.8C16.55 6.44 15.13 7.86 13.49 7.86C11.75 7.75 10.43 6.44 10.43 4.8ZM8.58 4.8C8.58 6.01 9.01 6.99 9.67 7.86C8.69 7.86 7.81 8.41 7.27 9.18L0.49 18.79C-0.39 20.1 -0.06 21.85 1.14 22.73C1.58 23.06 2.24 23.27 2.78 23.27C3.77 23.27 4.64 22.84 5.08 22.07L7.59 18.46L7.59 26.33L7.59 39.12C7.59 39.67 8.03 40 8.47 40L13.28 40L18.08 40C18.63 40 18.96 39.56 18.96 39.12L18.96 26.33L18.96 18.46L21.47 22.07C22.13 23.06 23.33 23.49 24.31 23.27C24.53 24.04 25.08 24.69 25.84 25.02L32.18 28.41L32.18 32.02L32.18 39.12C32.18 39.67 32.62 40 33.06 40L36.99 40L40.93 40C41.47 40 41.8 39.56 41.8 39.12L41.8 32.02L41.8 29.72L42.02 30.05C42.02 30.05 42.02 30.05 42.02 30.16C42.46 30.71 43 31.03 43.66 31.14C44.31 31.25 44.97 31.14 45.52 30.71C46.17 30.27 46.61 29.5 46.61 28.63C46.61 28.08 46.5 27.65 46.17 27.21L42.24 20.87C41.8 20.21 41.14 19.89 40.49 19.78C40.93 19.12 41.25 18.36 41.25 17.48C41.25 15.19 39.4 13.33 37.1 13.33C34.81 13.33 32.95 15.19 32.95 17.48C32.95 18.36 33.17 19.12 33.71 19.78C32.95 19.89 32.29 20.32 31.96 20.87C31.96 20.98 31.86 20.98 31.86 21.09L31.53 21.96L27.81 20.32C27.81 20.32 27.81 20.32 27.7 20.32C27.37 20.21 27.05 20.1 26.72 20.21C26.72 19.78 26.5 19.23 26.17 18.9L24.2 16.06C23.88 15.62 23.33 15.51 22.89 15.84C22.46 16.17 22.35 16.72 22.67 17.15L24.64 20C24.75 20.21 24.86 20.32 24.86 20.54C24.86 20.87 24.75 21.2 24.42 21.42C23.99 21.74 23.33 21.63 23 21.2L18.74 15.19C18.52 14.86 18.08 14.75 17.76 14.86C17.32 14.97 17.1 15.3 17.1 15.73L17.1 26.55L17.1 38.36L14.15 38.36L14.15 26.55C14.15 26.01 13.71 25.68 13.28 25.68C12.73 25.68 12.4 26.12 12.4 26.55L12.4 38.36L9.45 38.36L9.45 26.55L9.45 15.73C9.45 15.3 9.23 14.97 8.8 14.86C8.36 14.75 8.03 14.86 7.81 15.19L3.55 21.2C3.33 21.42 3 21.63 2.67 21.63C2.46 21.63 2.24 21.53 2.13 21.42C1.69 21.09 1.58 20.43 1.91 20L8.69 10.38C8.9 10.05 9.34 9.83 9.67 9.83L16.99 9.83C17.43 9.83 17.76 10.05 17.98 10.38L19.83 13C20.16 13.44 20.71 13.55 21.14 13.22C21.58 12.89 21.69 12.34 21.36 11.91L19.51 9.28C18.96 8.52 18.08 7.97 17.1 7.97C17.76 7.1 18.19 6.12 18.19 4.91C18.19 2.18 16.01 0 13.28 0C10.54 0 8.58 2.07 8.58 4.8Z" fill="url(#paint_linear_88_3534_0)" fill-opacity="1.000000" fill-rule="nonzero"/>
</svg>
