<svg width="403.000244" height="308.298218" viewBox="0 0 403 308.298" fill="none" xmlns="http://www.w3.org/2000/svg" xmlns:xlink="http://www.w3.org/1999/xlink">
	<desc>
			Created with Pixso.
	</desc>
	<defs>
		<linearGradient x1="52.000244" y1="69.921265" x2="402.000153" y2="69.921265" id="paint_linear_88_3494_0" gradientUnits="userSpaceOnUse">
			<stop stop-color="#F7941D"/>
			<stop offset="1.000000" stop-color="#27AAE1"/>
		</linearGradient>
		<linearGradient x1="157.402313" y1="174.572342" x2="156.861191" y2="182.355057" id="paint_linear_18_14_0" gradientUnits="userSpaceOnUse">
			<stop stop-color="#FFFFFF"/>
			<stop offset="0.372600" stop-color="#FDFDFD"/>
			<stop offset="0.506900" stop-color="#F6F6F6"/>
			<stop offset="0.602600" stop-color="#EBEBEB"/>
			<stop offset="0.680000" stop-color="#DADADA"/>
			<stop offset="0.746300" stop-color="#C4C4C4"/>
			<stop offset="0.805000" stop-color="#A8A8A8"/>
			<stop offset="0.858100" stop-color="#888888"/>
			<stop offset="0.906900" stop-color="#626262"/>
			<stop offset="0.952300" stop-color="#373737"/>
			<stop offset="0.992600" stop-color="#090909"/>
			<stop offset="1.000000" stop-color="#000000"/>
		</linearGradient>
	</defs>
	<mask id="mask_88_3494" fill="white">
		<path id="Union" d="M72.0002 1L382 1C393.046 1 402 9.95435 402 21L402 91C402 102.046 393.046 111 382 111L229.5 111L195.25 138.401C193.94 139.448 192 138.516 192 136.839L192 111L72.0002 111C60.9546 111 52.0002 102.046 52.0002 91L52.0002 21C52.0002 9.95435 60.9546 1 72.0002 1Z" clip-rule="evenodd" fill="" fill-opacity="1.000000" fill-rule="evenodd"/>
	</mask>
	<path id="Union" d="M72.0002 1L382 1C393.046 1 402 9.95435 402 21L402 91C402 102.046 393.046 111 382 111L229.5 111L195.25 138.401C193.94 139.448 192 138.516 192 136.839L192 111L72.0002 111C60.9546 111 52.0002 102.046 52.0002 91L52.0002 21C52.0002 9.95435 60.9546 1 72.0002 1Z" clip-rule="evenodd" fill="#FFFFFF" fill-opacity="1.000000" fill-rule="evenodd" mask="url(#mask_88_3494)"/>
	<path id="Union" d="M72.0002 0L382 0C387.799 0 392.749 2.05029 396.849 6.15076C400.95 10.2513 403 15.2012 403 21L403 91C403 96.7988 400.95 101.749 396.849 105.849C392.749 109.95 387.799 112 382 112L229.5 112L229.5 111L230.125 111.781L195.874 139.181C194.892 139.967 193.834 140.088 192.701 139.543C191.567 138.998 191 138.097 191 136.839L191 111L192 111L192 112L72.0002 112C66.2012 112 61.2515 109.95 57.1511 105.849C53.0505 101.749 51.0002 96.799 51.0002 91L51.0002 21C51.0002 15.201 53.0505 10.2512 57.1511 6.15076C61.2515 2.05029 66.2012 0 72.0002 0L72.0002 0ZM72.0002 2C66.7537 2 62.2751 3.85498 58.5652 7.56494C54.8552 11.2749 53.0002 15.7533 53.0002 21L53.0002 91C53.0002 96.2467 54.8552 100.725 58.5652 104.435C62.2751 108.145 66.7534 110 72.0002 110L193 110L193 136.839C193 137.258 193.189 137.558 193.567 137.74C193.945 137.922 194.298 137.881 194.625 137.62L229.149 110L382 110C387.247 110 391.725 108.145 395.435 104.435C399.145 100.725 401 96.2466 401 91L401 21C401 15.7534 399.145 11.275 395.435 7.56494C391.725 3.85498 387.247 2 382 2L72.0002 2L72.0002 2Z" fill="url(#paint_linear_88_3494_0)" fill-opacity="1.000000" fill-rule="nonzero"/>
	<path id="Вы полюбите английский,  и вам его будет не хватат" d="M154.16 38.22Q153.32 37.8 152.27 37.8Q151.28 37.8 150.47 38.18Q150.4 38.22 150.33 38.25Q149.93 38.46 149.6 38.74Q149.22 39.08 148.92 39.51Q149.03 37.87 149.85 36.99Q150.67 36.11 152.33 35.74L155.9 34.97L155.67 33.56L151.8 34.43Q149.86 34.85 148.79 36.05Q148.65 36.21 148.52 36.39Q147.45 37.87 147.45 40.48Q147.45 43.16 148.63 44.64Q149.01 45.13 149.5 45.45Q150.51 46.12 151.96 46.12Q153.24 46.12 154.24 45.6Q154.85 45.28 155.29 44.8Q155.58 44.49 155.8 44.12Q155.85 44.02 155.9 43.92Q156.35 43.04 156.35 41.93Q156.35 40.79 155.88 39.9Q155.85 39.85 155.83 39.8Q155.56 39.32 155.19 38.95Q154.83 38.59 154.38 38.33Q154.27 38.27 154.16 38.22ZM82.43 41.16Q81.85 40.46 80.71 40.19Q81.44 39.91 81.88 39.38Q81.95 39.31 82 39.23Q82.06 39.15 82.11 39.07Q82.46 38.48 82.46 37.67Q82.46 36.83 82.08 36.23Q81.83 35.84 81.42 35.54Q80.39 34.8 78.55 34.8L73.74 34.8L73.74 46L78.86 46Q80.89 46 81.95 45.19Q82.37 44.88 82.63 44.46Q83.02 43.82 83.02 42.94Q83.02 42 82.58 41.36Q82.51 41.25 82.43 41.16ZM78.44 39.72L75.32 39.72L75.32 36.06L78.44 36.06Q79.6 36.06 80.22 36.53Q80.43 36.69 80.57 36.9Q80.84 37.3 80.84 37.9Q80.84 38.51 80.55 38.92Q80.42 39.11 80.23 39.26Q79.61 39.72 78.44 39.72ZM115.13 45.68Q116.03 46.09 117.12 46.09Q118.21 46.09 119.11 45.67Q119.25 45.61 119.38 45.53Q119.91 45.23 120.33 44.81Q120.68 44.44 120.94 43.99Q121.04 43.82 121.12 43.64Q121.52 42.79 121.52 41.76Q121.52 40.71 121.11 39.85Q121.04 39.68 120.94 39.52Q120.67 39.05 120.3 38.67Q119.9 38.27 119.38 37.99Q119.27 37.93 119.15 37.87Q118.24 37.44 117.12 37.44Q116 37.44 115.08 37.87Q114.96 37.92 114.84 37.99Q114.31 38.28 113.89 38.7Q113.53 39.06 113.27 39.52Q113.18 39.67 113.11 39.83Q112.7 40.7 112.7 41.76Q112.7 42.8 113.1 43.66Q113.17 43.83 113.27 43.99Q113.52 44.43 113.87 44.79Q114.29 45.22 114.84 45.53Q114.98 45.61 115.13 45.68ZM143.34 37.83Q142.48 37.44 141.44 37.44Q140.4 37.44 139.53 37.83Q139.48 37.85 139.42 37.88Q138.96 38.1 138.57 38.43Q138.22 38.73 137.94 39.12Q137.82 39.29 137.72 39.46Q137.32 40.15 137.2 40.99L135.47 40.99L135.47 37.51L133.93 37.51L133.93 46L135.47 46L135.47 42.41L137.18 42.41Q137.29 43.23 137.66 43.92Q137.77 44.13 137.9 44.32Q138.2 44.75 138.58 45.08Q138.95 45.4 139.4 45.63Q139.5 45.68 139.59 45.72Q140.43 46.09 141.44 46.09Q142.46 46.09 143.3 45.71Q143.48 45.63 143.64 45.53Q144.12 45.26 144.49 44.89Q144.89 44.49 145.18 43.99Q145.26 43.84 145.34 43.68Q145.74 42.81 145.74 41.76Q145.74 40.68 145.33 39.81Q145.26 39.66 145.18 39.52Q144.88 39 144.46 38.6Q144.1 38.24 143.64 37.99Q143.5 37.9 143.34 37.83ZM184.8 42.27Q184.83 41.98 184.83 41.8Q184.83 40.54 184.3 39.55Q184.29 39.54 184.29 39.53Q183.98 38.95 183.53 38.53Q183.2 38.22 182.8 37.99Q182.67 37.91 182.54 37.85Q181.69 37.44 180.64 37.44Q179.62 37.44 178.78 37.82Q178.61 37.9 178.45 37.99Q178.04 38.22 177.71 38.53Q177.25 38.96 176.93 39.53Q176.83 39.7 176.75 39.88Q176.38 40.74 176.38 41.76Q176.38 42.78 176.76 43.63Q176.84 43.82 176.95 44Q177.18 44.4 177.49 44.73Q177.94 45.21 178.55 45.54Q179.59 46.09 180.94 46.09Q182 46.09 182.85 45.74Q183.46 45.49 183.93 45.07Q184.12 44.91 184.28 44.71L183.43 43.72Q183.1 44.09 182.69 44.33Q181.96 44.75 180.99 44.75Q179.97 44.75 179.23 44.3Q179.06 44.2 178.9 44.07Q178.54 43.78 178.31 43.4Q178 42.91 177.91 42.27L184.8 42.27ZM91.71 41.13Q90.86 40.41 89.26 40.39L86.97 40.38L86.97 37.51L85.44 37.51L85.44 46L89 46.01Q90.72 46.03 91.63 45.28Q91.92 45.06 92.11 44.77Q92.56 44.12 92.56 43.16Q92.56 42.21 92.11 41.58Q91.94 41.33 91.71 41.13ZM95.35 37.51L93.82 37.51L93.82 46L95.35 46L95.35 37.51ZM110.51 46L110.51 37.51L102.65 37.51L102.65 46L104.19 46L104.19 38.86L108.97 38.86L108.97 46L110.51 46ZM130.96 46L130.96 37.51L124.45 37.51L124.3 40.65Q124.22 42.07 124.12 42.84Q124.03 43.61 123.71 44.17Q123.55 44.45 123.3 44.59Q123.06 44.73 122.75 44.73Q122.57 44.73 122.36 44.68L122.27 45.98Q122.8 46.12 123.21 46.12Q123.74 46.12 124.14 45.89Q124.42 45.73 124.64 45.44Q125.15 44.75 125.37 43.6Q125.59 42.46 125.68 40.75L125.77 38.86L129.42 38.86L129.42 46L130.96 46ZM160.08 37.51L158.54 37.51L158.54 46L159.95 46L165.13 39.82L165.13 46L166.67 46L166.67 37.51L165.27 37.51L160.08 43.69L160.08 37.51ZM172.86 38.86L175.96 38.86L175.96 37.51L168.22 37.51L168.22 38.86L171.32 38.86L171.32 46L172.86 46L172.86 38.86ZM179.29 39.04Q179.88 38.73 180.64 38.73Q181.37 38.73 181.94 39.03Q182.23 39.18 182.48 39.41Q182.75 39.66 182.94 39.96Q183.27 40.48 183.36 41.16L177.91 41.16Q178 40.42 178.38 39.87Q178.55 39.61 178.79 39.4Q179.02 39.19 179.29 39.04ZM118.31 44.51Q117.76 44.75 117.12 44.75Q116.45 44.75 115.9 44.5Q115.77 44.44 115.65 44.37Q115.41 44.23 115.21 44.05Q114.86 43.74 114.62 43.32Q114.61 43.3 114.6 43.28Q114.25 42.61 114.25 41.76Q114.25 40.89 114.61 40.21Q114.62 40.2 114.62 40.19Q114.87 39.75 115.23 39.45Q115.42 39.28 115.65 39.15Q115.76 39.09 115.86 39.04Q116.43 38.78 117.12 38.78Q117.79 38.78 118.34 39.03Q118.46 39.08 118.58 39.15Q118.83 39.29 119.03 39.47Q119.37 39.77 119.59 40.19Q119.96 40.87 119.96 41.76Q119.96 42.62 119.6 43.3Q119.6 43.31 119.59 43.32Q119.37 43.72 119.06 44.02Q118.84 44.22 118.58 44.37Q118.45 44.45 118.31 44.51ZM142.55 44.53Q142.04 44.75 141.44 44.75Q140.86 44.75 140.37 44.55Q140.18 44.48 140.01 44.38Q139.79 44.25 139.6 44.08Q139.25 43.77 139.01 43.33Q138.65 42.65 138.65 41.76Q138.65 40.87 139.01 40.19Q139.25 39.75 139.6 39.44Q139.79 39.27 140.01 39.15Q140.18 39.05 140.37 38.98Q140.86 38.78 141.44 38.78Q142.04 38.78 142.55 39Q142.71 39.06 142.85 39.15Q143.05 39.26 143.22 39.41Q143.6 39.73 143.85 40.19Q144.22 40.87 144.22 41.76Q144.22 42.65 143.85 43.33Q143.6 43.79 143.23 44.11Q143.05 44.26 142.85 44.38Q142.71 44.47 142.55 44.53ZM153.3 44.55Q152.72 44.84 151.99 44.84Q151.35 44.84 150.82 44.61Q150.68 44.55 150.55 44.48Q150.26 44.31 150.03 44.08Q149.75 43.81 149.55 43.46Q149.53 43.42 149.51 43.38Q149.19 42.76 149.19 41.98Q149.19 41.04 149.62 40.38Q149.77 40.15 149.97 39.95Q150.19 39.73 150.44 39.58Q151.1 39.18 151.99 39.18Q152.91 39.18 153.57 39.59Q153.81 39.74 154.01 39.95Q154.2 40.14 154.35 40.36Q154.78 41.03 154.78 41.98Q154.78 42.79 154.45 43.42Q154.44 43.44 154.43 43.46Q154.24 43.8 153.98 44.07Q153.74 44.3 153.44 44.48Q153.37 44.52 153.3 44.55ZM81.07 43.94Q80.48 44.73 78.83 44.73L75.32 44.73L75.32 40.94L78.83 40.94Q80.11 40.94 80.75 41.4Q80.94 41.52 81.07 41.69Q81.4 42.12 81.4 42.81Q81.4 43.5 81.07 43.94ZM90.47 44.43Q89.93 44.86 88.89 44.84L86.97 44.83L86.97 41.5L88.89 41.53Q89.95 41.55 90.47 41.93Q90.59 42.02 90.68 42.12Q91 42.5 91 43.15Q91 43.8 90.69 44.2Q90.59 44.33 90.47 44.43ZM293.29 44Q293.09 43.9 292.83 43.9Q292.54 43.9 292.31 44.02Q292.17 44.09 292.06 44.2Q291.97 44.29 291.9 44.4Q291.76 44.65 291.76 44.99Q291.76 45.25 291.86 45.46Q291.89 45.53 291.94 45.6Q292.02 45.72 292.13 45.81Q292.26 45.92 292.43 45.98L291.84 48.36L292.84 48.36L293.6 46.14Q293.76 45.67 293.81 45.45Q293.82 45.43 293.82 45.4Q293.87 45.2 293.87 44.99Q293.87 44.69 293.75 44.46Q293.68 44.32 293.57 44.21Q293.45 44.08 293.29 44ZM163.47 58.22Q162.63 57.8 161.58 57.8Q160.59 57.8 159.78 58.18Q159.71 58.22 159.64 58.25Q159.24 58.46 158.91 58.74Q158.53 59.08 158.24 59.51Q158.35 57.87 159.16 56.99Q159.98 56.11 161.64 55.74L165.21 54.97L164.99 53.56L161.12 54.43Q159.17 54.85 158.1 56.05Q157.96 56.21 157.83 56.39Q156.76 57.87 156.76 60.48Q156.76 63.16 157.94 64.64Q158.32 65.13 158.81 65.45Q159.82 66.12 161.28 66.12Q162.56 66.12 163.56 65.6Q164.16 65.28 164.6 64.8Q164.89 64.49 165.11 64.12Q165.16 64.02 165.21 63.92Q165.66 63.04 165.66 61.93Q165.66 60.79 165.19 59.9Q165.17 59.85 165.14 59.8Q164.87 59.32 164.5 58.95Q164.15 58.59 163.69 58.33Q163.58 58.27 163.47 58.22ZM358.43 54.8L356.62 54.8L356.91 62.46L358.13 62.46L358.43 54.8ZM104.43 58.3Q103.5 57.44 101.74 57.44Q100.72 57.44 99.8 57.72Q98.89 58 98.24 58.52L98.88 59.67Q99.37 59.26 100.09 59.01Q100.58 58.85 101.08 58.79Q101.32 58.76 101.56 58.76Q102.68 58.76 103.26 59.29Q103.35 59.38 103.43 59.47Q103.84 59.98 103.84 60.81L103.84 61.12L101.4 61.12Q99.63 61.12 98.81 61.8Q98.47 62.09 98.27 62.45Q98 62.95 98 63.6Q98 64.18 98.23 64.65Q98.44 65.07 98.85 65.41Q99.71 66.09 101.13 66.09Q102.11 66.09 102.82 65.78Q103.38 65.53 103.74 65.11Q103.83 65 103.92 64.87L103.92 66L105.37 66L105.37 60.87Q105.37 59.32 104.6 58.47Q104.52 58.38 104.43 58.3ZM194.56 62.27Q194.59 61.98 194.59 61.8Q194.59 60.54 194.06 59.55Q194.05 59.54 194.05 59.53Q193.74 58.95 193.29 58.53Q192.96 58.22 192.56 57.99Q192.43 57.91 192.3 57.85Q191.45 57.44 190.4 57.44Q189.38 57.44 188.54 57.82Q188.37 57.9 188.21 57.99Q187.8 58.22 187.47 58.53Q187.01 58.96 186.69 59.53Q186.59 59.7 186.51 59.88Q186.14 60.74 186.14 61.76Q186.14 62.78 186.52 63.63Q186.6 63.82 186.71 64Q186.94 64.4 187.25 64.73Q187.7 65.21 188.31 65.54Q189.35 66.09 190.7 66.09Q191.76 66.09 192.61 65.74Q193.22 65.49 193.69 65.07Q193.88 64.91 194.04 64.71L193.19 63.72Q192.86 64.09 192.45 64.33Q191.72 64.75 190.75 64.75Q189.73 64.75 188.99 64.3Q188.82 64.2 188.66 64.07Q188.3 63.78 188.07 63.4Q187.76 62.91 187.67 62.27L194.56 62.27ZM227.34 62.27Q227.37 61.98 227.37 61.8Q227.37 60.54 226.84 59.55Q226.84 59.54 226.83 59.53Q226.52 58.95 226.07 58.53Q225.75 58.22 225.34 57.99Q225.21 57.91 225.08 57.85Q224.23 57.44 223.18 57.44Q222.17 57.44 221.32 57.82Q221.16 57.9 220.99 57.99Q220.59 58.22 220.25 58.53Q219.8 58.96 219.47 59.53Q219.38 59.7 219.3 59.88Q218.92 60.74 218.92 61.76Q218.92 62.78 219.3 63.63Q219.39 63.82 219.49 64Q219.72 64.4 220.03 64.73Q220.48 65.21 221.1 65.54Q222.14 66.09 223.48 66.09Q224.54 66.09 225.4 65.74Q226.01 65.49 226.47 65.07Q226.66 64.91 226.83 64.71L225.98 63.72Q225.65 64.09 225.24 64.33Q224.51 64.75 223.53 64.75Q222.52 64.75 221.77 64.3Q221.6 64.2 221.44 64.07Q221.08 63.78 220.85 63.4Q220.54 62.91 220.46 62.27L227.34 62.27ZM258.26 58.3Q257.32 57.44 255.56 57.44Q254.54 57.44 253.63 57.72Q252.72 58 252.06 58.52L252.7 59.67Q253.2 59.26 253.92 59.01Q254.4 58.85 254.9 58.79Q255.14 58.76 255.39 58.76Q256.51 58.76 257.08 59.29Q257.18 59.38 257.26 59.47Q257.66 59.98 257.66 60.81L257.66 61.12L255.23 61.12Q253.45 61.12 252.64 61.8Q252.29 62.09 252.09 62.45Q251.82 62.95 251.82 63.6Q251.82 64.18 252.05 64.65Q252.27 65.07 252.68 65.41Q253.53 66.09 254.96 66.09Q255.93 66.09 256.64 65.78Q257.21 65.53 257.56 65.11Q257.66 65 257.74 64.87L257.74 66L259.2 66L259.2 60.87Q259.2 59.32 258.42 58.47Q258.35 58.38 258.26 58.3ZM275.57 58.3Q274.64 57.44 272.88 57.44Q271.85 57.44 270.94 57.72Q270.03 58 269.37 58.52L270.01 59.67Q270.51 59.26 271.23 59.01Q271.72 58.85 272.22 58.79Q272.46 58.76 272.7 58.76Q273.82 58.76 274.4 59.29Q274.49 59.38 274.57 59.47Q274.97 59.98 274.97 60.81L274.97 61.12L272.54 61.12Q270.77 61.12 269.95 61.8Q269.6 62.09 269.4 62.45Q269.13 62.95 269.13 63.6Q269.13 64.18 269.37 64.65Q269.58 65.07 269.99 65.41Q270.84 66.09 272.27 66.09Q273.24 66.09 273.95 65.78Q274.52 65.53 274.88 65.11Q274.97 65 275.05 64.87L275.05 66L276.51 66L276.51 60.87Q276.51 59.32 275.74 58.47Q275.66 58.38 275.57 58.3ZM312.01 65.61Q312.98 66.09 314.19 66.09Q315.34 66.09 316.24 65.62Q316.73 65.37 317.1 64.99Q317.42 64.67 317.64 64.27L316.48 63.53Q316.14 64.04 315.67 64.34Q315.57 64.4 315.48 64.44Q315.39 64.49 315.3 64.53Q314.78 64.75 314.17 64.75Q313.46 64.75 312.87 64.48Q312.77 64.43 312.68 64.38Q312.39 64.22 312.16 64.01Q311.85 63.72 311.63 63.33Q311.26 62.65 311.26 61.76Q311.26 60.89 311.62 60.21Q311.63 60.2 311.63 60.19Q311.85 59.8 312.17 59.51Q312.4 59.3 312.68 59.15Q312.77 59.09 312.87 59.05Q313.46 58.78 314.17 58.78Q314.78 58.78 315.3 59Q315.39 59.04 315.48 59.08Q315.57 59.13 315.66 59.19Q316.14 59.48 316.48 60L317.64 59.24Q317.41 58.82 317.08 58.5Q316.72 58.14 316.24 57.9Q315.34 57.44 314.19 57.44Q312.95 57.44 311.97 57.94Q311.92 57.96 311.87 57.99Q311.32 58.29 310.9 58.71Q310.55 59.07 310.28 59.52Q310.18 59.69 310.1 59.87Q309.71 60.72 309.71 61.76Q309.71 62.78 310.09 63.62Q310.18 63.81 310.28 63.99Q310.54 64.42 310.87 64.77Q311.31 65.22 311.87 65.53Q311.94 65.57 312.01 65.61ZM327.13 62.27Q327.16 61.98 327.16 61.8Q327.16 60.54 326.64 59.55L326.63 59.53Q326.31 58.95 325.86 58.53Q325.54 58.22 325.14 57.99Q325.01 57.91 324.87 57.85Q324.02 57.44 322.97 57.44Q321.96 57.44 321.12 57.82Q320.95 57.9 320.79 57.99Q320.38 58.22 320.05 58.53Q319.59 58.96 319.26 59.53Q319.17 59.7 319.09 59.88Q318.71 60.74 318.71 61.76Q318.71 62.78 319.1 63.63Q319.18 63.82 319.28 64Q319.51 64.4 319.82 64.73Q320.27 65.21 320.89 65.54Q321.93 66.09 323.27 66.09Q324.33 66.09 325.19 65.74Q325.8 65.49 326.27 65.07Q326.45 64.91 326.62 64.71L325.77 63.72Q325.44 64.09 325.03 64.33Q324.3 64.75 323.32 64.75Q322.31 64.75 321.56 64.3Q321.39 64.2 321.23 64.07Q320.87 63.78 320.64 63.4Q320.33 62.91 320.25 62.27L327.13 62.27ZM353.15 58.3Q352.22 57.44 350.46 57.44Q349.44 57.44 348.52 57.72Q347.61 58 346.96 58.52L347.6 59.67Q348.09 59.26 348.81 59.01Q349.3 58.85 349.8 58.79Q350.04 58.76 350.28 58.76Q351.4 58.76 351.98 59.29Q352.07 59.38 352.15 59.47Q352.56 59.98 352.56 60.81L352.56 61.12L350.12 61.12Q348.35 61.12 347.53 61.8Q347.19 62.09 346.99 62.45Q346.72 62.95 346.72 63.6Q346.72 64.18 346.95 64.65Q347.16 65.07 347.57 65.41Q348.43 66.09 349.85 66.09Q350.83 66.09 351.54 65.78Q352.1 65.53 352.46 65.11Q352.55 65 352.64 64.87L352.64 66L354.09 66L354.09 60.87Q354.09 59.32 353.32 58.47Q353.24 58.38 353.15 58.3ZM75.02 57.51L73.48 57.51L73.48 66L74.89 66L80.07 59.82L80.07 66L81.61 66L81.61 57.51L80.22 57.51L75.02 63.69L75.02 57.51ZM95.93 62.36Q95.52 61.81 94.67 61.6Q95.24 61.36 95.59 60.94Q95.63 60.9 95.67 60.85Q95.76 60.73 95.83 60.59Q96.03 60.19 96.03 59.69Q96.03 59.15 95.8 58.74Q95.59 58.36 95.18 58.08Q94.33 57.51 92.83 57.51L88.89 57.51L88.89 66L92.97 66Q94.63 66 95.47 65.39Q95.82 65.14 96.02 64.81Q96.31 64.32 96.31 63.66Q96.31 62.87 95.93 62.36ZM117.92 66L117.92 57.51L116.48 57.51L113.05 63.24L109.72 57.51L108.14 57.51L108.14 66L109.55 66L109.55 59.79L112.68 65.03L113.35 65.03L116.52 59.8L116.52 66L117.92 66ZM171.07 66.84L175.18 57.51L173.68 57.51L170.75 64.3L167.79 57.51L166.19 57.51L169.93 65.98L169.66 66.57Q169.36 67.29 168.98 67.58Q168.92 67.63 168.86 67.67Q168.52 67.88 168.05 67.88Q167.69 67.88 167.36 67.77Q166.91 67.62 166.53 67.26L165.87 68.41Q166.25 68.8 166.83 69Q167.07 69.08 167.32 69.12Q167.68 69.19 168.05 69.19Q168.89 69.19 169.54 68.83Q169.67 68.76 169.8 68.67Q170.53 68.14 171.07 66.84ZM184.93 67.96L184.93 64.65L183.63 64.65L183.63 57.51L177.05 57.51L176.93 60.38Q176.81 62.39 176.51 63.5Q176.28 64.31 175.78 64.55Q175.6 64.64 175.39 64.65L174.94 64.65L174.94 67.96L176.4 67.96L176.4 66L183.48 66L183.48 67.96L184.93 67.96ZM199.83 58.86L202.94 58.86L202.94 57.51L195.19 57.51L195.19 58.86L198.3 58.86L198.3 66L199.83 66L199.83 58.86ZM210.35 57.51L208.81 57.51L208.81 66L210.35 66L210.35 62.44L215.18 62.44L215.18 66L216.71 66L216.71 57.51L215.18 57.51L215.18 61.12L210.35 61.12L210.35 57.51ZM236.91 62.75L239.36 66L241.1 66L237.72 61.66L240.93 57.51L239.25 57.51L236.93 60.57L234.59 57.51L232.88 57.51L236.06 61.66L232.72 66L234.43 66L236.91 62.75ZM249.76 62.36Q249.35 61.81 248.49 61.6Q249.07 61.36 249.42 60.94Q249.45 60.9 249.49 60.85Q249.58 60.73 249.65 60.59Q249.85 60.19 249.85 59.69Q249.85 59.15 249.62 58.74Q249.41 58.36 249.01 58.08Q248.16 57.51 246.65 57.51L242.72 57.51L242.72 66L246.79 66Q248.46 66 249.3 65.39Q249.64 65.14 249.84 64.81Q250.14 64.32 250.14 63.66Q250.14 62.87 249.76 62.36ZM265.18 58.86L268.28 58.86L268.28 57.51L260.54 57.51L260.54 58.86L263.64 58.86L263.64 66L265.18 66L265.18 58.86ZM282.49 58.86L285.6 58.86L285.6 57.51L277.85 57.51L277.85 58.86L280.96 58.86L280.96 66L282.49 66L282.49 58.86ZM293.55 61.13Q292.7 60.41 291.08 60.39L288.7 60.38L288.7 57.51L287.16 57.51L287.16 66L290.84 66.01Q292.55 66.03 293.47 65.28Q293.75 65.06 293.95 64.77Q294.39 64.12 294.39 63.16Q294.39 62.21 293.95 61.57Q293.78 61.33 293.55 61.13ZM307.71 62.36Q307.3 61.81 306.45 61.6Q307.02 61.36 307.37 60.94Q307.41 60.9 307.44 60.85Q307.53 60.73 307.6 60.59Q307.8 60.19 307.8 59.69Q307.8 59.15 307.57 58.74Q307.36 58.36 306.96 58.08Q306.11 57.51 304.6 57.51L300.67 57.51L300.67 66L304.75 66Q306.41 66 307.25 65.39Q307.59 65.14 307.79 64.81Q308.09 64.32 308.09 63.66Q308.09 62.87 307.71 62.36ZM331.08 58.86L335.79 58.86L335.79 57.51L329.55 57.51L329.55 66L331.08 66L331.08 58.86ZM345.44 67.96L345.44 64.65L344.14 64.65L344.14 57.51L337.56 57.51L337.44 60.38Q337.32 62.39 337.02 63.5Q336.8 64.31 336.3 64.55Q336.12 64.64 335.9 64.65L335.45 64.65L335.45 67.96L336.91 67.96L336.91 66L344 66L344 67.96L345.44 67.96ZM92.7 61.16L90.4 61.16L90.4 58.7L92.7 58.7Q93.93 58.7 94.31 59.27Q94.49 59.53 94.49 59.92Q94.49 60.28 94.33 60.54Q94.22 60.71 94.04 60.84Q93.58 61.16 92.7 61.16ZM246.52 61.16L244.22 61.16L244.22 58.7L246.52 58.7Q247.75 58.7 248.14 59.27Q248.32 59.53 248.32 59.92Q248.32 60.28 248.16 60.54Q248.05 60.71 247.86 60.84Q247.4 61.16 246.52 61.16ZM304.48 61.16L302.17 61.16L302.17 58.7L304.48 58.7Q305.7 58.7 306.09 59.27Q306.27 59.53 306.27 59.92Q306.27 60.28 306.11 60.54Q306 60.71 305.81 60.84Q305.35 61.16 304.48 61.16ZM189.05 59.04Q189.64 58.73 190.4 58.73Q191.13 58.73 191.7 59.03Q191.99 59.18 192.24 59.41Q192.51 59.66 192.7 59.96Q193.03 60.48 193.12 61.16L187.67 61.16Q187.76 60.42 188.14 59.87Q188.31 59.61 188.55 59.4Q188.78 59.19 189.05 59.04ZM221.84 59.04Q222.42 58.73 223.18 58.73Q223.91 58.73 224.48 59.03Q224.77 59.18 225.02 59.41Q225.3 59.66 225.49 59.96Q225.82 60.48 225.9 61.16L220.46 61.16Q220.55 60.42 220.92 59.87Q221.09 59.61 221.33 59.4Q221.56 59.19 221.84 59.04ZM321.63 59.04Q322.22 58.73 322.97 58.73Q323.7 58.73 324.28 59.03Q324.57 59.18 324.82 59.41Q325.09 59.66 325.28 59.96Q325.61 60.48 325.69 61.16L320.25 61.16Q320.34 60.42 320.71 59.87Q320.89 59.61 321.12 59.4Q321.36 59.19 321.63 59.04ZM178.07 63.14Q178.27 62.09 178.33 60.49L178.41 58.86L182.09 58.86L182.09 64.65L177.34 64.65Q177.87 64.19 178.07 63.14ZM338.58 63.14Q338.78 62.09 338.84 60.49L338.93 58.86L342.6 58.86L342.6 64.65L337.85 64.65Q338.38 64.19 338.58 63.14ZM162.61 64.55Q162.03 64.84 161.31 64.84Q160.67 64.84 160.13 64.61Q159.99 64.55 159.87 64.48Q159.57 64.31 159.34 64.08Q159.06 63.81 158.87 63.46Q158.84 63.42 158.82 63.38Q158.51 62.76 158.51 61.98Q158.51 61.04 158.93 60.38Q159.08 60.15 159.28 59.95Q159.5 59.73 159.76 59.58Q160.41 59.18 161.31 59.18Q162.22 59.18 162.88 59.59Q163.12 59.74 163.32 59.95Q163.51 60.14 163.66 60.36Q164.09 61.03 164.09 61.98Q164.09 62.79 163.76 63.42Q163.75 63.44 163.74 63.46Q163.55 63.8 163.29 64.07Q163.05 64.3 162.76 64.48Q162.69 64.52 162.61 64.55ZM292.29 64.43Q291.75 64.86 290.71 64.84L288.7 64.83L288.7 61.5L290.71 61.53Q291.79 61.55 292.31 61.93Q292.42 62.01 292.5 62.11Q292.83 62.49 292.83 63.15Q292.83 63.79 292.52 64.2Q292.42 64.32 292.29 64.43ZM102.91 64.51Q102.27 64.91 101.39 64.91Q100.51 64.91 100.01 64.54Q99.79 64.37 99.66 64.15Q99.52 63.88 99.52 63.53Q99.52 63.12 99.71 62.84Q100.12 62.22 101.47 62.22L103.84 62.22L103.84 63.4Q103.67 63.83 103.37 64.14Q103.17 64.36 102.91 64.51ZM256.73 64.51Q256.09 64.91 255.21 64.91Q254.33 64.91 253.84 64.54Q253.61 64.37 253.49 64.15Q253.34 63.88 253.34 63.53Q253.34 63.12 253.53 62.84Q253.95 62.22 255.29 62.22L257.66 62.22L257.66 63.4Q257.49 63.83 257.2 64.14Q256.99 64.36 256.73 64.51ZM274.04 64.51Q273.4 64.91 272.52 64.91Q271.65 64.91 271.15 64.54Q270.92 64.37 270.8 64.15Q270.65 63.88 270.65 63.53Q270.65 63.12 270.84 62.84Q271.26 62.22 272.6 62.22L274.97 62.22L274.97 63.4Q274.8 63.83 274.51 64.14Q274.31 64.36 274.04 64.51ZM351.63 64.51Q350.99 64.91 350.11 64.91Q349.23 64.91 348.73 64.54Q348.51 64.37 348.38 64.15Q348.24 63.88 348.24 63.53Q348.24 63.12 348.43 62.84Q348.84 62.22 350.19 62.22L352.56 62.22L352.56 63.4Q352.39 63.83 352.09 64.14Q351.89 64.36 351.63 64.51ZM94.3 64.51Q93.82 64.81 92.86 64.81L90.4 64.81L90.4 62.27L92.95 62.27Q93.9 62.27 94.34 62.59Q94.46 62.68 94.55 62.79Q94.78 63.09 94.78 63.56Q94.78 63.96 94.59 64.23Q94.48 64.39 94.3 64.51ZM248.12 64.51Q247.64 64.81 246.68 64.81L244.22 64.81L244.22 62.27L246.78 62.27Q247.72 62.27 248.16 62.59Q248.29 62.68 248.37 62.79Q248.6 63.09 248.6 63.56Q248.6 63.96 248.41 64.23Q248.3 64.39 248.12 64.51ZM306.07 64.51Q305.59 64.81 304.64 64.81L302.17 64.81L302.17 62.27L304.73 62.27Q305.68 62.27 306.11 62.59Q306.24 62.68 306.33 62.79Q306.55 63.09 306.55 63.56Q306.55 63.96 306.37 64.23Q306.25 64.39 306.07 64.51ZM357.05 65.99Q357.26 66.09 357.53 66.09Q357.78 66.09 357.98 66Q358.13 65.92 358.26 65.8Q358.39 65.66 358.46 65.5Q358.56 65.31 358.56 65.07Q358.56 64.82 358.46 64.62Q358.39 64.47 358.27 64.34Q358.16 64.23 358.04 64.16Q357.82 64.04 357.53 64.04Q357.26 64.04 357.05 64.15Q356.9 64.22 356.78 64.34Q356.64 64.48 356.56 64.65Q356.48 64.84 356.48 65.07Q356.48 65.3 356.57 65.5Q356.64 65.66 356.78 65.8Q356.9 65.92 357.05 65.99Z" fill="#000000" fill-opacity="1.000000" fill-rule="evenodd"/>
	<path id="Вы полюбите английский,  и вам его будет не хватат" d="M242.59 35.85Q243.24 36.41 244.42 36.41Q245.6 36.41 246.27 35.85Q246.42 35.72 246.54 35.57Q246.94 35.04 246.96 34.2L245.88 34.2Q245.87 34.59 245.7 34.88Q245.6 35.03 245.46 35.16Q245.41 35.2 245.35 35.25Q244.98 35.51 244.41 35.51Q243.84 35.51 243.47 35.24Q243.41 35.2 243.36 35.16Q243.24 35.04 243.15 34.9Q242.97 34.61 242.96 34.2L241.91 34.2Q241.93 35.07 242.36 35.61Q242.46 35.74 242.59 35.85ZM283.5 35.85Q284.15 36.41 285.34 36.41Q286.51 36.41 287.18 35.85Q287.33 35.72 287.45 35.57Q287.86 35.04 287.87 34.2L286.79 34.2Q286.78 34.59 286.61 34.88Q286.52 35.03 286.38 35.16Q286.32 35.2 286.26 35.25Q285.89 35.51 285.32 35.51Q284.75 35.51 284.38 35.24Q284.32 35.2 284.27 35.16Q284.15 35.04 284.06 34.9Q283.88 34.61 283.87 34.2L282.82 34.2Q282.84 35.07 283.27 35.61Q283.37 35.74 283.5 35.85ZM197.23 38.3Q196.3 37.44 194.54 37.44Q193.52 37.44 192.6 37.72Q191.69 38 191.04 38.52L191.68 39.67Q192.17 39.26 192.89 39.01Q193.38 38.85 193.88 38.79Q194.12 38.76 194.36 38.76Q195.48 38.76 196.06 39.29Q196.15 39.38 196.23 39.47Q196.64 39.98 196.64 40.81L196.64 41.12L194.2 41.12Q192.43 41.12 191.61 41.8Q191.27 42.09 191.07 42.45Q190.8 42.95 190.8 43.6Q190.8 44.18 191.03 44.65Q191.24 45.07 191.65 45.41Q192.51 46.09 193.93 46.09Q194.91 46.09 195.62 45.78Q196.18 45.53 196.54 45.11Q196.63 45 196.72 44.87L196.72 46L198.17 46L198.17 40.87Q198.17 39.32 197.4 38.47Q197.32 38.38 197.23 38.3ZM253.09 45.61Q254.05 46.09 255.26 46.09Q256.41 46.09 257.31 45.62Q257.8 45.37 258.17 44.99Q258.49 44.67 258.72 44.27L257.55 43.53Q257.21 44.04 256.74 44.34Q256.65 44.4 256.55 44.44Q256.46 44.49 256.37 44.53Q255.85 44.75 255.24 44.75Q254.53 44.75 253.94 44.48Q253.84 44.43 253.75 44.38Q253.47 44.22 253.24 44.01Q252.92 43.72 252.7 43.33Q252.33 42.65 252.33 41.76Q252.33 40.89 252.69 40.21Q252.7 40.2 252.7 40.19Q252.93 39.8 253.24 39.51Q253.47 39.3 253.75 39.15Q253.84 39.09 253.94 39.05Q254.53 38.78 255.24 38.78Q255.85 38.78 256.37 39Q256.46 39.04 256.55 39.08Q256.65 39.13 256.74 39.19Q257.21 39.48 257.55 40L258.72 39.24Q258.48 38.82 258.15 38.5Q257.79 38.14 257.31 37.9Q256.41 37.44 255.26 37.44Q254.02 37.44 253.04 37.94Q252.99 37.96 252.95 37.99Q252.4 38.29 251.97 38.71Q251.62 39.07 251.35 39.52Q251.26 39.69 251.17 39.87Q250.78 40.72 250.78 41.76Q250.78 42.78 251.16 43.62Q251.25 43.81 251.35 43.99Q251.61 44.42 251.95 44.77Q252.38 45.22 252.95 45.53Q253.02 45.57 253.09 45.61ZM202.48 37.51L200.94 37.51L200.94 46L202.48 46L202.48 42.44L207.31 42.44L207.31 46L208.84 46L208.84 37.51L207.31 37.51L207.31 41.12L202.48 41.12L202.48 37.51ZM213.37 38.86L218.07 38.86L218.07 37.51L211.84 37.51L211.84 46L213.37 46L213.37 38.86ZM226.38 46L226.38 37.51L219.87 37.51L219.73 40.65Q219.64 42.07 219.55 42.84Q219.45 43.61 219.13 44.17Q218.97 44.45 218.73 44.59Q218.49 44.73 218.17 44.73Q217.99 44.73 217.79 44.68L217.69 45.98Q218.22 46.12 218.64 46.12Q219.16 46.12 219.56 45.89Q219.85 45.73 220.06 45.44Q220.57 44.75 220.8 43.6Q221.02 42.46 221.1 40.75L221.2 38.86L224.84 38.86L224.84 46L226.38 46ZM230.89 37.51L229.36 37.51L229.36 46L230.76 46L235.95 39.82L235.95 46L237.48 46L237.48 37.51L236.09 37.51L230.89 43.69L230.89 37.51ZM242 37.51L240.46 37.51L240.46 46L241.87 46L247.05 39.82L247.05 46L248.59 46L248.59 37.51L247.19 37.51L242 43.69L242 37.51ZM262.24 42.41L264 42.41L266.84 46L268.65 46L265.21 41.6L268.43 37.51L266.78 37.51L264.03 41.1L262.24 41.1L262.24 37.51L260.7 37.51L260.7 46L262.24 46L262.24 42.41ZM271.8 37.51L270.27 37.51L270.27 46L271.67 46L276.86 39.82L276.86 46L278.4 46L278.4 37.51L277 37.51L271.8 43.69L271.8 37.51ZM282.91 37.51L281.37 37.51L281.37 46L282.78 46L287.96 39.82L287.96 46L289.5 46L289.5 37.51L288.11 37.51L282.91 43.69L282.91 37.51ZM195.71 44.51Q195.07 44.91 194.19 44.91Q193.31 44.91 192.81 44.54Q192.59 44.37 192.46 44.15Q192.32 43.88 192.32 43.53Q192.32 43.12 192.51 42.84Q192.92 42.22 194.27 42.22L196.64 42.22L196.64 43.4Q196.47 43.83 196.17 44.14Q195.97 44.36 195.71 44.51ZM132.84 62.27Q132.88 61.98 132.88 61.8Q132.88 60.54 132.35 59.55Q132.34 59.54 132.34 59.53Q132.03 58.95 131.58 58.53Q131.25 58.22 130.85 57.99Q130.72 57.91 130.58 57.85Q129.73 57.44 128.68 57.44Q127.67 57.44 126.83 57.82Q126.66 57.9 126.5 57.99Q126.09 58.22 125.76 58.53Q125.3 58.96 124.98 59.53Q124.88 59.7 124.8 59.88Q124.43 60.74 124.43 61.76Q124.43 62.78 124.81 63.63Q124.89 63.82 124.99 64Q125.22 64.4 125.53 64.73Q125.99 65.21 126.6 65.54Q127.64 66.09 128.99 66.09Q130.04 66.09 130.9 65.74Q131.51 65.49 131.98 65.07Q132.17 64.91 132.33 64.71L131.48 63.72Q131.15 64.09 130.74 64.33Q130.01 64.75 129.04 64.75Q128.02 64.75 127.27 64.3Q127.1 64.2 126.95 64.07Q126.59 63.78 126.35 63.4Q126.04 62.91 125.96 62.27L132.84 62.27ZM144.34 65.68Q145.24 66.09 146.33 66.09Q147.43 66.09 148.33 65.67Q148.46 65.61 148.59 65.53Q149.13 65.23 149.54 64.81Q149.9 64.44 150.16 63.99Q150.26 63.82 150.34 63.64Q150.73 62.79 150.73 61.76Q150.73 60.71 150.33 59.85Q150.25 59.68 150.16 59.52Q149.89 59.05 149.51 58.67Q149.11 58.27 148.59 57.99Q148.48 57.93 148.37 57.87Q147.45 57.44 146.33 57.44Q145.22 57.44 144.3 57.87Q144.18 57.92 144.06 57.99Q143.52 58.28 143.11 58.7Q142.75 59.06 142.48 59.52Q142.39 59.67 142.32 59.83Q141.91 60.7 141.91 61.76Q141.91 62.8 142.31 63.66Q142.39 63.83 142.48 63.99Q142.74 64.43 143.08 64.79Q143.5 65.22 144.06 65.53Q144.2 65.61 144.34 65.68ZM136.8 58.86L141.5 58.86L141.5 57.51L135.26 57.51L135.26 66L136.8 66L136.8 58.86ZM127.34 59.04Q127.93 58.73 128.68 58.73Q129.42 58.73 129.99 59.03Q130.28 59.18 130.53 59.41Q130.8 59.66 130.99 59.96Q131.32 60.48 131.4 61.16L125.96 61.16Q126.05 60.42 126.42 59.87Q126.6 59.61 126.83 59.4Q127.07 59.19 127.34 59.04ZM147.52 64.51Q146.98 64.75 146.33 64.75Q145.67 64.75 145.12 64.5Q144.99 64.44 144.87 64.37Q144.63 64.23 144.42 64.05Q144.08 63.74 143.84 63.32Q143.83 63.3 143.82 63.28Q143.47 62.61 143.47 61.76Q143.47 60.89 143.83 60.21Q143.84 60.2 143.84 60.19Q144.09 59.75 144.44 59.45Q144.64 59.28 144.87 59.15Q144.97 59.09 145.08 59.04Q145.65 58.78 146.33 58.78Q147 58.78 147.56 59.03Q147.68 59.08 147.79 59.15Q148.04 59.29 148.25 59.47Q148.58 59.77 148.81 60.19Q149.18 60.87 149.18 61.76Q149.18 62.62 148.82 63.3Q148.81 63.31 148.81 63.32Q148.59 63.72 148.27 64.02Q148.06 64.22 147.79 64.37Q147.66 64.45 147.52 64.51Z" fill="#000000" fill-opacity="1.000000" fill-rule="evenodd"/>
	<path id="baseLayer" d="M149.38 227.46C163.24 226.82 176.03 226.28 186.21 221.29C198.87 215.06 209.21 197.86 201.07 180.61C191.5 160.32 172.9 149.24 150.31 141.33C150.58 131.51 147.89 123.54 144.12 115.8C137.12 101.52 129.72 87.12 111.62 82.13C105.03 80.31 97.47 80.22 100.17 88.3C106.57 103.93 130.78 109.43 132.97 128.14C133.62 133.56 132.76 138.66 131.12 142.73C127.74 147.75 125.7 140.99 123.69 137.96C121.83 135.16 120.16 133.22 119.05 131.51C115.95 126.8 113.72 121.58 110.69 117.76C106.6 112.66 99.02 108.11 93.36 104.58C86.76 100.48 79.99 96.52 71.07 96.72C69.9 98.09 68.81 99.52 68.91 102.05C71.44 113.83 86.7 114.37 95.21 120.85C102.33 126.26 106.42 133.19 111 143.29C112.02 145.17 108.43 149.86 106.98 151.43C104.56 154.07 100.44 155.5 97.38 157.88C94.9 159.82 92.37 162.37 89.64 164.62C86.98 166.8 84.01 169.3 82.21 171.63C77.88 177.27 73.27 186.47 75.41 198.28C75.99 201.57 80.02 207.71 82.21 210.07C87.85 216.16 100.72 221.29 110.69 224.1C122.76 227.49 135.82 228.11 149.38 227.46ZM11.4 266.49C14.06 266.49 21.3 266.21 25.17 267.13C25.73 259.5 27.62 252.12 31.18 245.17C34.58 238.52 39.32 232.32 46.03 225.7C46.03 225.44 46.03 225.19 46.03 224.91C47.21 223 48.88 221.51 50.68 220.14C50.92 220.2 51.14 220.25 51.39 220.28C55.35 216.77 59.68 213.15 64.91 210.4C64.91 210.21 64.88 210.01 64.88 209.79C68.01 208.33 70.51 206.31 74.17 205.3C76.02 208.75 78.04 212.31 80.98 214.56C86.92 219.13 95.86 223.17 105.12 226.34C121.09 231.81 138.58 232.32 157.42 230.55C162.81 240.68 161.45 256.28 159.59 268.71C157.67 281.56 155.13 294.04 147.83 300.97C145.57 297.74 143.47 293.37 140.71 288.35C138.98 285.15 135.23 276 130.19 277.96C129.14 282.31 132.11 290.37 128.95 294.52C126.1 288.4 122.2 283.24 114.09 281.89C114.37 276.93 112.76 274.46 111.62 270.39C108.12 257.76 103.66 249.21 95.21 242.05C93.26 240.4 88.37 237.23 85.93 240.93C86.92 242.78 89.27 242.56 90.88 243.46C93.02 244.66 95.83 247.72 98 250.19C104.99 258.21 109.42 272.83 109.14 284.14C112.08 286.6 117.19 285.26 119.67 288.06C120.78 289.33 122.3 292.97 121.83 295.64C121.46 297.74 117.59 300.8 115.02 301.81C110.66 303.55 103.51 303.24 96.14 302.93C89.12 302.63 81.75 302.65 76.02 302.09C66.99 301.22 58.23 298.64 50.95 296.48C47.92 295.58 44.86 295.53 42.29 294.8C34.89 292.69 31.8 288.71 28.36 283.01C27.93 282.31 27.56 281.56 27.22 280.77C25.05 281.11 22.14 280.6 23.13 282.48C19.94 284.45 16.23 285.96 11.68 286.69C8.06 283.72 5.55 278.61 5.86 272.47C5.74 272.38 5.58 272.27 5.49 272.16L5.15 271.88L5.15 271.51C5.18 268.37 7.5 266.49 11.4 266.49Z" fill="#D3D3D3" fill-opacity="1.000000" fill-rule="evenodd"/>
	<path id="しっぽ_2_" d="M14.93 286.66C18.3 286.66 21.52 284.7 23.25 281.5L23.69 280.69L23.41 279.68C22.11 274.96 17.47 271.79 13.97 271.79C10.07 271.79 7.75 275.38 7.72 281.44L7.72 282.15L8.03 282.62C9.64 285.23 12.08 286.66 14.93 286.66Z" fill="#FFFFFF" fill-opacity="1.000000" fill-rule="evenodd"/>
	<path id="足" d="M114.13 286.75C114.13 286.75 98.62 295.61 63.8 286.66C63.8 286.66 36.87 271.82 31.15 288.35C28.95 294.66 39.5 296.96 39.5 296.96C39.5 296.96 94.07 307.59 110.69 304.9C127.31 302.21 127.16 285.46 114.13 286.75Z" fill="#FFFFFF" fill-opacity="1.000000" fill-rule="evenodd"/>
	<path id="おなか" d="M149.28 300.94C149.28 300.94 154.92 273 138.79 262.62C122.67 252.24 107.53 258.13 107.53 258.13L115.46 283.6L128.39 298.59L135.67 290.25L149.28 300.94Z" fill="#FFFFFF" fill-opacity="1.000000" fill-rule="evenodd"/>
	<path id="Vector" d="M110.94 141.02C106.29 130.81 102.18 123.79 94.9 118.24C91.87 115.94 88 114.34 84.26 112.82C77.17 109.93 70.48 107.21 68.94 99.92L67.11 100.06C66.8 108.81 74.17 115.99 78.56 119.53C82.52 122.67 86.98 125.45 91.28 128.14C95.03 130.5 98.59 132.72 101.5 134.96C102.52 135.77 103.51 136.81 104.47 137.82C106.08 139.53 107.75 141.3 109.79 142.11L111.9 142.93L110.94 141.02Z" fill="#FFFFFF" fill-opacity="1.000000" fill-rule="evenodd"/>
	<path id="Vector" d="M132.14 142.84C133.96 138.3 134.8 132.04 134.21 126.94C132.94 116.13 124.62 109.63 116.54 103.31C110.13 98.32 103.51 93.69 100.75 87.01C101.19 91.81 102.3 96.07 104.56 99.95C104.87 100.51 105.21 101.07 105.52 101.6C106.36 103.06 107.13 104.6 107.87 106.06C109.3 108.87 110.78 111.79 112.67 114.31C113.54 115.49 114.59 116.47 115.61 117.43C116.57 118.35 117.5 119.22 118.24 120.2C119.32 121.61 120.22 123.09 121.18 124.69C121.62 125.39 122.05 126.15 122.54 126.88C125.7 131.85 128.49 136.42 130.53 141.89L131.12 144.16L132.14 142.84Z" fill="#FFFFFF" fill-opacity="1.000000" fill-rule="evenodd"/>
	<path id="あご" d="M77.36 182.82C77.36 182.82 58.69 221.29 127.4 229.43C127.4 229.43 140.34 232.57 150.28 226.9L150.8 226.87C128.33 222.75 92.74 213.43 77.36 182.82Z" fill="#FFFFFF" fill-opacity="1.000000" fill-rule="evenodd"/>
	<path id="輪郭" d="M147.4 308.29C151.54 308.29 154.61 302.15 156.47 298.5C156.68 298.08 156.87 297.72 157.02 297.41C159.47 292.72 161.73 288.15 162.66 283.44C167.14 260.76 167.36 243.23 163.31 231.31C179 230.1 190.76 226 198.31 219.07C205.99 212.03 209.92 202.1 209.11 191.77C207.91 176.48 197.75 165.46 189.03 157.57C178.66 148.17 165.1 142 154.33 137.71C154.14 127.55 149.78 117.62 146.53 110.97C142.63 103.06 138.24 94.98 132.76 89.42C127.74 84.35 118.09 78.09 107.41 77.08C106.88 77.02 106.33 77 105.74 77C102.15 77 97.57 78.01 95.99 80.25C93.08 84.4 95.83 92.34 97.13 95.6C98.09 97.93 99.27 99.95 100.41 101.85C101 102.86 101.59 103.85 102.12 104.83C101.22 104.27 100.32 103.68 99.36 103.06C96.7 101.32 93.7 99.38 90.42 97.64C83.24 93.89 77.57 92.03 73.11 92.03C70.89 92.03 68.97 92.51 67.45 93.46C64.14 95.54 63.15 100.84 63.64 104.91C64.88 115.1 74.26 121.86 81.78 127.3L82.25 127.64C84.6 129.35 87.01 130.95 89.33 132.52C95.15 136.42 100.66 140.09 104.69 144.84C103.48 147.98 100.44 150.05 97.54 152.05C97.07 152.36 96.64 152.66 96.17 152.97C93.14 155.13 90.57 157.46 87.88 159.93C87.41 160.35 86.95 160.77 86.49 161.19C86.11 161.53 85.71 161.89 85.34 162.23C79.21 167.76 73.95 172.5 71.1 181.76C69.68 186.33 69.06 196.26 71.1 201.73C59.22 206.31 48.82 214.05 38.45 226.09C37.61 227.04 36.75 228.02 35.94 228.95C32.38 232.96 28.7 237.09 25.98 242.22C22.63 248.48 21.15 255.63 19.88 263.01C16.82 261.94 13.84 261.38 11.15 261.38C4.99 261.38 1 264.41 0.2 269.69C-0.42 273.78 0.41 278.95 2.42 283.46C4.53 288.15 7.34 291.15 10.22 291.68C10.84 291.8 11.46 291.85 12.11 291.85C15.27 291.85 18.05 290.48 20.75 289.16C22.14 288.49 23.44 287.84 24.71 287.42C29.23 296.73 40.71 299.18 52.87 301.78C54.2 302.07 55.54 302.35 56.9 302.65C58.57 303.02 60.21 303.44 61.97 303.89C66.46 305.01 71.1 306.19 76.21 306.61C80.23 306.95 84.91 306.97 89.43 307C92.68 307.03 96.02 307.03 99.14 307.17C101.03 307.26 102.7 307.28 104.28 307.28C112.45 307.28 121.31 306.36 125.82 299.88C125.92 300.04 126.01 300.24 126.1 300.41C126.75 301.67 127.53 303.27 129.79 303.27C129.94 303.27 130.1 303.27 130.25 303.24C133.84 302.93 135.23 295.36 135.76 290.84C136.72 292.64 137.71 294.35 138.73 296.12C139.81 297.97 140.93 299.88 142.01 301.92C142.2 302.29 142.41 302.74 142.63 303.24C143.65 305.46 144.83 307.99 146.69 308.29C146.96 308.29 147.18 308.29 147.4 308.29ZM89.05 238.38C87.41 238.38 86.05 239.11 85.12 240.51L84.88 240.9L85.09 241.32C85.9 242.87 87.48 243.29 88.75 243.62C89.36 243.79 89.95 243.96 90.42 244.21C92.49 245.39 95.34 248.51 97.29 250.75C103.82 258.24 108.52 272.6 108.24 284.17L108.24 284.56L108.55 284.81C110.13 286.16 112.21 286.49 114.16 286.8C116.07 287.11 117.9 287.42 118.95 288.63C119.88 289.69 121.34 293.12 120.93 295.56C120.66 297.24 117.16 300.1 114.68 301.08C112.45 301.95 109.2 302.37 104.47 302.37C101.81 302.37 98.83 302.23 96.24 302.12C93.79 302.01 91.28 301.95 88.84 301.87C84.23 301.76 79.86 301.62 76.18 301.28C67.11 300.41 58.35 297.8 51.29 295.7C49.62 295.19 47.98 294.97 46.37 294.71C45.01 294.52 43.74 294.32 42.63 294.01C35.32 291.91 32.35 287.81 29.23 282.62C27.37 279.56 26.19 275.38 25.95 271.2C25.61 249.07 36.87 235.15 46.75 225.5L46.81 225.41L46.87 225.33C48.05 223.39 49.78 221.96 51.29 220.79L51.33 220.76L51.36 220.73C55.47 217.08 59.96 213.27 65.38 210.49C66.52 209.96 67.61 209.34 68.63 208.75C70.3 207.8 71.85 206.9 73.73 206.28C75.59 209.73 77.57 212.96 80.42 215.15C87.32 220.45 97.5 224.57 104.84 227.07C114.99 230.55 126.32 232.23 139.44 232.23C144.86 232.23 150.58 231.95 156.9 231.39C161.97 241.55 160.37 257.43 158.69 268.54C156.93 280.38 154.64 292.5 147.99 299.51C146.59 297.35 145.2 294.77 143.65 291.8C143 290.53 142.29 289.24 141.58 287.9C141.36 287.5 141.11 287 140.84 286.44C138.89 282.59 135.95 276.79 131.64 276.79C131.06 276.79 130.47 276.9 129.88 277.12L129.45 277.29L129.35 277.71C128.92 279.54 129.11 281.84 129.32 284.28C129.57 287.2 129.85 290.2 129.04 292.44C126.51 287.5 122.7 282.65 115.12 281.13C115.18 277.77 114.4 275.52 113.57 273.14C113.23 272.18 112.89 271.2 112.58 270.11C108.8 256.53 103.97 248.2 95.89 241.35C95 240.71 91.99 238.38 89.05 238.38ZM21.92 282.15C18.89 283.91 15.61 285.09 11.93 285.74C8.71 282.87 5.8 277.4 6.97 270.22L6.97 270.16L6.97 270.11C7 267.33 9.39 266.77 11.37 266.77C14.43 266.77 18.08 268.23 19.08 269.8C19.48 273.84 20.13 278.41 21.92 282.15ZM105.24 81.96C106.94 81.96 109.05 82.3 111.37 82.91C129.48 87.91 136.81 102.89 143.28 116.11C146.47 122.62 149.69 130.72 149.38 141.27L149.35 141.86L149.97 142.09C176.43 151.37 191.93 163.35 200.2 180.92C207.91 197.22 198.68 214.19 185.74 220.53C175.93 225.33 163.4 225.95 150.15 226.56L149.32 226.59C146.16 226.73 143.13 226.82 140.28 226.82C129.04 226.82 119.45 225.67 110.94 223.25C100.94 220.45 88.31 215.34 82.9 209.48C80.67 207.07 76.83 201.12 76.3 198.09C74.2 186.47 78.75 177.52 82.96 172.05C84.63 169.86 87.35 167.56 90.26 165.18C91.53 164.14 92.77 163.02 93.94 161.95C95.34 160.69 96.67 159.48 97.97 158.47C99.21 157.52 100.63 156.68 102.05 155.89C104.07 154.74 106.17 153.56 107.69 151.91C107.75 151.85 113.38 145.68 111.83 142.84L111.68 142.56L111.37 142.45C109.7 141.81 108.24 140.26 106.73 138.61C105.74 137.54 104.72 136.45 103.57 135.55C100.6 133.22 97.01 130.98 93.2 128.62C88.96 125.95 84.54 123.2 80.67 120.12C76.49 116.81 69.56 110.05 69.83 101.99L69.83 101.97L69.83 101.94C69.77 99.89 70.55 98.65 71.54 97.48C71.6 97.48 71.66 97.48 71.72 97.48C79.83 97.48 86.08 100.98 92.83 105.19L93.94 105.89C99.39 109.29 106.2 113.53 109.92 118.18C111.65 120.37 113.13 123.01 114.68 125.81C115.8 127.81 116.94 129.88 118.24 131.85C118.77 132.66 119.39 133.47 120.1 134.43C120.93 135.55 121.89 136.78 122.88 138.3C123.29 138.89 123.66 139.64 124.09 140.43C125.36 142.82 126.66 145.28 128.73 145.28C129.85 145.28 130.9 144.56 131.89 143.07L132.11 142.73L131.98 142.37C129.91 136.75 127.09 132.13 123.87 127.08C123.41 126.35 122.98 125.62 122.54 124.92C121.62 123.37 120.62 121.77 119.51 120.29C118.67 119.19 117.65 118.24 116.69 117.31C115.67 116.36 114.74 115.46 113.94 114.39C112.11 111.98 110.75 109.26 109.27 106.4C108.49 104.91 107.72 103.37 106.85 101.85C106.54 101.29 106.2 100.73 105.89 100.17C103.73 96.44 101.47 92.59 101.09 88.13L101.09 88.05L101.06 87.97C100.32 85.78 100.35 84.15 101.16 83.17C101.87 82.41 103.26 81.96 105.24 81.96Z" fill="#000000" fill-opacity="1.000000" fill-rule="evenodd"/>
	<path id="口内色" d="M129.57 178.64C129.45 187.06 137.65 195.81 147.52 196.88C151.24 197.27 157.36 197.58 159.59 196.88C162.9 195.81 167.48 190.04 167.33 185.66C161.6 185.69 157.52 187.9 152.47 187.06C144.74 185.77 136.53 181 129.88 178.64C129.82 178.34 129.57 178.48 129.57 178.64Z" fill="#FFFFFF" fill-opacity="0.400000" fill-rule="evenodd"/>
	<path id="ノーマル" d="M153.28 202.3C161.29 202.3 167.08 199.43 170.98 193.51C171.91 192.11 174.73 184.31 173.3 180.86C172.96 180.02 172.37 179.46 171.57 179.21C171.14 179.07 170.76 179.01 170.39 179.01C169.19 179.01 168.54 179.71 168.04 180.24C167.7 180.61 167.39 180.95 166.93 181.14C164.42 181.23 162.35 181.62 160.52 181.96C158.72 182.29 157.21 182.57 155.54 182.57C155.26 182.57 154.98 182.57 154.7 182.54C147.49 182.12 135.14 175.98 129.6 172.81C128.92 172.42 128.21 172.22 127.46 172.22C126.72 172.22 125.98 172.42 125.27 172.81L125.05 172.92L124.99 173.15C123.19 179.23 124.18 185.21 127.81 190.43C131.77 196.15 138.67 200.33 146.19 201.62C148.7 202.07 151.08 202.3 153.28 202.3ZM166.71 186.22C166.46 190.15 162.41 195.39 159.41 196.35C158.85 196.52 157.64 196.74 155.04 196.74C152.84 196.74 150.09 196.57 147.61 196.32C138.48 195.34 130.53 187.51 130.22 179.35C132.36 180.13 134.64 181.14 137.03 182.21C142.04 184.45 147.24 186.75 152.38 187.59C153.18 187.73 153.99 187.79 154.86 187.79C156.87 187.79 158.75 187.43 160.74 187.03C162.59 186.7 164.54 186.3 166.71 186.22Z" fill="#000000" fill-opacity="1.000000" fill-rule="evenodd"/>
	<path id="Vector" d="M131.33 169.11C131.46 169.11 131.55 169.11 131.67 169.11C133.72 169.02 135.64 167.67 136.56 165.68C137.15 164.45 137.31 163.02 137.03 161.67C136.94 161.25 136.01 157.55 131.24 157.27L131.21 157.27L131.18 157.27C130.28 157.32 127.22 157.74 125.92 159.96C125.48 160.72 125.3 161.61 125.33 162.57C125.51 166.61 127.84 169.11 131.33 169.11Z" fill="#FFFFFF" fill-opacity="0.600000" fill-rule="evenodd"/>
	<path id="Vector" d="M172.9 172.56C174.05 172.72 177.91 172.89 179.15 168.63C179.62 167 179.71 165.57 179.46 164.31C179 162.01 177.45 161.05 176 160.41L175.93 160.38L175.87 160.38C172.53 159.93 170.49 161.25 169.81 164.31C169.37 166.22 169.37 167.98 169.81 169.41C170.39 171.49 171.85 172.42 172.9 172.56Z" fill="#FFFFFF" fill-opacity="0.600000" fill-rule="evenodd"/>
	<path id="Vector" d="M131.74 166.86C133.84 170.26 139.16 171.1 141.33 168.54C148.88 159.57 134.43 150.62 131.12 160.97C131.05 161.11 130.99 161.28 130.96 161.42C130.37 163.49 131.33 166.08 131.74 166.86Z" fill="#000000" fill-opacity="1.000000" fill-rule="evenodd"/>
	<path id="Vector" d="M174.45 170.51C174.82 169.08 175.47 167.87 175.38 166.02C174.88 162.15 171.04 157.32 165.78 159.57C158.07 162.85 164.54 179.49 174.45 170.51Z" fill="#000000" fill-opacity="1.000000" fill-rule="evenodd"/>
</svg>
