<svg width="49.000000" height="45.104370" viewBox="0 0 49 45.1044" fill="none" xmlns="http://www.w3.org/2000/svg" xmlns:xlink="http://www.w3.org/1999/xlink">
	<desc>
			Created with Pixso.
	</desc>
	<defs/>
	<path id="path" d="M0 37.21C0 34.93 0 32.64 0 30.35C1.09 27.97 2.29 25.67 4.97 24.43C2.19 21.9 1.05 19.04 2.64 15.75C4.21 12.51 6.97 11.26 10.56 11.96C11.51 12.15 12.1 11.4 12.6 10.84C13.28 10.09 12.22 9.78 11.92 9.32C10.39 6.98 10.41 4.36 12.06 2.27C13.72 0.16 16.42 -0.56 18.87 0.45C21.27 1.44 22.71 3.98 22.53 6.53C22.4 8.23 20.28 9.57 20.81 10.71C21.46 12.1 23.24 13.02 23.93 14.65C24.02 14.88 23.94 15.36 24.52 15.26C25.23 14.14 25.66 12.72 26.84 11.94C28.17 11.06 28.34 10.4 27.3 9C25.56 6.68 26.15 3.35 28.28 1.47C30.48 -0.46 33.67 -0.5 35.9 1.38C38.12 3.26 38.6 6.4 37.18 8.94C36.82 9.56 35.53 9.94 36.18 10.82C36.83 11.7 37.74 12.16 39.14 11.9C42.06 11.34 44.45 12.57 46 15.1C47.5 17.55 47.38 20.07 45.8 22.47C45.36 23.13 44.76 23.68 44.09 24.45C46.68 25.7 47.9 27.98 49 30.36C49 32.65 49 34.94 49 37.22C44.04 40.04 38.79 39.28 33.43 38.49C33.39 39.14 33.22 39.81 33.33 40.42C33.83 43.08 32.35 44.08 30.07 44.53C27.01 45.13 23.92 45.29 20.84 44.84C16.01 44.15 15.93 44.02 15.65 39.2C15.64 38.97 15.54 38.74 15.48 38.51C7.3 39.64 3.58 39.34 0 37.21ZM8.74 37.19C10.54 37.3 12.32 37.05 14.07 36.66C14.67 36.52 15.34 36.45 15.64 35.7C17.25 31.66 14.07 26.16 9.75 25.53C5.89 24.96 2.34 27.87 1.98 31.88C1.58 36.44 2.25 37.06 7.76 37.2C8.08 37.2 8.41 37.19 8.74 37.19ZM40.16 37.19C41.97 37.3 43.74 37.04 45.49 36.64C46.08 36.5 46.74 36.43 47.02 35.64C48.34 31.82 45.85 26.85 41.99 25.75C39.3 24.98 37 25.77 35.12 27.76C33.62 29.34 32.35 34.53 33.48 35.78C34.93 37.38 37.2 37.01 39.19 37.19C39.51 37.22 39.84 37.19 40.16 37.19ZM24.91 43.08C26.33 43.2 28.02 42.9 29.69 42.55C30.3 42.42 31.21 42.36 31.26 41.63C31.44 39.04 31.72 36.39 29.96 34.13C28.33 32.03 26.17 31.07 23.53 31.42C19.47 31.98 17.05 35.43 17.73 40.62C18.18 44.04 21.55 42.46 23.63 43.06C23.93 43.15 24.28 43.08 24.91 43.08ZM36.25 24.37C32.68 20.6 32.42 18.11 35.17 14.01C35.78 13.1 35.53 12.8 34.78 12.37C31.7 10.6 27.16 12.67 26.47 16.17C26.3 17.08 26.34 17.72 27.38 18.34C31.98 21.11 32.66 25.26 29.25 29.33C28.63 30.07 28.46 30.4 29.37 30.92C29.98 31.27 30.52 31.76 31.25 32.29C31.61 28.77 33.2 26.17 36.25 24.37ZM20.44 30.25C16.26 25.37 16.63 21.77 21.73 18.28C22.41 17.81 22.54 17.39 22.47 16.7C22.09 12.96 17.25 10.47 14.06 12.37C13.42 12.75 12.98 13.09 13.69 13.82C15.12 15.31 15.79 17.09 15.66 19.16C15.51 21.28 14.31 22.87 12.73 24.39C15.86 26.17 17.37 28.82 17.76 32.32C18.79 31.52 19.61 30.89 20.44 30.25ZM3.93 18.4C3.83 21.11 6.03 23.43 8.74 23.47C11.36 23.51 13.58 21.41 13.7 18.79C13.81 16.1 11.6 13.77 8.88 13.71C6.27 13.66 4.04 15.78 3.93 18.4ZM40.27 23.47C42.89 23.42 45.05 21.24 45.06 18.61C45.07 15.89 42.78 13.64 40.07 13.71C37.43 13.78 35.29 15.95 35.29 18.57C35.29 21.3 37.56 23.53 40.27 23.47ZM29.38 24.46C29.37 21.84 27.23 19.65 24.61 19.59C21.89 19.53 19.61 21.75 19.61 24.48C19.62 27.2 21.91 29.43 24.62 29.35C27.24 29.29 29.38 27.09 29.38 24.46ZM20.56 5.96C20.62 3.85 18.94 2.05 16.82 1.95C14.71 1.86 12.89 3.51 12.75 5.62C12.62 7.82 14.39 9.72 16.6 9.75C18.71 9.78 20.49 8.07 20.56 5.96ZM32.21 9.75C34.33 9.72 36.08 7.91 36.04 5.79C36.01 3.67 34.21 1.91 32.09 1.94C29.95 1.97 28.28 3.72 28.31 5.9C28.34 8.09 30.06 9.79 32.21 9.75Z" fill="#000000" fill-opacity="1.000000" fill-rule="nonzero"/>
</svg>
