<svg width="45.000000" height="45.000000" viewBox="0 0 45 45" fill="none" xmlns="http://www.w3.org/2000/svg" xmlns:xlink="http://www.w3.org/1999/xlink">
	<desc>
			Created with Pixso.
	</desc>
	<defs>
		<clipPath id="clip20_8667">
			<rect id="Ресурс 1" width="45.000000" height="45.000000" fill="white" fill-opacity="0"/>
		</clipPath>
	</defs>
	<g clip-path="url(#clip20_8667)">
		<path id="path" d="M22.72 41.85C16.35 41.85 9.98 41.79 3.62 41.88C1.83 41.91 1.36 41.33 1.29 39.57C1.16 36.39 2.79 33.83 3.83 31.06C4.55 29.15 5.01 27.28 4.98 25.21C4.89 19.21 4.95 13.22 4.95 7.23C4.95 4.4 5.28 4.05 7.99 4.05C17.95 4.04 27.92 4.04 37.89 4.05C40.59 4.05 40.94 4.42 40.95 7.22C40.95 11.04 41.12 14.87 40.91 18.68C40.58 24.75 41.12 30.6 44.09 36.05C44.88 37.51 44.54 39.13 44.5 40.69C44.48 42.04 43.37 41.84 42.5 41.84C35.91 41.85 29.31 41.85 22.72 41.85ZM22.99 27.45C27.78 27.45 32.58 27.4 37.37 27.47C38.69 27.49 39.2 27.22 39.18 25.76C39.1 19.7 39.1 13.63 39.18 7.55C39.2 6.14 38.76 5.81 37.4 5.81C27.74 5.87 18.07 5.86 8.41 5.82C7.19 5.81 6.7 6.07 6.72 7.41C6.79 13.55 6.78 19.7 6.72 25.84C6.7 27.14 7.12 27.48 8.38 27.47C13.25 27.4 18.11 27.45 22.99 27.45ZM3.64 36.36L42.25 36.36C41.36 34.15 40.5 32.09 39.73 30.01C39.41 29.11 38.74 29.25 38.09 29.25C27.99 29.25 17.88 29.25 7.77 29.25C7.11 29.25 6.46 29.14 6.14 30.02C5.37 32.11 4.52 34.15 3.64 36.36ZM22.77 40.04C28.84 40.04 34.91 40.06 40.99 40.03C41.68 40.03 42.82 40.5 42.72 39.04C42.64 37.77 41.62 38.27 41 38.27C29 38.24 17.01 38.24 5.01 38.27C4.35 38.27 3.18 37.69 3.17 39.14C3.16 40.59 4.34 40.01 5 40.01C10.92 40.06 16.84 40.04 22.77 40.04Z" fill="#000000" fill-opacity="1.000000" fill-rule="nonzero"/>
		<path id="path" d="M22.91 24.74C20.29 24.74 17.67 24.7 15.04 24.77C13.64 24.81 12.99 24.39 13.02 22.87C13.1 19.12 13.04 15.37 13.05 11.62C13.06 9.62 14.11 8.56 16.11 8.55C20.69 8.54 25.26 8.53 29.83 8.55C31.85 8.57 32.83 9.69 32.84 11.68C32.85 15.43 32.8 19.17 32.86 22.92C32.88 24.29 32.35 24.79 31 24.76C28.31 24.7 25.61 24.74 22.91 24.74ZM23.43 22.95C25.57 22.72 28.25 23.32 30.9 22.65C30.95 20.27 31 17.89 31.04 15.5C31.04 15.35 31.02 15.2 31.04 15.05C31.14 14.13 30.63 13.93 29.82 13.94C25.25 13.96 20.69 13.97 16.12 13.93C15.16 13.92 14.8 14.23 14.82 15.21C14.88 17.31 14.91 19.41 14.81 21.5C14.76 22.76 15.29 23 16.39 22.97C18.56 22.9 20.74 22.95 23.43 22.95ZM22.83 12.14C25.14 12.14 27.45 12.16 29.77 12.13C30.29 12.13 31.08 12.38 31 11.37C30.95 10.62 30.45 10.36 29.78 10.36C25.23 10.35 20.67 10.35 16.12 10.36C15.46 10.36 14.95 10.61 14.89 11.36C14.81 12.37 15.59 12.13 16.11 12.13C18.35 12.16 20.59 12.14 22.83 12.14Z" fill="#000000" fill-opacity="1.000000" fill-rule="nonzero"/>
		<path id="path" d="M29.8 34.64C25.77 34.64 21.88 34.68 18 34.61C17.38 34.6 16.27 35.19 16.15 34.16C16.03 33.07 16.99 32.81 18.02 32.83C21.31 32.88 24.6 32.88 27.89 32.83C29.06 32.81 29.75 33.16 29.8 34.64Z" fill="#000000" fill-opacity="1.000000" fill-rule="nonzero"/>
	</g>
</svg>
