<svg width="45.000000" height="44.059448" viewBox="0 0 45 44.0594" fill="none" xmlns="http://www.w3.org/2000/svg" xmlns:xlink="http://www.w3.org/1999/xlink">
	<desc>
			Created with Pixso.
	</desc>
	<defs/>
	<path id="path" d="M3.15 44.05C0.7 43.01 -0.04 41.21 0 38.56C0.15 29.57 0.14 20.57 0.01 11.58C-0.03 8.19 1.13 6.56 4.67 6.64C9.81 6.77 14.96 6.65 20.09 6.7C21.01 6.71 22.48 6.39 22.37 7.95C22.3 9.04 21.04 8.96 20.16 8.97C15.41 9 10.66 9.09 5.91 8.95C3.39 8.87 2.24 9.42 2.3 12.3C2.49 20.91 2.47 29.52 2.31 38.12C2.27 40.67 3.08 41.51 5.57 41.44C10.45 41.31 15.33 41.4 20.21 41.41C22.24 41.42 23.35 41.98 21.66 44.05C15.5 44.05 9.32 44.05 3.15 44.05Z" fill="#000000" fill-opacity="1.000000" fill-rule="nonzero"/>
	<path id="path" d="M5.01 32.04C4.6 29.69 5.23 27.2 7.61 25.08C9.16 23.7 9.37 21.45 9.95 19.49C10.52 17.59 11.72 16.4 13.76 16.24C15.2 16.12 16.31 16.79 16.87 18.04C17.7 19.94 17.02 21.59 15.47 22.8C12.96 24.77 12.15 26.37 15.49 28.56C17.85 30.1 17.47 32.78 16.54 35.19C15.69 37.38 14.41 39.01 11.71 38.64C11.45 38.61 11.2 38.64 10.94 38.64C4.63 38.53 5.04 39.71 5.01 32.04Z" fill="#000000" fill-opacity="1.000000" fill-rule="nonzero"/>
	<path id="path" d="M42.51 39.76C42.51 29.5 42.59 20 42.48 10.5C42.43 5.92 37.92 5.07 35.24 2.81C33.33 1.21 31.87 3.65 30.25 4.52C28.79 5.31 27.33 8.19 25.98 6.53C24.57 4.8 27.59 3.86 28.79 2.84C33.49 -1.12 34.29 -0.78 39.47 2.8C43.56 5.62 45.24 8.83 44.97 13.93C44.49 22.64 44.86 31.4 44.81 40.15C44.8 41.21 45.41 42.66 44.01 43.23C42.73 43.75 41.96 42.46 41.04 41.85C40.5 41.49 40.02 41.06 39.52 40.65C33 35.25 33.92 36.41 28.68 40.48C27.85 41.13 26.8 42.59 25.81 41.27C24.85 39.99 26.53 39.35 27.34 38.66C33.33 33.46 33.94 33.46 40.38 38.35C40.85 38.73 41.38 39.03 42.51 39.76Z" fill="#000000" fill-opacity="1.000000" fill-rule="nonzero"/>
	<path id="path" d="M32.7 14.41C32.17 15.25 31.67 16.13 31.09 16.95C29.95 18.53 29.18 20.99 26.45 19.57C24.16 18.37 23.04 13.85 24.86 12.16C27.46 9.74 30.3 7.41 33.43 5.79C35.46 4.75 36.86 7.44 38.42 8.59C39.82 9.63 40.48 16.92 39.36 18C38.03 19.29 36.78 18.48 35.66 17.52C34.62 16.61 34.35 14.99 32.7 14.41Z" fill="#000000" fill-opacity="1.000000" fill-rule="nonzero"/>
	<path id="path" d="M38.24 24.93C37.16 27.48 35.5 29.77 32.69 30.17C30.08 30.54 28.26 28.56 26.93 26.46C26.27 25.43 26.91 24.52 27.98 24.73C30.58 25.23 32.64 24 34.88 23.17C36.38 22.62 37.99 22.57 38.24 24.93Z" fill="#000000" fill-opacity="1.000000" fill-rule="nonzero"/>
	<path id="path" d="M23.68 23.81C22.88 26 21.78 28.02 19.17 28.33C18.14 28.46 17.56 27.38 17.88 26.48C18.64 24.38 20.4 23.14 22.4 22.41C23.14 22.13 23.81 22.79 23.68 23.81Z" fill="#000000" fill-opacity="1.000000" fill-rule="nonzero"/>
</svg>
