<svg width="48.000000" height="48.000000" viewBox="0 0 48 48" fill="none" xmlns="http://www.w3.org/2000/svg" xmlns:xlink="http://www.w3.org/1999/xlink">
	<desc>
			Created with Pixso.
	</desc>
	<defs>
		<clipPath id="clip20_8668">
			<rect id="Ресурс 2" width="48.000000" height="48.000000" fill="white" fill-opacity="0"/>
		</clipPath>
	</defs>
	<g clip-path="url(#clip20_8668)">
		<path id="path" d="M33.61 22.19C34.66 24.74 35.35 27.73 35.02 30.86C34.9 32.03 35.02 33.55 33.55 33.59C32.06 33.65 31.83 32.12 32.04 30.97C33.09 25.41 30.16 24.59 25.53 24.93C20.89 25.26 16.2 25.01 11.54 25.01C9.83 25.01 8.11 24.9 7.96 27.36C7.89 28.46 7.35 29.35 6.05 28.93C4.82 28.53 4.72 27.22 5.11 26.44C6.54 23.65 6.53 21.01 5.16 18.21C4.74 17.34 5.02 16.12 6.33 15.92C7.28 15.77 7.83 16.41 7.99 17.35C8.35 19.51 9.53 21.04 11.59 21.74C13.52 22.4 15.22 21.78 16.58 20.33C17.94 18.87 18.42 17.12 17.59 15.26C16.62 13.1 14.93 11.95 12.45 12.06C11.27 12.11 9.3 13.22 9.17 11.25C9.03 8.98 11.34 9.19 12.92 9.09C13.88 9.05 15.06 9.15 15.8 9.67C18.1 11.28 19.63 10.79 21.77 8.96C25.41 5.87 30.37 6.48 33.47 9.85C34.47 10.95 36 12.45 34.78 13.71C33.08 15.47 32.45 13.05 31.52 12.13C29.57 10.19 27.34 9.38 24.73 10.57C22.21 11.72 20.86 13.74 21.1 16.54C21.32 19.11 22.87 20.83 25.25 21.67C27.51 22.46 29.5 21.76 31.22 20.18C31.95 19.51 32.68 18.54 33.77 19.18C34.97 19.87 34.37 20.86 33.61 22.19Z" fill="#000000" fill-opacity="1.000000" fill-rule="nonzero"/>
		<path id="path" d="M19.92 42.99C17.1 42.99 14.27 43.04 11.45 42.99C6.04 42.88 2.8 37.68 5.15 32.93C5.46 32.3 5.92 31.81 6.66 31.93C7.65 32.09 8.1 32.91 7.95 33.74C6.71 40.55 11.04 40.28 15.65 40.05C19.63 39.84 23.62 40.03 27.61 40C29.52 39.98 31.76 40.57 32.18 37.57C32.3 36.73 32.97 36.08 33.98 36.49C34.89 36.86 35.05 37.73 34.94 38.57C34.58 41.53 32.78 42.94 29.89 42.98C26.57 43.03 23.25 42.98 19.92 42.99Z" fill="#000000" fill-opacity="1.000000" fill-rule="nonzero"/>
		<path id="path" d="M41.88 39.08L41.88 27.65C41.54 27.46 41.29 27.22 41.03 27.2C39.7 27.09 38.22 29.2 37.12 27.25C36.39 25.97 37.82 25.26 38.81 24.68C40.7 23.56 42.56 23.32 44.16 25.17C45.27 26.45 45.43 39.25 44.37 40.73C43.39 42.09 42.01 42.57 40.43 42.09C38.86 41.61 37.24 40.98 36.45 39.41C35.93 38.37 36.87 37.8 37.7 37.9C38.95 38.06 40.16 38.57 41.88 39.08Z" fill="#000000" fill-opacity="1.000000" fill-rule="nonzero"/>
	</g>
</svg>
