<svg width="58.390625" height="58.745605" viewBox="0 0 58.3906 58.7456" fill="none" xmlns="http://www.w3.org/2000/svg" xmlns:xlink="http://www.w3.org/1999/xlink">
	<desc>
			Created with Pixso.
	</desc>
	<defs/>
	<path id="path" d="M6.85 23.99C6.85 23.18 7.14 22.4 7.67 21.78C8.19 21.16 8.92 20.75 9.72 20.62C9.63 20.2 9.59 19.78 9.59 19.36C9.59 18.02 10.02 16.72 10.82 15.66C11.62 14.59 12.75 13.81 14.03 13.44C13.81 12.99 13.69 12.49 13.7 11.98C13.7 11.08 14.06 10.21 14.7 9.56C15.34 8.92 16.21 8.56 17.12 8.56C17.8 8.56 18.47 8.77 19.03 9.16C20.07 7.77 21.64 6.88 23.37 6.71C25.09 6.54 26.81 7.11 28.1 8.28C29.38 9.44 30.12 11.09 30.12 12.83L30.12 42.31L30.12 42.62C30.13 42.64 30.13 42.66 30.12 42.67C30.12 42.83 30.11 42.98 30.08 43.14C30.07 43.23 30.06 43.32 30.04 43.42C29.7 45.24 28.55 46.82 26.92 47.7C25.29 48.59 23.35 48.7 21.63 47.99C19.92 47.28 18.61 45.84 18.08 44.06C17.66 44.23 17.21 44.32 16.76 44.32C15.86 44.32 14.98 43.96 14.34 43.32C13.7 42.68 13.34 41.81 13.34 40.9L14.71 40.9C14.71 41.63 15.1 42.31 15.74 42.68C16.37 43.04 17.15 43.04 17.79 42.68C18.43 42.31 18.82 41.63 18.82 40.9L20.19 40.9C20.19 41.83 19.81 42.72 19.13 43.36L19.28 43.21C19.52 44.29 20.1 45.26 20.95 45.96C21.8 46.67 22.86 47.07 23.96 47.1C25.09 47.1 26.17 46.71 27.04 45.99C27.9 45.27 28.48 44.27 28.68 43.16L28.68 42.99L28.68 42.86L28.68 42.54L28.68 42.31L28.68 12.83C28.68 11.11 27.77 9.53 26.28 8.68C24.8 7.82 22.98 7.82 21.49 8.68C20.01 9.53 19.1 11.11 19.1 12.83L17.8 12.83C17.8 11.97 17.98 11.11 18.34 10.33C17.93 10.03 17.42 9.89 16.91 9.94C16.41 9.99 15.94 10.23 15.59 10.61C15.25 10.98 15.06 11.48 15.06 11.98C15.1 12.41 15.23 12.82 15.43 13.2L15.75 13.2L15.75 14.57C14.04 14.57 12.46 15.48 11.6 16.96C10.74 18.44 10.74 20.27 11.6 21.75C12.46 23.24 14.04 24.15 15.75 24.15L15.75 25.52C14.57 25.52 13.42 25.18 12.43 24.55C11.44 23.91 10.65 23.01 10.16 21.94C9.42 21.96 8.76 22.37 8.41 23.01C8.06 23.66 8.08 24.44 8.47 25.07C8.85 25.69 9.54 26.07 10.27 26.04L11 26.04L11 26.95L11 28.32C10.45 28.32 9.93 28.54 9.55 28.93C9.16 29.31 8.95 29.83 8.95 30.38C8.95 30.92 9.16 31.44 9.55 31.83C9.93 32.21 10.45 32.43 11 32.43C11.54 32.43 12.07 32.21 12.45 31.83C12.84 31.44 13.05 30.92 13.05 30.38L14.42 30.38C14.42 31.2 14.13 31.99 13.6 32.61C13.07 33.23 12.33 33.64 11.52 33.76C10.71 33.89 9.89 33.72 9.19 33.29C8.5 32.86 7.98 32.19 7.73 31.41C7.49 30.63 7.53 29.79 7.85 29.04C8.17 28.28 8.75 27.67 9.49 27.31C8.74 27.13 8.07 26.71 7.59 26.11C7.11 25.51 6.85 24.76 6.85 23.99ZM15.75 39.16C14.48 39.16 13.26 38.65 12.36 37.76C11.46 36.86 10.96 35.64 10.96 34.37L9.59 34.37C9.59 36 10.24 37.57 11.39 38.72C12.55 39.88 14.12 40.53 15.75 40.53L15.75 39.16ZM15.38 26.54L15.38 27.91C16.6 27.91 17.73 27.25 18.34 26.19C18.96 25.14 18.96 23.83 18.34 22.77C17.73 21.71 16.6 21.06 15.38 21.06L15.38 22.43C16.11 22.43 16.79 22.82 17.16 23.46C17.53 24.09 17.53 24.87 17.16 25.51C16.79 26.15 16.11 26.54 15.38 26.54ZM17.07 17.49L16.1 18.45C16.96 19.32 18.22 19.66 19.41 19.34C20.59 19.03 21.51 18.1 21.83 16.92C22.15 15.74 21.81 14.48 20.95 13.61L19.97 14.56C20.36 14.95 20.58 15.47 20.58 16.02C20.58 16.57 20.36 17.09 19.97 17.47C19.58 17.85 19.06 18.06 18.53 18.06C17.98 18.06 17.47 17.86 17.07 17.49ZM23.28 17.49C23.28 18.39 23.64 19.27 24.28 19.91C24.92 20.55 25.79 20.91 26.7 20.91L26.7 19.54C25.97 19.54 25.29 19.15 24.92 18.51C24.56 17.88 24.56 17.1 24.92 16.46C25.29 15.83 25.97 15.43 26.7 15.43L26.7 14.06C25.8 14.06 24.93 14.42 24.29 15.06C23.65 15.7 23.29 16.56 23.28 17.47L23.28 17.49ZM14.73 36.06C15.25 35.54 16 35.34 16.71 35.52C17.42 35.71 17.98 36.27 18.17 36.98C18.36 37.68 18.16 38.44 17.64 38.96L18.6 39.93C19.39 39.05 19.66 37.83 19.34 36.7C19.01 35.57 18.12 34.68 16.99 34.36C15.86 34.03 14.64 34.31 13.76 35.1L14.73 36.06ZM20.58 29.11C20.58 30.02 20.94 30.89 21.58 31.53C22.22 32.17 23.09 32.53 24 32.53L24 31.16C23.26 31.16 22.59 30.77 22.22 30.14C21.85 29.5 21.85 28.72 22.22 28.08C22.59 27.45 23.26 27.06 24 27.06L24 25.69C23.09 25.69 22.22 26.05 21.58 26.69C20.94 27.33 20.58 28.2 20.58 29.11ZM26.02 44.6C26.86 43.73 27.18 42.48 26.86 41.32C26.54 40.15 25.63 39.24 24.46 38.92C23.3 38.6 22.05 38.92 21.18 39.76L22.14 40.73C22.54 40.35 23.06 40.15 23.6 40.15C24.14 40.15 24.66 40.35 25.05 40.73C25.44 41.11 25.66 41.64 25.66 42.18C25.66 42.73 25.44 43.25 25.05 43.64L26.02 44.6ZM44.32 48.71L44.32 50.08L42.99 50.08L42.99 51.45L44.29 51.45L44.29 50.08L45.58 50.08L45.58 51.45L46.88 51.45L46.88 50.08L45.58 50.08L45.58 48.71L44.32 48.71ZM44.32 52.82L45.62 52.82L45.62 51.45L44.29 51.45L44.32 52.82ZM49.14 3.61L50.43 3.61L50.43 4.98L51.73 4.98L51.73 3.61L50.43 3.61L50.43 2.24L49.14 2.24L49.14 3.61L47.85 3.61L47.85 4.98L49.14 4.98L49.14 3.61ZM49.14 6.35L50.43 6.35L50.43 4.98L49.14 4.98L49.14 6.35ZM58.04 37.4L56.71 37.4L56.71 36.03L55.45 36.03L55.45 37.4L54.15 37.4L54.15 38.77L55.45 38.77L55.45 37.4L56.75 37.4L56.75 38.77L58.04 38.77L58.04 37.4ZM55.45 40.14L56.75 40.14L56.75 38.77L55.45 38.77L55.45 40.14ZM7.01 48.7L8.3 48.7L8.3 50.07L9.59 50.07L9.59 48.7L8.29 48.7L8.29 47.33L7.01 47.33L7.01 48.7L5.71 48.7L5.71 50.07L7.01 50.07L7.01 48.7ZM7.01 51.44L8.3 51.44L8.3 50.07L7.01 50.07L7.01 51.44ZM2.78 10.12L4.11 10.12L4.11 11.48L5.41 11.48L5.41 10.12L4.11 10.12L4.11 8.75L2.78 8.75L2.78 10.12L1.48 10.12L1.48 11.48L2.78 11.48L2.78 10.12ZM2.78 12.85L4.11 12.85L4.11 11.48L2.78 11.48L2.78 12.85ZM4.11 29.62L2.78 29.62L2.78 28.25L1.48 28.25L1.48 29.62L0.19 29.62L0.19 30.99L1.48 30.99L1.48 29.62L2.78 29.62L2.78 30.99L4.11 30.99L4.11 29.62ZM1.48 32.36L2.78 32.36L2.78 30.99L1.48 30.99L1.48 32.36ZM21.64 1.56L22.94 1.56L22.94 2.93L24.23 2.93L24.23 1.56L22.94 1.56L22.94 0.19L21.64 0.19L21.64 1.56L20.35 1.56L20.35 2.93L21.64 2.93L21.64 1.56ZM21.64 4.3L22.94 4.3L22.94 2.93L21.64 2.93L21.64 4.3ZM3.43 58.55L10.47 58.55L10.47 57.18L3.43 57.18L3.43 58.55ZM11.83 58.55L55.53 58.55L55.53 57.18L11.83 57.18L11.83 58.55ZM56.9 57.18L56.9 58.55L58.19 58.55L58.19 57.18L56.9 57.18ZM13.77 55.81L42.2 55.81L42.2 54.44L13.74 54.44L13.77 55.81ZM48.42 54.44L43.63 54.44L43.63 55.81L48.42 55.81L48.42 54.44ZM31.49 42.67C31.5 42.83 31.51 42.98 31.54 43.14C31.55 43.23 31.56 43.32 31.58 43.42C31.92 45.24 33.07 46.82 34.7 47.7C36.33 48.59 38.27 48.7 39.99 47.99C41.7 47.28 43.01 45.84 43.54 44.06C43.96 44.23 44.41 44.32 44.86 44.32C45.76 44.32 46.63 43.96 47.28 43.32C47.92 42.68 48.28 41.81 48.28 40.9L46.91 40.9C46.91 41.63 46.52 42.31 45.88 42.68C45.25 43.04 44.47 43.04 43.83 42.68C43.19 42.31 42.8 41.63 42.8 40.9L41.43 40.9C41.43 41.83 41.81 42.72 42.49 43.36L42.34 43.21C42.1 44.29 41.52 45.26 40.67 45.96C39.82 46.67 38.76 47.07 37.66 47.1C36.53 47.1 35.45 46.71 34.58 45.99C33.72 45.27 33.14 44.27 32.94 43.16L32.94 42.99L32.94 42.86L32.94 42.54L32.94 42.31L32.94 12.83C32.94 11.11 33.85 9.53 35.33 8.68C36.82 7.82 38.64 7.82 40.13 8.68C41.61 9.53 42.52 11.11 42.52 12.83L43.89 12.83C43.89 11.97 43.71 11.11 43.36 10.33C43.77 10.05 44.26 9.94 44.75 10C45.24 10.06 45.69 10.29 46.02 10.65C46.35 11.02 46.54 11.49 46.55 11.98C46.52 12.41 46.39 12.82 46.19 13.2L45.87 13.2L45.87 14.57C47.58 14.57 49.16 15.48 50.02 16.96C50.88 18.44 50.88 20.27 50.02 21.75C49.16 23.24 47.58 24.15 45.87 24.15L45.87 25.52C47.05 25.52 48.2 25.18 49.19 24.55C50.18 23.91 50.97 23.01 51.46 21.94C52.2 21.96 52.86 22.37 53.21 23.02C53.56 23.66 53.54 24.44 53.15 25.07C52.77 25.69 52.08 26.07 51.35 26.04L50.62 26.04L50.62 26.95L50.62 28.32C51.16 28.32 51.69 28.54 52.07 28.93C52.46 29.31 52.67 29.83 52.67 30.38C52.67 30.92 52.46 31.45 52.07 31.83C51.69 32.22 51.16 32.43 50.62 32.43C50.08 32.43 49.55 32.22 49.17 31.83C48.78 31.45 48.57 30.92 48.57 30.38L47.2 30.38C47.2 31.2 47.49 31.99 48.02 32.61C48.55 33.23 49.29 33.64 50.1 33.76C50.91 33.89 51.73 33.72 52.43 33.29C53.12 32.86 53.64 32.19 53.88 31.41C54.13 30.63 54.09 29.79 53.77 29.04C53.45 28.28 52.87 27.67 52.13 27.31C53.16 27.06 54.02 26.35 54.45 25.38C54.89 24.42 54.85 23.3 54.35 22.37C53.85 21.44 52.95 20.79 51.9 20.61C51.99 20.2 52.03 19.78 52.03 19.36C52.03 18.02 51.6 16.73 50.8 15.66C49.99 14.59 48.87 13.81 47.59 13.44C47.81 12.99 47.93 12.49 47.92 11.99C47.92 11.08 47.56 10.21 46.92 9.56C46.28 8.92 45.41 8.56 44.5 8.56C43.82 8.56 43.15 8.77 42.59 9.16C41.55 7.77 39.98 6.88 38.25 6.71C36.53 6.55 34.81 7.11 33.52 8.28C32.24 9.44 31.5 11.09 31.49 12.83L31.49 42.31L31.49 42.62C31.49 42.64 31.49 42.66 31.49 42.67ZM52.03 34.37L50.66 34.37C50.66 35.64 50.16 36.86 49.26 37.76C48.36 38.65 47.14 39.16 45.87 39.16L45.87 40.53C47.5 40.53 49.07 39.88 50.23 38.72C51.38 37.57 52.03 36 52.03 34.37ZM46.24 22.43L46.24 21.06C45.02 21.06 43.89 21.71 43.27 22.77C42.66 23.83 42.66 25.14 43.27 26.19C43.89 27.25 45.02 27.91 46.24 27.91L46.24 26.54C45.5 26.54 44.83 26.15 44.46 25.51C44.09 24.88 44.09 24.09 44.46 23.46C44.83 22.82 45.5 22.43 46.24 22.43ZM45.52 18.45L44.55 17.49C44.16 17.86 43.64 18.07 43.1 18.07C42.56 18.07 42.04 17.86 41.65 17.49C41.26 17.1 41.04 16.58 41.04 16.03C41.04 15.49 41.26 14.96 41.65 14.58L40.67 13.61C39.81 14.48 39.47 15.74 39.79 16.92C40.11 18.1 41.03 19.03 42.21 19.34C43.39 19.66 44.66 19.32 45.52 18.45ZM34.92 19.52L34.92 20.89C36.14 20.89 37.27 20.24 37.88 19.18C38.49 18.12 38.49 16.81 37.88 15.76C37.27 14.7 36.14 14.04 34.92 14.04L34.92 15.41C35.65 15.41 36.33 15.81 36.7 16.44C37.06 17.08 37.06 17.86 36.7 18.49C36.33 19.13 35.65 19.52 34.92 19.52ZM46.89 36.06L47.85 35.1C46.98 34.26 45.74 33.94 44.57 34.26C43.41 34.58 42.5 35.49 42.18 36.66C41.86 37.82 42.17 39.07 43.01 39.94L43.98 38.97C43.46 38.45 43.26 37.7 43.45 36.99C43.64 36.28 44.2 35.73 44.9 35.54C45.61 35.35 46.37 35.54 46.89 36.06ZM37.65 25.69L37.65 27.06C38.39 27.06 39.07 27.45 39.43 28.08C39.8 28.72 39.8 29.5 39.43 30.14C39.07 30.77 38.39 31.16 37.65 31.16L37.65 32.53C38.88 32.53 40.01 31.88 40.62 30.82C41.23 29.76 41.23 28.46 40.62 27.4C40.01 26.34 38.88 25.69 37.65 25.69ZM39.54 40.75L40.51 39.78C39.64 38.94 38.39 38.62 37.23 38.94C36.06 39.26 35.15 40.17 34.83 41.34C34.51 42.5 34.83 43.75 35.67 44.62L36.64 43.66C36.25 43.27 36.03 42.75 36.03 42.2C36.03 41.66 36.25 41.13 36.63 40.75C37.02 40.38 37.54 40.18 38.07 40.17C38.6 40.17 39.12 40.37 39.51 40.73L39.54 40.75Z" fill="#00093C" fill-opacity="1.000000" fill-rule="nonzero"/>
	<path id="path" d="M7.67 21.78C8.19 21.16 8.92 20.75 9.72 20.62C9.63 20.2 9.59 19.78 9.59 19.36C9.59 18.02 10.02 16.72 10.82 15.66C11.62 14.59 12.75 13.81 14.03 13.44C13.81 12.99 13.69 12.49 13.7 11.98C13.7 11.08 14.06 10.21 14.7 9.56C15.34 8.92 16.21 8.56 17.12 8.56C17.8 8.56 18.47 8.77 19.03 9.16C20.07 7.77 21.64 6.88 23.37 6.71C25.09 6.54 26.81 7.11 28.1 8.28C29.38 9.44 30.12 11.09 30.12 12.83L30.12 42.31L30.12 42.62C30.13 42.64 30.13 42.66 30.12 42.67C30.12 42.83 30.11 42.98 30.08 43.14C30.07 43.23 30.06 43.32 30.04 43.42C29.7 45.24 28.55 46.82 26.92 47.7C25.29 48.59 23.35 48.7 21.63 47.99C19.92 47.28 18.61 45.84 18.08 44.06C17.66 44.23 17.21 44.32 16.76 44.32C15.86 44.32 14.98 43.96 14.34 43.32C13.7 42.68 13.34 41.81 13.34 40.9L14.71 40.9C14.71 41.63 15.1 42.31 15.74 42.68C16.37 43.04 17.15 43.04 17.79 42.68C18.43 42.31 18.82 41.63 18.82 40.9L20.19 40.9C20.19 41.83 19.81 42.72 19.13 43.36L19.28 43.21C19.52 44.29 20.1 45.26 20.95 45.96C21.8 46.67 22.86 47.07 23.96 47.1C25.09 47.1 26.17 46.71 27.04 45.99C27.9 45.27 28.48 44.27 28.68 43.16L28.68 42.99L28.68 42.86L28.68 42.54L28.68 42.31L28.68 12.83C28.68 11.11 27.77 9.53 26.28 8.68C24.8 7.82 22.98 7.82 21.49 8.68C20.01 9.53 19.1 11.11 19.1 12.83L17.8 12.83C17.8 11.97 17.98 11.11 18.34 10.33C17.93 10.03 17.42 9.89 16.91 9.94C16.41 9.99 15.94 10.23 15.59 10.61C15.25 10.98 15.06 11.48 15.06 11.98C15.1 12.41 15.23 12.82 15.43 13.2L15.75 13.2L15.75 14.57C14.04 14.57 12.46 15.48 11.6 16.96C10.74 18.44 10.74 20.27 11.6 21.75C12.46 23.24 14.04 24.15 15.75 24.15L15.75 25.52C14.57 25.52 13.42 25.18 12.43 24.55C11.44 23.91 10.65 23.01 10.16 21.94C9.42 21.96 8.76 22.37 8.41 23.01C8.06 23.66 8.08 24.44 8.47 25.07C8.85 25.69 9.54 26.07 10.27 26.04L11 26.04L11 26.95L11 28.32C10.45 28.32 9.93 28.54 9.55 28.93C9.16 29.31 8.95 29.83 8.95 30.38C8.95 30.92 9.16 31.44 9.55 31.83C9.93 32.21 10.45 32.43 11 32.43C11.54 32.43 12.07 32.21 12.45 31.83C12.84 31.44 13.05 30.92 13.05 30.38L14.42 30.38C14.42 31.2 14.13 31.99 13.6 32.61C13.07 33.23 12.33 33.64 11.52 33.76C10.71 33.89 9.89 33.72 9.19 33.29C8.5 32.86 7.98 32.19 7.73 31.41C7.49 30.63 7.53 29.79 7.85 29.04C8.17 28.28 8.75 27.67 9.49 27.31C8.74 27.13 8.07 26.71 7.59 26.11C7.11 25.51 6.85 24.76 6.85 23.99C6.85 23.18 7.14 22.4 7.67 21.78ZM12.36 37.76C11.46 36.86 10.96 35.64 10.96 34.37L9.59 34.37C9.59 36 10.24 37.57 11.39 38.72C12.55 39.88 14.12 40.53 15.75 40.53L15.75 39.16C14.48 39.16 13.26 38.65 12.36 37.76ZM15.38 27.91C16.6 27.91 17.73 27.25 18.34 26.19C18.96 25.14 18.96 23.83 18.34 22.77C17.73 21.71 16.6 21.06 15.38 21.06L15.38 22.43C16.11 22.43 16.79 22.82 17.16 23.46C17.53 24.09 17.53 24.87 17.16 25.51C16.79 26.15 16.11 26.54 15.38 26.54L15.38 27.91ZM16.1 18.45C16.96 19.32 18.22 19.66 19.41 19.34C20.59 19.03 21.51 18.1 21.83 16.92C22.15 15.74 21.81 14.48 20.95 13.61L19.97 14.56C20.36 14.95 20.58 15.47 20.58 16.02C20.58 16.57 20.36 17.09 19.97 17.47C19.58 17.85 19.06 18.06 18.53 18.06C17.98 18.06 17.47 17.86 17.07 17.49L16.1 18.45ZM24.28 19.91C24.92 20.55 25.79 20.91 26.7 20.91L26.7 19.54C25.97 19.54 25.29 19.15 24.92 18.51C24.56 17.88 24.56 17.1 24.92 16.46C25.29 15.83 25.97 15.43 26.7 15.43L26.7 14.06C25.8 14.06 24.93 14.42 24.29 15.06C23.65 15.7 23.29 16.56 23.28 17.47L23.28 17.49C23.28 18.39 23.64 19.27 24.28 19.91ZM16.71 35.52C17.42 35.71 17.98 36.27 18.17 36.98C18.36 37.68 18.16 38.44 17.64 38.96L18.6 39.93C19.39 39.05 19.66 37.83 19.34 36.7C19.01 35.57 18.12 34.68 16.99 34.36C15.86 34.03 14.64 34.31 13.76 35.1L14.73 36.06C15.25 35.54 16 35.34 16.71 35.52ZM21.58 31.53C22.22 32.17 23.09 32.53 24 32.53L24 31.16C23.26 31.16 22.59 30.77 22.22 30.14C21.85 29.5 21.85 28.72 22.22 28.08C22.59 27.45 23.26 27.06 24 27.06L24 25.69C23.09 25.69 22.22 26.05 21.58 26.69C20.94 27.33 20.58 28.2 20.58 29.11C20.58 30.02 20.94 30.89 21.58 31.53ZM26.86 41.32C26.54 40.15 25.63 39.24 24.46 38.92C23.3 38.6 22.05 38.92 21.18 39.76L22.14 40.73C22.54 40.35 23.06 40.15 23.6 40.15C24.14 40.15 24.66 40.35 25.05 40.73C25.44 41.11 25.66 41.64 25.66 42.18C25.66 42.73 25.44 43.25 25.05 43.64L26.02 44.6C26.86 43.73 27.18 42.48 26.86 41.32ZM45.58 50.08L45.58 48.71L44.32 48.71L44.32 50.08L42.99 50.08L42.99 51.45L44.29 51.45L45.62 51.45L45.62 52.82L44.32 52.82L44.29 51.45M44.29 51.45L44.29 50.08L45.58 50.08L46.88 50.08L46.88 51.45L45.58 51.45L45.58 50.08M50.43 4.98L49.14 4.98L47.85 4.98L47.85 3.61L49.14 3.61L50.43 3.61L51.73 3.61L51.73 4.98L50.43 4.98M50.43 3.61L50.43 4.98L50.43 6.35L49.14 6.35L49.14 4.98M50.43 3.61L50.43 2.24L49.14 2.24L49.14 3.61M49.14 4.98L49.14 3.61M55.45 38.77L56.75 38.77L58.04 38.77L58.04 37.4L56.71 37.4L56.71 36.03L55.45 36.03L55.45 37.4L55.45 38.77L55.45 40.14L56.75 40.14L56.75 38.77M55.45 37.4L54.15 37.4L54.15 38.77L55.45 38.77M55.45 37.4L56.75 37.4L56.75 38.77M8.3 50.07L7.01 50.07L5.71 50.07L5.71 48.7L7.01 48.7L8.3 48.7L8.3 50.07L8.3 51.44L7.01 51.44L7.01 50.07M8.3 50.07L9.59 50.07L9.59 48.7L8.29 48.7L8.29 47.33L7.01 47.33L7.01 48.7M7.01 50.07L7.01 48.7M2.78 11.48L1.48 11.48L1.48 10.12L2.78 10.12L4.11 10.12L5.41 10.12L5.41 11.48L4.11 11.48M4.11 10.12L4.11 11.48L4.11 12.85L2.78 12.85L2.78 11.48L2.78 10.12M4.11 10.12L4.11 8.75L2.78 8.75L2.78 10.12M4.11 11.48L2.78 11.48M2.78 30.99L4.11 30.99L4.11 29.62L2.78 29.62L1.48 29.62M2.78 29.62L2.78 28.25L1.48 28.25L1.48 29.62L1.48 30.99L1.48 32.36L2.78 32.36L2.78 30.99L2.78 29.62M1.48 29.62L0.19 29.62L0.19 30.99L1.48 30.99M2.78 30.99L1.48 30.99M22.94 2.93L21.64 2.93L20.35 2.93L20.35 1.56L21.64 1.56L22.94 1.56L24.23 1.56L24.23 2.93L22.94 2.93M22.94 1.56L22.94 2.93L22.94 4.3L21.64 4.3L21.64 2.93M22.94 1.56L22.94 0.19L21.64 0.19L21.64 1.56M21.64 2.93L21.64 1.56M10.47 58.55L10.47 57.18L3.43 57.18L3.43 58.55L10.47 58.55ZM55.53 58.55L55.53 57.18L11.83 57.18L11.83 58.55L55.53 58.55ZM56.9 58.55L58.19 58.55L58.19 57.18L56.9 57.18L56.9 58.55ZM42.2 55.81L42.2 54.44L13.74 54.44L13.77 55.81L42.2 55.81ZM43.63 54.44L43.63 55.81L48.42 55.81L48.42 54.44L43.63 54.44ZM31.54 43.14C31.55 43.23 31.56 43.32 31.58 43.42C31.92 45.24 33.07 46.82 34.7 47.7C36.33 48.59 38.27 48.7 39.99 47.99C41.7 47.28 43.01 45.84 43.54 44.06C43.96 44.23 44.41 44.32 44.86 44.32C45.76 44.32 46.63 43.96 47.28 43.32C47.92 42.68 48.28 41.81 48.28 40.9L46.91 40.9C46.91 41.63 46.52 42.31 45.88 42.68C45.25 43.04 44.47 43.04 43.83 42.68C43.19 42.31 42.8 41.63 42.8 40.9L41.43 40.9C41.43 41.83 41.81 42.72 42.49 43.36L42.34 43.21C42.1 44.29 41.52 45.26 40.67 45.96C39.82 46.67 38.76 47.07 37.66 47.1C36.53 47.1 35.45 46.71 34.58 45.99C33.72 45.27 33.14 44.27 32.94 43.16L32.94 42.99L32.94 42.86L32.94 42.54L32.94 42.31L32.94 12.83C32.94 11.11 33.85 9.53 35.33 8.68C36.82 7.82 38.64 7.82 40.13 8.68C41.61 9.53 42.52 11.11 42.52 12.83L43.89 12.83C43.89 11.97 43.71 11.11 43.36 10.33C43.77 10.05 44.26 9.94 44.75 10C45.24 10.06 45.69 10.29 46.02 10.65C46.35 11.02 46.54 11.49 46.55 11.98C46.52 12.41 46.39 12.82 46.19 13.2L45.87 13.2L45.87 14.57C47.58 14.57 49.16 15.48 50.02 16.96C50.88 18.44 50.88 20.27 50.02 21.75C49.16 23.24 47.58 24.15 45.87 24.15L45.87 25.52C47.05 25.52 48.2 25.18 49.19 24.55C50.18 23.91 50.97 23.01 51.46 21.94C52.2 21.96 52.86 22.37 53.21 23.02C53.56 23.66 53.54 24.44 53.15 25.07C52.77 25.69 52.08 26.07 51.35 26.04L50.62 26.04L50.62 26.95L50.62 28.32C51.16 28.32 51.69 28.54 52.07 28.93C52.46 29.31 52.67 29.83 52.67 30.38C52.67 30.92 52.46 31.45 52.07 31.83C51.69 32.22 51.16 32.43 50.62 32.43C50.08 32.43 49.55 32.22 49.17 31.83C48.78 31.45 48.57 30.92 48.57 30.38L47.2 30.38C47.2 31.2 47.49 31.99 48.02 32.61C48.55 33.23 49.29 33.64 50.1 33.76C50.91 33.89 51.73 33.72 52.43 33.29C53.12 32.86 53.64 32.19 53.88 31.41C54.13 30.63 54.09 29.79 53.77 29.04C53.45 28.28 52.87 27.67 52.13 27.31C53.16 27.06 54.02 26.35 54.45 25.38C54.89 24.42 54.85 23.3 54.35 22.37C53.85 21.44 52.95 20.79 51.9 20.61C51.99 20.2 52.03 19.78 52.03 19.36C52.03 18.02 51.6 16.73 50.8 15.66C49.99 14.59 48.87 13.81 47.59 13.44C47.81 12.99 47.93 12.49 47.92 11.99C47.92 11.08 47.56 10.21 46.92 9.56C46.28 8.92 45.41 8.56 44.5 8.56C43.82 8.56 43.15 8.77 42.59 9.16C41.55 7.77 39.98 6.88 38.25 6.71C36.53 6.55 34.81 7.11 33.52 8.28C32.24 9.44 31.5 11.09 31.49 12.83L31.49 42.31L31.49 42.62C31.49 42.64 31.49 42.66 31.49 42.67C31.5 42.83 31.51 42.98 31.54 43.14ZM50.66 34.37C50.66 35.64 50.16 36.86 49.26 37.76C48.36 38.65 47.14 39.16 45.87 39.16L45.87 40.53C47.5 40.53 49.07 39.88 50.23 38.72C51.38 37.57 52.03 36 52.03 34.37L50.66 34.37ZM46.24 21.06C45.02 21.06 43.89 21.71 43.27 22.77C42.66 23.83 42.66 25.14 43.27 26.19C43.89 27.25 45.02 27.91 46.24 27.91L46.24 26.54C45.5 26.54 44.83 26.15 44.46 25.51C44.09 24.88 44.09 24.09 44.46 23.46C44.83 22.82 45.5 22.43 46.24 22.43L46.24 21.06ZM44.55 17.49C44.16 17.86 43.64 18.07 43.1 18.07C42.56 18.07 42.04 17.86 41.65 17.49C41.26 17.1 41.04 16.58 41.04 16.03C41.04 15.49 41.26 14.96 41.65 14.58L40.67 13.61C39.81 14.48 39.47 15.74 39.79 16.92C40.11 18.1 41.03 19.03 42.21 19.34C43.39 19.66 44.66 19.32 45.52 18.45L44.55 17.49ZM34.92 20.89C36.14 20.89 37.27 20.24 37.88 19.18C38.49 18.12 38.49 16.81 37.88 15.76C37.27 14.7 36.14 14.04 34.92 14.04L34.92 15.41C35.65 15.41 36.33 15.81 36.7 16.44C37.06 17.08 37.06 17.86 36.7 18.49C36.33 19.13 35.65 19.52 34.92 19.52L34.92 20.89ZM47.85 35.1C46.98 34.26 45.74 33.94 44.57 34.26C43.41 34.58 42.5 35.49 42.18 36.66C41.86 37.82 42.17 39.07 43.01 39.94L43.98 38.97C43.46 38.45 43.26 37.7 43.45 36.99C43.64 36.28 44.2 35.73 44.9 35.54C45.61 35.35 46.37 35.54 46.89 36.06L47.85 35.1ZM37.65 27.06C38.39 27.06 39.07 27.45 39.43 28.08C39.8 28.72 39.8 29.5 39.43 30.14C39.07 30.77 38.39 31.16 37.65 31.16L37.65 32.53C38.88 32.53 40.01 31.88 40.62 30.82C41.23 29.76 41.23 28.46 40.62 27.4C40.01 26.34 38.88 25.69 37.65 25.69L37.65 27.06ZM40.51 39.78C39.64 38.94 38.39 38.62 37.23 38.94C36.06 39.26 35.15 40.17 34.83 41.34C34.51 42.5 34.83 43.75 35.67 44.62L36.64 43.66C36.25 43.27 36.03 42.75 36.03 42.2C36.03 41.66 36.25 41.13 36.63 40.75C37.02 40.38 37.54 40.18 38.07 40.17C38.6 40.17 39.12 40.37 39.51 40.73L39.54 40.75L40.51 39.78Z" stroke="#00093C" stroke-opacity="1.000000" stroke-width="0.390625"/>
</svg>
