<svg width="84.000000" height="72.000000" viewBox="0 0 84 72" fill="none" xmlns="http://www.w3.org/2000/svg" xmlns:xlink="http://www.w3.org/1999/xlink">
	<desc>
			Created with Pixso.
	</desc>
	<defs/>
	<path id="Vector" d="M16.46 70.64C7.38 70.64 0 63.26 0 54.17C0 45.09 7.38 37.71 16.46 37.71C25.54 37.71 32.93 45.09 32.93 54.17C32.93 63.31 25.54 70.64 16.46 70.64Z" fill="#FFFFFF" fill-opacity="1.000000" fill-rule="nonzero"/>
	<path id="Vector" d="M16.46 70.64C7.38 70.64 0 63.26 0 54.17C0 45.09 7.38 37.71 16.46 37.71C25.54 37.71 32.93 45.09 32.93 54.17C32.93 63.31 25.54 70.64 16.46 70.64Z" fill="#FFFFFF" fill-opacity="1.000000" fill-rule="nonzero"/>
	<path id="Vector" d="M55.38 1.83L37.52 31.02C37.02 31.87 37.57 32.92 38.52 32.92L56.38 32.92L74.25 32.92C75.19 32.92 75.74 31.82 75.24 31.02L57.38 1.83C56.88 1.08 55.83 1.08 55.38 1.83Z" fill="#FFFFFF" fill-opacity="1.000000" fill-rule="nonzero"/>
	<path id="Vector" d="M32.58 6.77L26.14 0.33C25.69 -0.12 24.9 -0.12 24.45 0.33L17.36 7.42C16.91 7.87 16.11 7.87 15.66 7.42L8.58 0.33C8.13 -0.12 7.33 -0.12 6.88 0.33L0.44 6.77C-0.01 7.22 -0.01 8.02 0.44 8.47L7.53 15.55C7.98 16 7.98 16.8 7.53 17.25L0.44 24.33C-0.01 24.78 -0.01 25.58 0.44 26.03L6.88 32.47C7.33 32.92 8.13 32.92 8.58 32.47L15.66 25.38C16.11 24.93 16.91 24.93 17.36 25.38L24.45 32.47C24.9 32.92 25.69 32.92 26.14 32.47L32.58 26.03C33.03 25.58 33.03 24.78 32.58 24.33L25.49 17.25C25.04 16.8 25.04 16 25.49 15.55L32.58 8.47C33.08 8.02 33.08 7.27 32.58 6.77Z" fill="#FFFFFF" fill-opacity="1.000000" fill-rule="nonzero"/>
	<path id="English Expert" d="M64.23 49.15Q64.56 49.37 65.05 49.37Q65.52 49.37 65.84 49.15Q65.91 49.11 65.97 49.05Q66.12 48.91 66.21 48.73Q66.32 48.51 66.32 48.23Q66.32 47.98 66.22 47.78Q66.13 47.6 65.97 47.46Q65.93 47.42 65.89 47.4Q65.56 47.15 65.05 47.15Q64.57 47.15 64.24 47.38Q64.18 47.42 64.12 47.47Q63.95 47.63 63.86 47.82Q63.77 48.02 63.77 48.26Q63.77 48.5 63.85 48.69Q63.94 48.89 64.12 49.06Q64.18 49.1 64.23 49.15ZM62.65 47.83L60.56 47.83L60.56 56L62.65 56L62.65 47.83ZM78.79 50.32Q78.2 49.93 77.34 49.93Q76.81 49.93 76.35 50.1Q75.99 50.23 75.71 50.45Q75.62 50.51 75.55 50.58L75.55 47.83L73.46 47.83L73.46 56L75.55 56L75.55 53.11Q75.55 52.41 75.87 52.06Q75.98 51.94 76.11 51.87Q76.37 51.71 76.74 51.71Q77.12 51.71 77.36 51.89Q77.72 52.18 77.72 52.93L77.72 56L79.81 56L79.81 52.58Q79.81 51.28 79.15 50.62Q79.14 50.61 79.13 50.59Q78.97 50.44 78.79 50.32ZM43.95 56L43.95 54.31L39.92 54.31L39.92 52.9L43.34 52.9L43.34 51.28L39.92 51.28L39.92 49.98L43.8 49.98L43.8 48.3L37.77 48.3L37.77 56L43.95 56ZM50.39 50.32Q49.79 49.93 48.94 49.93Q48.37 49.93 47.88 50.13Q47.58 50.25 47.32 50.44Q47.18 50.55 47.05 50.68L47.05 50.03L45.06 50.03L45.06 56L47.15 56L47.15 53.11Q47.15 52.41 47.47 52.06Q47.58 51.94 47.71 51.87Q47.97 51.71 48.33 51.71Q48.72 51.71 48.95 51.89Q49.32 52.18 49.32 52.93L49.32 56L51.4 56L51.4 52.58Q51.4 51.28 50.75 50.62Q50.74 50.61 50.73 50.59Q50.57 50.44 50.39 50.32ZM59.22 54.9L59.22 50.03L57.22 50.03L57.22 50.76Q57.08 50.56 56.9 50.41Q56.32 49.93 55.35 49.93Q54.82 49.93 54.34 50.1Q54.11 50.17 53.89 50.29Q53.58 50.46 53.33 50.68Q53.04 50.95 52.82 51.3Q52.76 51.41 52.71 51.52Q52.43 52.09 52.43 52.8Q52.43 53.57 52.74 54.17Q52.78 54.25 52.82 54.32Q53.03 54.66 53.32 54.93Q53.57 55.16 53.89 55.33Q54.11 55.45 54.34 55.52Q54.82 55.69 55.35 55.69Q56.29 55.69 56.87 55.23Q57.01 55.12 57.13 54.98L57.13 55.18Q57.13 55.84 56.8 56.2Q56.77 56.23 56.74 56.26Q56.36 56.62 55.53 56.62Q54.99 56.62 54.44 56.45Q53.88 56.28 53.52 55.98L52.76 57.45Q53.3 57.83 54.07 58.03Q54.84 58.23 55.72 58.23Q57.41 58.23 58.31 57.4Q58.39 57.33 58.45 57.26Q59.22 56.43 59.22 54.9ZM68.69 56.03Q69.15 56.09 69.61 56.09Q70.55 56.09 71.21 55.84Q71.88 55.59 72.22 55.14Q72.39 54.92 72.47 54.67Q72.56 54.42 72.56 54.14Q72.56 53.49 72.24 53.12Q72.22 53.1 72.2 53.08Q71.97 52.84 71.7 52.69Q71.54 52.6 71.36 52.55Q70.88 52.41 70.14 52.3Q69.55 52.21 69.3 52.13Q69.13 52.07 69.08 51.96Q69.05 51.91 69.05 51.84Q69.05 51.79 69.06 51.75Q69.1 51.62 69.28 51.53Q69.51 51.42 70.01 51.42Q70.54 51.42 71.02 51.56Q71.39 51.67 71.72 51.86L72.35 50.44Q71.92 50.2 71.28 50.07Q70.96 50 70.64 49.97Q70.32 49.93 69.99 49.93Q69.08 49.93 68.43 50.19Q67.77 50.45 67.43 50.9Q67.28 51.1 67.2 51.32Q67.09 51.6 67.09 51.91Q67.09 52.57 67.41 52.95Q67.43 52.97 67.45 52.99Q67.66 53.21 67.9 53.35Q68.09 53.46 68.32 53.52Q68.82 53.66 69.53 53.75Q70.09 53.83 70.35 53.91Q70.54 53.97 70.59 54.09Q70.61 54.14 70.61 54.19Q70.61 54.26 70.59 54.31Q70.54 54.42 70.4 54.49Q70.18 54.6 69.68 54.6Q69.13 54.6 68.57 54.45Q68 54.3 67.6 54.05L66.97 55.48Q67.41 55.75 68.14 55.93Q68.41 55.99 68.69 56.03ZM66.09 50.03L64 50.03L64 56L66.09 56L66.09 50.03ZM56.54 53.86Q56.24 54.03 55.85 54.03Q55.47 54.03 55.17 53.87Q55.03 53.79 54.91 53.69Q54.76 53.55 54.67 53.38Q54.54 53.13 54.54 52.8Q54.54 52.47 54.68 52.21Q54.77 52.06 54.91 51.93Q55 51.85 55.1 51.79Q55.42 51.6 55.85 51.6Q56.29 51.6 56.6 51.79Q56.7 51.85 56.78 51.93Q56.92 52.05 57 52.2Q57.15 52.46 57.15 52.8Q57.15 53.13 57.01 53.39Q56.92 53.55 56.78 53.69Q56.67 53.79 56.54 53.86ZM43.95 69L43.95 67.31L39.92 67.31L39.92 65.9L43.34 65.9L43.34 64.28L39.92 64.28L39.92 62.98L43.8 62.98L43.8 61.3L37.77 61.3L37.77 69L43.95 69ZM75.05 69.01Q75.43 68.92 75.69 68.75L75.18 67.29Q75.11 67.34 75.03 67.37Q74.81 67.48 74.54 67.48Q74.33 67.48 74.18 67.38Q74.13 67.35 74.08 67.3Q74.07 67.28 74.05 67.27Q73.91 67.09 73.91 66.8L73.91 64.82L75.27 64.82L75.27 63.25L73.91 63.25L73.91 61.7L71.82 61.7L71.82 63.25L70.95 63.25L70.95 64.82L71.82 64.82L71.82 66.82Q71.82 67.84 72.33 68.4Q72.38 68.47 72.45 68.52Q73.08 69.09 74.24 69.09Q74.67 69.09 75.05 69.01ZM56.69 63.14Q56.18 62.93 55.59 62.93Q54.59 62.93 54.02 63.42Q53.92 63.52 53.82 63.63L53.82 63.03L51.83 63.03L51.83 71.13L53.92 71.13L53.92 68.47Q54.06 68.61 54.22 68.71Q54.77 69.09 55.59 69.09Q56.19 69.09 56.7 68.89Q56.89 68.82 57.06 68.72Q57.3 68.58 57.5 68.4Q57.87 68.08 58.12 67.64Q58.51 66.94 58.51 66.01Q58.51 65.09 58.12 64.39Q57.87 63.94 57.5 63.62Q57.3 63.45 57.06 63.32Q56.88 63.21 56.69 63.14ZM65.54 66.54Q65.57 66.05 65.57 66.02Q65.57 65.07 65.15 64.37L65.15 64.37Q64.94 64.02 64.65 63.75Q64.36 63.49 64 63.3Q63.93 63.27 63.85 63.23Q63.18 62.93 62.38 62.93Q61.54 62.93 60.85 63.26Q60.77 63.29 60.7 63.33Q60.24 63.57 59.9 63.93Q59.69 64.16 59.53 64.42Q59.43 64.59 59.35 64.77Q59.11 65.33 59.11 66Q59.11 66.68 59.35 67.24Q59.43 67.43 59.54 67.6Q59.66 67.79 59.8 67.96Q60.19 68.41 60.77 68.7Q61.56 69.09 62.6 69.09Q64.02 69.09 64.86 68.4Q65.01 68.27 65.14 68.12L64.04 66.98Q63.73 67.26 63.41 67.38Q63.1 67.5 62.67 67.5Q62.1 67.5 61.72 67.25Q61.57 67.16 61.47 67.03Q61.29 66.83 61.21 66.54L65.54 66.54ZM68.72 63.54Q68.62 63.64 68.53 63.75L68.53 63.03L66.54 63.03L66.54 69L68.63 69L68.63 66.26Q68.63 65.52 69 65.16Q69 65.15 69.01 65.15Q69.05 65.11 69.09 65.07Q69.46 64.78 70.06 64.78Q70.25 64.78 70.53 64.82L70.53 62.93Q69.87 62.93 69.36 63.14Q68.99 63.29 68.72 63.54ZM47.74 67.43L48.81 69L51.2 69L48.92 65.94L51.12 63.03L48.91 63.03L47.81 64.54L46.75 63.03L44.4 63.03L46.6 66.01L44.33 69L46.6 69L47.74 67.43ZM61.75 64.58Q62.03 64.42 62.39 64.42Q62.77 64.42 63.05 64.58Q63.13 64.63 63.2 64.7Q63.28 64.76 63.34 64.83Q63.55 65.08 63.62 65.44L61.17 65.44Q61.24 65.08 61.44 64.84Q61.51 64.76 61.58 64.7Q61.66 64.63 61.75 64.58ZM55.73 67.3Q55.48 67.43 55.15 67.43Q54.82 67.43 54.56 67.3Q54.38 67.21 54.24 67.05Q54.21 67.02 54.19 66.99Q53.89 66.62 53.89 66.01Q53.89 65.41 54.19 65.04Q54.21 65.01 54.24 64.97Q54.38 64.82 54.56 64.73Q54.82 64.6 55.15 64.6Q55.48 64.6 55.73 64.73Q55.91 64.82 56.05 64.97Q56.08 65.01 56.1 65.04Q56.4 65.41 56.4 66.01Q56.4 66.62 56.1 66.99Q56.08 67.02 56.05 67.05Q55.91 67.21 55.73 67.3Z" fill="#FFFFFF" fill-opacity="1.000000" fill-rule="evenodd"/>
</svg>
