<svg width="29.050598" height="51.476196" viewBox="0 0 29.0506 51.4762" fill="none" xmlns="http://www.w3.org/2000/svg" xmlns:xlink="http://www.w3.org/1999/xlink">
	<desc>
			Created with Pixso.
	</desc>
	<defs/>
	<path id="path" d="M12.07 5.9L4.59 9.69C4.32 9.84 4.14 10.12 4.14 10.43C4.14 10.74 4.32 11.03 4.59 11.17L5.74 11.76L5.74 15.08C5.76 15.78 5.99 16.46 6.41 17.03C6.82 17.59 7.39 18.02 8.05 18.26C9.44 18.85 10.93 19.13 12.44 19.09C15.67 19.09 19.14 17.85 19.14 15.12L19.14 11.8L20.33 11.17C20.6 11.03 20.78 10.74 20.78 10.43C20.78 10.12 20.6 9.84 20.33 9.69L12.86 5.9C12.61 5.77 12.31 5.77 12.07 5.9ZM17.48 15.12C17.48 16.6 14.88 17.43 12.44 17.43C10 17.43 7.4 16.6 7.4 15.12L7.4 12.63L12.07 14.94C12.3 15.06 12.58 15.06 12.81 14.94L17.48 12.57L17.48 15.12ZM12.44 13.28L6.8 10.42L12.44 7.55L18.08 10.42L12.44 13.28ZM15.76 29.88C15.76 31.43 16.37 32.9 17.46 33.99C18.55 35.08 20.03 35.7 21.57 35.7C23.11 35.7 24.59 35.08 25.68 33.99C26.77 32.9 27.39 31.43 27.39 29.88C27.39 28.34 26.77 26.86 25.68 25.78C24.59 24.68 23.11 24.07 21.57 24.07C20.03 24.07 18.55 24.68 17.46 25.78C16.37 26.86 15.76 28.34 15.76 29.88ZM21.57 25.73C22.67 25.73 23.73 26.17 24.51 26.95C25.29 27.73 25.72 28.78 25.72 29.88C25.72 30.99 25.29 32.04 24.51 32.82C23.73 33.6 22.67 34.04 21.57 34.04C20.47 34.04 19.42 33.6 18.64 32.82C17.86 32.04 17.42 30.99 17.42 29.88C17.42 28.78 17.86 27.73 18.64 26.95C19.42 26.17 20.47 25.73 21.57 25.73ZM10.29 46.29C10.54 46.5 10.88 46.55 11.17 46.41L17.42 43.62L17.42 50.64C17.42 50.86 17.51 51.07 17.67 51.23C17.82 51.38 18.03 51.47 18.25 51.47L28.22 51.47C28.44 51.47 28.65 51.38 28.8 51.23C28.96 51.07 29.05 50.86 29.05 50.64L29.05 40.68C29.05 39.58 28.61 38.52 27.83 37.74C27.05 36.96 26 36.53 24.89 36.53L18.25 36.53C18.11 36.53 17.97 36.56 17.85 36.63L10.96 40.49L8.7 38.28C8.39 37.89 7.97 37.6 7.5 37.45L7.5 29.88C7.5 29.43 7.13 29.05 6.67 29.05C6.21 29.05 5.84 29.43 5.84 29.88L5.84 37.5C5.41 37.63 5.03 37.89 4.73 38.23C4.44 38.58 4.25 38.99 4.18 39.44C4.05 40.3 4.36 41.16 5.01 41.73L10.29 46.29ZM5.81 39.65C5.86 39.33 6.09 39.08 6.4 39.01L6.67 39.01C6.96 39 7.23 39.13 7.4 39.36L7.48 39.44L10.26 42.11C10.52 42.36 10.92 42.41 11.24 42.23L18.47 38.19L24.88 38.19C25.54 38.19 26.17 38.45 26.64 38.92C27.11 39.38 27.37 40.02 27.37 40.68L27.37 49.81L19.07 49.81L19.07 42.34C19.07 42.06 18.92 41.8 18.69 41.64C18.45 41.49 18.15 41.47 17.9 41.58L10.96 44.69L6.09 40.48C5.87 40.28 5.76 39.98 5.81 39.68L5.81 39.65ZM12.44 0C8.41 0 4.63 1.95 2.3 5.24C-0.04 8.52 -0.64 12.73 0.69 16.54C2.01 20.35 5.09 23.28 8.96 24.4L7.56 27C7.4 27.29 7.43 27.65 7.63 27.91C7.79 28.11 8.03 28.23 8.29 28.22C8.36 28.23 8.43 28.23 8.5 28.22C9.17 28.04 24.89 23.77 24.89 12.45C24.89 9.15 23.58 5.98 21.25 3.64C18.91 1.31 15.74 0 12.44 0ZM10.01 25.96L10.94 24.25C11.06 24.01 11.07 23.74 10.96 23.5C10.85 23.26 10.63 23.08 10.36 23.03C7.67 22.51 5.28 20.98 3.68 18.75C2.08 16.52 1.38 13.77 1.74 11.05C2.09 8.33 3.47 5.85 5.58 4.11C7.7 2.37 10.4 1.49 13.14 1.67C15.88 1.85 18.44 3.06 20.32 5.06C22.19 7.07 23.24 9.71 23.23 12.45C23.23 20.27 14.09 24.47 10.01 25.96Z" fill="#00093C" fill-opacity="1.000000" fill-rule="nonzero"/>
	<path id="path" d="M4.59 9.69C4.32 9.84 4.14 10.12 4.14 10.43C4.14 10.74 4.32 11.03 4.59 11.17L5.74 11.76L5.74 15.08C5.76 15.78 5.99 16.46 6.41 17.03C6.82 17.59 7.39 18.02 8.05 18.26C9.44 18.85 10.93 19.13 12.44 19.09C15.67 19.09 19.14 17.85 19.14 15.12L19.14 11.8L20.33 11.17C20.6 11.03 20.78 10.74 20.78 10.43C20.78 10.12 20.6 9.84 20.33 9.69L12.86 5.9C12.61 5.77 12.31 5.77 12.07 5.9L4.59 9.69ZM12.44 17.43C10 17.43 7.4 16.6 7.4 15.12L7.4 12.63L12.07 14.94C12.3 15.06 12.58 15.06 12.81 14.94L17.48 12.57L17.48 15.12C17.48 16.6 14.88 17.43 12.44 17.43ZM6.8 10.42L12.44 7.55L18.08 10.42L12.44 13.28L6.8 10.42ZM17.46 33.99C18.55 35.08 20.03 35.7 21.57 35.7C23.11 35.7 24.59 35.08 25.68 33.99C26.77 32.9 27.39 31.43 27.39 29.88C27.39 28.34 26.77 26.86 25.68 25.78C24.59 24.68 23.11 24.07 21.57 24.07C20.03 24.07 18.55 24.68 17.46 25.78C16.37 26.86 15.76 28.34 15.76 29.88C15.76 31.43 16.37 32.9 17.46 33.99ZM24.51 26.95C25.29 27.73 25.72 28.78 25.72 29.88C25.72 30.99 25.29 32.04 24.51 32.82C23.73 33.6 22.67 34.04 21.57 34.04C20.47 34.04 19.42 33.6 18.64 32.82C17.86 32.04 17.42 30.99 17.42 29.88C17.42 28.78 17.86 27.73 18.64 26.95C19.42 26.17 20.47 25.73 21.57 25.73C22.67 25.73 23.73 26.17 24.51 26.95ZM11.17 46.41L17.42 43.62L17.42 50.64C17.42 50.86 17.51 51.07 17.67 51.23C17.82 51.38 18.03 51.47 18.25 51.47L28.22 51.47C28.44 51.47 28.65 51.38 28.8 51.23C28.96 51.07 29.05 50.86 29.05 50.64L29.05 40.68C29.05 39.58 28.61 38.52 27.83 37.74C27.05 36.96 26 36.53 24.89 36.53L18.25 36.53C18.11 36.53 17.97 36.56 17.85 36.63L10.96 40.49L8.7 38.28C8.39 37.89 7.97 37.6 7.5 37.45L7.5 29.88C7.5 29.43 7.13 29.05 6.67 29.05C6.21 29.05 5.84 29.43 5.84 29.88L5.84 37.5C5.41 37.63 5.03 37.89 4.73 38.23C4.44 38.58 4.25 38.99 4.18 39.44C4.05 40.3 4.36 41.16 5.01 41.73L10.29 46.29C10.54 46.5 10.88 46.55 11.17 46.41ZM6.4 39.01L6.67 39.01C6.96 39 7.23 39.13 7.4 39.36L7.48 39.44L10.26 42.11C10.52 42.36 10.92 42.41 11.24 42.23L18.47 38.19L24.88 38.19C25.54 38.19 26.17 38.45 26.64 38.92C27.11 39.38 27.37 40.02 27.37 40.68L27.37 49.81L19.07 49.81L19.07 42.34C19.07 42.06 18.92 41.8 18.69 41.64C18.45 41.49 18.15 41.47 17.9 41.58L10.96 44.69L6.09 40.48C5.87 40.28 5.76 39.98 5.81 39.68L5.81 39.65C5.86 39.33 6.09 39.08 6.4 39.01ZM2.3 5.24C-0.04 8.52 -0.64 12.73 0.69 16.54C2.01 20.35 5.09 23.28 8.96 24.4L7.56 27C7.4 27.29 7.43 27.65 7.63 27.91C7.79 28.11 8.03 28.23 8.29 28.22C8.36 28.23 8.43 28.23 8.5 28.22C9.17 28.04 24.89 23.77 24.89 12.45C24.89 9.15 23.58 5.98 21.25 3.64C18.91 1.31 15.74 0 12.44 0C8.41 0 4.63 1.95 2.3 5.24ZM10.94 24.25C11.06 24.01 11.07 23.74 10.96 23.5C10.85 23.26 10.63 23.08 10.36 23.03C7.67 22.51 5.28 20.98 3.68 18.75C2.08 16.52 1.38 13.77 1.74 11.05C2.09 8.33 3.47 5.85 5.58 4.11C7.7 2.37 10.4 1.49 13.14 1.67C15.88 1.85 18.44 3.06 20.32 5.06C22.19 7.07 23.24 9.71 23.23 12.45C23.23 20.27 14.09 24.47 10.01 25.96L10.94 24.25Z" stroke="#00093C" stroke-opacity="1.000000" stroke-width="0.000000"/>
</svg>
