<svg width="60.000000" height="59.983856" viewBox="0 0 60 59.9839" fill="none" xmlns="http://www.w3.org/2000/svg" xmlns:xlink="http://www.w3.org/1999/xlink">
	<desc>
			Created with Pixso.
	</desc>
	<defs/>
	<path id="Vector" d="M11.61 5.8C8.4 5.8 5.8 8.4 5.8 11.61C5.8 14.82 8.4 17.41 11.61 17.41C14.82 17.41 17.41 14.82 17.41 11.61C17.41 8.4 14.82 5.8 11.61 5.8ZM11.61 15.48C9.48 15.48 7.74 13.74 7.74 11.61C7.74 9.48 9.48 7.74 11.61 7.74C13.74 7.74 15.48 9.48 15.48 11.61C15.48 13.74 13.74 15.48 11.61 15.48Z" fill="#00093C" fill-opacity="1.000000" fill-rule="nonzero"/>
	<path id="Vector" d="M29.03 10.64L30.96 10.64L30.96 12.58L29.03 12.58L29.03 10.64Z" fill="#00093C" fill-opacity="1.000000" fill-rule="evenodd"/>
	<path id="Vector" d="M32.9 10.64L38.71 10.64L38.71 12.58L32.9 12.58L32.9 10.64Z" fill="#00093C" fill-opacity="1.000000" fill-rule="evenodd"/>
	<path id="Vector" d="M29.03 14.51L38.71 14.51L38.71 16.45L29.03 16.45L29.03 14.51Z" fill="#00093C" fill-opacity="1.000000" fill-rule="evenodd"/>
	<path id="Vector" d="M11.61 46.45L3.87 46.45L3.87 52.25L11.61 52.25L11.61 46.45ZM9.67 50.32L5.8 50.32L5.8 48.38L9.67 48.38L9.67 50.32Z" fill="#00093C" fill-opacity="1.000000" fill-rule="nonzero"/>
	<path id="Vector" d="M13.54 46.45L19.35 46.45L19.35 48.38L13.54 48.38L13.54 46.45Z" fill="#00093C" fill-opacity="1.000000" fill-rule="evenodd"/>
	<path id="Vector" d="M13.54 50.32L19.35 50.32L19.35 52.25L13.54 52.25L13.54 50.32Z" fill="#00093C" fill-opacity="1.000000" fill-rule="evenodd"/>
	<path id="Vector" d="M3.87 54.19L19.35 54.19L19.35 56.12L3.87 56.12L3.87 54.19Z" fill="#00093C" fill-opacity="1.000000" fill-rule="evenodd"/>
	<path id="Vector" d="M57.09 32.9L41.61 32.9C40.01 32.9 38.71 34.2 38.71 35.8L38.71 42.58L34.83 42.58L34.83 33.72C36.5 33.29 37.74 31.79 37.74 30C37.74 28.2 36.5 26.69 34.83 26.27L34.83 20.32L39.67 20.32C41.27 20.32 42.58 19.01 42.58 17.41L42.58 12.58L46.53 12.58C47 15.32 49.38 17.41 52.25 17.41C55.46 17.41 58.06 14.82 58.06 11.61C58.06 10.61 57.8 9.66 57.35 8.83L59.71 6.48L58.33 5.11L56.14 7.3C55.11 6.37 53.74 5.79 52.25 5.79C49.38 5.79 47 7.88 46.53 10.62L42.58 10.62L42.58 5.79C42.58 4.19 41.27 2.88 39.67 2.88L28.06 2.88C26.46 2.88 25.16 4.19 25.16 5.79L25.16 10.62L23.22 10.62L23.22 8.91L20.67 8.22C20.59 8 20.5 7.79 20.4 7.56L21.71 5.27L17.93 1.5L15.64 2.8C15.41 2.7 15.21 2.61 14.98 2.53L14.29 0L8.93 0L8.24 2.54C8.01 2.62 7.8 2.72 7.58 2.82L5.29 1.51L1.51 5.29L2.82 7.58C2.72 7.8 2.62 8.01 2.54 8.24L0 8.93L0 14.29L2.54 14.98C2.62 15.2 2.72 15.41 2.82 15.64L1.51 17.93L5.29 21.7L7.58 20.4C7.8 20.5 8.01 20.59 8.24 20.67L8.93 23.2L10.64 23.2L10.64 38.69L2.9 38.69C1.3 38.69 0 40 0 41.59L0 57.08C0 58.67 1.3 59.98 2.9 59.98L20.32 59.98C21.91 59.98 23.22 58.67 23.22 57.08L23.22 41.59C23.22 40 21.91 38.69 20.32 38.69L12.58 38.69L12.58 23.2L14.29 23.2L14.98 20.66C15.21 20.58 15.41 20.48 15.64 20.38L17.93 21.69L21.72 17.91L20.41 15.62C20.51 15.4 20.61 15.19 20.69 14.96L23.22 14.27L23.22 12.56L25.16 12.56L25.16 17.4C25.16 19 26.46 20.3 28.06 20.3L32.9 20.3L32.9 26.25C31.24 26.69 30 28.19 30 29.98C30 31.79 31.24 33.29 32.9 33.7L32.9 44.5L38.71 44.5L38.71 51.27C38.71 52.87 40.01 54.17 41.61 54.17L57.09 54.17C58.69 54.17 60 52.87 60 51.27L60 35.79C60 34.19 58.69 32.9 57.09 32.9ZM52.25 7.74C53.22 7.74 54.09 8.11 54.77 8.69L52.25 11.2L51 9.95L49.62 11.32L52.24 13.93L55.87 10.3C56.01 10.7 56.11 11.14 56.11 11.59C56.11 13.72 54.37 15.46 52.24 15.46C50.11 15.46 48.37 13.72 48.37 11.59C48.37 9.46 50.12 7.74 52.25 7.74ZM20.32 58.06L2.9 58.06C2.37 58.06 1.93 57.62 1.93 57.09L1.93 44.51L21.29 44.51L21.29 57.09C21.29 57.62 20.85 58.06 20.32 58.06ZM21.29 41.61L21.29 42.58L1.93 42.58L1.93 41.61C1.93 41.08 2.37 40.64 2.9 40.64L20.32 40.64C20.85 40.64 21.29 41.08 21.29 41.61ZM21.29 12.8L19.16 13.38L19 13.88C18.85 14.33 18.67 14.77 18.45 15.2L18.2 15.67L19.3 17.59L17.61 19.3L15.69 18.2L15.22 18.45C14.79 18.67 14.33 18.87 13.9 19L13.4 19.16L12.82 21.27L10.43 21.27L9.85 19.14L9.35 18.98C8.9 18.83 8.46 18.66 8.03 18.43L7.56 18.19L5.64 19.29L3.95 17.59L5.04 15.67L4.8 15.2C4.58 14.77 4.38 14.32 4.25 13.88L4.09 13.38L1.98 12.8L1.98 10.41L4.11 9.83L4.27 9.33C4.41 8.88 4.59 8.45 4.82 8.01L5.06 7.54L3.96 5.62L5.66 3.93L7.58 5.03L8.04 4.79C8.48 4.56 8.93 4.37 9.37 4.24L9.87 4.08L10.45 1.95L12.83 1.95L13.41 4.08L13.91 4.24C14.37 4.38 14.8 4.56 15.24 4.79L15.71 5.03L17.62 3.93L19.32 5.62L18.22 7.54L18.46 8.01C18.69 8.45 18.88 8.9 19.01 9.33L19.17 9.83L21.3 10.41L21.29 12.8ZM28.06 4.83L39.67 4.83C40.21 4.83 40.64 5.27 40.64 5.8L40.64 6.77L27.09 6.77L27.09 5.8C27.09 5.27 27.53 4.83 28.06 4.83ZM27.09 17.41L27.09 8.7L40.64 8.7L40.64 17.41C40.64 17.95 40.21 18.38 39.67 18.38L28.06 18.38C27.53 18.38 27.09 17.95 27.09 17.41ZM31.93 30C31.93 28.93 32.8 28.06 33.87 28.06C34.93 28.06 35.8 28.93 35.8 30C35.8 31.06 34.93 31.93 33.87 31.93C32.8 31.93 31.93 31.06 31.93 30ZM41.61 34.83L57.09 34.83C57.62 34.83 58.06 35.27 58.06 35.8L58.06 36.77L40.64 36.77L40.64 35.8C40.64 35.27 41.08 34.83 41.61 34.83ZM57.09 52.25L41.61 52.25C41.08 52.25 40.64 51.82 40.64 51.29L40.64 38.7L58.06 38.7L58.06 51.29C58.06 51.82 57.62 52.25 57.09 52.25Z" fill="#00093C" fill-opacity="1.000000" fill-rule="nonzero"/>
	<path id="Vector" d="M48.38 40.64L42.58 40.64L42.58 46.45L48.38 46.45L48.38 40.64ZM46.45 44.51L44.51 44.51L44.51 42.58L46.45 42.58L46.45 44.51Z" fill="#00093C" fill-opacity="1.000000" fill-rule="nonzero"/>
	<path id="Vector" d="M50.32 40.64L56.12 40.64L56.12 42.58L50.32 42.58L50.32 40.64Z" fill="#00093C" fill-opacity="1.000000" fill-rule="evenodd"/>
	<path id="Vector" d="M50.32 44.51L56.12 44.51L56.12 46.45L50.32 46.45L50.32 44.51Z" fill="#00093C" fill-opacity="1.000000" fill-rule="evenodd"/>
	<path id="Vector" d="M42.58 48.38L56.12 48.38L56.12 50.32L42.58 50.32L42.58 48.38Z" fill="#00093C" fill-opacity="1.000000" fill-rule="evenodd"/>
</svg>
