<svg width="40.004883" height="55.508118" viewBox="0 0 40.0049 55.5081" fill="none" xmlns="http://www.w3.org/2000/svg" xmlns:xlink="http://www.w3.org/1999/xlink">
	<desc>
			Created with Pixso.
	</desc>
	<defs/>
	<path id="Vector" d="M3.34 55.5L25.68 55.5C26.13 55.5 26.49 55.14 26.49 54.69C26.49 54.24 26.13 53.88 25.68 53.88L9.06 53.88L9.06 46.43C9.06 45.98 8.69 45.61 8.24 45.61C7.79 45.61 7.43 45.98 7.43 46.43L7.43 53.88L3.34 53.88C2.06 53.88 1.46 53.33 1.65 51.96C3.87 41.09 3.88 40.21 4.24 39.32C4.31 39.23 4.66 37.97 6.37 37.24C6.55 37.17 6.44 37.22 7.05 37.03C7.09 37.02 6.91 37.09 9.83 36.07L11.77 39.67C11.99 40.06 12.48 40.21 12.87 40C13.27 39.78 13.42 39.29 13.2 38.89L11.38 35.53L12.63 35.1C13.23 36.21 18.54 46.02 19.12 47.08C19.48 47.74 20.38 47.78 20.8 47.2C20.88 47.1 20.45 47.87 27.36 35.09L28.6 35.53L22.02 47.7C21.15 49.31 18.85 49.31 17.98 47.71L15.01 42.23C14.8 41.83 14.3 41.69 13.91 41.9C13.51 42.12 13.37 42.61 13.58 43L16.55 48.48C18.03 51.22 21.97 51.22 23.45 48.48L30.16 36.07C33.07 37.08 32.9 37.02 32.94 37.03C33.51 37.21 33.45 37.17 33.62 37.24C34.24 37.51 34.61 37.81 34.6 37.81C35.24 38.32 35.68 38.91 35.91 39.79C35.95 39.93 38.36 51.9 38.37 52.3C38.4 53.32 37.96 53.88 36.66 53.88L32.57 53.88L32.57 46.43C32.57 45.98 32.2 45.61 31.75 45.61C31.3 45.61 30.94 45.98 30.94 46.43L30.94 53.88L29.47 53.88C29.03 53.88 28.66 54.24 28.66 54.69C28.66 55.14 29.03 55.5 29.47 55.5L36.66 55.5C38.58 55.5 39.79 54.52 39.98 52.82C40.02 52.41 40 51.91 39.95 51.66C37.47 39.25 37.58 39.77 37.57 39.72C37.24 38.15 36.33 36.85 34.85 36.03C34.16 35.65 33.76 35.59 33.41 35.48L27.34 33.37L25.31 31.98L25.31 30.4C28.28 28.64 30.16 25.61 30.5 22.34C32.98 22.45 34.7 20.09 33.67 18.02L33.67 11.39C33.67 6.59 31.06 4.93 30.26 4.53C26.37 -0.12 19.09 -1.32 13.57 1.51L13.56 1.52C13.47 1.58 12.33 2.1 10.93 3.27C10.59 3.57 10.55 4.08 10.85 4.42C11.14 4.76 11.65 4.8 11.99 4.5C17.4 -0.03 25.42 1.13 29.12 5.7C29.21 5.81 29.33 5.9 29.46 5.95C29.57 5.99 32.04 7.03 32.04 11.39L32.04 16.52C31.59 16.33 31.09 16.23 30.57 16.24L30.57 13.59C30.57 12.91 30.06 12.35 29.39 12.29C28.02 12.16 27.25 11.27 26.85 10.54C26.35 9.64 25.15 9.42 24.36 10.09C20.74 13.19 16.56 13.35 13.7 12.94C11.54 12.62 9.52 14.1 9.17 16.25C8.65 16.22 8.13 16.32 7.65 16.52C7.65 13.72 7.33 10.67 9.62 7.18C9.86 6.81 9.76 6.3 9.38 6.06C9.01 5.81 8.5 5.92 8.26 6.29C5.14 11.07 6.26 15.35 6.02 18.02C4.99 20.09 6.71 22.45 9.18 22.34C9.59 26.2 11.97 28.42 12.02 28.52L12.02 28.52C12.45 28.92 13.2 29.77 14.68 30.58L14.68 31.98L12.66 33.37C4.73 36.12 5.54 35.79 4.89 36.18C3.68 36.93 2.83 38.07 2.48 39.49C2.41 39.76 2.53 39.24 0.05 51.66C0 51.91 -0.03 52.4 0.02 52.82C0.2 54.52 1.41 55.5 3.34 55.5ZM21.4 31.79C21.86 31.72 22.35 31.62 22.64 31.53C22.71 31.51 23.1 31.42 23.69 31.19L23.69 32.09L20 36.2L16.31 32.09L16.31 31.3C18 31.89 19.76 32.03 21.4 31.79ZM23.43 38.93C23.22 38.78 21.46 37.48 21.2 37.29L24.63 33.48L25.91 34.36C25.08 35.88 23.97 37.95 23.43 38.93ZM22.14 41.33L21.94 40.71L22.25 40.08L22.65 40.38L22.14 41.33ZM17.34 40.38L17.75 40.08L18.06 40.71L17.85 41.34L17.34 40.38ZM18.79 37.29C18.6 37.44 16.75 38.79 16.56 38.93L14.09 34.36L15.37 33.48L18.79 37.29ZM19.08 39.1L20 38.43L20.91 39.1L20.55 39.84L19.44 39.84L19.08 39.1ZM20 45.29L18.92 43.31L19.52 41.46L20.47 41.46L21.07 43.3C20.73 43.93 20.41 44.52 20 45.29ZM32.34 19.29C32.34 20.14 31.5 20.76 30.57 20.71L30.57 17.87C31.5 17.82 32.34 18.45 32.34 19.29ZM29.23 13.91C29.23 13.91 29.23 13.91 29.23 13.91C29.23 13.91 29.23 13.91 29.23 13.91ZM13.47 14.55C16.66 15.01 21.33 14.82 25.42 11.33L25.43 11.33C26.21 12.75 27.45 13.64 28.94 13.87L28.94 16.75L28.01 17.3C27.63 16.75 27 16.38 26.28 16.38L22.56 16.38C21.68 16.38 20.92 16.92 20.6 17.69L19.08 17.69C18.76 16.92 18.01 16.38 17.13 16.38L13.41 16.38C12.69 16.38 12.06 16.75 11.67 17.3L10.75 16.75C10.83 15.36 12.09 14.35 13.47 14.55ZM22.07 18.5C22.07 18.23 22.29 18.01 22.56 18.01L26.28 18.01C26.54 18.01 26.76 18.23 26.76 18.5L26.76 20.12C26.76 20.82 26.19 21.4 25.49 21.4L23.35 21.4C22.64 21.4 22.07 20.82 22.07 20.12L22.07 18.5L22.07 18.5ZM17.62 18.5L17.62 20.12C17.62 20.82 17.05 21.4 16.34 21.4L14.2 21.4C13.5 21.4 12.92 20.82 12.92 20.12L12.92 18.5C12.92 18.23 13.15 18.01 13.41 18.01L17.13 18.01C17.4 18.01 17.62 18.23 17.62 18.5ZM7.34 19.29C7.34 18.45 8.19 17.82 9.12 17.87L9.12 20.71C8.18 20.76 7.34 20.13 7.34 19.29ZM12.94 27.1C10.31 24.04 10.82 21.06 10.75 18.64L11.3 18.96L11.3 20.12C11.3 21.72 12.6 23.02 14.2 23.02L16.34 23.02C17.94 23.02 19.25 21.72 19.25 20.12L19.25 19.31L20.44 19.31L20.44 20.12C20.44 21.72 21.75 23.02 23.35 23.02L25.49 23.02C27.09 23.02 28.39 21.72 28.39 20.12L28.39 18.96L28.94 18.64L28.94 21.18C28.94 26.02 25.11 30.22 19.84 30.28C19.83 30.28 19.72 30.28 19.74 30.28C18.33 30.26 17.25 29.9 17.36 29.93C15.76 29.49 14.24 28.58 12.94 27.1Z" fill="#00093C" fill-opacity="1.000000" fill-rule="nonzero"/>
</svg>
