<svg width="49.995117" height="49.999939" viewBox="0 0 49.9951 49.9999" fill="none" xmlns="http://www.w3.org/2000/svg" xmlns:xlink="http://www.w3.org/1999/xlink">
	<desc>
			Created with Pixso.
	</desc>
	<defs/>
	<path id="Vector" d="M28.42 23.71C28.56 24 28.86 24.16 29.16 24.16C29.28 24.16 29.42 24.14 29.54 24.08C29.59 24.05 34.5 21.56 36.91 20.79C37.35 20.66 37.6 20.18 37.45 19.74C37.32 19.3 36.85 19.06 36.4 19.19C33.85 20 28.98 22.48 28.77 22.57C28.38 22.81 28.21 23.31 28.42 23.71Z" fill="#00093C" fill-opacity="1.000000" fill-rule="nonzero"/>
	<path id="Vector" d="M29.16 14.17C29.28 14.17 29.42 14.15 29.54 14.09C29.59 14.06 34.5 11.57 36.91 10.8C37.35 10.67 37.6 10.19 37.45 9.75C37.32 9.32 36.85 9.07 36.4 9.21C33.85 10.01 28.98 12.49 28.77 12.59C28.36 12.79 28.2 13.3 28.41 13.71C28.58 14 28.87 14.17 29.16 14.17Z" fill="#00093C" fill-opacity="1.000000" fill-rule="nonzero"/>
	<path id="Vector" d="M49.17 12.5C48.71 12.5 48.34 12.88 48.34 13.33L48.34 45.83C48.34 47.21 47.22 48.33 45.84 48.33L25.83 48.33L25.83 46.42C27.05 45.99 30.21 45 33.33 45C40.59 45 45.51 46.61 45.56 46.63C45.81 46.71 46.08 46.66 46.3 46.52C46.52 46.36 46.64 46.11 46.64 45.84L46.64 9.17C46.64 8.78 46.38 8.44 46 8.35C46 8.35 45.34 8.2 44.23 8C43.78 7.91 43.34 8.22 43.26 8.67C43.18 9.12 43.48 9.56 43.93 9.64C44.36 9.72 44.72 9.79 45 9.85L45 44.73C43.1 44.23 38.92 43.34 33.33 43.34C29.7 43.34 26.12 44.54 25.02 44.94C24.05 44.5 21.08 43.34 17.49 43.34C11.75 43.34 7.02 44.29 4.99 44.77L4.99 9.82C6.65 9.4 11.57 8.34 17.49 8.34C20.53 8.34 23.13 9.29 24.16 9.72L24.16 42.51C24.16 42.82 24.32 43.08 24.58 43.23C24.84 43.38 25.17 43.38 25.43 43.22C25.51 43.17 33.76 38.24 41.09 35.8C41.43 35.69 41.66 35.37 41.66 35L41.66 0.83C41.66 0.56 41.53 0.31 41.31 0.15C41.09 -0.01 40.8 -0.05 40.54 0.05C33.87 2.55 27.12 6.75 27.06 6.79C26.67 7.03 26.55 7.55 26.79 7.94C27.04 8.33 27.55 8.45 27.94 8.2C28 8.17 33.87 4.52 40 2.05L40 34.4C34.31 36.38 28.37 39.61 25.83 41.06L25.83 9.17C25.83 8.85 25.65 8.57 25.37 8.42C25.22 8.35 21.8 6.67 17.49 6.67C9.96 6.67 4.17 8.29 3.93 8.36C3.57 8.46 3.33 8.79 3.33 9.17L3.33 45.84C3.33 46.1 3.45 46.36 3.66 46.5C3.8 46.61 3.98 46.67 4.16 46.67C4.23 46.67 4.32 46.66 4.39 46.64C4.45 46.63 10.21 45 17.5 45C20.55 45 23.16 45.95 24.17 46.38L24.17 48.33L4.16 48.33C2.78 48.33 1.66 47.21 1.66 45.83L1.66 13.33C1.66 12.87 1.28 12.5 0.83 12.5C0.36 12.5 0 12.88 0 13.33L0 45.83C0 48.13 1.86 49.99 4.16 49.99L45.83 49.99C48.12 49.99 49.99 48.13 49.99 45.83L49.99 13.33C50 12.88 49.62 12.5 49.17 12.5Z" fill="#00093C" fill-opacity="1.000000" fill-rule="nonzero"/>
	<path id="Vector" d="M28.42 18.72C28.56 19.01 28.86 19.17 29.16 19.17C29.28 19.17 29.42 19.14 29.54 19.08C29.59 19.06 34.5 16.57 36.91 15.8C37.35 15.66 37.6 15.19 37.45 14.75C37.32 14.31 36.85 14.06 36.4 14.2C33.85 15 28.98 17.48 28.77 17.58C28.38 17.8 28.21 18.3 28.42 18.72Z" fill="#00093C" fill-opacity="1.000000" fill-rule="nonzero"/>
	<path id="Vector" d="M28.42 28.72C28.56 29.01 28.86 29.17 29.16 29.17C29.28 29.17 29.42 29.14 29.54 29.08C29.59 29.06 34.5 26.57 36.91 25.8C37.35 25.66 37.6 25.19 37.45 24.75C37.32 24.31 36.85 24.06 36.4 24.2C33.85 25 28.98 27.48 28.77 27.58C28.38 27.8 28.21 28.3 28.42 28.72Z" fill="#00093C" fill-opacity="1.000000" fill-rule="nonzero"/>
	<path id="Vector" d="M20.19 15.47C15.04 14.26 9.19 15.8 8.94 15.86C8.5 15.98 8.24 16.43 8.36 16.88C8.46 17.25 8.8 17.51 9.16 17.51C9.24 17.51 9.31 17.5 9.38 17.48C9.45 17.47 15.07 15.98 19.81 17.1C20.26 17.21 20.7 16.93 20.81 16.48C20.92 16.02 20.64 15.57 20.19 15.47Z" fill="#00093C" fill-opacity="1.000000" fill-rule="nonzero"/>
	<path id="Vector" d="M20.19 20.46C15.04 19.25 9.19 20.79 8.94 20.86C8.5 20.99 8.24 21.44 8.36 21.89C8.46 22.26 8.8 22.51 9.16 22.51C9.24 22.51 9.31 22.5 9.38 22.49C9.45 22.48 15.07 20.99 19.81 22.11C20.26 22.22 20.7 21.94 20.81 21.49C20.92 21.02 20.64 20.57 20.19 20.46Z" fill="#00093C" fill-opacity="1.000000" fill-rule="nonzero"/>
	<path id="Vector" d="M28.42 33.72C28.56 34.01 28.86 34.17 29.16 34.17C29.28 34.17 29.42 34.15 29.54 34.09C29.59 34.06 34.5 31.57 36.91 30.8C37.35 30.67 37.6 30.19 37.45 29.75C37.32 29.31 36.85 29.07 36.4 29.2C33.85 30.01 28.98 32.49 28.77 32.59C28.38 32.81 28.21 33.31 28.42 33.72Z" fill="#00093C" fill-opacity="1.000000" fill-rule="nonzero"/>
	<path id="Vector" d="M20.19 25.47C15.04 24.26 9.19 25.8 8.94 25.87C8.5 25.99 8.24 26.44 8.36 26.9C8.46 27.27 8.8 27.52 9.16 27.52C9.24 27.52 9.31 27.51 9.38 27.49C9.45 27.48 15.07 25.99 19.81 27.12C20.26 27.23 20.7 26.94 20.81 26.49C20.92 26.02 20.64 25.58 20.19 25.47Z" fill="#00093C" fill-opacity="1.000000" fill-rule="nonzero"/>
	<path id="Vector" d="M20.19 35.47C15.04 34.26 9.19 35.8 8.94 35.86C8.5 35.98 8.24 36.43 8.36 36.88C8.46 37.26 8.8 37.51 9.16 37.51C9.24 37.51 9.31 37.49 9.38 37.48C9.45 37.47 15.07 35.98 19.81 37.1C20.26 37.2 20.7 36.93 20.81 36.48C20.92 36.03 20.64 35.58 20.19 35.47Z" fill="#00093C" fill-opacity="1.000000" fill-rule="nonzero"/>
	<path id="Vector" d="M20.19 30.47C15.04 29.26 9.19 30.8 8.94 30.88C8.5 31 8.24 31.45 8.36 31.9C8.46 32.28 8.8 32.52 9.16 32.52C9.24 32.52 9.31 32.51 9.38 32.5C9.45 32.49 15.07 31 19.81 32.12C20.26 32.23 20.7 31.95 20.81 31.5C20.92 31.02 20.64 30.57 20.19 30.47Z" fill="#00093C" fill-opacity="1.000000" fill-rule="nonzero"/>
</svg>
