<svg width="60.016602" height="60.000000" viewBox="0 0 60.0166 60" fill="none" xmlns="http://www.w3.org/2000/svg" xmlns:xlink="http://www.w3.org/1999/xlink">
	<desc>
			Created with Pixso.
	</desc>
	<defs/>
	<path id="Vector" d="M11.61 5.8C8.4 5.8 5.8 8.4 5.8 11.61C5.8 14.82 8.4 17.42 11.61 17.42C14.82 17.42 17.42 14.82 17.42 11.61C17.42 8.4 14.82 5.8 11.61 5.8ZM11.61 15.48C9.48 15.48 7.74 13.74 7.74 11.61C7.74 9.48 9.48 7.74 11.61 7.74C13.74 7.74 15.48 9.48 15.48 11.61C15.48 13.74 13.74 15.48 11.61 15.48Z" fill="#00093C" fill-opacity="1.000000" fill-rule="nonzero"/>
	<path id="Vector" d="M29.04 10.64L30.97 10.64L30.97 12.58L29.04 12.58L29.04 10.64Z" fill="#00093C" fill-opacity="1.000000" fill-rule="evenodd"/>
	<path id="Vector" d="M32.91 10.64L38.71 10.64L38.71 12.58L32.91 12.58L32.91 10.64Z" fill="#00093C" fill-opacity="1.000000" fill-rule="evenodd"/>
	<path id="Vector" d="M29.04 14.52L38.71 14.52L38.71 16.45L29.04 16.45L29.04 14.52Z" fill="#00093C" fill-opacity="1.000000" fill-rule="evenodd"/>
	<path id="Vector" d="M11.61 46.46L3.87 46.46L3.87 52.27L11.61 52.27L11.61 46.46ZM9.67 50.33L5.8 50.33L5.8 48.4L9.67 48.4L9.67 50.33Z" fill="#00093C" fill-opacity="1.000000" fill-rule="nonzero"/>
	<path id="Vector" d="M13.55 46.46L19.35 46.46L19.35 48.4L13.55 48.4L13.55 46.46Z" fill="#00093C" fill-opacity="1.000000" fill-rule="evenodd"/>
	<path id="Vector" d="M13.55 50.33L19.35 50.33L19.35 52.27L13.55 52.27L13.55 50.33Z" fill="#00093C" fill-opacity="1.000000" fill-rule="evenodd"/>
	<path id="Vector" d="M3.87 54.2L19.36 54.2L19.36 56.14L3.87 56.14L3.87 54.2Z" fill="#00093C" fill-opacity="1.000000" fill-rule="evenodd"/>
	<path id="Vector" d="M57.11 32.91L41.62 32.91C40.02 32.91 38.71 34.21 38.71 35.81L38.71 42.59L34.84 42.59L34.84 33.73C36.5 33.29 37.75 31.79 37.75 30C37.75 28.21 36.5 26.7 34.84 26.28L34.84 20.32L39.68 20.32C41.28 20.32 42.59 19.02 42.59 17.42L42.59 12.58L46.54 12.58C47.01 15.32 49.4 17.42 52.27 17.42C55.48 17.42 58.08 14.82 58.08 11.61C58.08 10.61 57.82 9.66 57.37 8.84L59.72 6.48L58.35 5.11L56.16 7.3C55.12 6.37 53.75 5.79 52.27 5.79C49.4 5.79 47.01 7.88 46.54 10.63L42.59 10.63L42.59 5.79C42.59 4.19 41.28 2.88 39.68 2.88L28.07 2.88C26.47 2.88 25.16 4.19 25.16 5.79L25.16 10.63L23.23 10.63L23.23 8.92L20.68 8.22C20.6 8 20.5 7.79 20.4 7.56L21.71 5.27L17.94 1.5L15.64 2.8C15.42 2.71 15.21 2.61 14.98 2.53L14.29 0L8.93 0L8.24 2.54C8.01 2.62 7.8 2.72 7.58 2.82L5.29 1.51L1.51 5.29L2.82 7.58C2.72 7.8 2.62 8.01 2.54 8.24L0 8.93L0 14.29L2.54 14.98C2.62 15.21 2.72 15.42 2.82 15.64L1.51 17.94L5.29 21.71L7.58 20.4C7.8 20.5 8.01 20.6 8.24 20.68L8.93 23.21L10.64 23.21L10.64 38.7L2.9 38.7C1.3 38.7 0 40.01 0 41.6L0 57.09C0 58.69 1.3 60 2.9 60L20.32 60C21.92 60 23.23 58.69 23.23 57.09L23.23 41.6C23.23 40.01 21.92 38.7 20.32 38.7L12.58 38.7L12.58 23.21L14.29 23.21L14.98 20.66C15.21 20.58 15.42 20.48 15.64 20.39L17.94 21.69L21.73 17.92L20.42 15.63C20.52 15.4 20.61 15.19 20.69 14.97L23.23 14.27L23.23 12.56L25.16 12.56L25.16 17.4C25.16 19 26.47 20.31 28.07 20.31L32.91 20.31L32.91 26.26C31.25 26.7 30 28.2 30 29.99C30 31.79 31.25 33.29 32.91 33.71L32.91 44.51L38.71 44.51L38.71 51.28C38.71 52.88 40.02 54.19 41.62 54.19L57.11 54.19C58.7 54.19 60.01 52.88 60.01 51.28L60.01 35.8C60.01 34.2 58.7 32.91 57.11 32.91ZM52.27 7.74C53.24 7.74 54.11 8.11 54.78 8.69L52.27 11.21L51.01 9.95L49.64 11.32L52.25 13.93L55.88 10.3C56.03 10.71 56.12 11.14 56.12 11.59C56.12 13.72 54.38 15.47 52.25 15.47C50.12 15.47 48.38 13.72 48.38 11.59C48.38 9.47 50.14 7.74 52.27 7.74ZM20.32 58.08L2.9 58.08C2.37 58.08 1.93 57.64 1.93 57.11L1.93 44.52L21.29 44.52L21.29 57.11C21.29 57.64 20.86 58.08 20.32 58.08ZM21.29 41.62L21.29 42.59L1.93 42.59L1.93 41.62C1.93 41.09 2.37 40.65 2.9 40.65L20.32 40.65C20.86 40.65 21.29 41.09 21.29 41.62ZM21.29 12.8L19.16 13.39L19 13.89C18.86 14.34 18.68 14.77 18.45 15.21L18.21 15.68L19.31 17.6L17.61 19.31L15.69 18.21L15.22 18.45C14.79 18.68 14.34 18.87 13.9 19L13.4 19.16L12.82 21.27L10.43 21.27L9.85 19.15L9.35 18.98C8.9 18.84 8.46 18.66 8.03 18.44L7.56 18.19L5.64 19.29L3.95 17.6L5.04 15.68L4.8 15.21C4.58 14.77 4.38 14.32 4.25 13.89L4.09 13.39L1.98 12.8L1.98 10.42L4.11 9.84L4.27 9.34C4.42 8.88 4.59 8.45 4.82 8.01L5.06 7.55L3.96 5.63L5.66 3.93L7.58 5.03L8.05 4.79C8.48 4.56 8.93 4.37 9.37 4.24L9.87 4.08L10.45 1.95L12.84 1.95L13.42 4.08L13.92 4.24C14.37 4.38 14.81 4.56 15.24 4.79L15.71 5.03L17.63 3.93L19.32 5.63L18.23 7.55L18.47 8.01C18.69 8.45 18.89 8.9 19.02 9.34L19.18 9.84L21.31 10.42L21.29 12.8ZM28.07 4.84L39.68 4.84C40.22 4.84 40.65 5.27 40.65 5.8L40.65 6.77L27.1 6.77L27.1 5.8C27.1 5.27 27.54 4.84 28.07 4.84ZM27.1 17.42L27.1 8.71L40.65 8.71L40.65 17.42C40.65 17.95 40.22 18.39 39.68 18.39L28.07 18.39C27.54 18.39 27.1 17.95 27.1 17.42ZM31.94 30C31.94 28.94 32.81 28.07 33.87 28.07C34.94 28.07 35.81 28.94 35.81 30C35.81 31.07 34.94 31.94 33.87 31.94C32.81 31.94 31.94 31.07 31.94 30ZM41.62 34.84L57.11 34.84C57.64 34.84 58.08 35.28 58.08 35.81L58.08 36.78L40.65 36.78L40.65 35.81C40.65 35.28 41.09 34.84 41.62 34.84ZM57.11 52.27L41.62 52.27C41.09 52.27 40.65 51.83 40.65 51.3L40.65 38.72L58.08 38.72L58.08 51.3C58.08 51.83 57.64 52.27 57.11 52.27Z" fill="#00093C" fill-opacity="1.000000" fill-rule="nonzero"/>
	<path id="Vector" d="M48.39 40.65L42.59 40.65L42.59 46.46L48.39 46.46L48.39 40.65ZM46.46 44.52L44.52 44.52L44.52 42.59L46.46 42.59L46.46 44.52Z" fill="#00093C" fill-opacity="1.000000" fill-rule="nonzero"/>
	<path id="Vector" d="M50.33 40.65L56.14 40.65L56.14 42.59L50.33 42.59L50.33 40.65Z" fill="#00093C" fill-opacity="1.000000" fill-rule="evenodd"/>
	<path id="Vector" d="M50.33 44.52L56.14 44.52L56.14 46.46L50.33 46.46L50.33 44.52Z" fill="#00093C" fill-opacity="1.000000" fill-rule="evenodd"/>
	<path id="Vector" d="M42.59 48.4L56.14 48.4L56.14 50.33L42.59 50.33L42.59 48.4Z" fill="#00093C" fill-opacity="1.000000" fill-rule="evenodd"/>
</svg>
