<svg width="59.994141" height="60.000000" viewBox="0 0 59.9941 60" fill="none" xmlns="http://www.w3.org/2000/svg" xmlns:xlink="http://www.w3.org/1999/xlink">
	<desc>
			Created with Pixso.
	</desc>
	<defs/>
	<path id="Vector" d="M34.1 28.45C34.28 28.8 34.63 28.99 35 28.99C35.14 28.99 35.3 28.97 35.45 28.89C35.51 28.86 41.4 25.87 44.3 24.95C44.83 24.79 45.12 24.22 44.94 23.69C44.78 23.16 44.23 22.87 43.68 23.03C40.62 24 34.78 26.97 34.53 27.09C34.06 27.37 33.85 27.97 34.1 28.45Z" fill="#00093C" fill-opacity="1.000000" fill-rule="nonzero"/>
	<path id="Vector" d="M35 17.01C35.14 17.01 35.3 16.98 35.45 16.91C35.51 16.88 41.4 13.89 44.3 12.97C44.83 12.81 45.12 12.23 44.94 11.71C44.78 11.18 44.22 10.89 43.68 11.05C40.62 12.01 34.78 14.99 34.53 15.11C34.03 15.35 33.84 15.96 34.09 16.45C34.29 16.81 34.64 17.01 35 17.01Z" fill="#00093C" fill-opacity="1.000000" fill-rule="nonzero"/>
	<path id="Vector" d="M59.01 15C58.45 15 58.01 15.46 58.01 16L58.01 55C58.01 56.65 56.66 58 55.01 58L31 58L31 55.7C32.46 55.19 36.25 54 39.99 54C48.71 54 54.61 55.94 54.67 55.95C54.98 56.05 55.3 56 55.56 55.82C55.83 55.63 55.97 55.34 55.97 55.01L55.97 11C55.97 10.53 55.65 10.12 55.2 10.02C55.2 10.02 54.41 9.85 53.07 9.6C52.53 9.49 52 9.86 51.92 10.4C51.81 10.95 52.18 11.47 52.72 11.58C53.24 11.66 53.66 11.75 54 11.82L54 53.68C51.73 53.08 46.7 52.01 39.99 52.01C35.64 52.01 31.35 53.45 30.03 53.93C28.86 53.4 25.3 52.01 20.99 52.01C14.1 52.01 8.42 53.15 5.99 53.72L5.99 11.78C7.98 11.28 13.88 10.01 20.99 10.01C24.64 10.01 27.76 11.15 28.99 11.66L28.99 51.01C28.99 51.38 29.18 51.7 29.5 51.88C29.81 52.05 30.2 52.05 30.51 51.86C30.61 51.81 40.52 45.89 49.31 42.96C49.72 42.82 50 42.44 50 42L50 1C50 0.67 49.84 0.37 49.57 0.18C49.31 -0.01 48.96 -0.06 48.65 0.06C40.65 3.06 32.55 8.1 32.48 8.15C32.01 8.44 31.86 9.06 32.15 9.52C32.45 9.99 33.06 10.14 33.53 9.85C33.6 9.8 40.65 5.42 48 2.46L48 41.29C41.18 43.66 34.04 47.53 31 49.27L31 11C31 10.62 30.78 10.29 30.44 10.11C30.26 10.02 26.16 8 20.99 8C11.95 8 5.01 9.95 4.71 10.04C4.29 10.15 4 10.55 4 11L4 55.01C4 55.32 4.14 55.63 4.39 55.8C4.57 55.94 4.77 56.01 4.99 56.01C5.08 56.01 5.18 56 5.27 55.97C5.34 55.95 12.26 54 21 54C24.67 54 27.79 55.15 29 55.66L29 58L4.99 58C3.33 58 1.99 56.65 1.99 55L1.99 16C1.99 15.44 1.53 15 0.99 15C0.43 15 0 15.46 0 16L0 55C0 57.75 2.24 60 4.99 60L54.99 60C57.75 60 59.99 57.75 59.99 55L59.99 16C60 15.46 59.55 15 59.01 15Z" fill="#00093C" fill-opacity="1.000000" fill-rule="nonzero"/>
	<path id="Vector" d="M34.1 22.46C34.28 22.81 34.63 23 35 23C35.14 23 35.3 22.97 35.45 22.9C35.51 22.87 41.4 19.88 44.3 18.96C44.83 18.8 45.12 18.23 44.94 17.7C44.78 17.17 44.23 16.88 43.68 17.04C40.62 18.01 34.78 20.98 34.53 21.1C34.06 21.36 33.85 21.96 34.1 22.46Z" fill="#00093C" fill-opacity="1.000000" fill-rule="nonzero"/>
	<path id="Vector" d="M34.1 34.46C34.28 34.81 34.63 35 35 35C35.14 35 35.3 34.97 35.45 34.9C35.51 34.87 41.4 31.88 44.3 30.96C44.83 30.8 45.12 30.23 44.94 29.7C44.78 29.17 44.23 28.88 43.68 29.04C40.62 30.01 34.78 32.98 34.53 33.1C34.06 33.36 33.85 33.96 34.1 34.46Z" fill="#00093C" fill-opacity="1.000000" fill-rule="nonzero"/>
	<path id="Vector" d="M24.23 18.56C18.04 17.11 11.03 18.96 10.73 19.03C10.21 19.18 9.88 19.72 10.03 20.26C10.15 20.7 10.56 21.01 11 21.01C11.08 21.01 11.17 21 11.26 20.98C11.33 20.97 18.09 19.18 23.77 20.53C24.31 20.66 24.84 20.32 24.97 19.78C25.11 19.22 24.77 18.68 24.23 18.56Z" fill="#00093C" fill-opacity="1.000000" fill-rule="nonzero"/>
	<path id="Vector" d="M24.23 24.56C18.04 23.1 11.03 24.95 10.73 25.04C10.21 25.19 9.88 25.73 10.03 26.27C10.15 26.71 10.56 27.02 11 27.02C11.08 27.02 11.17 27 11.26 26.99C11.33 26.97 18.09 25.19 23.77 26.53C24.31 26.67 24.84 26.33 24.97 25.79C25.11 25.23 24.77 24.69 24.23 24.56Z" fill="#00093C" fill-opacity="1.000000" fill-rule="nonzero"/>
	<path id="Vector" d="M34.1 40.47C34.28 40.82 34.63 41.01 35 41.01C35.14 41.01 35.3 40.98 35.45 40.91C35.51 40.88 41.4 37.89 44.3 36.96C44.83 36.8 45.12 36.23 44.94 35.7C44.78 35.18 44.23 34.88 43.68 35.05C40.62 36.01 34.78 38.99 34.53 39.1C34.06 39.37 33.85 39.97 34.1 40.47Z" fill="#00093C" fill-opacity="1.000000" fill-rule="nonzero"/>
	<path id="Vector" d="M24.23 30.56C18.04 29.11 11.03 30.96 10.73 31.05C10.21 31.19 9.88 31.73 10.03 32.28C10.15 32.73 10.56 33.02 11 33.02C11.08 33.02 11.17 33.01 11.26 32.99C11.33 32.98 18.09 31.19 23.77 32.54C24.31 32.67 24.84 32.33 24.97 31.79C25.11 31.22 24.77 30.69 24.23 30.56Z" fill="#00093C" fill-opacity="1.000000" fill-rule="nonzero"/>
	<path id="Vector" d="M24.23 42.56C18.04 41.11 11.03 42.96 10.73 43.03C10.21 43.18 9.88 43.72 10.03 44.26C10.15 44.71 10.56 45.01 11 45.01C11.08 45.01 11.17 44.99 11.26 44.98C11.33 44.96 18.09 43.18 23.77 44.52C24.31 44.64 24.84 44.32 24.97 43.78C25.11 43.23 24.77 42.69 24.23 42.56Z" fill="#00093C" fill-opacity="1.000000" fill-rule="nonzero"/>
	<path id="Vector" d="M24.23 36.57C18.04 35.12 11.03 36.96 10.73 37.05C10.21 37.2 9.88 37.74 10.03 38.28C10.15 38.74 10.56 39.03 11 39.03C11.08 39.03 11.17 39.02 11.26 39C11.33 38.99 18.09 37.2 23.77 38.55C24.31 38.68 24.84 38.34 24.97 37.8C25.11 37.23 24.77 36.69 24.23 36.57Z" fill="#00093C" fill-opacity="1.000000" fill-rule="nonzero"/>
</svg>
