<svg width="23.970703" height="16.941772" viewBox="0 0 23.9707 16.9418" fill="none" xmlns="http://www.w3.org/2000/svg" xmlns:xlink="http://www.w3.org/1999/xlink">
	<desc>
			Created with Pixso.
	</desc>
	<defs>
		<linearGradient x1="0.000000" y1="8.470882" x2="23.969793" y2="8.470882" id="paint_linear_27_4820_0" gradientUnits="userSpaceOnUse">
			<stop stop-color="#F7941D"/>
			<stop offset="1.000000" stop-color="#27AAE1"/>
		</linearGradient>
	</defs>
	<path id="Union" d="M23.9697 2C23.9697 0.895386 23.0742 0 21.9697 0L2 0C0.895508 0 0 0.895386 0 2L0 14.9418C0 16.0464 0.895508 16.9418 2 16.9418L21.9697 16.9418C23.0742 16.9418 23.9697 16.0464 23.9697 14.9418L23.9697 2ZM20.2207 2L3.79395 2L11.7812 7.51428L20.2207 2ZM2 3.19214L2 14.9418L21.9697 14.9418L21.9697 3.24609L17.4893 6.17383L19.6826 8.36719C20.0732 8.75769 20.0732 9.39087 19.6826 9.78137C19.292 10.1719 18.6592 10.1719 18.2686 9.78137L15.7783 7.29163L11.751 9.92334L8.25195 7.50757L5.97754 9.78137C5.58691 10.1719 4.9541 10.1719 4.56348 9.78137C4.17285 9.39087 4.17285 8.75769 4.56348 8.36719L6.57812 6.35242L2 3.19214Z" clip-rule="evenodd" fill="url(#paint_linear_27_4820_0)" fill-opacity="1.000000" fill-rule="evenodd"/>
</svg>
