<svg width="21.558594" height="26.558960" viewBox="0 0 21.5586 26.559" fill="none" xmlns="http://www.w3.org/2000/svg" xmlns:xlink="http://www.w3.org/1999/xlink">
	<desc>
			Created with Pixso.
	</desc>
	<defs>
		<linearGradient x1="0.000000" y1="13.279457" x2="21.558908" y2="13.279457" id="paint_linear_27_4833_0" gradientUnits="userSpaceOnUse">
			<stop stop-color="#F7941D"/>
			<stop offset="1.000000" stop-color="#27AAE1"/>
		</linearGradient>
	</defs>
	<path id="Union" d="M10.7793 26.559C10.7793 26.559 21.5586 18.8246 21.5586 10.7794C21.5586 4.82617 16.7324 0 10.7793 0C4.82617 0 0 4.82617 0 10.7794C0 18.882 10.7793 26.559 10.7793 26.559ZM10.7754 24.0499C9.47656 23.0116 8.17285 21.7797 6.8623 20.3542C3.62109 16.8274 2 13.6359 2 10.7794C2 9.56726 2.21387 8.44385 2.64258 7.40918L2.64258 7.40918C3.07129 6.37451 3.71387 5.42859 4.57129 4.57141C5.42871 3.71436 6.37402 3.07141 7.40918 2.64282L7.40918 2.64282L7.40918 2.64282C8.44434 2.21423 9.56738 2 10.7793 2C11.9912 2 13.1152 2.21423 14.1494 2.64282C15.1846 3.07141 16.1299 3.71436 16.9873 4.57141C17.8447 5.42859 18.4873 6.37451 18.916 7.40918C19.3447 8.44385 19.5586 9.56726 19.5586 10.7794C19.5586 13.6129 17.9375 16.7979 14.6953 20.3345C13.3828 21.7656 12.0762 23.004 10.7754 24.0499ZM6.21875 10.4799C6.21875 7.96143 8.26074 5.91992 10.7783 5.91992C13.2969 5.91992 15.3389 7.96143 15.3389 10.4799C15.3389 12.9982 13.2969 15.0397 10.7783 15.0397C8.26074 15.0397 6.21875 12.9982 6.21875 10.4799ZM8.21875 10.4799C8.21875 9.06604 9.36523 7.91992 10.7783 7.91992C12.1924 7.91992 13.3389 9.06604 13.3389 10.4799C13.3389 11.8936 12.1924 13.0397 10.7783 13.0397C9.36523 13.0397 8.21875 11.8936 8.21875 10.4799Z" clip-rule="evenodd" fill="url(#paint_linear_27_4833_0)" fill-opacity="1.000000" fill-rule="evenodd"/>
</svg>
