<svg width="40.858887" height="40.000000" viewBox="0 0 40.8589 40" fill="none" xmlns="http://www.w3.org/2000/svg" xmlns:xlink="http://www.w3.org/1999/xlink">
	<desc>
			Created with Pixso.
	</desc>
	<defs>
		<linearGradient x1="0.000000" y1="31.443024" x2="40.858765" y2="31.443024" id="paint_linear_20_38_0" gradientUnits="userSpaceOnUse">
			<stop stop-color="#F7941D"/>
			<stop offset="1.000000" stop-color="#27AAE1"/>
		</linearGradient>
		<linearGradient x1="9.649658" y1="9.617032" x2="22.340179" y2="9.617032" id="paint_linear_20_39_0" gradientUnits="userSpaceOnUse">
			<stop stop-color="#F7941D"/>
			<stop offset="1.000000" stop-color="#27AAE1"/>
		</linearGradient>
		<linearGradient x1="23.761719" y1="9.633906" x2="36.405067" y2="9.633906" id="paint_linear_20_40_0" gradientUnits="userSpaceOnUse">
			<stop stop-color="#F7941D"/>
			<stop offset="1.000000" stop-color="#27AAE1"/>
		</linearGradient>
	</defs>
	<path id="path" d="M0.02 32.48C0 26.18 0.01 26.19 5.94 23.83C9.01 22.6 12.06 22.53 15.11 23.84C17.47 24.86 19.85 25.8 22.2 26.83C22.99 27.18 23.77 27.62 24.46 28.16C25.66 29.1 26.26 30.39 25.58 31.84C24.89 33.28 23.48 33.01 22.28 32.68C20.37 32.16 18.52 31.47 16.63 30.89C16.12 30.73 15.4 30.27 15.14 31.08C14.93 31.7 15.7 31.86 16.14 32.01C18.41 32.81 20.66 33.72 23.06 34.12C25.49 34.53 27.26 33.09 27.14 30.57C27.09 29.43 27.45 28.81 28.35 28.27C30.93 26.72 33.47 25.13 36.04 23.58C37.61 22.63 39.16 22.53 40.3 24.19C41.37 25.75 40.78 27.26 39.41 28.23C34.08 31.97 28.71 35.66 23.28 39.27C21.73 40.3 19.91 40.13 18.2 39.43C15.76 38.43 13.3 37.48 10.89 36.4C8.35 35.26 6.06 35.58 3.92 37.3C3.41 37.71 2.88 38.11 2.32 38.45C0.83 39.35 0.14 39.03 0.05 37.31C-0.05 35.71 0.02 34.09 0.02 32.48Z" fill="url(#paint_linear_20_38_0)" fill-opacity="1.000000" fill-rule="nonzero"/>
	<path id="path" d="M22.32 10.12C22.32 12.68 22.34 15.24 22.3 17.81C22.29 18.44 22.44 19.68 21.25 19.06C18.42 17.58 15.4 17.89 12.43 17.97C10.33 18.03 9.59 17.29 9.65 15.19C9.77 10.87 9.72 6.55 9.67 2.23C9.65 0.66 10.23 -0.04 11.85 0C14.41 0.06 16.98 -0.01 19.54 0.03C21.36 0.06 22.39 0.88 22.33 2.87C22.26 5.29 22.32 7.7 22.32 10.12Z" fill="url(#paint_linear_20_39_0)" fill-opacity="1.000000" fill-rule="nonzero"/>
	<path id="path" d="M23.78 10.07C23.77 7.66 23.82 5.24 23.76 2.83C23.71 0.96 24.65 0.09 26.38 0.05C29.09 -0.01 31.8 0.04 34.51 0.02C35.77 0.01 36.4 0.54 36.4 1.85C36.38 6.61 36.39 11.37 36.4 16.12C36.4 17.44 35.72 17.88 34.48 17.93C31.22 18.06 27.89 17.41 24.79 19.09C23.79 19.63 23.8 18.59 23.79 17.97C23.76 15.34 23.78 12.7 23.78 10.07Z" fill="url(#paint_linear_20_40_0)" fill-opacity="1.000000" fill-rule="nonzero"/>
</svg>
