<svg width="115.068970" height="70.253418" viewBox="0 0 115.069 70.2534" fill="none" xmlns="http://www.w3.org/2000/svg" xmlns:xlink="http://www.w3.org/1999/xlink">
	<desc>
			Created with Pixso.
	</desc>
	<defs>
		<linearGradient x1="4.083984" y1="34.724602" x2="114.083969" y2="34.724602" id="paint_linear_27_7581_0" gradientUnits="userSpaceOnUse">
			<stop stop-color="#F7941D"/>
			<stop offset="1.000000" stop-color="#27AAE1"/>
		</linearGradient>
	</defs>
	<path id="82" d="M35.55 29.53Q43.47 30.83 47.67 35.43Q51.89 40.02 51.89 46.81Q51.89 52.06 49.14 56.49Q46.39 60.92 40.76 63.58Q35.13 66.25 26.96 66.25Q20.58 66.25 14.43 64.57Q8.3 62.89 4 59.8L9.41 49.14Q12.86 51.72 17.37 53.15Q21.88 54.55 26.61 54.55Q31.86 54.55 34.86 52.54Q37.88 50.52 37.88 46.81Q37.88 39.42 26.61 39.42L20.25 39.42L20.25 30.22L32.63 16.19L7 16.19L7 5.02L49.14 5.02L49.14 14.05L35.55 29.53ZM111.06 53.86L111.06 65.22L65.57 65.22L65.57 56.19L88.79 34.25Q92.48 30.74 93.76 28.2Q95.07 25.66 95.07 23.16Q95.07 19.55 92.61 17.62Q90.17 15.69 85.43 15.69Q81.48 15.69 78.29 17.2Q75.12 18.69 72.96 21.69L62.82 15.16Q66.34 9.92 72.54 6.96Q78.73 4 86.73 4Q93.43 4 98.47 6.2Q103.51 8.38 106.3 12.37Q109.09 16.36 109.09 21.8Q109.09 26.69 107.01 31Q104.95 35.3 99.03 40.8L85.18 53.86L111.06 53.86Z" stroke="url(#paint_linear_27_7581_0)" stroke-opacity="1.000000" stroke-width="4.000000"/>
</svg>
