<svg width="17.000000" height="20.000000" viewBox="0 0 17 20" fill="none" xmlns="http://www.w3.org/2000/svg" xmlns:xlink="http://www.w3.org/1999/xlink">
	<desc>
			Created with Pixso.
	</desc>
	<defs/>
	<path id="Ellipse 189" d="M8.5 20C8.5 20 17 15 17 8.5C17 3.8 13.19 0 8.5 0C3.8 0 0 3.8 0 8.5C0 15 8.5 20 8.5 20ZM8.5 17.6C8.44 17.56 8.39 17.53 8.33 17.49C7.35 16.78 6.45 16.04 5.64 15.25C4.53 14.17 3.67 13.1 3.06 12.04C2.35 10.81 2 9.63 2 8.5C2 7.99 2.05 7.5 2.16 7.02C2.24 6.66 2.36 6.31 2.51 5.97C2.66 5.61 2.84 5.27 3.04 4.95C3.29 4.57 3.57 4.22 3.9 3.9C4.22 3.57 4.57 3.29 4.95 3.04C5.27 2.84 5.61 2.66 5.97 2.51C6.31 2.36 6.66 2.24 7.02 2.16C7.5 2.05 7.99 2 8.5 2C9 2 9.49 2.05 9.97 2.16C10.33 2.24 10.68 2.36 11.02 2.51C11.38 2.66 11.72 2.84 12.04 3.04C12.42 3.29 12.77 3.57 13.09 3.9C13.42 4.22 13.7 4.57 13.95 4.95C14.15 5.27 14.33 5.61 14.49 5.97C14.63 6.31 14.75 6.66 14.83 7.02C14.94 7.5 15 7.99 15 8.5C15 9.63 14.64 10.81 13.93 12.04C13.32 13.1 12.46 14.17 11.35 15.25C10.54 16.04 9.64 16.78 8.66 17.49C8.6 17.53 8.55 17.56 8.5 17.6Z" fill="#00093C" fill-opacity="1.000000" fill-rule="evenodd"/>
	<circle id="Ellipse 190" cx="8.500000" cy="7.500000" r="2.500000" fill="#00093C" fill-opacity="1.000000"/>
</svg>
