<svg width="78.001465" height="59.999756" viewBox="0 0 78.0015 59.9998" fill="none" xmlns="http://www.w3.org/2000/svg" xmlns:xlink="http://www.w3.org/1999/xlink">
	<desc>
			Created with Pixso.
	</desc>
	<defs/>
	<path id="Vector" d="M13.66 58.64C6.13 58.64 0 52.51 0 44.97C0 37.43 6.13 31.3 13.66 31.3C21.2 31.3 27.33 37.43 27.33 44.97C27.33 52.55 21.2 58.64 13.66 58.64Z" fill="#FFFFFF" fill-opacity="1.000000" fill-rule="nonzero"/>
	<path id="Vector" d="M13.66 58.64C6.13 58.64 0 52.51 0 44.97C0 37.43 6.13 31.3 13.66 31.3C21.2 31.3 27.33 37.43 27.33 44.97C27.33 52.55 21.2 58.64 13.66 58.64Z" fill="#FFFFFF" fill-opacity="1.000000" fill-rule="nonzero"/>
	<path id="Vector" d="M45.97 1.52L31.14 25.75C30.73 26.45 31.19 27.32 31.97 27.32L46.8 27.32L61.63 27.32C62.42 27.32 62.87 26.41 62.46 25.75L47.63 1.52C47.22 0.9 46.35 0.9 45.97 1.52Z" fill="#FFFFFF" fill-opacity="1.000000" fill-rule="nonzero"/>
	<path id="Vector" d="M27.04 5.62L21.7 0.27C21.33 -0.1 20.66 -0.1 20.29 0.27L14.41 6.16C14.04 6.53 13.37 6.53 13 6.16L7.12 0.27C6.75 -0.1 6.08 -0.1 5.71 0.27L0.37 5.62C-0.01 5.99 -0.01 6.65 0.37 7.03L6.25 12.91C6.62 13.28 6.62 13.94 6.25 14.32L0.37 20.2C-0.01 20.57 -0.01 21.23 0.37 21.61L5.71 26.95C6.08 27.32 6.75 27.32 7.12 26.95L13 21.07C13.37 20.7 14.04 20.7 14.41 21.07L20.29 26.95C20.66 27.32 21.33 27.32 21.7 26.95L27.04 21.61C27.42 21.23 27.42 20.57 27.04 20.2L21.16 14.32C20.79 13.94 20.79 13.28 21.16 12.91L27.04 7.03C27.46 6.65 27.46 6.03 27.04 5.62Z" fill="#FFFFFF" fill-opacity="1.000000" fill-rule="nonzero"/>
	<path id="English Expert" d="M58.24 37.15Q58.56 37.37 59.05 37.37Q59.52 37.37 59.84 37.15Q59.91 37.11 59.97 37.05Q60.13 36.91 60.21 36.73Q60.32 36.5 60.32 36.23Q60.32 35.98 60.22 35.78Q60.14 35.6 59.97 35.45Q59.93 35.42 59.89 35.39Q59.56 35.15 59.05 35.15Q58.57 35.15 58.24 35.37Q58.18 35.42 58.12 35.47Q57.95 35.63 57.86 35.82Q57.77 36.02 57.77 36.26Q57.77 36.5 57.86 36.69Q57.94 36.89 58.12 37.06Q58.18 37.1 58.24 37.15ZM56.65 35.83L54.56 35.83L54.56 43.99L56.65 43.99L56.65 35.83ZM72.8 38.32Q72.2 37.93 71.35 37.93Q70.82 37.93 70.35 38.1Q69.99 38.23 69.71 38.45Q69.63 38.51 69.55 38.58L69.55 35.83L67.46 35.83L67.46 43.99L69.55 43.99L69.55 41.11Q69.55 40.41 69.88 40.06Q69.98 39.94 70.11 39.87Q70.38 39.71 70.74 39.71Q71.12 39.71 71.36 39.89Q71.72 40.18 71.72 40.93L71.72 43.99L73.81 43.99L73.81 40.58Q73.81 39.28 73.16 38.62Q73.14 38.61 73.13 38.59Q72.97 38.44 72.8 38.32ZM37.95 43.99L37.95 42.31L33.92 42.31L33.92 40.9L37.34 40.9L37.34 39.28L33.92 39.28L33.92 37.98L37.8 37.98L37.8 36.3L31.77 36.3L31.77 43.99L37.95 43.99ZM44.39 38.32Q43.8 37.93 42.94 37.93Q42.37 37.93 41.89 38.13Q41.58 38.25 41.32 38.44Q41.18 38.55 41.05 38.68L41.05 38.03L39.06 38.03L39.06 43.99L41.15 43.99L41.15 41.11Q41.15 40.41 41.47 40.06Q41.58 39.94 41.71 39.87Q41.97 39.71 42.34 39.71Q42.72 39.71 42.95 39.89Q43.32 40.18 43.32 40.93L43.32 43.99L45.41 43.99L45.41 40.58Q45.41 39.28 44.75 38.62Q44.74 38.61 44.73 38.59Q44.57 38.44 44.39 38.32ZM53.22 42.9L53.22 38.03L51.22 38.03L51.22 38.76Q51.08 38.56 50.9 38.41Q50.32 37.93 49.36 37.93Q48.82 37.93 48.34 38.1Q48.11 38.17 47.89 38.29Q47.58 38.46 47.33 38.68Q47.04 38.95 46.83 39.3Q46.76 39.41 46.71 39.52Q46.43 40.09 46.43 40.8Q46.43 41.57 46.74 42.17Q46.78 42.25 46.83 42.32Q47.04 42.66 47.32 42.93Q47.58 43.16 47.89 43.33Q48.11 43.45 48.34 43.52Q48.82 43.69 49.36 43.69Q50.3 43.69 50.87 43.23Q51.01 43.12 51.13 42.98L51.13 43.18Q51.13 43.84 50.8 44.2Q50.77 44.23 50.74 44.26Q50.36 44.62 49.53 44.62Q48.99 44.62 48.44 44.45Q47.88 44.28 47.52 43.98L46.76 45.45Q47.3 45.83 48.07 46.03Q48.84 46.23 49.72 46.23Q51.41 46.23 52.31 45.4Q52.39 45.33 52.46 45.26Q53.22 44.43 53.22 42.9ZM62.69 44.03Q63.15 44.09 63.61 44.09Q64.55 44.09 65.21 43.84Q65.88 43.59 66.22 43.14Q66.39 42.92 66.47 42.67Q66.56 42.42 66.56 42.14Q66.56 41.49 66.24 41.12Q66.22 41.1 66.2 41.08Q65.98 40.84 65.7 40.69Q65.54 40.6 65.36 40.55Q64.88 40.41 64.14 40.3Q63.56 40.21 63.3 40.13Q63.13 40.07 63.08 39.96Q63.05 39.91 63.05 39.84Q63.05 39.79 63.06 39.75Q63.1 39.62 63.28 39.53Q63.51 39.42 64.01 39.42Q64.54 39.42 65.03 39.56Q65.39 39.67 65.72 39.86L66.35 38.44Q65.92 38.2 65.28 38.07Q64.96 38 64.64 37.97Q64.32 37.93 64 37.93Q63.08 37.93 62.43 38.19Q61.78 38.45 61.43 38.9Q61.28 39.09 61.2 39.32Q61.09 39.6 61.09 39.91Q61.09 40.57 61.41 40.95Q61.43 40.97 61.46 40.99Q61.66 41.21 61.9 41.35Q62.1 41.46 62.32 41.52Q62.82 41.66 63.53 41.75Q64.1 41.83 64.35 41.91Q64.54 41.97 64.59 42.09Q64.61 42.14 64.61 42.19Q64.61 42.26 64.59 42.31Q64.54 42.42 64.4 42.49Q64.18 42.6 63.68 42.6Q63.13 42.6 62.57 42.45Q62.01 42.3 61.6 42.05L60.97 43.48Q61.41 43.75 62.14 43.92Q62.41 43.99 62.69 44.03ZM60.09 38.03L58 38.03L58 43.99L60.09 43.99L60.09 38.03ZM50.55 41.86Q50.25 42.03 49.85 42.03Q49.47 42.03 49.17 41.87Q49.03 41.79 48.91 41.69Q48.77 41.55 48.68 41.38Q48.54 41.13 48.54 40.8Q48.54 40.47 48.69 40.21Q48.77 40.06 48.91 39.93Q49 39.85 49.1 39.79Q49.42 39.6 49.85 39.6Q50.29 39.6 50.6 39.79Q50.7 39.85 50.78 39.93Q50.92 40.05 51 40.2Q51.15 40.46 51.15 40.8Q51.15 41.13 51.01 41.39Q50.92 41.55 50.78 41.69Q50.67 41.79 50.55 41.86ZM37.95 56.99L37.95 55.31L33.92 55.31L33.92 53.9L37.34 53.9L37.34 52.28L33.92 52.28L33.92 50.98L37.8 50.98L37.8 49.3L31.77 49.3L31.77 56.99L37.95 56.99ZM69.05 57.01Q69.43 56.92 69.7 56.75L69.18 55.29Q69.11 55.34 69.03 55.37Q68.81 55.48 68.54 55.48Q68.33 55.48 68.18 55.38Q68.13 55.35 68.08 55.3Q68.07 55.28 68.06 55.27Q67.91 55.09 67.91 54.8L67.91 52.82L69.28 52.82L69.28 51.25L67.91 51.25L67.91 49.7L65.82 49.7L65.82 51.25L64.95 51.25L64.95 52.82L65.82 52.82L65.82 54.82Q65.82 55.84 66.33 56.4Q66.39 56.47 66.45 56.52Q67.08 57.09 68.24 57.09Q68.67 57.09 69.05 57.01ZM50.69 51.14Q50.18 50.93 49.59 50.93Q48.6 50.93 48.03 51.42Q47.92 51.52 47.83 51.63L47.83 51.03L45.84 51.03L45.84 59.13L47.93 59.13L47.93 56.47Q48.06 56.61 48.22 56.71Q48.77 57.09 49.59 57.09Q50.19 57.09 50.71 56.89Q50.89 56.82 51.06 56.72Q51.3 56.58 51.51 56.4Q51.87 56.08 52.12 55.64Q52.51 54.94 52.51 54.01Q52.51 53.09 52.12 52.39Q51.87 51.94 51.5 51.62Q51.3 51.45 51.06 51.31Q50.88 51.21 50.69 51.14ZM59.54 54.54Q59.57 54.05 59.57 54.02Q59.57 53.07 59.15 52.37L59.15 52.37Q58.94 52.02 58.65 51.75Q58.36 51.49 58 51.3Q57.93 51.27 57.85 51.23Q57.19 50.93 56.38 50.93Q55.54 50.93 54.85 51.26Q54.77 51.29 54.7 51.33Q54.24 51.57 53.9 51.93Q53.69 52.16 53.53 52.42Q53.43 52.59 53.35 52.77Q53.11 53.33 53.11 54Q53.11 54.68 53.35 55.24Q53.43 55.43 53.54 55.6Q53.66 55.79 53.8 55.96Q54.19 56.41 54.77 56.7Q55.56 57.09 56.6 57.09Q58.02 57.09 58.86 56.4Q59.01 56.27 59.14 56.12L58.05 54.98Q57.73 55.26 57.41 55.38Q57.1 55.5 56.67 55.5Q56.1 55.5 55.72 55.25Q55.57 55.16 55.47 55.03Q55.29 54.83 55.21 54.54L59.54 54.54ZM62.72 51.54Q62.62 51.64 62.53 51.75L62.53 51.03L60.54 51.03L60.54 56.99L62.63 56.99L62.63 54.26Q62.63 53.52 63 53.16Q63.01 53.15 63.01 53.15Q63.05 53.11 63.09 53.07Q63.46 52.78 64.06 52.78Q64.25 52.78 64.54 52.82L64.54 50.93Q63.88 50.93 63.36 51.14Q62.99 51.29 62.72 51.54ZM41.74 55.43L42.81 56.99L45.2 56.99L42.92 53.94L45.12 51.03L42.91 51.03L41.81 52.54L40.75 51.03L38.4 51.03L40.6 54.01L38.33 56.99L40.6 56.99L41.74 55.43ZM55.76 52.58Q56.03 52.42 56.39 52.42Q56.77 52.42 57.05 52.58Q57.13 52.63 57.2 52.7Q57.28 52.76 57.34 52.83Q57.55 53.08 57.62 53.44L55.18 53.44Q55.24 53.08 55.44 52.84Q55.51 52.76 55.59 52.7Q55.67 52.63 55.76 52.58ZM49.73 55.3Q49.48 55.43 49.15 55.43Q48.82 55.43 48.56 55.3Q48.39 55.21 48.24 55.05Q48.22 55.02 48.19 54.99Q47.89 54.62 47.89 54.01Q47.89 53.41 48.19 53.04Q48.22 53.01 48.24 52.97Q48.39 52.82 48.56 52.73Q48.82 52.6 49.15 52.6Q49.48 52.6 49.73 52.73Q49.91 52.82 50.05 52.97Q50.08 53.01 50.11 53.04Q50.4 53.41 50.4 54.01Q50.4 54.62 50.11 54.99Q50.08 55.02 50.05 55.05Q49.91 55.21 49.73 55.3Z" fill="#FFFFFF" fill-opacity="1.000000" fill-rule="evenodd"/>
</svg>
