<svg width="39.936523" height="40.000000" viewBox="0 0 39.9365 40" fill="none" xmlns="http://www.w3.org/2000/svg" xmlns:xlink="http://www.w3.org/1999/xlink">
	<desc>
			Created with Pixso.
	</desc>
	<defs>
		<linearGradient x1="0.000000" y1="19.999996" x2="39.936596" y2="19.999996" id="paint_linear_20_5622_0" gradientUnits="userSpaceOnUse">
			<stop stop-color="#F7941D"/>
			<stop offset="1.000000" stop-color="#27AAE1"/>
		</linearGradient>
	</defs>
	<path id="path" d="M35.81 0L19.96 0C19.42 0 19.01 0.41 19.01 0.95L19.01 5.51C19.01 6.21 19.39 6.84 19.96 7.16C20.57 7.51 21.26 7.51 21.83 7.16C22.4 6.81 23.07 6.65 23.74 6.65C24.78 6.65 25.76 7.06 26.49 7.82C27.22 8.58 27.6 9.57 27.54 10.64C27.44 12.61 25.83 14.19 23.89 14.26C23.16 14.29 22.47 14.1 21.83 13.75C21.26 13.4 20.53 13.4 19.96 13.75C19.36 14.1 19.01 14.73 19.01 15.4L19.01 19.01L15.37 19.04C15.91 18.12 16.19 17.05 16.13 15.94C16 13.02 13.62 10.61 10.71 10.45C9.12 10.39 7.63 10.93 6.49 12.01C5.38 13.12 4.75 14.58 4.75 16.16C4.75 17.17 5 18.16 5.51 19.01L0.95 19.01C0.41 19.01 0 19.42 0 19.96L0 35.81C0 38.09 1.83 39.93 4.12 39.93L19.96 39.93C20.5 39.93 20.91 39.52 20.91 38.98L20.91 34.42C20.91 33.72 20.53 33.09 19.96 32.77C19.36 32.42 18.66 32.42 18.09 32.77C17.52 33.12 16.86 33.28 16.19 33.28C15.15 33.28 14.16 32.86 13.43 32.1C12.71 31.34 12.32 30.36 12.39 29.28C12.48 27.32 14.1 25.73 16.03 25.67C16.76 25.64 17.46 25.83 18.09 26.18C18.66 26.52 19.39 26.52 19.96 26.18C20.57 25.83 20.91 25.19 20.91 24.53L20.91 20.91L24.56 20.91C24.02 21.87 23.74 22.91 23.8 24.02C23.93 26.94 26.3 29.35 29.22 29.5C30.8 29.57 32.29 29.03 33.43 27.95C34.58 26.87 35.21 25.38 35.21 23.83C35.21 22.82 34.96 21.83 34.45 20.98L38.03 20.98L38.03 35.87C38.03 37.11 37.05 38.09 35.81 38.09L26.3 38.09C25.76 38.09 25.35 38.51 25.35 39.04C25.35 39.58 25.76 40 26.3 40L35.81 40C38.09 40 39.93 38.16 39.93 35.87L39.93 4.12C39.93 1.83 38.09 0 35.81 0ZM15.94 23.77C13.02 23.89 10.61 26.27 10.45 29.19C10.39 30.77 10.93 32.26 12.01 33.4C13.09 34.54 14.58 35.18 16.13 35.18C17.14 35.18 18.12 34.92 18.98 34.42L18.98 38.03L4.12 38.03C2.88 38.03 1.9 37.05 1.9 35.81L1.9 20.91L5.51 20.91C6.21 20.91 6.84 20.53 7.16 19.96C7.48 19.39 7.51 18.66 7.16 18.09C6.81 17.52 6.65 16.86 6.65 16.19C6.65 15.15 7.06 14.16 7.82 13.43C8.58 12.71 9.6 12.32 10.64 12.39C12.61 12.48 14.19 14.1 14.26 16.03C14.29 16.76 14.1 17.46 13.75 18.09C13.4 18.66 13.4 19.39 13.75 19.96C14.1 20.53 14.73 20.91 15.4 20.91L19.01 20.91L19.01 24.56C18.09 23.99 17.02 23.74 15.94 23.77ZM38.03 19.01L34.42 19.01C33.72 19.01 33.09 19.39 32.77 19.96C32.42 20.57 32.42 21.26 32.77 21.83C33.12 22.4 33.28 23.07 33.28 23.74C33.28 24.78 32.86 25.76 32.1 26.49C31.34 27.22 30.33 27.6 29.28 27.54C27.32 27.44 25.73 25.83 25.67 23.89C25.64 23.16 25.83 22.47 26.18 21.83C26.52 21.26 26.52 20.53 26.18 19.96C25.83 19.36 25.19 19.01 24.53 19.01L20.91 19.01L20.91 15.37C21.83 15.91 22.91 16.19 24.02 16.13C26.94 16 29.35 13.62 29.5 10.71C29.57 9.12 29.03 7.63 27.95 6.49C26.81 5.38 25.35 4.75 23.77 4.75C22.75 4.75 21.77 5 20.91 5.51L20.91 1.9L35.81 1.9C37.05 1.9 38.03 2.88 38.03 4.12L38.03 19.01Z" fill="url(#paint_linear_20_5622_0)" fill-opacity="1.000000" fill-rule="nonzero"/>
</svg>
