<svg width="41.554443" height="40.000000" viewBox="0 0 41.5544 40" fill="none" xmlns="http://www.w3.org/2000/svg" xmlns:xlink="http://www.w3.org/1999/xlink">
	<desc>
			Created with Pixso.
	</desc>
	<defs>
		<linearGradient x1="15.523682" y1="9.558352" x2="31.353752" y2="9.558352" id="paint_linear_20_5618_0" gradientUnits="userSpaceOnUse">
			<stop stop-color="#F7941D"/>
			<stop offset="1.000000" stop-color="#27AAE1"/>
		</linearGradient>
		<linearGradient x1="0.000244" y1="23.422493" x2="16.937359" y2="23.422493" id="paint_linear_20_5619_0" gradientUnits="userSpaceOnUse">
			<stop stop-color="#F7941D"/>
			<stop offset="1.000000" stop-color="#27AAE1"/>
		</linearGradient>
		<linearGradient x1="25.178467" y1="30.370201" x2="41.554512" y2="30.370201" id="paint_linear_20_5620_0" gradientUnits="userSpaceOnUse">
			<stop stop-color="#F7941D"/>
			<stop offset="1.000000" stop-color="#27AAE1"/>
		</linearGradient>
	</defs>
	<path id="path" d="M28.03 8.99C30.86 10.29 31.92 12.49 31.06 15.33C30.16 18.3 27.64 18.98 24.89 19.05C22.78 19.09 20.66 19.02 18.55 19.11C16.3 19.2 15.48 18.14 15.52 15.97C15.6 11.66 15.6 7.33 15.52 3.01C15.48 0.75 16.51 -0.09 18.68 0C20.69 0.08 22.71 0.01 24.72 0.04C27.08 0.07 29.09 0.74 30.1 3.11C31.16 5.57 30.02 7.35 28.03 8.99ZM21.83 16.26C24.49 16.07 27.31 16.55 27.34 13.41C27.38 10.19 24.47 10.82 22.4 10.56C20.36 10.31 19.27 10.77 19.36 13.26C19.45 15.49 19.76 16.82 21.83 16.26ZM21.68 7.9C22.76 7.83 23.34 7.81 23.91 7.75C25.39 7.6 26.54 7.07 26.6 5.34C26.65 3.51 25.34 3.16 23.93 2.98C23.36 2.91 22.77 2.96 22.2 2.9C20.51 2.75 19.32 2.81 19.37 5.19C19.42 7.35 20.01 8.25 21.68 7.9Z" fill="url(#paint_linear_20_5618_0)" fill-opacity="1.000000" fill-rule="nonzero"/>
	<path id="path" d="M16.91 30.7C17.03 31.81 16.62 32.53 15.68 32.83C14.67 33.16 14.12 32.51 13.6 31.74C12.86 30.66 13.12 28.71 11.64 28.45C9.68 28.09 7.62 28.29 5.6 28.32C3.97 28.35 4.23 29.92 3.72 30.84C3.12 31.92 2.76 33.45 1.09 32.73C-0.44 32.07 -0.07 30.78 0.43 29.52C2.18 25.16 3.9 20.78 5.61 16.41C6.13 15.09 6.77 13.93 8.4 13.92C10.04 13.9 10.73 15.07 11.26 16.35C13 20.62 14.72 24.89 16.43 29.16C16.64 29.7 16.77 30.26 16.91 30.7ZM5.73 25.27C11.32 25.72 11.34 25.71 9.55 21.05C9.23 20.21 9.22 19.15 8.14 18.56C7.36 20.74 6.6 22.88 5.73 25.27Z" fill="url(#paint_linear_20_5619_0)" fill-opacity="1.000000" fill-rule="nonzero"/>
	<path id="path" d="M25.18 30.09C25.38 22.97 31.6 18.78 37.69 21.65C38.75 22.15 39.74 22.78 40.39 23.77C41.17 24.96 42.35 26.38 40.76 27.56C39.16 28.75 38.46 27.07 37.72 25.98C36.65 24.42 35.24 23.53 33.31 23.83C31.32 24.14 30.03 25.34 29.4 27.25C28.69 29.43 28.68 31.61 29.42 33.78C30.08 35.71 31.49 36.78 33.5 36.92C35.39 37.04 36.86 36.23 37.82 34.57C38.01 34.25 38.15 33.88 38.3 33.53C38.75 32.5 39.49 31.94 40.58 32.42C41.69 32.91 41.67 33.93 41.35 34.9C40.58 37.27 38.94 38.78 36.57 39.52C30.25 41.49 24.98 37.12 25.18 30.09Z" fill="url(#paint_linear_20_5620_0)" fill-opacity="1.000000" fill-rule="nonzero"/>
</svg>
