<svg width="639.000610" height="231.298218" viewBox="0 0 639.001 231.298" fill="none" xmlns="http://www.w3.org/2000/svg" xmlns:xlink="http://www.w3.org/1999/xlink">
	<desc>
			Created with Pixso.
	</desc>
	<defs>
		<linearGradient x1="157.402313" y1="97.572350" x2="156.861191" y2="105.355064" id="paint_linear_27_4936_0" gradientUnits="userSpaceOnUse">
			<stop stop-color="#FFFFFF"/>
			<stop offset="0.372600" stop-color="#FDFDFD"/>
			<stop offset="0.506900" stop-color="#F6F6F6"/>
			<stop offset="0.602600" stop-color="#EBEBEB"/>
			<stop offset="0.680000" stop-color="#DADADA"/>
			<stop offset="0.746300" stop-color="#C4C4C4"/>
			<stop offset="0.805000" stop-color="#A8A8A8"/>
			<stop offset="0.858100" stop-color="#888888"/>
			<stop offset="0.906900" stop-color="#626262"/>
			<stop offset="0.952300" stop-color="#373737"/>
			<stop offset="0.992600" stop-color="#090909"/>
			<stop offset="1.000000" stop-color="#000000"/>
		</linearGradient>
		<linearGradient x1="220.215820" y1="110.999817" x2="638.000610" y2="110.999817" id="paint_linear_27_4910_0" gradientUnits="userSpaceOnUse">
			<stop stop-color="#F7941D"/>
			<stop offset="1.000000" stop-color="#27AAE1"/>
		</linearGradient>
	</defs>
	<path id="baseLayer" d="M149.38 150.46C163.24 149.82 176.03 149.28 186.21 144.29C198.87 138.06 209.21 120.86 201.07 103.61C191.5 83.32 172.9 72.24 150.31 64.33C150.58 54.51 147.89 46.54 144.12 38.8C137.12 24.52 129.72 10.12 111.62 5.13C105.03 3.31 97.47 3.22 100.17 11.3C106.57 26.93 130.78 32.43 132.97 51.14C133.62 56.56 132.76 61.66 131.12 65.73C127.74 70.75 125.7 63.99 123.69 60.96C121.83 58.16 120.16 56.22 119.05 54.51C115.95 49.8 113.72 44.58 110.69 40.76C106.6 35.65 99.02 31.11 93.36 27.57C86.76 23.48 79.99 19.52 71.07 19.72C69.9 21.09 68.81 22.52 68.91 25.05C71.44 36.83 86.7 37.37 95.21 43.85C102.33 49.26 106.42 56.19 111 66.29C112.02 68.17 108.43 72.86 106.98 74.43C104.56 77.07 100.44 78.5 97.38 80.88C94.9 82.82 92.37 85.37 89.64 87.62C86.98 89.8 84.01 92.3 82.21 94.63C77.88 100.27 73.27 109.47 75.41 121.28C75.99 124.57 80.02 130.71 82.21 133.07C87.85 139.16 100.72 144.29 110.69 147.1C122.76 150.49 135.82 151.11 149.38 150.46ZM11.4 189.49C14.06 189.49 21.3 189.21 25.17 190.13C25.73 182.5 27.62 175.12 31.18 168.17C34.58 161.52 39.32 155.32 46.03 148.7C46.03 148.44 46.03 148.19 46.03 147.91C47.21 146 48.88 144.51 50.68 143.14C50.92 143.2 51.14 143.25 51.39 143.28C55.35 139.77 59.68 136.15 64.91 133.4C64.91 133.21 64.88 133.01 64.88 132.79C68.01 131.33 70.52 129.31 74.17 128.3C76.02 131.75 78.04 135.31 80.98 137.56C86.92 142.13 95.86 146.17 105.12 149.34C121.09 154.81 138.58 155.32 157.42 153.55C162.81 163.68 161.45 179.28 159.59 191.71C157.67 204.56 155.13 217.04 147.83 223.97C145.57 220.74 143.47 216.37 140.71 211.35C138.98 208.15 135.23 199 130.19 200.96C129.14 205.31 132.11 213.37 128.95 217.52C126.1 211.4 122.2 206.24 114.09 204.89C114.37 199.93 112.76 197.46 111.62 193.39C108.12 180.76 103.66 172.21 95.21 165.05C93.26 163.4 88.37 160.23 85.93 163.93C86.92 165.78 89.27 165.56 90.88 166.45C93.02 167.66 95.83 170.72 98 173.19C104.99 181.21 109.42 195.83 109.14 207.14C112.08 209.61 117.19 208.26 119.67 211.06C120.78 212.33 122.3 215.97 121.83 218.64C121.46 220.74 117.59 223.8 115.02 224.81C110.66 226.55 103.51 226.24 96.14 225.93C89.12 225.63 81.75 225.65 76.02 225.09C66.99 224.22 58.23 221.64 50.95 219.48C47.92 218.58 44.86 218.53 42.29 217.8C34.89 215.69 31.8 211.71 28.36 206.01C27.93 205.31 27.56 204.56 27.22 203.77C25.05 204.11 22.14 203.6 23.13 205.48C19.94 207.45 16.23 208.96 11.68 209.69C8.06 206.72 5.55 201.61 5.86 195.47C5.74 195.38 5.58 195.27 5.49 195.16L5.15 194.88L5.15 194.51C5.18 191.37 7.5 189.49 11.4 189.49Z" fill="#D3D3D3" fill-opacity="1.000000" fill-rule="evenodd"/>
	<path id="しっぽ_2_" d="M14.93 209.66C18.3 209.66 21.52 207.7 23.25 204.5L23.69 203.69L23.41 202.68C22.11 197.96 17.47 194.79 13.97 194.79C10.07 194.79 7.75 198.38 7.72 204.44L7.72 205.15L8.03 205.62C9.64 208.23 12.08 209.66 14.93 209.66Z" fill="#FFFFFF" fill-opacity="1.000000" fill-rule="evenodd"/>
	<path id="足" d="M114.13 209.75C114.13 209.75 98.62 218.61 63.8 209.66C63.8 209.66 36.87 194.82 31.15 211.35C28.95 217.66 39.5 219.96 39.5 219.96C39.5 219.96 94.07 230.59 110.69 227.9C127.31 225.21 127.16 208.46 114.13 209.75Z" fill="#FFFFFF" fill-opacity="1.000000" fill-rule="evenodd"/>
	<path id="おなか" d="M149.28 223.94C149.28 223.94 154.92 196 138.79 185.62C122.67 175.24 107.53 181.13 107.53 181.13L115.46 206.6L128.39 221.59L135.67 213.25L149.28 223.94Z" fill="#FFFFFF" fill-opacity="1.000000" fill-rule="evenodd"/>
	<path id="Vector" d="M110.94 64.02C106.29 53.81 102.18 46.79 94.9 41.24C91.87 38.94 88 37.34 84.26 35.82C77.17 32.93 70.48 30.21 68.94 22.92L67.11 23.06C66.8 31.81 74.17 38.99 78.56 42.53C82.52 45.67 86.98 48.45 91.28 51.14C95.03 53.5 98.59 55.72 101.5 57.96C102.52 58.77 103.51 59.81 104.47 60.82C106.08 62.53 107.75 64.3 109.79 65.11L111.9 65.93L110.94 64.02Z" fill="#FFFFFF" fill-opacity="1.000000" fill-rule="evenodd"/>
	<path id="Vector" d="M132.14 65.84C133.96 61.3 134.8 55.04 134.21 49.94C132.94 39.13 124.62 32.62 116.54 26.31C110.13 21.32 103.51 16.69 100.75 10.01C101.19 14.81 102.3 19.07 104.56 22.95C104.87 23.51 105.21 24.07 105.52 24.6C106.36 26.06 107.13 27.6 107.87 29.06C109.3 31.87 110.78 34.79 112.67 37.31C113.54 38.49 114.59 39.47 115.61 40.42C116.57 41.35 117.5 42.22 118.24 43.2C119.32 44.61 120.22 46.09 121.18 47.69C121.62 48.39 122.05 49.15 122.54 49.88C125.7 54.85 128.49 59.42 130.53 64.89L131.12 67.16L132.14 65.84Z" fill="#FFFFFF" fill-opacity="1.000000" fill-rule="evenodd"/>
	<path id="あご" d="M77.36 105.82C77.36 105.82 58.69 144.29 127.4 152.43C127.4 152.43 140.34 155.57 150.28 149.9L150.8 149.87C128.33 145.75 92.74 136.43 77.36 105.82Z" fill="#FFFFFF" fill-opacity="1.000000" fill-rule="evenodd"/>
	<path id="口内色" d="M129.57 101.64C129.45 110.06 137.65 118.81 147.52 119.88C151.23 120.27 157.36 120.58 159.59 119.88C162.9 118.81 167.48 113.04 167.33 108.66C161.6 108.69 157.52 110.9 152.47 110.06C144.74 108.77 136.53 104 129.88 101.64C129.82 101.34 129.57 101.48 129.57 101.64Z" fill="#FFFFFF" fill-opacity="0.400000" fill-rule="evenodd"/>
	<path id="ノーマル" d="M153.28 125.3C161.29 125.3 167.08 122.43 170.98 116.51C171.91 115.11 174.73 107.31 173.3 103.86C172.96 103.02 172.37 102.46 171.57 102.21C171.14 102.07 170.76 102.01 170.39 102.01C169.19 102.01 168.54 102.71 168.04 103.24C167.7 103.61 167.39 103.94 166.93 104.14C164.42 104.23 162.35 104.62 160.52 104.95C158.72 105.29 157.21 105.57 155.54 105.57C155.26 105.57 154.98 105.57 154.7 105.54C147.49 105.12 135.14 98.98 129.6 95.81C128.92 95.42 128.21 95.22 127.46 95.22C126.72 95.22 125.98 95.42 125.27 95.81L125.05 95.92L124.99 96.14C123.19 102.23 124.18 108.21 127.81 113.43C131.77 119.15 138.67 123.33 146.19 124.62C148.7 125.07 151.08 125.3 153.28 125.3ZM166.71 109.22C166.46 113.15 162.41 118.39 159.41 119.35C158.85 119.52 157.64 119.74 155.04 119.74C152.84 119.74 150.09 119.57 147.61 119.32C138.48 118.34 130.53 110.51 130.22 102.35C132.35 103.13 134.64 104.14 137.03 105.21C142.04 107.45 147.24 109.75 152.38 110.59C153.18 110.73 153.99 110.79 154.86 110.79C156.87 110.79 158.75 110.43 160.74 110.03C162.59 109.7 164.54 109.3 166.71 109.22Z" fill="#000000" fill-opacity="1.000000" fill-rule="evenodd"/>
	<path id="Vector" d="M131.33 92.1C131.46 92.1 131.55 92.1 131.67 92.1C133.72 92.02 135.64 90.67 136.56 88.68C137.15 87.45 137.31 86.02 137.03 84.67C136.94 84.25 136.01 80.55 131.24 80.26L131.21 80.26L131.18 80.26C130.28 80.32 127.22 80.74 125.92 82.96C125.48 83.72 125.3 84.61 125.33 85.57C125.51 89.61 127.84 92.1 131.33 92.1Z" fill="#FFFFFF" fill-opacity="0.600000" fill-rule="evenodd"/>
	<path id="Vector" d="M172.9 95.56C174.05 95.72 177.91 95.89 179.15 91.63C179.62 90 179.71 88.57 179.46 87.31C179 85.01 177.45 84.05 176 83.41L175.93 83.38L175.87 83.38C172.53 82.93 170.49 84.25 169.81 87.31C169.37 89.21 169.37 90.98 169.81 92.41C170.39 94.49 171.85 95.42 172.9 95.56Z" fill="#FFFFFF" fill-opacity="0.600000" fill-rule="evenodd"/>
	<path id="Vector" d="M131.74 89.86C133.84 93.26 139.16 94.1 141.33 91.54C148.88 82.57 134.43 73.62 131.12 83.97C131.06 84.11 130.99 84.28 130.96 84.42C130.37 86.49 131.33 89.07 131.74 89.86Z" fill="#000000" fill-opacity="1.000000" fill-rule="evenodd"/>
	<path id="Vector" d="M174.45 93.51C174.82 92.08 175.47 90.87 175.38 89.02C174.88 85.15 171.04 80.32 165.78 82.57C158.07 85.85 164.54 102.49 174.45 93.51Z" fill="#000000" fill-opacity="1.000000" fill-rule="evenodd"/>
	<mask id="mask_27_4910" fill="white">
		<path id="Union" d="M268.895 15.9998L618.001 15.9998C629.046 15.9998 638.001 24.9541 638.001 35.9998L638.001 186C638.001 197.045 629.046 206 618.001 206L268.895 206C257.85 206 248.895 197.045 248.895 186L248.895 154.546L220.658 119.249C219.61 117.94 220.543 116 222.22 116L248.895 116L248.895 35.9998C248.895 24.9541 257.85 15.9998 268.895 15.9998Z" clip-rule="evenodd" fill="" fill-opacity="1.000000" fill-rule="evenodd"/>
	</mask>
	<path id="Union" d="M268.895 15.9998L618.001 15.9998C629.046 15.9998 638.001 24.9541 638.001 35.9998L638.001 186C638.001 197.045 629.046 206 618.001 206L268.895 206C257.85 206 248.895 197.045 248.895 186L248.895 154.546L220.658 119.249C219.61 117.94 220.543 116 222.22 116L248.895 116L248.895 35.9998C248.895 24.9541 257.85 15.9998 268.895 15.9998Z" clip-rule="evenodd" fill="#FFFFFF" fill-opacity="1.000000" fill-rule="evenodd" mask="url(#mask_27_4910)"/>
	<path id="Union" d="M268.895 14.9998L618.001 14.9998C623.8 14.9998 628.749 17.05 632.85 21.1505C636.95 25.2511 639 30.2009 639.001 35.9998L639.001 186C639.001 191.799 636.95 196.748 632.85 200.849C628.749 204.949 623.8 207 618.001 207L268.895 207C263.096 207 258.147 204.949 254.046 200.849C249.946 196.749 247.895 191.799 247.895 186L247.895 154.546L248.895 154.546L248.115 155.171L219.877 119.874C219.091 118.892 218.971 117.834 219.516 116.7C220.061 115.567 220.962 115 222.22 115L248.895 115L248.895 116L247.895 116L247.895 35.9998C247.895 30.2008 249.946 25.251 254.046 21.1505C258.147 17.05 263.096 14.9998 268.895 14.9998L268.895 14.9998ZM268.895 16.9998C263.649 16.9998 259.17 18.8547 255.46 22.5647C251.75 26.2747 249.895 30.7531 249.895 35.9998L249.895 117L222.22 117C221.8 117 221.5 117.189 221.318 117.567C221.137 117.944 221.177 118.297 221.439 118.625L249.895 154.195L249.895 186C249.895 191.246 251.75 195.725 255.46 199.435C259.17 203.145 263.649 205 268.895 205L618.001 205C623.247 205 627.726 203.145 631.436 199.435C635.146 195.725 637 191.246 637.001 186L637.001 35.9998C637.001 30.7532 635.146 26.2748 631.436 22.5647C627.726 18.8547 623.247 16.9998 618.001 16.9998L268.895 16.9998L268.895 16.9998Z" fill="url(#paint_linear_27_4910_0)" fill-opacity="1.000000" fill-rule="nonzero"/>
	<path id="輪郭" d="M147.4 231.29C151.54 231.29 154.61 225.15 156.47 221.5C156.68 221.08 156.87 220.72 157.02 220.41C159.47 215.72 161.73 211.15 162.66 206.44C167.14 183.77 167.36 166.23 163.31 154.31C179 153.1 190.76 149 198.31 142.07C205.99 135.03 209.92 125.1 209.11 114.77C207.91 99.48 197.75 88.46 189.03 80.57C178.66 71.17 165.1 65 154.33 60.71C154.14 50.55 149.78 40.62 146.53 33.97C142.63 26.06 138.24 17.98 132.76 12.42C127.74 7.35 118.09 1.09 107.41 0.08C106.88 0.02 106.33 0 105.74 0C102.15 0 97.57 1.01 95.99 3.25C93.08 7.4 95.83 15.34 97.13 18.6C98.09 20.93 99.27 22.95 100.41 24.85C101 25.86 101.59 26.85 102.12 27.83C101.22 27.27 100.32 26.68 99.36 26.06C96.7 24.32 93.7 22.38 90.42 20.64C83.24 16.89 77.57 15.03 73.12 15.03C70.89 15.03 68.97 15.51 67.45 16.46C64.14 18.54 63.15 23.84 63.64 27.91C64.88 38.1 74.26 44.86 81.78 50.3L82.25 50.64C84.6 52.35 87.01 53.95 89.33 55.52C95.15 59.42 100.66 63.09 104.69 67.84C103.48 70.98 100.44 73.05 97.54 75.05C97.07 75.35 96.64 75.66 96.17 75.97C93.14 78.13 90.57 80.46 87.88 82.93C87.41 83.35 86.95 83.77 86.49 84.19C86.11 84.53 85.71 84.89 85.34 85.23C79.21 90.76 73.95 95.5 71.1 104.76C69.68 109.33 69.06 119.26 71.1 124.73C59.22 129.31 48.82 137.05 38.45 149.09C37.61 150.04 36.75 151.02 35.94 151.95C32.38 155.96 28.7 160.09 25.98 165.22C22.63 171.48 21.15 178.63 19.88 186.01C16.82 184.94 13.84 184.38 11.15 184.38C4.99 184.38 1 187.41 0.2 192.69C-0.42 196.78 0.41 201.95 2.42 206.46C4.53 211.15 7.34 214.15 10.22 214.68C10.84 214.8 11.46 214.85 12.11 214.85C15.27 214.85 18.05 213.48 20.75 212.16C22.14 211.49 23.44 210.84 24.71 210.42C29.23 219.73 40.71 222.18 52.87 224.78C54.2 225.07 55.54 225.35 56.9 225.65C58.57 226.02 60.21 226.44 61.97 226.89C66.46 228.01 71.1 229.19 76.21 229.61C80.23 229.95 84.91 229.97 89.43 230C92.68 230.03 96.02 230.03 99.14 230.17C101.03 230.26 102.7 230.28 104.28 230.28C112.45 230.28 121.31 229.36 125.82 222.88C125.92 223.05 126.01 223.24 126.1 223.41C126.75 224.67 127.53 226.27 129.79 226.27C129.94 226.27 130.1 226.27 130.25 226.24C133.84 225.93 135.23 218.36 135.76 213.84C136.72 215.64 137.71 217.35 138.73 219.12C139.81 220.97 140.93 222.88 142.01 224.92C142.2 225.29 142.41 225.74 142.63 226.24C143.65 228.46 144.83 230.99 146.69 231.29C146.96 231.29 147.18 231.29 147.4 231.29ZM89.05 161.38C87.41 161.38 86.05 162.11 85.12 163.51L84.88 163.9L85.09 164.32C85.9 165.87 87.48 166.29 88.75 166.62C89.36 166.79 89.95 166.96 90.42 167.21C92.49 168.39 95.34 171.51 97.29 173.75C103.82 181.24 108.52 195.61 108.24 207.17L108.24 207.56L108.55 207.81C110.13 209.16 112.21 209.49 114.16 209.8C116.07 210.11 117.9 210.42 118.95 211.63C119.88 212.69 121.34 216.12 120.93 218.56C120.66 220.24 117.16 223.1 114.68 224.08C112.45 224.95 109.2 225.37 104.47 225.37C101.81 225.37 98.84 225.23 96.24 225.12C93.79 225.01 91.28 224.95 88.84 224.87C84.23 224.76 79.86 224.62 76.18 224.28C67.11 223.41 58.35 220.8 51.29 218.7C49.62 218.19 47.98 217.97 46.37 217.71C45.01 217.52 43.74 217.32 42.63 217.01C35.32 214.91 32.35 210.81 29.23 205.62C27.37 202.56 26.19 198.38 25.95 194.2C25.61 172.07 36.87 158.15 46.75 148.5L46.81 148.41L46.87 148.33C48.05 146.39 49.78 144.96 51.29 143.78L51.33 143.76L51.36 143.73C55.47 140.08 59.96 136.27 65.38 133.49C66.52 132.96 67.61 132.34 68.63 131.75C70.3 130.8 71.85 129.9 73.73 129.28C75.59 132.73 77.57 135.96 80.42 138.14C87.32 143.45 97.5 147.57 104.84 150.07C114.99 153.55 126.32 155.23 139.44 155.23C144.86 155.23 150.58 154.95 156.9 154.39C161.97 164.55 160.37 180.43 158.69 191.54C156.93 203.38 154.64 215.5 147.99 222.51C146.59 220.35 145.2 217.77 143.65 214.8C143 213.53 142.29 212.24 141.58 210.9C141.36 210.5 141.11 210 140.84 209.44C138.89 205.59 135.95 199.79 131.64 199.79C131.06 199.79 130.47 199.9 129.88 200.12L129.45 200.29L129.35 200.71C128.92 202.54 129.11 204.84 129.32 207.28C129.57 210.2 129.85 213.2 129.04 215.44C126.51 210.5 122.7 205.65 115.12 204.13C115.18 200.77 114.4 198.52 113.57 196.14C113.23 195.18 112.89 194.2 112.58 193.11C108.8 179.53 103.97 171.2 95.89 164.35C95 163.71 91.99 161.38 89.05 161.38ZM21.92 205.15C18.89 206.91 15.61 208.09 11.93 208.74C8.71 205.87 5.8 200.4 6.97 193.22L6.97 193.16L6.97 193.11C7 190.33 9.39 189.77 11.37 189.77C14.43 189.77 18.08 191.23 19.08 192.8C19.48 196.84 20.13 201.41 21.92 205.15ZM105.24 4.96C106.94 4.96 109.05 5.3 111.37 5.91C129.48 10.91 136.81 25.89 143.28 39.11C146.47 45.62 149.69 53.72 149.38 64.27L149.35 64.86L149.97 65.09C176.43 74.37 191.93 86.35 200.2 103.92C207.91 120.22 198.68 137.19 185.74 143.53C175.93 148.33 163.4 148.95 150.15 149.56L149.32 149.59C146.16 149.73 143.13 149.82 140.28 149.82C129.04 149.82 119.45 148.67 110.94 146.25C100.94 143.45 88.31 138.34 82.9 132.48C80.67 130.07 76.83 124.12 76.3 121.09C74.2 109.47 78.75 100.52 82.96 95.05C84.63 92.86 87.35 90.56 90.26 88.18C91.53 87.14 92.77 86.02 93.94 84.95C95.34 83.69 96.67 82.48 97.97 81.47C99.21 80.52 100.63 79.68 102.05 78.89C104.07 77.74 106.17 76.56 107.69 74.91C107.75 74.85 113.38 68.68 111.83 65.84L111.68 65.56L111.37 65.45C109.7 64.81 108.24 63.26 106.73 61.61C105.74 60.54 104.72 59.45 103.57 58.55C100.6 56.22 97.01 53.98 93.2 51.62C88.96 48.95 84.54 46.2 80.67 43.12C76.49 39.81 69.56 33.05 69.83 24.99L69.83 24.97L69.83 24.94C69.77 22.89 70.55 21.65 71.54 20.48C71.6 20.48 71.66 20.48 71.72 20.48C79.83 20.48 86.08 23.98 92.83 28.19L93.94 28.89C99.39 32.29 106.2 36.52 109.92 41.18C111.65 43.37 113.13 46.01 114.68 48.81C115.8 50.81 116.94 52.88 118.24 54.85C118.77 55.66 119.39 56.47 120.1 57.43C120.93 58.55 121.89 59.78 122.88 61.3C123.29 61.89 123.66 62.65 124.09 63.43C125.36 65.82 126.66 68.28 128.73 68.28C129.85 68.28 130.9 67.56 131.89 66.07L132.11 65.73L131.98 65.37C129.91 59.76 127.09 55.13 123.87 50.08C123.41 49.35 122.98 48.62 122.54 47.92C121.62 46.37 120.62 44.77 119.51 43.29C118.67 42.19 117.65 41.24 116.69 40.31C115.67 39.36 114.74 38.46 113.94 37.39C112.11 34.98 110.75 32.26 109.27 29.4C108.49 27.91 107.72 26.37 106.85 24.85C106.54 24.29 106.2 23.73 105.89 23.17C103.73 19.44 101.47 15.59 101.09 11.13L101.09 11.05L101.06 10.97C100.32 8.78 100.35 7.15 101.16 6.17C101.87 5.41 103.26 4.96 105.24 4.96Z" fill="#000000" fill-opacity="1.000000" fill-rule="evenodd"/>
	<path id="Помочь с выбором? Оставьте заявку и наши специалисты свяжутся с вами, ответят на все вопросы и подберут подходящий вариант обучения." d="M442.58 50.02Q441.19 49.25 439.38 49.25Q438.03 49.25 436.88 49.74Q436.79 49.78 436.69 49.82Q436.06 50.11 435.53 50.53Q435.03 50.92 434.61 51.42Q434.79 49.38 435.9 48.23Q435.92 48.2 435.95 48.18Q437.1 47.02 439.43 46.54L444.83 45.44L444.4 42.75L438.45 44.02Q435.39 44.67 433.74 46.55Q433.55 46.77 433.38 47Q431.72 49.25 431.72 53.12Q431.72 57.27 433.55 59.48Q434.09 60.14 434.77 60.6Q436.37 61.69 438.71 61.69Q440.7 61.69 442.26 60.9Q443.29 60.38 444.02 59.58Q444.39 59.16 444.69 58.68Q444.82 58.45 444.94 58.21Q445.55 56.95 445.55 55.4Q445.55 53.7 444.85 52.37Q444.81 52.29 444.77 52.21Q444.38 51.51 443.83 50.97Q443.29 50.42 442.59 50.03Q442.58 50.03 442.58 50.02ZM519.77 53.74Q519.18 54.59 519.18 55.88L522.23 55.88Q522.23 55.15 522.54 54.6Q522.6 54.49 522.67 54.39Q523.12 53.77 524.03 52.95Q524.78 52.28 525.23 51.76Q525.68 51.25 526.01 50.5Q526.33 49.76 526.33 48.77Q526.33 47.68 525.87 46.83Q525.47 46.11 524.73 45.57Q523.14 44.41 520.45 44.41Q518.25 44.41 516.61 45.16Q515.66 45.61 514.9 46.28Q514.38 46.75 513.95 47.34L516.28 48.85Q516.74 48.21 517.35 47.79Q518.5 47 520.19 47Q521.56 47 522.37 47.63Q522.8 47.95 523 48.38Q523.19 48.77 523.19 49.25Q523.19 49.65 523.06 50Q522.96 50.29 522.77 50.54Q522.35 51.11 521.49 51.87Q520.36 52.88 519.77 53.74ZM286.65 61.45L286.65 44.65L271.79 44.65L271.79 61.45L274.86 61.45L274.86 47.29L283.57 47.29L283.57 61.45L286.65 61.45ZM293.62 60.96Q295.03 61.62 296.75 61.62Q298.58 61.62 300.05 60.9Q300.17 60.84 300.28 60.78Q301.17 60.3 301.84 59.6Q302.34 59.08 302.71 58.44Q302.87 58.15 303.01 57.86Q303.59 56.58 303.59 55.04Q303.59 53.49 303 52.21Q302.87 51.93 302.71 51.66Q302.35 51.04 301.87 50.54Q301.19 49.82 300.28 49.33Q300.15 49.26 300.02 49.2Q298.56 48.49 296.75 48.49Q295.05 48.49 293.65 49.13Q293.44 49.22 293.25 49.33Q292.34 49.82 291.66 50.52Q291.18 51.03 290.81 51.66Q290.66 51.91 290.53 52.18Q289.94 53.47 289.94 55.04Q289.94 56.6 290.52 57.89Q290.65 58.17 290.81 58.44Q291.19 59.09 291.7 59.61Q292.36 60.3 293.25 60.78Q293.43 60.88 293.62 60.96ZM328.46 60.96Q329.88 61.62 331.6 61.62Q333.43 61.62 334.9 60.9Q335.01 60.84 335.13 60.78Q336.02 60.3 336.68 59.6Q337.18 59.08 337.56 58.44Q337.72 58.15 337.86 57.86Q338.44 56.58 338.44 55.04Q338.44 53.49 337.85 52.21Q337.72 51.93 337.56 51.66Q337.2 51.04 336.72 50.54Q336.04 49.82 335.13 49.33Q335 49.26 334.87 49.2Q333.4 48.49 331.6 48.49Q329.9 48.49 328.5 49.13Q328.29 49.22 328.09 49.33Q327.19 49.82 326.51 50.52Q326.02 51.03 325.66 51.66Q325.51 51.91 325.38 52.18Q324.78 53.47 324.78 55.04Q324.78 56.6 325.37 57.89Q325.5 58.17 325.66 58.44Q326.04 59.09 326.55 59.61Q327.21 60.3 328.09 60.78Q328.28 60.88 328.46 60.96ZM379.5 60.88Q381.01 61.62 382.88 61.62Q384.76 61.62 386.18 60.84Q386.93 60.43 387.5 59.83Q388 59.3 388.36 58.62L386.05 57.27Q385.57 58.05 384.88 58.48Q384.78 58.55 384.67 58.61Q384.43 58.73 384.18 58.82Q383.56 59.05 382.86 59.05Q381.72 59.05 380.85 58.56Q380.43 58.32 380.07 57.96Q379.82 57.71 379.64 57.44Q378.98 56.46 378.98 55.04Q378.98 53.65 379.62 52.68Q379.82 52.38 380.08 52.13Q380.49 51.71 380.99 51.46Q381.81 51.03 382.86 51.03Q383.55 51.03 384.16 51.25Q384.42 51.34 384.67 51.48Q384.79 51.54 384.9 51.61Q385.58 52.04 386.05 52.81L388.36 51.46Q388.01 50.77 387.5 50.23Q386.95 49.65 386.21 49.25Q384.78 48.49 382.88 48.49Q380.9 48.49 379.34 49.31Q379.32 49.32 379.3 49.33Q378.37 49.83 377.68 50.55Q377.2 51.05 376.84 51.66Q376.67 51.94 376.53 52.24Q375.95 53.51 375.95 55.04Q375.95 56.56 376.52 57.83Q376.66 58.14 376.84 58.44Q377.2 59.04 377.67 59.54Q378.37 60.28 379.31 60.78Q379.41 60.83 379.5 60.88ZM451.03 60.96Q452.45 61.62 454.17 61.62Q455.99 61.62 457.47 60.9Q457.58 60.84 457.69 60.78Q458.58 60.3 459.25 59.6Q459.75 59.08 460.13 58.44Q460.29 58.15 460.42 57.86Q461 56.58 461 55.04Q461 53.49 460.42 52.21Q460.29 51.93 460.13 51.66Q459.76 51.04 459.29 50.54Q458.61 49.82 457.69 49.33Q457.57 49.26 457.43 49.2Q455.97 48.49 454.17 48.49Q452.47 48.49 451.06 49.13Q450.86 49.22 450.66 49.33Q449.76 49.82 449.08 50.52Q448.59 51.03 448.22 51.66Q448.07 51.91 447.95 52.18Q447.35 53.47 447.35 55.04Q447.35 56.6 447.94 57.89Q448.07 58.17 448.22 58.44Q448.61 59.09 449.11 59.61Q449.78 60.3 450.66 60.78Q450.84 60.88 451.03 60.96ZM474.11 49.15Q472.74 48.49 471.06 48.49Q469.74 48.49 468.64 48.94Q468.07 49.19 467.59 49.55Q467.16 49.88 466.81 50.31L466.81 48.63L463.96 48.63L463.96 66.11L466.96 66.11L466.96 59.89Q467.45 60.45 468.06 60.84Q469.32 61.62 471.06 61.62Q472.76 61.62 474.14 60.95Q474.28 60.88 474.41 60.8Q475.06 60.44 475.59 59.94Q476.26 59.32 476.73 58.48Q476.76 58.43 476.79 58.37Q477.56 56.91 477.56 55.04Q477.56 53.16 476.78 51.71Q476.75 51.66 476.73 51.61Q476.27 50.8 475.63 50.19Q475.09 49.68 474.41 49.31Q474.26 49.22 474.11 49.15ZM483.12 60.96Q484.54 61.62 486.25 61.62Q488.08 61.62 489.55 60.9Q489.67 60.84 489.78 60.78Q490.67 60.3 491.34 59.6Q491.84 59.08 492.21 58.44Q492.38 58.15 492.51 57.86Q493.09 56.58 493.09 55.04Q493.09 53.49 492.5 52.21Q492.37 51.93 492.21 51.66Q491.85 51.04 491.37 50.54Q490.7 49.82 489.78 49.33Q489.65 49.26 489.52 49.2Q488.06 48.49 486.25 48.49Q484.56 48.49 483.15 49.13Q482.95 49.22 482.75 49.33Q481.84 49.82 481.17 50.52Q480.68 51.03 480.31 51.66Q480.16 51.91 480.04 52.18Q479.44 53.47 479.44 55.04Q479.44 56.6 480.03 57.89Q480.16 58.17 480.31 58.44Q480.69 59.09 481.2 59.61Q481.87 60.3 482.75 60.78Q482.93 60.88 483.12 60.96ZM319.14 52.95L319.14 61.45L321.85 61.45L321.83 48.63L319.02 48.63L314.25 56.65L309.69 48.63L306.54 48.63L306.54 61.45L309.28 61.45L309.28 52.93L313.53 60.11L314.82 60.11L319.14 52.95ZM352.26 61.45L352.26 48.63L349.26 48.63L349.26 54.25Q348.37 54.66 347.43 54.84Q346.75 54.97 346.05 54.97Q344.72 54.97 344 54.37Q343.89 54.28 343.8 54.17Q343.29 53.58 343.29 52.54L343.29 48.63L340.29 48.63L340.29 52.73Q340.29 54.83 341.33 55.97Q341.46 56.11 341.61 56.23Q342.92 57.37 345.4 57.37Q346.21 57.37 347 57.22Q348.16 57.01 349.26 56.48L349.26 61.45L352.26 61.45ZM366.48 53.96Q365.18 52.86 362.73 52.86L359.29 52.83L359.29 48.63L356.29 48.63L356.29 61.45L362.29 61.47Q364.91 61.49 366.35 60.35Q366.82 59.97 367.14 59.49Q367.79 58.5 367.79 57.08Q367.79 55.61 367.1 54.63Q366.84 54.26 366.48 53.96ZM408.78 56.02Q408.19 55.16 406.91 54.77Q407.81 54.38 408.32 53.7Q408.34 53.68 408.36 53.65Q408.48 53.49 408.57 53.31Q408.88 52.71 408.88 51.94Q408.88 51.14 408.54 50.53Q408.21 49.93 407.56 49.5Q406.24 48.63 403.89 48.63L397.62 48.63L397.62 61.45L404.15 61.45Q406.69 61.45 407.99 60.52Q408.52 60.13 408.83 59.61Q409.29 58.87 409.29 57.85Q409.29 56.76 408.78 56.02ZM422.46 53.96Q421.17 52.86 418.72 52.86L415.48 52.83L415.48 48.63L412.48 48.63L412.48 61.45L418.28 61.47Q420.9 61.49 422.33 60.35Q422.78 59.98 423.09 59.51Q423.76 58.52 423.76 57.08Q423.76 55.59 423.05 54.6Q422.8 54.25 422.46 53.96ZM428.41 48.63L425.41 48.63L425.41 61.45L428.41 61.45L428.41 48.63ZM508.64 52.95L508.64 61.45L511.36 61.45L511.33 48.63L508.53 48.63L503.75 56.65L499.19 48.63L496.05 48.63L496.05 61.45L498.78 61.45L498.78 52.93L503.03 60.11L504.32 60.11L508.64 52.95ZM403.62 53.98L400.47 53.98L400.47 50.81L403.62 50.81Q405.22 50.81 405.72 51.55Q405.95 51.89 405.95 52.38Q405.95 52.9 405.71 53.25Q405.2 53.98 403.62 53.98ZM298.59 58.62Q297.78 59.05 296.75 59.05Q295.71 59.05 294.9 58.61Q294.42 58.35 294.03 57.94Q293.79 57.7 293.6 57.42Q292.96 56.44 292.96 55.04Q292.96 53.65 293.6 52.67Q293.78 52.39 294.03 52.14Q294.43 51.72 294.92 51.46Q295.72 51.03 296.75 51.03Q297.77 51.03 298.57 51.45Q299.07 51.71 299.49 52.14Q299.74 52.4 299.94 52.7Q300.56 53.67 300.56 55.04Q300.56 56.42 299.93 57.39Q299.74 57.69 299.49 57.94Q299.08 58.36 298.59 58.62ZM333.43 58.62Q332.63 59.05 331.6 59.05Q330.56 59.05 329.75 58.61Q329.27 58.35 328.87 57.94Q328.64 57.7 328.45 57.42Q327.81 56.44 327.81 55.04Q327.81 53.65 328.44 52.67Q328.63 52.39 328.87 52.14Q329.28 51.72 329.76 51.46Q330.57 51.03 331.6 51.03Q332.62 51.03 333.42 51.45Q333.92 51.71 334.33 52.14Q334.59 52.4 334.79 52.7Q335.41 53.67 335.41 55.04Q335.41 56.42 334.78 57.39Q334.59 57.69 334.33 57.94Q333.93 58.36 333.43 58.62ZM456 58.62Q455.2 59.05 454.17 59.05Q453.13 59.05 452.32 58.61Q451.84 58.35 451.44 57.94Q451.2 57.7 451.02 57.42Q450.38 56.44 450.38 55.04Q450.38 53.65 451.01 52.67Q451.2 52.39 451.44 52.14Q451.84 51.72 452.33 51.46Q453.13 51.03 454.17 51.03Q455.19 51.03 455.99 51.45Q456.49 51.71 456.9 52.14Q457.16 52.4 457.36 52.7Q457.98 53.67 457.98 55.04Q457.98 56.42 457.35 57.39Q457.16 57.69 456.9 57.94Q456.49 58.36 456 58.62ZM472.57 58.61Q471.77 59.05 470.73 59.05Q469.87 59.05 469.15 58.74Q468.96 58.65 468.78 58.55Q468.48 58.38 468.23 58.17Q467.75 57.75 467.41 57.15Q466.91 56.24 466.91 55.04Q466.91 53.84 467.41 52.93Q467.75 52.31 468.25 51.89Q468.5 51.68 468.78 51.52Q468.96 51.42 469.15 51.34Q469.87 51.03 470.73 51.03Q471.76 51.03 472.56 51.46Q473.05 51.72 473.45 52.14Q473.69 52.39 473.88 52.67Q474.52 53.65 474.52 55.04Q474.52 56.44 473.87 57.42Q473.69 57.7 473.45 57.94Q473.05 58.35 472.57 58.61ZM488.09 58.62Q487.28 59.05 486.25 59.05Q485.21 59.05 484.41 58.61Q483.93 58.35 483.53 57.94Q483.29 57.7 483.11 57.42Q482.46 56.44 482.46 55.04Q482.46 53.65 483.1 52.67Q483.29 52.39 483.53 52.14Q483.93 51.72 484.42 51.46Q485.22 51.03 486.25 51.03Q487.27 51.03 488.08 51.45Q488.58 51.71 488.99 52.14Q489.25 52.4 489.44 52.7Q490.07 53.67 490.07 55.04Q490.07 56.42 489.44 57.39Q489.24 57.69 488.99 57.94Q488.58 58.36 488.09 58.62ZM440.75 58.76Q439.92 59.26 438.78 59.26Q437.66 59.26 436.82 58.78Q436.42 58.55 436.08 58.21Q435.78 57.9 435.56 57.55Q435.04 56.67 435.04 55.47Q435.04 54.27 435.58 53.41Q435.78 53.08 436.07 52.81Q436.32 52.55 436.62 52.37Q437.52 51.8 438.78 51.8Q440.01 51.8 440.89 52.36Q441.2 52.55 441.46 52.81Q441.72 53.07 441.92 53.38Q442.48 54.25 442.48 55.47Q442.48 56.64 441.97 57.52Q441.76 57.88 441.46 58.2Q441.14 58.53 440.75 58.76ZM364.05 58.71Q363.35 59.29 362.03 59.26L359.29 59.24L359.29 54.9L362.03 54.92Q363.4 54.94 364.07 55.45Q364.21 55.55 364.32 55.68Q364.74 56.18 364.74 57.03Q364.74 57.88 364.33 58.41Q364.21 58.58 364.05 58.71ZM420.04 58.71Q419.34 59.29 418.02 59.26L415.48 59.24L415.48 54.9L418.02 54.92Q419.39 54.94 420.06 55.45Q420.2 55.55 420.31 55.68Q420.73 56.18 420.73 57.03Q420.73 57.88 420.32 58.41Q420.2 58.58 420.04 58.71ZM406.16 58.47Q405.65 59.26 403.91 59.26L400.47 59.26L400.47 55.98L404.01 55.98Q405.23 55.98 405.8 56.4Q405.98 56.52 406.1 56.69Q406.38 57.07 406.38 57.66Q406.38 58.13 406.16 58.47ZM519.74 61.38Q520.16 61.62 520.71 61.62Q521.23 61.62 521.63 61.41Q521.87 61.28 522.07 61.08Q522.31 60.84 522.45 60.54Q522.61 60.18 522.61 59.74Q522.61 59.28 522.43 58.91Q522.3 58.65 522.07 58.42Q521.88 58.24 521.66 58.12Q521.25 57.9 520.71 57.9Q520.14 57.9 519.71 58.14Q519.51 58.26 519.34 58.42Q519.11 58.65 518.98 58.91Q518.8 59.28 518.8 59.74Q518.8 60.18 518.96 60.54Q519.1 60.84 519.34 61.08Q519.52 61.26 519.74 61.38ZM273.53 107.03Q274.74 107.58 276.2 107.58Q277.58 107.58 278.74 107.07Q278.99 106.97 279.23 106.83Q280.04 106.39 280.64 105.75Q281.05 105.31 281.36 104.78Q281.54 104.48 281.68 104.15Q282.13 103.1 282.13 101.85Q282.13 100.61 281.69 99.56Q281.55 99.23 281.36 98.91Q281.05 98.38 280.63 97.94Q280.04 97.3 279.23 96.87Q278.98 96.73 278.72 96.62Q277.57 96.12 276.2 96.12Q274.75 96.12 273.55 96.66Q273.34 96.75 273.14 96.87Q272.39 97.28 271.81 97.86Q271.35 98.34 271 98.92Q270.78 99.31 270.61 99.72Q270.23 100.71 270.23 101.85Q270.23 103 270.62 104Q270.78 104.4 271 104.78Q271.35 105.36 271.8 105.82Q272.38 106.42 273.14 106.83Q273.33 106.94 273.53 107.03ZM278.06 105.77Q277.21 106.15 276.2 106.15Q275.24 106.15 274.42 105.81Q274.19 105.72 273.96 105.59Q273.44 105.3 273.03 104.89Q272.67 104.52 272.39 104.05Q272.26 103.81 272.16 103.56Q271.83 102.77 271.83 101.85Q271.83 100.94 272.15 100.16Q272.25 99.89 272.39 99.65Q272.67 99.18 273.03 98.81Q273.44 98.4 273.96 98.1Q274.19 97.98 274.42 97.88Q275.24 97.55 276.2 97.55Q277.21 97.55 278.06 97.92Q278.24 98.01 278.41 98.1Q278.89 98.38 279.27 98.75Q279.67 99.14 279.96 99.65Q280.11 99.89 280.21 100.16Q280.53 100.94 280.53 101.85Q280.53 102.77 280.2 103.56Q280.1 103.81 279.96 104.05Q279.67 104.55 279.27 104.95Q278.89 105.32 278.41 105.59Q278.24 105.69 278.06 105.77ZM356.77 103.75Q356.31 103.26 355.46 103.03Q356.17 102.78 356.58 102.28Q356.82 101.99 356.92 101.66Q357 101.42 357 101.16Q357 100.88 356.92 100.63Q356.81 100.27 356.53 99.96Q356.07 99.43 355.25 99.14Q354.44 98.85 353.41 98.85Q352.76 98.85 352.13 98.97Q351.12 99.16 350.17 99.64L350.58 100.82Q351.99 100.17 353.25 100.17Q354.25 100.17 354.83 100.49Q355.2 100.69 355.34 101Q355.41 101.18 355.41 101.39Q355.41 101.6 355.33 101.77Q355.22 102.03 354.92 102.22Q354.42 102.52 353.56 102.52L352.12 102.52L352.12 103.62L353.67 103.62Q354.61 103.62 355.13 103.94Q355.42 104.12 355.55 104.37Q355.66 104.58 355.66 104.85Q355.66 105.07 355.58 105.26Q355.43 105.62 355.01 105.87Q354.36 106.25 353.27 106.25Q353.11 106.25 352.95 106.24Q352.31 106.21 351.69 106.03Q350.9 105.82 350.29 105.43L349.83 106.6Q350.53 107.07 351.44 107.32Q351.86 107.43 352.29 107.49Q352.78 107.56 353.28 107.56Q354.41 107.56 355.31 107.23Q356.21 106.91 356.73 106.32Q357.01 105.99 357.14 105.61Q357.24 105.31 357.24 104.98Q357.24 104.51 357.05 104.14Q356.94 103.93 356.77 103.75ZM285.99 107.06Q286.96 107.55 288.17 107.55Q289.32 107.55 290.22 107.07Q290.71 106.82 291.08 106.45Q291.39 106.13 291.62 105.72L290.45 104.98Q290.12 105.49 289.64 105.79Q289.55 105.85 289.46 105.9Q289.37 105.94 289.27 105.98Q288.76 106.2 288.15 106.2Q287.44 106.2 286.85 105.93Q286.75 105.89 286.65 105.83Q286.37 105.68 286.14 105.46Q285.83 105.18 285.61 104.78Q285.24 104.1 285.24 103.21Q285.24 102.34 285.6 101.67Q285.6 101.66 285.61 101.65Q285.83 101.25 286.15 100.96Q286.38 100.75 286.65 100.6Q286.75 100.55 286.85 100.5Q287.44 100.23 288.15 100.23Q288.76 100.23 289.27 100.45Q289.37 100.49 289.46 100.54Q289.55 100.59 289.64 100.64Q290.12 100.94 290.45 101.45L291.62 100.69Q291.39 100.27 291.05 99.95Q290.69 99.59 290.22 99.35Q289.32 98.89 288.17 98.89Q286.93 98.89 285.95 99.39Q285.9 99.41 285.85 99.44Q285.3 99.74 284.88 100.16Q284.52 100.52 284.26 100.98Q284.16 101.14 284.08 101.32Q283.68 102.17 283.68 103.21Q283.68 104.23 284.07 105.08Q284.16 105.26 284.26 105.44Q284.51 105.87 284.85 106.22Q285.28 106.67 285.85 106.99Q285.92 107.02 285.99 107.06ZM307.1 99.75Q306.17 98.89 304.41 98.89Q303.38 98.89 302.47 99.17Q301.56 99.45 300.9 99.98L301.54 101.13Q302.04 100.71 302.76 100.47Q303.25 100.3 303.75 100.24Q303.99 100.22 304.23 100.22Q305.35 100.22 305.93 100.75Q306.02 100.83 306.1 100.93Q306.5 101.43 306.5 102.26L306.5 102.57L304.07 102.57Q302.3 102.57 301.48 103.25Q301.13 103.54 300.93 103.91Q300.66 104.41 300.66 105.05Q300.66 105.63 300.9 106.1Q301.11 106.53 301.52 106.86Q302.37 107.55 303.8 107.55Q304.77 107.55 305.48 107.23Q306.05 106.99 306.41 106.56Q306.5 106.45 306.58 106.33L306.58 107.45L308.04 107.45L308.04 102.33Q308.04 100.77 307.26 99.92Q307.19 99.83 307.1 99.75ZM344.15 103.72Q344.18 103.43 344.18 103.26Q344.18 101.99 343.65 101Q343.65 100.99 343.64 100.98Q343.33 100.41 342.88 99.98Q342.56 99.67 342.15 99.44Q342.02 99.36 341.89 99.3Q341.04 98.89 339.99 98.89Q338.98 98.89 338.13 99.27Q337.97 99.35 337.8 99.44Q337.4 99.67 337.06 99.98Q336.61 100.41 336.28 100.98Q336.19 101.16 336.11 101.34Q335.73 102.19 335.73 103.21Q335.73 104.23 336.11 105.09Q336.2 105.27 336.3 105.45Q336.53 105.85 336.84 106.18Q337.29 106.67 337.91 107Q338.95 107.55 340.29 107.55Q341.35 107.55 342.21 107.19Q342.82 106.94 343.29 106.52Q343.47 106.36 343.64 106.17L342.79 105.17Q342.46 105.54 342.05 105.78Q341.32 106.2 340.34 106.2Q339.33 106.2 338.58 105.75Q338.41 105.65 338.25 105.52Q337.89 105.23 337.66 104.86Q337.35 104.36 337.27 103.72L344.15 103.72ZM365.29 99.75Q364.36 98.89 362.6 98.89Q361.57 98.89 360.66 99.17Q359.75 99.45 359.09 99.98L359.73 101.13Q360.23 100.71 360.95 100.47Q361.44 100.3 361.94 100.24Q362.18 100.22 362.42 100.22Q363.54 100.22 364.12 100.75Q364.21 100.83 364.29 100.93Q364.7 101.43 364.7 102.26L364.7 102.57L362.26 102.57Q360.49 102.57 359.67 103.25Q359.32 103.54 359.12 103.91Q358.86 104.41 358.86 105.05Q358.86 105.63 359.09 106.1Q359.3 106.53 359.71 106.86Q360.57 107.55 361.99 107.55Q362.96 107.55 363.68 107.23Q364.24 106.99 364.6 106.56Q364.69 106.45 364.77 106.33L364.77 107.45L366.23 107.45L366.23 102.33Q366.23 100.77 365.46 99.92Q365.38 99.83 365.29 99.75ZM443.16 99.75Q442.23 98.89 440.47 98.89Q439.45 98.89 438.53 99.17Q437.62 99.45 436.97 99.98L437.61 101.13Q438.1 100.71 438.82 100.47Q439.31 100.3 439.81 100.24Q440.05 100.22 440.29 100.22Q441.41 100.22 441.99 100.75Q442.08 100.83 442.16 100.93Q442.57 101.43 442.57 102.26L442.57 102.57L440.13 102.57Q438.36 102.57 437.54 103.25Q437.2 103.54 437 103.91Q436.73 104.41 436.73 105.05Q436.73 105.63 436.96 106.1Q437.17 106.53 437.58 106.86Q438.44 107.55 439.86 107.55Q440.84 107.55 441.55 107.23Q442.11 106.99 442.47 106.56Q442.56 106.45 442.65 106.33L442.65 107.45L444.1 107.45L444.1 102.33Q444.1 100.77 443.33 99.92Q443.25 99.83 443.16 99.75ZM478.86 107.06Q479.82 107.55 481.03 107.55Q482.18 107.55 483.08 107.07Q483.57 106.82 483.94 106.45Q484.26 106.13 484.49 105.72L483.32 104.98Q482.98 105.49 482.51 105.79Q482.42 105.85 482.32 105.9Q482.23 105.94 482.14 105.98Q481.62 106.2 481.01 106.2Q480.3 106.2 479.71 105.93Q479.61 105.89 479.52 105.83Q479.24 105.68 479.01 105.46Q478.69 105.18 478.47 104.78Q478.1 104.1 478.1 103.21Q478.1 102.34 478.46 101.67Q478.47 101.66 478.47 101.65Q478.7 101.25 479.01 100.96Q479.24 100.75 479.52 100.6Q479.61 100.55 479.71 100.5Q480.3 100.23 481.01 100.23Q481.62 100.23 482.14 100.45Q482.23 100.49 482.32 100.54Q482.42 100.59 482.51 100.64Q482.98 100.94 483.32 101.45L484.49 100.69Q484.25 100.27 483.92 99.95Q483.56 99.59 483.08 99.35Q482.18 98.89 481.03 98.89Q479.79 98.89 478.81 99.39Q478.76 99.41 478.72 99.44Q478.17 99.74 477.75 100.16Q477.39 100.52 477.12 100.98Q477.03 101.14 476.94 101.32Q476.55 102.17 476.55 103.21Q476.55 104.23 476.93 105.08Q477.02 105.26 477.12 105.44Q477.38 105.87 477.72 106.22Q478.15 106.67 478.72 106.99Q478.79 107.02 478.86 107.06ZM504.93 103.72Q504.97 103.43 504.97 103.26Q504.97 101.99 504.44 101L504.43 100.98Q504.12 100.41 503.67 99.98Q503.34 99.67 502.94 99.44Q502.81 99.36 502.67 99.3Q501.82 98.89 500.77 98.89Q499.76 98.89 498.92 99.27Q498.75 99.35 498.59 99.44Q498.18 99.67 497.85 99.98Q497.39 100.41 497.07 100.98Q496.97 101.16 496.89 101.34Q496.52 102.19 496.52 103.21Q496.52 104.23 496.9 105.09Q496.98 105.27 497.08 105.45Q497.31 105.85 497.62 106.18Q498.08 106.67 498.69 107Q499.73 107.55 501.08 107.55Q502.13 107.55 502.99 107.19Q503.6 106.94 504.07 106.52Q504.26 106.36 504.42 106.17L503.57 105.17Q503.24 105.54 502.83 105.78Q502.1 106.2 501.13 106.2Q500.11 106.2 499.36 105.75Q499.19 105.65 499.04 105.52Q498.68 105.23 498.44 104.86Q498.13 104.36 498.05 103.72L504.93 103.72ZM535.21 99.75Q534.28 98.89 532.52 98.89Q531.49 98.89 530.58 99.17Q529.67 99.45 529.01 99.98L529.65 101.13Q530.15 100.71 530.87 100.47Q531.36 100.3 531.86 100.24Q532.1 100.22 532.34 100.22Q533.46 100.22 534.04 100.75Q534.13 100.83 534.21 100.93Q534.62 101.43 534.62 102.26L534.62 102.57L532.18 102.57Q530.41 102.57 529.59 103.25Q529.24 103.54 529.04 103.91Q528.78 104.41 528.78 105.05Q528.78 105.63 529.01 106.1Q529.22 106.53 529.63 106.86Q530.49 107.55 531.91 107.55Q532.88 107.55 533.59 107.23Q534.16 106.99 534.52 106.56Q534.61 106.45 534.69 106.33L534.69 107.45L536.15 107.45L536.15 102.33Q536.15 100.77 535.38 99.92Q535.3 99.83 535.21 99.75ZM561.8 107.06Q562.76 107.55 563.97 107.55Q565.13 107.55 566.03 107.07Q566.52 106.82 566.89 106.45Q567.2 106.13 567.43 105.72L566.26 104.98Q565.92 105.49 565.45 105.79Q565.36 105.85 565.27 105.9Q565.18 105.94 565.08 105.98Q564.57 106.2 563.96 106.2Q563.24 106.2 562.65 105.93Q562.56 105.89 562.46 105.83Q562.18 105.68 561.95 105.46Q561.64 105.18 561.42 104.78Q561.04 104.1 561.04 103.21Q561.04 102.34 561.41 101.67Q561.41 101.66 561.42 101.65Q561.64 101.25 561.96 100.96Q562.18 100.75 562.46 100.6Q562.56 100.55 562.65 100.5Q563.24 100.23 563.96 100.23Q564.57 100.23 565.08 100.45Q565.18 100.49 565.27 100.54Q565.36 100.59 565.45 100.64Q565.92 100.94 566.26 101.45L567.43 100.69Q567.19 100.27 566.86 99.95Q566.5 99.59 566.03 99.35Q565.13 98.89 563.97 98.89Q562.74 98.89 561.76 99.39Q561.71 99.41 561.66 99.44Q561.11 99.74 560.69 100.16Q560.33 100.52 560.07 100.98Q559.97 101.14 559.89 101.32Q559.49 102.17 559.49 103.21Q559.49 104.23 559.88 105.08Q559.96 105.26 560.07 105.44Q560.32 105.87 560.66 106.22Q561.09 106.67 561.66 106.99Q561.73 107.02 561.8 107.06ZM296.71 100.31L299.81 100.31L299.81 98.97L292.07 98.97L292.07 100.31L295.17 100.31L295.17 107.45L296.71 107.45L296.71 100.31ZM317.85 103.81Q317.44 103.26 316.58 103.05Q317.16 102.82 317.51 102.4Q317.54 102.35 317.58 102.3Q317.67 102.18 317.74 102.04Q317.94 101.64 317.94 101.14Q317.94 100.6 317.71 100.19Q317.5 99.81 317.1 99.54Q316.25 98.97 314.74 98.97L310.81 98.97L310.81 107.45L314.88 107.45Q316.55 107.45 317.39 106.84Q317.73 106.59 317.93 106.26Q318.23 105.78 318.23 105.11Q318.23 104.32 317.85 103.81ZM327.01 102.58Q326.17 101.86 324.55 101.85L322.17 101.83L322.17 98.97L320.63 98.97L320.63 107.45L324.31 107.46Q326.02 107.48 326.94 106.74Q327.22 106.51 327.42 106.22Q327.86 105.57 327.86 104.62Q327.86 103.66 327.41 103.02Q327.24 102.78 327.01 102.58ZM332.21 100.31L335.32 100.31L335.32 98.97L327.57 98.97L327.57 100.31L330.68 100.31L330.68 107.45L332.21 107.45L332.21 100.31ZM375.8 107.45L375.8 98.97L372.08 98.97Q370.34 98.97 369.35 99.73Q369.04 99.96 368.83 100.26Q368.36 100.94 368.36 101.94Q368.36 102.82 368.75 103.44Q368.81 103.52 368.87 103.6Q368.9 103.64 368.93 103.67Q369.43 104.28 370.34 104.55L368.28 107.45L369.92 107.45L371.78 104.76L374.42 104.76L374.42 107.45L375.8 107.45ZM385.83 103.81Q385.42 103.26 384.57 103.05Q385.14 102.82 385.49 102.4Q385.53 102.35 385.56 102.3Q385.66 102.18 385.73 102.04Q385.93 101.64 385.93 101.14Q385.93 100.6 385.7 100.19Q385.48 99.81 385.08 99.54Q384.23 98.97 382.73 98.97L378.79 98.97L378.79 107.45L382.87 107.45Q384.53 107.45 385.37 106.84Q385.71 106.59 385.92 106.26Q386.21 105.78 386.21 105.11Q386.21 104.32 385.83 103.81ZM390.15 103.86L391.91 103.86L394.76 107.45L396.57 107.45L393.13 103.05L396.3 99.02L400.02 107.43L399.75 108.02Q399.45 108.75 399.07 109.04Q399.01 109.08 398.95 109.12Q398.61 109.33 398.14 109.33Q397.78 109.33 397.45 109.23Q397 109.08 396.62 108.71L395.96 109.86Q396.34 110.25 396.92 110.45Q397.16 110.53 397.41 110.58Q397.77 110.65 398.14 110.65Q398.98 110.65 399.63 110.28Q399.76 110.21 399.89 110.12Q400.62 109.59 401.16 108.3L405.27 98.97L403.77 98.97L400.84 105.75L397.88 98.97L394.69 98.97L391.94 102.55L390.15 102.55L390.15 98.97L388.61 98.97L388.61 107.45L390.15 107.45L390.15 103.86ZM412.68 98.97L411.14 98.97L411.14 107.45L412.55 107.45L417.73 101.27L417.73 107.45L419.27 107.45L419.27 98.97L417.88 98.97L412.68 105.14L412.68 98.97ZM428.09 98.97L426.55 98.97L426.55 107.45L428.09 107.45L428.09 103.9L432.92 103.9L432.92 107.45L434.45 107.45L434.45 98.97L432.92 98.97L432.92 102.57L428.09 102.57L428.09 98.97ZM458.95 107.45L458.95 98.97L457.41 98.97L457.41 106.1L453.69 106.1L453.69 98.97L452.15 98.97L452.15 106.1L448.41 106.1L448.41 98.97L446.87 98.97L446.87 107.45L458.95 107.45ZM463.46 98.97L461.93 98.97L461.93 107.45L463.33 107.45L468.52 101.27L468.52 107.45L470.06 107.45L470.06 98.97L468.66 98.97L463.46 105.14L463.46 98.97ZM494.33 107.45L494.33 98.97L486.47 98.97L486.47 107.45L488.01 107.45L488.01 100.31L492.79 100.31L492.79 107.45L494.33 107.45ZM516.4 109.48L516.4 106.1L515.06 106.1L515.06 98.97L513.53 98.97L513.53 106.1L508.89 106.1L508.89 98.97L507.35 98.97L507.35 107.45L514.95 107.45L514.95 109.48L516.4 109.48ZM519.93 98.97L518.39 98.97L518.39 107.45L519.8 107.45L524.98 101.27L524.98 107.45L526.52 107.45L526.52 98.97L525.12 98.97L519.93 105.14L519.93 98.97ZM546.2 107.45L546.2 98.97L539.69 98.97L539.54 102.1Q539.46 103.53 539.36 104.3Q539.27 105.07 538.95 105.62Q538.79 105.91 538.54 106.05Q538.31 106.18 537.99 106.18Q537.81 106.18 537.61 106.14L537.51 107.43Q538.04 107.58 538.45 107.58Q538.98 107.58 539.38 107.35Q539.66 107.18 539.88 106.89Q540.39 106.2 540.61 105.06Q540.84 103.91 540.92 102.2L541.02 100.31L544.66 100.31L544.66 107.45L546.2 107.45ZM550.71 98.97L549.17 98.97L549.17 107.45L550.58 107.45L555.76 101.27L555.76 107.45L557.3 107.45L557.3 98.97L555.91 98.97L550.71 105.14L550.71 98.97ZM572.52 100.31L575.62 100.31L575.62 98.97L567.88 98.97L567.88 100.31L570.98 100.31L570.98 107.45L572.52 107.45L572.52 100.31ZM583.46 102.58Q582.61 101.86 581.01 101.85L578.73 101.83L578.73 98.97L577.19 98.97L577.19 107.45L580.76 107.46Q582.47 107.48 583.39 106.74Q583.67 106.51 583.87 106.22Q584.31 105.57 584.31 104.62Q584.31 103.67 583.87 103.03Q583.7 102.78 583.46 102.58ZM587.11 98.97L585.57 98.97L585.57 107.45L587.11 107.45L587.11 98.97ZM314.61 102.62L312.31 102.62L312.31 100.15L314.61 100.15Q315.84 100.15 316.23 100.72Q316.41 100.98 316.41 101.37Q316.41 101.73 316.25 101.99Q316.14 102.17 315.95 102.3Q315.49 102.62 314.61 102.62ZM382.6 102.62L380.29 102.62L380.29 100.15L382.6 100.15Q383.83 100.15 384.21 100.72Q384.39 100.98 384.39 101.37Q384.39 101.73 384.23 101.99Q384.12 102.17 383.93 102.3Q383.48 102.62 382.6 102.62ZM338.65 100.5Q339.23 100.18 339.99 100.18Q340.72 100.18 341.29 100.48Q341.58 100.64 341.83 100.87Q342.11 101.11 342.3 101.42Q342.63 101.94 342.71 102.62L337.27 102.62Q337.36 101.87 337.73 101.32Q337.9 101.07 338.14 100.85Q338.37 100.64 338.65 100.5ZM499.43 100.5Q500.02 100.18 500.77 100.18Q501.51 100.18 502.08 100.48Q502.37 100.64 502.62 100.87Q502.89 101.11 503.08 101.42Q503.41 101.94 503.49 102.62L498.05 102.62Q498.14 101.87 498.51 101.32Q498.69 101.07 498.92 100.85Q499.16 100.64 499.43 100.5ZM370.25 103.04Q369.92 102.65 369.92 101.99Q369.92 101.38 370.22 100.99Q370.73 100.31 372.13 100.31L374.42 100.31L374.42 103.66L372.07 103.66Q371 103.66 370.46 103.25Q370.34 103.16 370.25 103.04ZM325.76 105.88Q325.22 106.31 324.18 106.3L322.17 106.28L322.17 102.95L324.18 102.98Q325.26 103 325.77 103.39Q325.88 103.47 325.97 103.56Q326.29 103.94 326.29 104.6Q326.29 105.24 325.98 105.65Q325.88 105.78 325.76 105.88ZM582.22 105.88Q581.69 106.31 580.65 106.3L578.73 106.28L578.73 102.95L580.65 102.98Q581.7 103 582.23 103.39Q582.34 103.47 582.44 103.58Q582.76 103.95 582.76 104.6Q582.76 105.25 582.44 105.66Q582.35 105.78 582.22 105.88ZM305.57 105.97Q304.93 106.36 304.05 106.36Q303.18 106.36 302.68 105.99Q302.45 105.82 302.33 105.6Q302.18 105.33 302.18 104.98Q302.18 104.57 302.37 104.29Q302.79 103.67 304.14 103.67L306.5 103.67L306.5 104.85Q306.33 105.28 306.04 105.59Q305.84 105.81 305.57 105.97ZM363.77 105.97Q363.12 106.36 362.25 106.36Q361.37 106.36 360.87 105.99Q360.65 105.82 360.52 105.6Q360.37 105.33 360.37 104.98Q360.37 104.57 360.56 104.29Q360.98 103.67 362.33 103.67L364.7 103.67L364.7 104.85Q364.52 105.28 364.23 105.59Q364.03 105.81 363.77 105.97ZM441.64 105.97Q441 106.36 440.12 106.36Q439.24 106.36 438.74 105.99Q438.52 105.82 438.39 105.6Q438.25 105.33 438.25 104.98Q438.25 104.57 438.44 104.29Q438.85 103.67 440.2 103.67L442.57 103.67L442.57 104.85Q442.4 105.28 442.1 105.59Q441.9 105.81 441.64 105.97ZM533.69 105.97Q533.04 106.36 532.17 106.36Q531.29 106.36 530.79 105.99Q530.57 105.82 530.44 105.6Q530.29 105.33 530.29 104.98Q530.29 104.57 530.48 104.29Q530.9 103.67 532.25 103.67L534.62 103.67L534.62 104.85Q534.44 105.28 534.15 105.59Q533.95 105.81 533.69 105.97ZM316.21 105.96Q315.73 106.26 314.77 106.26L312.31 106.26L312.31 103.72L314.87 103.72Q315.81 103.72 316.25 104.04Q316.38 104.13 316.46 104.25Q316.69 104.54 316.69 105.01Q316.69 105.42 316.5 105.69Q316.39 105.85 316.21 105.96ZM384.2 105.96Q383.72 106.26 382.76 106.26L380.29 106.26L380.29 103.72L382.85 103.72Q383.8 103.72 384.24 104.04Q384.36 104.13 384.45 104.25Q384.68 104.54 384.68 105.01Q384.68 105.42 384.49 105.69Q384.38 105.85 384.2 105.96ZM272.42 133.06Q273.39 133.55 274.6 133.55Q275.75 133.55 276.65 133.07Q277.14 132.82 277.51 132.45Q277.82 132.13 278.05 131.72L276.89 130.98Q276.55 131.49 276.08 131.79Q275.99 131.85 275.89 131.9Q275.8 131.94 275.71 131.98Q275.19 132.2 274.58 132.2Q273.87 132.2 273.28 131.93Q273.18 131.89 273.09 131.83Q272.8 131.68 272.57 131.46Q272.26 131.17 272.04 130.78Q271.67 130.1 271.67 129.21Q271.67 128.34 272.03 127.67Q272.04 127.66 272.04 127.65Q272.26 127.25 272.58 126.96Q272.81 126.75 273.09 126.6Q273.18 126.55 273.28 126.5Q273.87 126.23 274.58 126.23Q275.19 126.23 275.71 126.45Q275.8 126.49 275.89 126.54Q275.98 126.59 276.07 126.64Q276.55 126.94 276.89 127.45L278.05 126.69Q277.82 126.27 277.49 125.95Q277.13 125.6 276.65 125.35Q275.75 124.89 274.6 124.89Q273.36 124.89 272.38 125.39Q272.33 125.41 272.28 125.44Q271.73 125.74 271.31 126.16Q270.96 126.52 270.69 126.98Q270.59 127.14 270.51 127.32Q270.12 128.17 270.12 129.21Q270.12 130.23 270.5 131.08Q270.59 131.26 270.69 131.44Q270.95 131.87 271.28 132.22Q271.72 132.67 272.28 132.99Q272.35 133.02 272.42 133.06ZM330.98 133.06Q331.95 133.55 333.16 133.55Q334.31 133.55 335.21 133.07Q335.7 132.82 336.07 132.45Q336.39 132.13 336.61 131.72L335.45 130.98Q335.11 131.49 334.64 131.79Q334.55 131.85 334.45 131.9Q334.36 131.94 334.27 131.98Q333.75 132.2 333.14 132.2Q332.43 132.2 331.84 131.93Q331.74 131.89 331.65 131.83Q331.36 131.68 331.13 131.46Q330.82 131.17 330.6 130.78Q330.23 130.1 330.23 129.21Q330.23 128.34 330.59 127.67Q330.6 127.66 330.6 127.65Q330.82 127.25 331.14 126.96Q331.37 126.75 331.65 126.6Q331.74 126.55 331.84 126.5Q332.43 126.23 333.14 126.23Q333.75 126.23 334.27 126.45Q334.36 126.49 334.45 126.54Q334.54 126.59 334.63 126.64Q335.11 126.94 335.45 127.45L336.61 126.69Q336.38 126.27 336.05 125.95Q335.69 125.6 335.21 125.35Q334.31 124.89 333.16 124.89Q331.92 124.89 330.94 125.39Q330.89 125.41 330.84 125.44Q330.29 125.74 329.87 126.16Q329.52 126.52 329.25 126.98Q329.15 127.14 329.07 127.32Q328.68 128.17 328.68 129.21Q328.68 130.23 329.06 131.08Q329.15 131.26 329.25 131.44Q329.51 131.87 329.84 132.22Q330.28 132.67 330.84 132.99Q330.91 133.02 330.98 133.06ZM353.94 133.06Q354.91 133.55 356.12 133.55Q357.27 133.55 358.17 133.07Q358.66 132.82 359.03 132.45Q359.35 132.13 359.57 131.72L358.41 130.98Q358.07 131.49 357.6 131.79Q357.51 131.85 357.41 131.9Q357.32 131.94 357.23 131.98Q356.71 132.2 356.1 132.2Q355.39 132.2 354.8 131.93Q354.7 131.89 354.61 131.83Q354.32 131.68 354.09 131.46Q353.78 131.17 353.56 130.78Q353.19 130.1 353.19 129.21Q353.19 128.34 353.55 127.67Q353.56 127.66 353.56 127.65Q353.78 127.25 354.1 126.96Q354.33 126.75 354.61 126.6Q354.7 126.55 354.8 126.5Q355.39 126.23 356.1 126.23Q356.71 126.23 357.23 126.45Q357.32 126.49 357.41 126.54Q357.5 126.59 357.59 126.64Q358.07 126.94 358.41 127.45L359.57 126.69Q359.34 126.27 359.01 125.95Q358.65 125.6 358.17 125.35Q357.27 124.89 356.12 124.89Q354.88 124.89 353.9 125.39Q353.85 125.41 353.8 125.44Q353.25 125.74 352.83 126.16Q352.48 126.52 352.21 126.98Q352.11 127.14 352.03 127.32Q351.64 128.17 351.64 129.21Q351.64 130.23 352.02 131.08Q352.11 131.26 352.21 131.44Q352.47 131.87 352.8 132.22Q353.24 132.67 353.8 132.99Q353.87 133.02 353.94 133.06ZM381.4 125.75Q380.47 124.89 378.71 124.89Q377.69 124.89 376.77 125.17Q375.86 125.45 375.21 125.98L375.85 127.13Q376.34 126.71 377.06 126.47Q377.55 126.3 378.05 126.24Q378.29 126.22 378.53 126.22Q379.65 126.22 380.23 126.75Q380.32 126.83 380.4 126.93Q380.81 127.43 380.81 128.26L380.81 128.57L378.37 128.57Q376.6 128.57 375.78 129.25Q375.44 129.54 375.24 129.91Q374.97 130.41 374.97 131.05Q374.97 131.63 375.2 132.1Q375.41 132.53 375.82 132.86Q376.68 133.55 378.1 133.55Q379.08 133.55 379.79 133.23Q380.35 132.99 380.71 132.56Q380.8 132.45 380.89 132.33L380.89 133.45L382.34 133.45L382.34 128.33Q382.34 126.77 381.57 125.92Q381.49 125.83 381.4 125.75ZM418.56 133.13Q419.46 133.55 420.55 133.55Q421.65 133.55 422.54 133.13Q422.68 133.06 422.81 132.99Q423.35 132.69 423.76 132.26Q424.12 131.9 424.38 131.44Q424.48 131.27 424.56 131.09Q424.95 130.24 424.95 129.21Q424.95 128.16 424.55 127.3Q424.47 127.13 424.38 126.98Q424.11 126.5 423.73 126.13Q423.33 125.73 422.81 125.44Q422.7 125.38 422.59 125.32Q421.67 124.89 420.55 124.89Q419.43 124.89 418.52 125.32Q418.4 125.38 418.28 125.44Q417.74 125.73 417.33 126.15Q416.97 126.52 416.7 126.98Q416.61 127.12 416.54 127.28Q416.13 128.15 416.13 129.21Q416.13 130.25 416.53 131.11Q416.61 131.28 416.7 131.44Q416.96 131.88 417.3 132.24Q417.72 132.68 418.28 132.99Q418.42 133.06 418.56 133.13ZM452.2 129.72Q452.23 129.43 452.23 129.26Q452.23 127.99 451.7 127Q451.7 126.99 451.69 126.98Q451.38 126.41 450.93 125.98Q450.6 125.67 450.2 125.44Q450.07 125.36 449.94 125.3Q449.09 124.89 448.04 124.89Q447.02 124.89 446.18 125.27Q446.01 125.35 445.85 125.44Q445.45 125.67 445.11 125.98Q444.65 126.41 444.33 126.98Q444.24 127.16 444.16 127.34Q443.78 128.19 443.78 129.21Q443.78 130.23 444.16 131.09Q444.25 131.27 444.35 131.45Q444.58 131.85 444.89 132.18Q445.34 132.67 445.96 133Q447 133.55 448.34 133.55Q449.4 133.55 450.25 133.19Q450.87 132.94 451.33 132.52Q451.52 132.36 451.68 132.17L450.84 131.17Q450.5 131.54 450.09 131.78Q449.36 132.2 448.39 132.2Q447.37 132.2 446.63 131.75Q446.46 131.65 446.3 131.52Q445.94 131.23 445.71 130.86Q445.4 130.36 445.32 129.72L452.2 129.72ZM500.6 125.75Q499.67 124.89 497.91 124.89Q496.89 124.89 495.97 125.17Q495.06 125.45 494.41 125.98L495.05 127.13Q495.54 126.71 496.26 126.47Q496.75 126.3 497.25 126.24Q497.49 126.22 497.73 126.22Q498.85 126.22 499.43 126.75Q499.52 126.83 499.6 126.93Q500.01 127.43 500.01 128.26L500.01 128.57L497.57 128.57Q495.8 128.57 494.98 129.25Q494.64 129.54 494.44 129.91Q494.17 130.41 494.17 131.05Q494.17 131.63 494.4 132.1Q494.61 132.53 495.02 132.86Q495.88 133.55 497.3 133.55Q498.28 133.55 498.99 133.23Q499.55 132.99 499.91 132.56Q500 132.45 500.09 132.33L500.09 133.45L501.54 133.45L501.54 128.33Q501.54 126.77 500.77 125.92Q500.69 125.83 500.6 125.75ZM519.96 133.06Q520.92 133.55 522.13 133.55Q523.28 133.55 524.19 133.07Q524.68 132.82 525.05 132.45Q525.36 132.13 525.59 131.72L524.42 130.98Q524.08 131.49 523.61 131.79Q523.52 131.85 523.43 131.9Q523.34 131.94 523.24 131.98Q522.73 132.2 522.12 132.2Q521.4 132.2 520.81 131.93Q520.72 131.89 520.62 131.83Q520.34 131.68 520.11 131.46Q519.8 131.17 519.58 130.78Q519.2 130.1 519.2 129.21Q519.2 128.34 519.57 127.67Q519.57 127.66 519.58 127.65Q519.8 127.25 520.12 126.96Q520.34 126.75 520.62 126.6Q520.72 126.55 520.81 126.5Q521.4 126.23 522.12 126.23Q522.73 126.23 523.24 126.45Q523.34 126.49 523.43 126.54Q523.52 126.59 523.61 126.64Q524.08 126.94 524.42 127.45L525.59 126.69Q525.35 126.27 525.02 125.95Q524.66 125.6 524.19 125.35Q523.28 124.89 522.13 124.89Q520.9 124.89 519.92 125.39Q519.87 125.41 519.82 125.44Q519.27 125.74 518.85 126.16Q518.49 126.52 518.23 126.98Q518.13 127.14 518.05 127.32Q517.65 128.17 517.65 129.21Q517.65 130.23 518.04 131.08Q518.12 131.26 518.23 131.44Q518.48 131.87 518.82 132.22Q519.25 132.67 519.82 132.99Q519.89 133.02 519.96 133.06ZM535.08 129.72Q535.11 129.43 535.11 129.26Q535.11 127.99 534.58 127Q534.58 126.99 534.57 126.98Q534.26 126.41 533.81 125.98Q533.48 125.67 533.08 125.44Q532.95 125.36 532.82 125.3Q531.97 124.89 530.92 124.89Q529.9 124.89 529.06 125.27Q528.89 125.35 528.73 125.44Q528.33 125.67 527.99 125.98Q527.53 126.41 527.21 126.98Q527.12 127.16 527.04 127.34Q526.66 128.19 526.66 129.21Q526.66 130.23 527.04 131.09Q527.13 131.27 527.23 131.45Q527.46 131.85 527.77 132.18Q528.22 132.67 528.84 133Q529.88 133.55 531.22 133.55Q532.28 133.55 533.13 133.19Q533.75 132.94 534.21 132.52Q534.4 132.36 534.56 132.17L533.71 131.17Q533.38 131.54 532.97 131.78Q532.24 132.2 531.27 132.2Q530.25 132.2 529.51 131.75Q529.34 131.65 529.18 131.52Q528.82 131.23 528.59 130.86Q528.28 130.36 528.2 129.72L535.08 129.72ZM553.26 133.13Q554.16 133.55 555.25 133.55Q556.35 133.55 557.25 133.13Q557.38 133.06 557.52 132.99Q558.05 132.69 558.46 132.26Q558.82 131.9 559.08 131.44Q559.18 131.27 559.26 131.09Q559.65 130.24 559.65 129.21Q559.65 128.16 559.25 127.3Q559.17 127.13 559.08 126.98Q558.81 126.5 558.44 126.13Q558.03 125.73 557.52 125.44Q557.4 125.38 557.29 125.32Q556.38 124.89 555.25 124.89Q554.14 124.89 553.22 125.32Q553.1 125.38 552.98 125.44Q552.44 125.73 552.03 126.15Q551.67 126.52 551.4 126.98Q551.32 127.12 551.24 127.28Q550.84 128.15 550.84 129.21Q550.84 130.25 551.23 131.11Q551.31 131.28 551.4 131.44Q551.66 131.88 552 132.24Q552.43 132.68 552.98 132.99Q553.12 133.06 553.26 133.13ZM579.15 125.3Q578.28 124.89 577.21 124.89Q576.28 124.89 575.51 125.23Q575.49 125.24 575.48 125.25Q575.12 125.41 574.82 125.65Q574.46 125.93 574.18 126.31L574.18 124.97L572.71 124.97L572.71 136.55L574.25 136.55L574.25 132.17Q574.56 132.57 574.95 132.85Q575.22 133.05 575.53 133.19Q575.57 133.21 575.61 133.23Q576.34 133.55 577.21 133.55Q578.28 133.55 579.15 133.14Q579.28 133.07 579.41 133Q579.88 132.74 580.24 132.39Q580.65 131.99 580.94 131.47Q580.96 131.43 580.98 131.39Q581.49 130.44 581.49 129.21Q581.49 127.95 580.96 126.98Q580.95 126.97 580.94 126.95Q580.66 126.45 580.27 126.07Q579.89 125.7 579.41 125.43Q579.28 125.36 579.15 125.3ZM585.36 133.13Q586.26 133.55 587.35 133.55Q588.45 133.55 589.34 133.13Q589.48 133.06 589.61 132.99Q590.15 132.69 590.56 132.26Q590.92 131.9 591.18 131.44Q591.28 131.27 591.36 131.09Q591.75 130.24 591.75 129.21Q591.75 128.16 591.35 127.3Q591.27 127.13 591.18 126.98Q590.91 126.5 590.53 126.13Q590.13 125.73 589.61 125.44Q589.5 125.38 589.39 125.32Q588.47 124.89 587.35 124.89Q586.23 124.89 585.32 125.32Q585.2 125.38 585.08 125.44Q584.54 125.73 584.13 126.15Q583.77 126.52 583.5 126.98Q583.41 127.12 583.34 127.28Q582.93 128.15 582.93 129.21Q582.93 130.25 583.33 131.11Q583.41 131.28 583.5 131.44Q583.76 131.88 584.1 132.24Q584.52 132.68 585.08 132.99Q585.22 133.06 585.36 133.13ZM595.5 133.06Q596.46 133.55 597.67 133.55Q598.82 133.55 599.72 133.07Q600.21 132.82 600.58 132.45Q600.9 132.13 601.13 131.72L599.96 130.98Q599.62 131.49 599.15 131.79Q599.06 131.85 598.96 131.9Q598.87 131.94 598.78 131.98Q598.26 132.2 597.65 132.2Q596.94 132.2 596.35 131.93Q596.25 131.89 596.16 131.83Q595.88 131.68 595.65 131.46Q595.33 131.17 595.11 130.78Q594.74 130.1 594.74 129.21Q594.74 128.34 595.1 127.67L595.11 127.65Q595.34 127.25 595.65 126.96Q595.88 126.75 596.16 126.6Q596.25 126.55 596.35 126.5Q596.94 126.23 597.65 126.23Q598.26 126.23 598.78 126.45Q598.87 126.49 598.96 126.54Q599.06 126.59 599.15 126.64Q599.62 126.94 599.96 127.45L601.13 126.69Q600.89 126.27 600.56 125.95Q600.2 125.6 599.72 125.35Q598.82 124.89 597.67 124.89Q596.43 124.89 595.45 125.39Q595.4 125.41 595.36 125.44Q594.81 125.74 594.39 126.16Q594.03 126.52 593.76 126.98Q593.67 127.14 593.58 127.32Q593.19 128.17 593.19 129.21Q593.19 130.23 593.57 131.08Q593.66 131.26 593.76 131.44Q594.02 131.87 594.36 132.22Q594.79 132.67 595.36 132.99Q595.43 133.02 595.5 133.06ZM287.08 129.81Q286.67 129.26 285.82 129.05Q286.39 128.82 286.74 128.4Q286.78 128.35 286.81 128.3Q286.9 128.18 286.97 128.04Q287.17 127.64 287.17 127.14Q287.17 126.6 286.94 126.19Q286.73 125.81 286.33 125.54Q285.48 124.97 283.98 124.97L280.04 124.97L280.04 133.45L284.12 133.45Q285.78 133.45 286.62 132.84Q286.96 132.59 287.16 132.26Q287.46 131.78 287.46 131.11Q287.46 130.32 287.08 129.81ZM296.66 133.45L296.66 124.97L292.95 124.97Q291.21 124.97 290.21 125.73Q289.91 125.96 289.7 126.26Q289.22 126.94 289.22 127.94Q289.22 128.82 289.62 129.44Q289.67 129.52 289.73 129.6Q289.76 129.64 289.79 129.67Q290.3 130.28 291.21 130.55L289.14 133.45L290.79 133.45L292.65 130.76L295.28 130.76L295.28 133.45L296.66 133.45ZM305.72 129.86L307.37 129.86L309.72 133.45L311.54 133.45L308.63 129.08L311.32 124.97L309.67 124.97L307.38 128.55L305.72 128.55L305.72 124.97L304.18 124.97L304.18 128.55L302.52 128.55L300.23 124.97L298.6 124.97L301.29 129.07L298.37 133.45L300.2 133.45L302.53 129.86L304.18 129.86L304.18 133.45L305.72 133.45L305.72 129.86ZM316.22 134.3L320.33 124.97L318.82 124.97L315.89 131.75L312.93 124.97L311.34 124.97L315.08 133.43L314.81 134.02Q314.5 134.75 314.13 135.04Q314.07 135.08 314 135.12Q313.66 135.33 313.19 135.33Q312.83 135.33 312.51 135.23Q312.05 135.08 311.67 134.71L311.01 135.86Q311.4 136.25 311.98 136.45Q312.22 136.53 312.46 136.58Q312.82 136.65 313.19 136.65Q314.04 136.65 314.69 136.28Q314.82 136.21 314.94 136.12Q315.67 135.59 316.22 134.3ZM325.16 126.31L328.26 126.31L328.26 124.97L320.52 124.97L320.52 126.31L323.62 126.31L323.62 133.45L325.16 133.45L325.16 126.31ZM345.13 133.45L345.13 124.97L341.41 124.97Q339.67 124.97 338.68 125.73Q338.37 125.96 338.16 126.26Q337.69 126.94 337.69 127.94Q337.69 128.82 338.08 129.44Q338.14 129.52 338.2 129.6Q338.23 129.64 338.26 129.67Q338.76 130.28 339.67 130.55L337.61 133.45L339.25 133.45L341.11 130.76L343.75 130.76L343.75 133.45L345.13 133.45ZM372.9 129.81Q372.49 129.26 371.64 129.05Q372.21 128.82 372.56 128.4Q372.6 128.35 372.64 128.3Q372.73 128.18 372.8 128.04Q373 127.64 373 127.14Q373 126.6 372.77 126.19Q372.56 125.81 372.15 125.54Q371.3 124.97 369.8 124.97L365.86 124.97L365.86 133.45L369.94 133.45Q371.6 133.45 372.44 132.84Q372.79 132.59 372.99 132.26Q373.28 131.78 373.28 131.11Q373.28 130.32 372.9 129.81ZM394.89 133.45L394.89 124.97L393.45 124.97L390.02 130.69L386.69 124.97L385.11 124.97L385.11 133.45L386.52 133.45L386.52 127.24L389.65 132.49L390.32 132.49L393.49 127.26L393.49 133.45L394.89 133.45ZM399.41 124.97L397.88 124.97L397.88 133.45L399.28 133.45L404.47 127.27L404.47 133.45L406.01 133.45L406.01 124.97L404.61 124.97L399.41 131.14L399.41 124.97ZM430.07 126.31L433.17 126.31L433.17 124.97L425.43 124.97L425.43 126.31L428.53 126.31L428.53 133.45L430.07 133.45L430.07 126.31ZM441.78 129.81Q441.37 129.26 440.52 129.05Q441.09 128.82 441.44 128.4Q441.48 128.35 441.52 128.3Q441.61 128.18 441.68 128.04Q441.88 127.64 441.88 127.14Q441.88 126.6 441.65 126.19Q441.44 125.81 441.03 125.54Q440.18 124.97 438.68 124.97L434.74 124.97L434.74 133.45L438.82 133.45Q440.48 133.45 441.32 132.84Q441.67 132.59 441.87 132.26Q442.16 131.78 442.16 131.11Q442.16 130.32 441.78 129.81ZM457.48 126.31L460.58 126.31L460.58 124.97L452.84 124.97L452.84 126.31L455.94 126.31L455.94 133.45L457.48 133.45L457.48 126.31ZM468.81 133.45L468.81 124.97L465.09 124.97Q463.35 124.97 462.36 125.73Q462.05 125.96 461.84 126.26Q461.37 126.94 461.37 127.94Q461.37 128.82 461.76 129.44Q461.82 129.52 461.88 129.6Q461.91 129.64 461.94 129.67Q462.44 130.28 463.35 130.55L461.29 133.45L462.93 133.45L464.79 130.76L467.43 130.76L467.43 133.45L468.81 133.45ZM475.01 126.31L478.12 126.31L478.12 124.97L470.37 124.97L470.37 126.31L473.48 126.31L473.48 133.45L475.01 133.45L475.01 126.31ZM485.53 124.97L483.99 124.97L483.99 133.45L485.53 133.45L485.53 129.9L490.36 129.9L490.36 133.45L491.89 133.45L491.89 124.97L490.36 124.97L490.36 128.57L485.53 128.57L485.53 124.97ZM515.65 129.81Q515.24 129.26 514.39 129.05Q514.96 128.82 515.31 128.4Q515.35 128.35 515.39 128.3Q515.48 128.18 515.55 128.04Q515.75 127.64 515.75 127.14Q515.75 126.6 515.52 126.19Q515.31 125.81 514.9 125.54Q514.06 124.97 512.55 124.97L508.61 124.97L508.61 133.45L512.69 133.45Q514.36 133.45 515.2 132.84Q515.54 132.59 515.74 132.26Q516.04 131.78 516.04 131.11Q516.04 130.32 515.65 129.81ZM548.84 129.81Q548.43 129.26 547.58 129.05Q548.15 128.82 548.5 128.4Q548.54 128.35 548.57 128.3Q548.66 128.18 548.73 128.04Q548.93 127.64 548.93 127.14Q548.93 126.6 548.7 126.19Q548.49 125.81 548.09 125.54Q547.24 124.97 545.74 124.97L541.8 124.97L541.8 133.45L545.88 133.45Q547.54 133.45 548.38 132.84Q548.72 132.59 548.92 132.26Q549.22 131.78 549.22 131.11Q549.22 130.32 548.84 129.81ZM569.73 133.45L569.73 124.97L561.88 124.97L561.88 133.45L563.41 133.45L563.41 126.31L568.2 126.31L568.2 133.45L569.73 133.45ZM609.38 128.58Q608.53 127.86 606.93 127.85L604.65 127.83L604.65 124.97L603.11 124.97L603.11 133.45L606.68 133.46Q608.39 133.48 609.31 132.74Q609.59 132.51 609.79 132.22Q610.23 131.57 610.23 130.62Q610.23 129.67 609.78 129.03Q609.62 128.78 609.38 128.58ZM613.03 124.97L611.49 124.97L611.49 133.45L613.03 133.45L613.03 124.97ZM283.85 128.62L281.54 128.62L281.54 126.15L283.85 126.15Q285.07 126.15 285.46 126.72Q285.64 126.98 285.64 127.37Q285.64 127.73 285.48 127.99Q285.37 128.17 285.18 128.3Q284.73 128.62 283.85 128.62ZM369.67 128.62L367.37 128.62L367.37 126.15L369.67 126.15Q370.9 126.15 371.28 126.72Q371.46 126.98 371.46 127.37Q371.46 127.73 371.3 127.99Q371.19 128.17 371.01 128.3Q370.55 128.62 369.67 128.62ZM438.55 128.62L436.25 128.62L436.25 126.15L438.55 126.15Q439.78 126.15 440.16 126.72Q440.34 126.98 440.34 127.37Q440.34 127.73 440.18 127.99Q440.07 128.17 439.89 128.3Q439.43 128.62 438.55 128.62ZM512.42 128.62L510.12 128.62L510.12 126.15L512.42 126.15Q513.65 126.15 514.04 126.72Q514.21 126.98 514.21 127.37Q514.21 127.73 514.05 127.99Q513.94 128.17 513.76 128.3Q513.3 128.62 512.42 128.62ZM545.61 128.62L543.3 128.62L543.3 126.15L545.61 126.15Q546.83 126.15 547.22 126.72Q547.4 126.98 547.4 127.37Q547.4 127.73 547.24 127.99Q547.13 128.17 546.94 128.3Q546.49 128.62 545.61 128.62ZM446.69 126.5Q447.28 126.18 448.04 126.18Q448.77 126.18 449.34 126.48Q449.63 126.64 449.88 126.87Q450.16 127.11 450.35 127.42Q450.68 127.94 450.76 128.62L445.32 128.62Q445.4 127.87 445.78 127.32Q445.95 127.07 446.19 126.85Q446.42 126.64 446.69 126.5ZM529.57 126.5Q530.16 126.18 530.92 126.18Q531.65 126.18 532.22 126.48Q532.51 126.64 532.76 126.87Q533.03 127.11 533.23 127.42Q533.56 127.94 533.64 128.62L528.2 128.62Q528.28 127.87 528.66 127.32Q528.83 127.07 529.07 126.85Q529.3 126.64 529.57 126.5ZM421.74 131.96Q421.2 132.2 420.55 132.2Q419.89 132.2 419.34 131.95Q419.21 131.9 419.09 131.83Q418.84 131.69 418.64 131.5Q418.3 131.19 418.06 130.77Q418.05 130.75 418.04 130.73Q417.68 130.06 417.68 129.21Q417.68 128.34 418.05 127.67Q418.05 127.66 418.06 127.65Q418.3 127.21 418.66 126.9Q418.86 126.73 419.09 126.6Q419.19 126.54 419.3 126.49Q419.86 126.23 420.55 126.23Q421.22 126.23 421.78 126.48Q421.9 126.54 422.01 126.6Q422.26 126.74 422.47 126.93Q422.8 127.23 423.03 127.65Q423.4 128.33 423.4 129.21Q423.4 130.08 423.04 130.75Q423.03 130.76 423.03 130.77Q422.81 131.17 422.49 131.47Q422.27 131.67 422.01 131.83Q421.88 131.9 421.74 131.96ZM556.44 131.96Q555.9 132.2 555.25 132.2Q554.59 132.2 554.04 131.95Q553.91 131.9 553.79 131.83Q553.55 131.69 553.34 131.5Q553 131.19 552.76 130.77Q552.75 130.75 552.74 130.73Q552.39 130.06 552.39 129.21Q552.39 128.34 552.75 127.67Q552.76 127.66 552.76 127.65Q553.01 127.21 553.37 126.9Q553.56 126.73 553.79 126.6Q553.89 126.54 554 126.49Q554.57 126.23 555.25 126.23Q555.92 126.23 556.48 126.48Q556.6 126.54 556.71 126.6Q556.96 126.74 557.17 126.93Q557.5 127.23 557.73 127.65Q558.1 128.33 558.1 129.21Q558.1 130.08 557.74 130.75Q557.74 130.76 557.73 130.77Q557.51 131.17 557.19 131.47Q556.98 131.67 556.71 131.83Q556.58 131.9 556.44 131.96ZM578.29 131.95Q577.74 132.2 577.08 132.2Q576.5 132.2 576 132.01Q575.81 131.93 575.62 131.83Q575.33 131.66 575.1 131.44Q574.8 131.15 574.6 130.77Q574.23 130.09 574.23 129.21Q574.23 128.33 574.6 127.66Q574.83 127.26 575.15 126.96Q575.37 126.76 575.63 126.61Q575.79 126.51 575.97 126.44Q576.48 126.23 577.08 126.23Q577.76 126.23 578.33 126.49Q578.44 126.54 578.54 126.6Q578.78 126.73 578.98 126.91Q579.33 127.21 579.57 127.65L579.58 127.67Q579.94 128.34 579.94 129.21Q579.94 130.06 579.59 130.73Q579.58 130.75 579.57 130.77Q579.33 131.19 579 131.49Q578.79 131.68 578.54 131.83Q578.42 131.9 578.29 131.95ZM588.54 131.96Q588 132.2 587.35 132.2Q586.69 132.2 586.14 131.95Q586.01 131.9 585.89 131.83Q585.64 131.69 585.44 131.5Q585.1 131.19 584.86 130.77Q584.85 130.75 584.84 130.73Q584.48 130.06 584.48 129.21Q584.48 128.34 584.85 127.67L584.86 127.65Q585.1 127.21 585.46 126.9Q585.66 126.73 585.89 126.6Q585.99 126.54 586.1 126.49Q586.66 126.23 587.35 126.23Q588.02 126.23 588.58 126.48Q588.7 126.54 588.81 126.6Q589.06 126.74 589.27 126.93Q589.6 127.23 589.83 127.65Q590.2 128.33 590.2 129.21Q590.2 130.08 589.84 130.75L589.83 130.77Q589.61 131.17 589.29 131.47Q589.07 131.67 588.81 131.83Q588.68 131.9 588.54 131.96ZM291.11 129.04Q290.79 128.65 290.79 127.99Q290.79 127.38 291.08 126.99Q291.6 126.31 293 126.31L295.28 126.31L295.28 129.66L292.93 129.66Q291.86 129.66 291.32 129.25Q291.2 129.16 291.11 129.04ZM339.57 129.04Q339.25 128.65 339.25 127.99Q339.25 127.38 339.55 126.99Q340.06 126.31 341.46 126.31L343.75 126.31L343.75 129.66L341.4 129.66Q340.33 129.66 339.79 129.25Q339.67 129.16 339.57 129.04ZM463.25 129.04Q462.93 128.65 462.93 127.99Q462.93 127.38 463.23 126.99Q463.74 126.31 465.14 126.31L467.43 126.31L467.43 129.66L465.08 129.66Q464.01 129.66 463.47 129.25Q463.35 129.16 463.25 129.04ZM608.14 131.88Q607.61 132.31 606.57 132.3L604.65 132.28L604.65 128.95L606.57 128.98Q607.62 129 608.15 129.39Q608.27 129.47 608.36 129.58Q608.68 129.95 608.68 130.6Q608.68 131.25 608.36 131.66Q608.27 131.78 608.14 131.88ZM379.88 131.97Q379.24 132.36 378.36 132.36Q377.48 132.36 376.98 131.99Q376.76 131.82 376.63 131.6Q376.49 131.33 376.49 130.98Q376.49 130.57 376.68 130.29Q377.09 129.67 378.44 129.67L380.81 129.67L380.81 130.85Q380.64 131.28 380.34 131.59Q380.14 131.81 379.88 131.97ZM499.08 131.97Q498.44 132.36 497.56 132.36Q496.68 132.36 496.18 131.99Q495.96 131.82 495.83 131.6Q495.69 131.33 495.69 130.98Q495.69 130.57 495.88 130.29Q496.29 129.67 497.64 129.67L500.01 129.67L500.01 130.85Q499.84 131.28 499.54 131.59Q499.34 131.81 499.08 131.97ZM285.44 131.96Q284.96 132.26 284.01 132.26L281.54 132.26L281.54 129.72L284.1 129.72Q285.04 129.72 285.48 130.04Q285.61 130.13 285.7 130.25Q285.92 130.54 285.92 131.01Q285.92 131.42 285.74 131.69Q285.62 131.85 285.44 131.96ZM371.27 131.96Q370.79 132.26 369.83 132.26L367.37 132.26L367.37 129.72L369.92 129.72Q370.87 129.72 371.31 130.04Q371.43 130.13 371.52 130.25Q371.75 130.54 371.75 131.01Q371.75 131.42 371.56 131.69Q371.45 131.85 371.27 131.96ZM440.15 131.96Q439.67 132.26 438.71 132.26L436.25 132.26L436.25 129.72L438.8 129.72Q439.75 129.72 440.19 130.04Q440.31 130.13 440.4 130.25Q440.63 130.54 440.63 131.01Q440.63 131.42 440.44 131.69Q440.33 131.85 440.15 131.96ZM514.02 131.96Q513.54 132.26 512.58 132.26L510.12 132.26L510.12 129.72L512.68 129.72Q513.62 129.72 514.06 130.04Q514.18 130.13 514.27 130.25Q514.5 130.54 514.5 131.01Q514.5 131.42 514.31 131.69Q514.2 131.85 514.02 131.96ZM547.2 131.96Q546.72 132.26 545.77 132.26L543.3 132.26L543.3 129.72L545.86 129.72Q546.81 129.72 547.24 130.04Q547.37 130.13 547.46 130.25Q547.68 130.54 547.68 131.01Q547.68 131.42 547.5 131.69Q547.38 131.85 547.2 131.96ZM409.8 131.45Q409.59 131.35 409.33 131.35Q409.04 131.35 408.81 131.47Q408.68 131.54 408.56 131.66Q408.47 131.75 408.41 131.86Q408.26 132.11 408.26 132.44Q408.26 132.7 408.36 132.91Q408.4 132.99 408.45 133.06Q408.53 133.18 408.64 133.26Q408.77 133.37 408.94 133.43L408.34 135.82L409.35 135.82L410.1 133.59Q410.26 133.13 410.32 132.91Q410.32 132.88 410.33 132.86Q410.37 132.65 410.37 132.44Q410.37 132.14 410.25 131.91Q410.18 131.78 410.08 131.66Q409.95 131.53 409.8 131.45ZM324.17 151.67Q323.33 151.26 322.28 151.26Q321.29 151.26 320.48 151.64Q320.41 151.67 320.34 151.71Q319.94 151.91 319.61 152.2Q319.23 152.53 318.93 152.97Q319.04 151.32 319.86 150.44Q320.68 149.56 322.34 149.19L325.91 148.42L325.68 147.01L321.81 147.88Q319.87 148.3 318.8 149.5Q318.66 149.66 318.53 149.84Q317.46 151.32 317.46 153.93Q317.46 156.62 318.64 158.1Q319.02 158.58 319.51 158.91Q320.52 159.58 321.97 159.58Q323.25 159.58 324.25 159.05Q324.86 158.73 325.3 158.26Q325.59 157.95 325.81 157.57Q325.86 157.47 325.91 157.37Q326.36 156.49 326.36 155.39Q326.36 154.25 325.89 153.35Q325.86 153.3 325.84 153.25Q325.57 152.77 325.2 152.4Q324.84 152.04 324.39 151.78Q324.28 151.72 324.17 151.67ZM469.65 149.3Q470.31 149.87 471.49 149.87Q472.66 149.87 473.33 149.3Q473.49 149.17 473.6 149.02Q474.01 148.49 474.02 147.66L472.95 147.66Q472.94 148.04 472.76 148.33Q472.67 148.48 472.53 148.61Q472.48 148.66 472.42 148.7Q472.04 148.97 471.48 148.97Q470.9 148.97 470.53 148.69Q470.48 148.65 470.43 148.61Q470.3 148.49 470.22 148.36Q470.03 148.06 470.02 147.66L468.98 147.66Q469 148.52 469.42 149.06Q469.53 149.19 469.65 149.3ZM298.78 159.13Q299.68 159.55 300.77 159.55Q301.87 159.55 302.77 159.13Q302.9 159.06 303.04 158.99Q303.57 158.69 303.98 158.26Q304.34 157.9 304.6 157.44Q304.7 157.27 304.78 157.09Q305.17 156.24 305.17 155.21Q305.17 154.16 304.77 153.3Q304.69 153.13 304.6 152.98Q304.33 152.5 303.96 152.13Q303.55 151.73 303.04 151.44Q302.92 151.38 302.81 151.32Q301.9 150.89 300.77 150.89Q299.66 150.89 298.74 151.32Q298.62 151.38 298.5 151.44Q297.96 151.73 297.55 152.15Q297.19 152.52 296.92 152.98Q296.84 153.12 296.76 153.28Q296.36 154.15 296.36 155.21Q296.36 156.25 296.75 157.11Q296.83 157.28 296.92 157.44Q297.18 157.88 297.52 158.24Q297.95 158.68 298.5 158.99Q298.64 159.06 298.78 159.13ZM336.18 155.72Q336.21 155.43 336.21 155.26Q336.21 153.99 335.69 153Q335.68 152.99 335.68 152.98Q335.36 152.41 334.91 151.98Q334.59 151.67 334.19 151.44Q334.06 151.36 333.92 151.3Q333.07 150.89 332.02 150.89Q331.01 150.89 330.17 151.27Q330 151.35 329.84 151.44Q329.43 151.67 329.1 151.98Q328.64 152.41 328.32 152.98Q328.22 153.16 328.14 153.34Q327.76 154.19 327.76 155.21Q327.76 156.23 328.15 157.09Q328.23 157.27 328.33 157.45Q328.56 157.85 328.87 158.18Q329.32 158.67 329.94 159Q330.98 159.55 332.32 159.55Q333.38 159.55 334.24 159.19Q334.85 158.94 335.32 158.52Q335.5 158.36 335.67 158.17L334.82 157.17Q334.49 157.54 334.08 157.78Q333.35 158.2 332.37 158.2Q331.36 158.2 330.61 157.75Q330.44 157.65 330.28 157.52Q329.92 157.23 329.69 156.86Q329.38 156.36 329.3 155.72L336.18 155.72ZM345.04 151.3Q344.16 150.89 343.09 150.89Q342.17 150.89 341.4 151.23Q341.38 151.24 341.36 151.25Q341.01 151.41 340.71 151.65Q340.35 151.93 340.07 152.31L340.07 150.97L338.6 150.97L338.6 162.55L340.13 162.55L340.13 158.17Q340.45 158.57 340.84 158.85Q341.11 159.05 341.42 159.19Q341.46 159.21 341.5 159.23Q342.23 159.55 343.09 159.55Q344.16 159.55 345.04 159.14Q345.17 159.07 345.3 159Q345.76 158.74 346.13 158.39Q346.54 157.99 346.83 157.47Q346.85 157.43 346.87 157.39Q347.38 156.44 347.38 155.21Q347.38 153.95 346.84 152.98Q346.84 152.97 346.83 152.95Q346.55 152.45 346.15 152.07Q345.78 151.7 345.3 151.43Q345.17 151.36 345.04 151.3ZM383.22 159.13Q384.12 159.55 385.21 159.55Q386.3 159.55 387.2 159.13Q387.34 159.06 387.47 158.99Q388 158.69 388.42 158.26Q388.77 157.9 389.04 157.44Q389.13 157.27 389.21 157.09Q389.61 156.24 389.61 155.21Q389.61 154.16 389.2 153.3Q389.13 153.13 389.04 152.98Q388.76 152.5 388.39 152.13Q387.99 151.73 387.47 151.44Q387.36 151.38 387.24 151.32Q386.33 150.89 385.21 150.89Q384.09 150.89 383.17 151.32Q383.05 151.38 382.93 151.44Q382.4 151.73 381.98 152.15Q381.62 152.52 381.36 152.98Q381.27 153.12 381.2 153.28Q380.79 154.15 380.79 155.21Q380.79 156.25 381.19 157.11Q381.26 157.28 381.36 157.44Q381.61 157.88 381.96 158.24Q382.38 158.68 382.93 158.99Q383.07 159.06 383.22 159.13ZM412.4 159.13Q413.3 159.55 414.39 159.55Q415.49 159.55 416.38 159.13Q416.52 159.06 416.65 158.99Q417.19 158.69 417.6 158.26Q417.96 157.9 418.22 157.44Q418.32 157.27 418.4 157.09Q418.79 156.24 418.79 155.21Q418.79 154.16 418.39 153.3Q418.31 153.13 418.22 152.98Q417.95 152.5 417.57 152.13Q417.17 151.73 416.65 151.44Q416.54 151.38 416.43 151.32Q415.51 150.89 414.39 150.89Q413.27 150.89 412.36 151.32Q412.24 151.38 412.12 151.44Q411.58 151.73 411.17 152.15Q410.81 152.52 410.54 152.98Q410.45 153.12 410.38 153.28Q409.97 154.15 409.97 155.21Q409.97 156.25 410.37 157.11Q410.45 157.28 410.54 157.44Q410.8 157.88 411.14 158.24Q411.56 158.68 412.12 158.99Q412.26 159.06 412.4 159.13ZM498.48 151.75Q497.54 150.89 495.78 150.89Q494.76 150.89 493.84 151.17Q492.93 151.45 492.28 151.98L492.92 153.13Q493.41 152.71 494.13 152.47Q494.62 152.3 495.12 152.24Q495.36 152.22 495.61 152.22Q496.73 152.22 497.3 152.75Q497.39 152.83 497.47 152.93Q497.88 153.43 497.88 154.26L497.88 154.57L495.45 154.57Q493.67 154.57 492.86 155.25Q492.51 155.54 492.31 155.91Q492.04 156.41 492.04 157.05Q492.04 157.63 492.27 158.1Q492.49 158.53 492.89 158.86Q493.75 159.55 495.18 159.55Q496.15 159.55 496.86 159.23Q497.42 158.99 497.78 158.56Q497.88 158.45 497.96 158.33L497.96 159.45L499.41 159.45L499.41 154.33Q499.41 152.77 498.64 151.92Q498.56 151.83 498.48 151.75ZM508.63 151.3Q507.75 150.89 506.68 150.89Q505.75 150.89 504.98 151.23Q504.97 151.24 504.95 151.25Q504.59 151.41 504.29 151.65Q503.93 151.93 503.65 152.31L503.65 150.97L502.18 150.97L502.18 162.55L503.72 162.55L503.72 158.17Q504.03 158.57 504.43 158.85Q504.69 159.05 505 159.19Q505.04 159.21 505.08 159.23Q505.81 159.55 506.68 159.55Q507.75 159.55 508.63 159.14Q508.76 159.07 508.89 159Q509.35 158.74 509.71 158.39Q510.12 157.99 510.41 157.47Q510.43 157.43 510.45 157.39Q510.96 156.44 510.96 155.21Q510.96 153.95 510.43 152.98Q510.42 152.97 510.41 152.95Q510.13 152.45 509.74 152.07Q509.36 151.7 508.89 151.43Q508.76 151.36 508.63 151.3ZM530.01 151.75Q529.08 150.89 527.32 150.89Q526.29 150.89 525.38 151.17Q524.47 151.45 523.81 151.98L524.45 153.13Q524.95 152.71 525.67 152.47Q526.16 152.3 526.66 152.24Q526.9 152.22 527.14 152.22Q528.26 152.22 528.84 152.75Q528.93 152.83 529.01 152.93Q529.42 153.43 529.42 154.26L529.42 154.57L526.98 154.57Q525.21 154.57 524.39 155.25Q524.04 155.54 523.84 155.91Q523.58 156.41 523.58 157.05Q523.58 157.63 523.81 158.1Q524.02 158.53 524.43 158.86Q525.29 159.55 526.71 159.55Q527.68 159.55 528.4 159.23Q528.96 158.99 529.32 158.56Q529.41 158.45 529.49 158.33L529.49 159.45L530.95 159.45L530.95 154.33Q530.95 152.77 530.18 151.92Q530.1 151.83 530.01 151.75ZM272.44 150.97L270.9 150.97L270.9 159.45L272.31 159.45L277.49 153.27L277.49 159.45L279.03 159.45L279.03 150.97L277.64 150.97L272.44 157.14L272.44 150.97ZM294.17 159.45L294.17 150.97L286.31 150.97L286.31 159.45L287.85 159.45L287.85 152.31L292.63 152.31L292.63 159.45L294.17 159.45ZM315.96 161.42L315.96 158.1L314.66 158.1L314.66 150.97L308.08 150.97L307.96 153.83Q307.85 155.85 307.54 156.95Q307.32 157.76 306.82 158Q306.64 158.09 306.42 158.1L305.97 158.1L305.97 161.42L307.43 161.42L307.43 159.45L314.52 159.45L314.52 161.42L315.96 161.42ZM352.82 160.3L356.94 150.97L355.43 150.97L352.5 157.75L349.54 150.97L347.94 150.97L351.69 159.43L351.42 160.02Q351.11 160.75 350.73 161.04Q350.67 161.08 350.61 161.12Q350.27 161.33 349.8 161.33Q349.44 161.33 349.12 161.23Q348.66 161.08 348.28 160.71L347.62 161.86Q348.01 162.25 348.59 162.45Q348.83 162.53 349.07 162.58Q349.43 162.65 349.8 162.65Q350.65 162.65 351.29 162.28Q351.43 162.21 351.55 162.12Q352.28 161.59 352.82 160.3ZM361.76 152.31L364.87 152.31L364.87 150.97L357.12 150.97L357.12 152.31L360.23 152.31L360.23 159.45L361.76 159.45L361.76 152.31ZM378.6 159.45L378.6 150.97L370.74 150.97L370.74 159.45L372.28 159.45L372.28 152.31L377.06 152.31L377.06 159.45L378.6 159.45ZM400.39 161.42L400.39 158.1L399.09 158.1L399.09 150.97L392.52 150.97L392.39 153.83Q392.28 155.85 391.97 156.95Q391.75 157.76 391.25 158Q391.07 158.09 390.85 158.1L390.41 158.1L390.41 161.42L391.86 161.42L391.86 159.45L398.95 159.45L398.95 161.42L400.39 161.42ZM405.24 156.2L407.69 159.45L409.43 159.45L406.05 155.11L409.26 150.97L407.58 150.97L405.26 154.02L402.92 150.97L401.21 150.97L404.39 155.11L401.05 159.45L402.76 159.45L405.24 156.2ZM429.58 161.42L429.58 158.1L428.28 158.1L428.28 150.97L421.7 150.97L421.58 153.83Q421.46 155.85 421.16 156.95Q420.93 157.76 420.43 158Q420.25 158.09 420.04 158.1L419.59 158.1L419.59 161.42L421.05 161.42L421.05 159.45L428.13 159.45L428.13 161.42L429.58 161.42ZM438.37 159.45L438.37 150.97L434.66 150.97Q432.92 150.97 431.93 151.73Q431.62 151.96 431.41 152.26Q430.93 152.94 430.93 153.94Q430.93 154.82 431.33 155.44Q431.38 155.52 431.45 155.6Q431.47 155.64 431.5 155.67Q432.01 156.28 432.92 156.55L430.86 159.45L432.5 159.45L434.36 156.76L437 156.76L437 159.45L438.37 159.45ZM453.44 158.1L453.44 150.97L451.91 150.97L451.91 158.1L448.18 158.1L448.18 150.97L446.65 150.97L446.65 158.1L442.9 158.1L442.9 150.97L441.37 150.97L441.37 159.45L453.27 159.45L453.27 161.26L454.71 161.26L454.71 158.1L453.44 158.1ZM457.96 150.97L456.42 150.97L456.42 159.45L457.83 159.45L463.01 153.27L463.01 159.45L464.55 159.45L464.55 150.97L463.16 150.97L457.96 157.14L457.96 150.97ZM469.06 150.97L467.53 150.97L467.53 159.45L468.93 159.45L474.12 153.27L474.12 159.45L475.66 159.45L475.66 150.97L474.26 150.97L469.06 157.14L469.06 150.97ZM489.98 155.81Q489.56 155.26 488.71 155.05Q489.29 154.82 489.63 154.4Q489.67 154.35 489.71 154.3Q489.8 154.18 489.87 154.04Q490.07 153.64 490.07 153.14Q490.07 152.6 489.84 152.19Q489.63 151.81 489.22 151.54Q488.38 150.97 486.87 150.97L482.93 150.97L482.93 159.45L487.01 159.45Q488.68 159.45 489.52 158.84Q489.86 158.59 490.06 158.26Q490.36 157.78 490.36 157.11Q490.36 156.32 489.98 155.81ZM514.73 150.97L513.19 150.97L513.19 159.45L514.6 159.45L519.78 153.27L519.78 159.45L521.32 159.45L521.32 150.97L519.92 150.97L514.73 157.14L514.73 150.97ZM535.25 150.97L533.72 150.97L533.72 159.45L535.25 159.45L535.25 155.9L540.09 155.9L540.09 159.45L541.62 159.45L541.62 150.97L540.09 150.97L540.09 154.57L535.25 154.57L535.25 150.97ZM547.83 152.31L550.93 152.31L550.93 150.97L543.19 150.97L543.19 152.31L546.29 152.31L546.29 159.45L547.83 159.45L547.83 152.31ZM486.74 154.62L484.44 154.62L484.44 152.15L486.74 152.15Q487.97 152.15 488.36 152.72Q488.54 152.98 488.54 153.37Q488.54 153.73 488.37 153.99Q488.26 154.17 488.08 154.3Q487.62 154.62 486.74 154.62ZM330.68 152.5Q331.27 152.18 332.02 152.18Q332.75 152.18 333.33 152.48Q333.62 152.64 333.87 152.87Q334.14 153.11 334.33 153.42Q334.66 153.94 334.74 154.62L329.3 154.62Q329.39 153.87 329.76 153.32Q329.94 153.07 330.17 152.85Q330.41 152.64 330.68 152.5ZM301.96 157.96Q301.42 158.2 300.77 158.2Q300.11 158.2 299.56 157.95Q299.43 157.9 299.31 157.83Q299.07 157.69 298.86 157.5Q298.52 157.19 298.28 156.77Q298.27 156.75 298.26 156.73Q297.91 156.06 297.91 155.21Q297.91 154.34 298.27 153.67Q298.28 153.66 298.28 153.65Q298.53 153.21 298.89 152.9Q299.08 152.73 299.31 152.6Q299.41 152.54 299.52 152.49Q300.09 152.23 300.77 152.23Q301.44 152.23 302 152.48Q302.12 152.53 302.24 152.6Q302.48 152.74 302.69 152.93Q303.02 153.23 303.25 153.65Q303.62 154.33 303.62 155.21Q303.62 156.08 303.26 156.75Q303.26 156.76 303.25 156.77Q303.03 157.17 302.71 157.47Q302.5 157.67 302.24 157.83Q302.1 157.9 301.96 157.96ZM344.18 157.95Q343.63 158.2 342.97 158.2Q342.39 158.2 341.89 158.01Q341.69 157.93 341.51 157.83Q341.22 157.66 340.99 157.44Q340.69 157.15 340.48 156.77Q340.12 156.09 340.12 155.21Q340.12 154.33 340.49 153.66Q340.72 153.25 341.04 152.96Q341.25 152.76 341.52 152.61Q341.68 152.51 341.86 152.44Q342.37 152.23 342.97 152.23Q343.65 152.23 344.22 152.49Q344.33 152.54 344.43 152.6Q344.67 152.73 344.86 152.91Q345.21 153.21 345.45 153.65Q345.46 153.66 345.46 153.67Q345.83 154.34 345.83 155.21Q345.83 156.06 345.47 156.73Q345.46 156.75 345.45 156.77Q345.22 157.19 344.89 157.49Q344.68 157.68 344.43 157.83Q344.31 157.9 344.18 157.95ZM386.4 157.96Q385.85 158.2 385.21 158.2Q384.54 158.2 383.99 157.95Q383.86 157.9 383.74 157.83Q383.5 157.69 383.3 157.5Q382.95 157.19 382.71 156.77Q382.7 156.75 382.69 156.73Q382.34 156.06 382.34 155.21Q382.34 154.34 382.7 153.67Q382.71 153.66 382.71 153.65Q382.96 153.21 383.32 152.9Q383.51 152.73 383.74 152.6Q383.85 152.54 383.95 152.49Q384.52 152.23 385.21 152.23Q385.88 152.23 386.43 152.48Q386.55 152.53 386.67 152.6Q386.92 152.74 387.12 152.93Q387.46 153.23 387.68 153.65Q388.05 154.33 388.05 155.21Q388.05 156.08 387.69 156.75Q387.69 156.76 387.68 156.77Q387.46 157.17 387.15 157.47Q386.93 157.67 386.67 157.83Q386.54 157.9 386.4 157.96ZM415.58 157.96Q415.04 158.2 414.39 158.2Q413.73 158.2 413.18 157.95Q413.05 157.9 412.93 157.83Q412.68 157.69 412.48 157.5Q412.14 157.19 411.9 156.77Q411.89 156.75 411.88 156.73Q411.52 156.06 411.52 155.21Q411.52 154.34 411.89 153.67Q411.89 153.66 411.9 153.65Q412.14 153.21 412.5 152.9Q412.7 152.73 412.93 152.6Q413.03 152.54 413.14 152.49Q413.7 152.23 414.39 152.23Q415.06 152.23 415.62 152.48Q415.74 152.53 415.85 152.6Q416.1 152.74 416.31 152.93Q416.64 153.23 416.87 153.65Q417.24 154.33 417.24 155.21Q417.24 156.08 416.88 156.75Q416.87 156.76 416.87 156.77Q416.65 157.17 416.33 157.47Q416.11 157.67 415.85 157.83Q415.72 157.9 415.58 157.96ZM507.76 157.95Q507.21 158.2 506.55 158.2Q505.98 158.2 505.48 158.01Q505.28 157.93 505.09 157.83Q504.81 157.66 504.58 157.44Q504.28 157.15 504.07 156.77Q503.7 156.09 503.7 155.21Q503.7 154.33 504.08 153.66Q504.3 153.25 504.62 152.96Q504.84 152.76 505.1 152.61Q505.27 152.51 505.44 152.44Q505.95 152.23 506.55 152.23Q507.24 152.23 507.8 152.49Q507.91 152.54 508.01 152.6Q508.25 152.73 508.45 152.91Q508.8 153.21 509.04 153.65Q509.04 153.66 509.05 153.67Q509.41 154.34 509.41 155.21Q509.41 156.06 509.06 156.73Q509.05 156.75 509.04 156.77Q508.81 157.19 508.47 157.49Q508.26 157.68 508.01 157.83Q507.89 157.9 507.76 157.95ZM309.1 156.59Q309.3 155.55 309.37 153.94L309.45 152.31L313.13 152.31L313.13 158.1L308.37 158.1Q308.9 157.64 309.1 156.59ZM393.53 156.59Q393.73 155.55 393.8 153.94L393.88 152.31L397.56 152.31L397.56 158.1L392.81 158.1Q393.33 157.64 393.53 156.59ZM422.72 156.59Q422.92 155.55 422.98 153.94L423.06 152.31L426.74 152.31L426.74 158.1L421.99 158.1Q422.52 157.64 422.72 156.59ZM432.82 155.04Q432.5 154.65 432.5 153.99Q432.5 153.38 432.8 152.99Q433.31 152.31 434.71 152.31L437 152.31L437 155.66L434.64 155.66Q433.57 155.66 433.04 155.25Q432.92 155.16 432.82 155.04ZM323.31 158Q322.73 158.3 322 158.3Q321.37 158.3 320.83 158.06Q320.69 158 320.56 157.93Q320.27 157.76 320.04 157.53Q319.76 157.26 319.56 156.91Q319.54 156.87 319.52 156.83Q319.2 156.21 319.2 155.43Q319.2 154.49 319.63 153.83Q319.78 153.6 319.98 153.4Q320.2 153.19 320.45 153.03Q321.11 152.63 322 152.63Q322.92 152.63 323.58 153.04Q323.82 153.2 324.02 153.4Q324.21 153.59 324.35 153.81Q324.79 154.48 324.79 155.43Q324.79 156.24 324.46 156.88Q324.45 156.89 324.44 156.91Q324.25 157.25 323.99 157.52Q323.75 157.75 323.45 157.93Q323.38 157.97 323.31 158ZM496.95 157.97Q496.31 158.36 495.43 158.36Q494.55 158.36 494.06 157.99Q493.83 157.82 493.71 157.6Q493.56 157.33 493.56 156.98Q493.56 156.57 493.75 156.29Q494.17 155.67 495.51 155.67L497.88 155.67L497.88 156.85Q497.71 157.28 497.41 157.59Q497.21 157.81 496.95 157.97ZM528.49 157.97Q527.84 158.36 526.97 158.36Q526.09 158.36 525.59 157.99Q525.37 157.82 525.24 157.6Q525.09 157.33 525.09 156.98Q525.09 156.57 525.28 156.29Q525.7 155.67 527.05 155.67L529.42 155.67L529.42 156.85Q529.24 157.28 528.95 157.59Q528.75 157.81 528.49 157.97ZM488.34 157.96Q487.86 158.26 486.9 158.26L484.44 158.26L484.44 155.72L487 155.72Q487.94 155.72 488.38 156.04Q488.5 156.13 488.59 156.25Q488.82 156.54 488.82 157.01Q488.82 157.42 488.63 157.69Q488.52 157.85 488.34 157.96ZM287.37 177.67Q286.53 177.26 285.48 177.26Q284.49 177.26 283.68 177.64Q283.61 177.67 283.54 177.71Q283.14 177.91 282.81 178.2Q282.43 178.53 282.13 178.97Q282.24 177.32 283.06 176.44Q283.88 175.56 285.54 175.19L289.11 174.42L288.88 173.01L285.01 173.88Q283.07 174.3 282 175.5Q281.86 175.66 281.73 175.84Q280.66 177.32 280.66 179.93Q280.66 182.62 281.84 184.1Q282.22 184.58 282.71 184.91Q283.72 185.58 285.17 185.58Q286.46 185.58 287.46 185.05Q288.06 184.73 288.5 184.26Q288.79 183.95 289.01 183.57Q289.06 183.47 289.11 183.37Q289.56 182.49 289.56 181.39Q289.56 180.25 289.09 179.35Q289.06 179.3 289.04 179.25Q288.77 178.77 288.4 178.4Q288.04 178.04 287.59 177.78Q287.48 177.72 287.37 177.67ZM272.54 185.13Q273.44 185.55 274.53 185.55Q275.63 185.55 276.53 185.13Q276.66 185.06 276.8 184.99Q277.33 184.69 277.74 184.26Q278.1 183.9 278.36 183.44Q278.46 183.27 278.54 183.09Q278.93 182.24 278.93 181.21Q278.93 180.16 278.53 179.3Q278.45 179.13 278.36 178.98Q278.09 178.5 277.72 178.13Q277.31 177.73 276.8 177.44Q276.68 177.38 276.57 177.32Q275.66 176.89 274.53 176.89Q273.42 176.89 272.5 177.32Q272.38 177.38 272.26 177.44Q271.72 177.73 271.31 178.15Q270.95 178.52 270.68 178.98Q270.6 179.12 270.52 179.28Q270.12 180.15 270.12 181.21Q270.12 182.25 270.51 183.11Q270.59 183.28 270.68 183.44Q270.94 183.88 271.28 184.24Q271.71 184.68 272.26 184.99Q272.4 185.06 272.54 185.13ZM318.02 181.72Q318.05 181.43 318.05 181.26Q318.05 179.99 317.53 179Q317.52 178.99 317.51 178.98Q317.2 178.41 316.75 177.98Q316.43 177.67 316.03 177.44Q315.9 177.36 315.76 177.3Q314.91 176.89 313.86 176.89Q312.85 176.89 312.01 177.27Q311.84 177.35 311.68 177.44Q311.27 177.67 310.94 177.98Q310.48 178.41 310.16 178.98Q310.06 179.16 309.98 179.34Q309.6 180.19 309.6 181.21Q309.6 182.23 309.99 183.09Q310.07 183.27 310.17 183.45Q310.4 183.85 310.71 184.18Q311.16 184.67 311.78 185Q312.82 185.55 314.16 185.55Q315.22 185.55 316.08 185.19Q316.69 184.94 317.16 184.52Q317.34 184.36 317.51 184.17L316.66 183.17Q316.33 183.54 315.92 183.78Q315.19 184.2 314.21 184.2Q313.2 184.2 312.45 183.75Q312.28 183.65 312.12 183.52Q311.76 183.23 311.53 182.86Q311.22 182.36 311.14 181.72L318.02 181.72ZM294.97 186.3L299.08 176.97L297.58 176.97L294.65 183.75L291.69 176.97L290.09 176.97L293.83 185.43L293.56 186.02Q293.26 186.75 292.88 187.04Q292.82 187.08 292.75 187.12Q292.41 187.33 291.94 187.33Q291.58 187.33 291.26 187.23Q290.81 187.08 290.42 186.71L289.77 187.86Q290.15 188.25 290.73 188.45Q290.97 188.53 291.22 188.58Q291.57 188.65 291.94 188.65Q292.79 188.65 293.44 188.28Q293.57 188.21 293.69 188.12Q294.42 187.59 294.97 186.3ZM307.42 185.45L307.42 176.97L305.88 176.97L305.88 180.84Q304.58 181.4 303.46 181.4Q302.47 181.4 301.92 180.95Q301.79 180.85 301.69 180.73Q301.36 180.3 301.36 179.62L301.36 176.97L299.83 176.97L299.83 179.72Q299.83 180.95 300.44 181.67Q300.55 181.81 300.69 181.93Q301.56 182.66 303.14 182.66Q304.5 182.66 305.88 182.02L305.88 185.45L307.42 185.45ZM321.97 176.97L320.44 176.97L320.44 185.45L321.97 185.45L321.97 181.9L326.81 181.9L326.81 185.45L328.34 185.45L328.34 176.97L326.81 176.97L326.81 180.57L321.97 180.57L321.97 176.97ZM332.87 176.97L331.33 176.97L331.33 185.45L332.74 185.45L337.92 179.27L337.92 185.45L339.46 185.45L339.46 176.97L338.07 176.97L332.87 183.14L332.87 176.97ZM349.24 185.45L349.24 176.97L345.52 176.97Q343.78 176.97 342.79 177.73Q342.48 177.96 342.27 178.26Q341.8 178.94 341.8 179.94Q341.8 180.82 342.19 181.44Q342.25 181.52 342.31 181.6Q342.34 181.64 342.37 181.67Q342.87 182.28 343.78 182.55L341.72 185.45L343.36 185.45L345.22 182.76L347.86 182.76L347.86 185.45L349.24 185.45ZM312.52 178.5Q313.11 178.18 313.86 178.18Q314.59 178.18 315.17 178.48Q315.46 178.64 315.71 178.87Q315.98 179.11 316.17 179.42Q316.5 179.94 316.58 180.62L311.14 180.62Q311.23 179.87 311.6 179.32Q311.78 179.07 312.01 178.85Q312.25 178.64 312.52 178.5ZM275.72 183.96Q275.18 184.2 274.53 184.2Q273.87 184.2 273.32 183.95Q273.19 183.9 273.07 183.83Q272.83 183.69 272.62 183.5Q272.28 183.19 272.04 182.77Q272.03 182.75 272.02 182.73Q271.67 182.06 271.67 181.21Q271.67 180.34 272.03 179.67Q272.04 179.66 272.04 179.65Q272.29 179.21 272.65 178.9Q272.84 178.73 273.07 178.6Q273.17 178.54 273.28 178.49Q273.85 178.23 274.53 178.23Q275.2 178.23 275.76 178.48Q275.88 178.54 276 178.6Q276.24 178.74 276.45 178.93Q276.78 179.23 277.01 179.65Q277.38 180.33 277.38 181.21Q277.38 182.08 277.02 182.75Q277.02 182.76 277.01 182.77Q276.79 183.17 276.47 183.47Q276.26 183.67 276 183.83Q275.86 183.9 275.72 183.96ZM343.69 181.04Q343.36 180.65 343.36 179.99Q343.36 179.38 343.66 178.99Q344.17 178.31 345.57 178.31L347.86 178.31L347.86 181.66L345.51 181.66Q344.44 181.66 343.9 181.25Q343.78 181.16 343.69 181.04ZM286.51 184.01Q285.93 184.3 285.21 184.3Q284.57 184.3 284.03 184.06Q283.89 184 283.76 183.93Q283.47 183.76 283.24 183.53Q282.96 183.26 282.76 182.91Q282.74 182.87 282.72 182.83Q282.4 182.21 282.4 181.43Q282.4 180.49 282.83 179.83Q282.98 179.6 283.18 179.4Q283.4 179.19 283.65 179.03Q284.31 178.63 285.21 178.63Q286.12 178.63 286.78 179.04Q287.01 179.2 287.22 179.4Q287.41 179.59 287.56 179.81Q287.99 180.48 287.99 181.43Q287.99 182.24 287.66 182.88Q287.65 182.89 287.64 182.91Q287.45 183.26 287.19 183.52Q286.95 183.76 286.65 183.93Q286.58 183.97 286.51 184.01ZM352.14 185.47Q352.34 185.55 352.57 185.55Q352.77 185.55 352.95 185.47Q353.15 185.4 353.31 185.23Q353.42 185.12 353.49 184.99Q353.62 184.75 353.62 184.44Q353.62 184.11 353.48 183.87Q353.41 183.75 353.32 183.66Q353.19 183.53 353.04 183.45Q352.83 183.35 352.57 183.35Q352.34 183.35 352.14 183.43Q351.95 183.51 351.8 183.66Q351.66 183.8 351.58 183.97Q351.48 184.18 351.48 184.44Q351.48 184.74 351.6 184.97Q351.67 185.11 351.8 185.23Q351.95 185.39 352.14 185.47Z" fill="#000000" fill-opacity="1.000000" fill-rule="evenodd"/>
</svg>
