<svg width="341.000000" height="379.298218" viewBox="0 0 341 379.298" fill="none" xmlns="http://www.w3.org/2000/svg" xmlns:xlink="http://www.w3.org/1999/xlink">
	<desc>
			Created with Pixso.
	</desc>
	<defs>
		<linearGradient x1="80.000000" y1="109.921234" x2="339.999939" y2="109.921234" id="paint_linear_27_27_0" gradientUnits="userSpaceOnUse">
			<stop stop-color="#F7941D"/>
			<stop offset="1.000000" stop-color="#27AAE1"/>
		</linearGradient>
		<linearGradient x1="157.403046" y1="245.572342" x2="156.861923" y2="253.355057" id="paint_linear_27_145_0" gradientUnits="userSpaceOnUse">
			<stop stop-color="#FFFFFF"/>
			<stop offset="0.372600" stop-color="#FDFDFD"/>
			<stop offset="0.506900" stop-color="#F6F6F6"/>
			<stop offset="0.602600" stop-color="#EBEBEB"/>
			<stop offset="0.680000" stop-color="#DADADA"/>
			<stop offset="0.746300" stop-color="#C4C4C4"/>
			<stop offset="0.805000" stop-color="#A8A8A8"/>
			<stop offset="0.858100" stop-color="#888888"/>
			<stop offset="0.906900" stop-color="#626262"/>
			<stop offset="0.952300" stop-color="#373737"/>
			<stop offset="0.992600" stop-color="#090909"/>
			<stop offset="1.000000" stop-color="#000000"/>
		</linearGradient>
	</defs>
	<mask id="mask_27_27" fill="white">
		<path id="Union" d="M100 1L320 1C331.046 1 340 9.95435 340 21L340 171C340 182.046 331.046 191 320 191L257.5 191L223.249 218.401C221.939 219.448 220 218.516 220 216.839L220 191L100 191C88.9541 191 80 182.046 80 171L80 21C80 9.95435 88.9541 1 100 1Z" clip-rule="evenodd" fill="" fill-opacity="1.000000" fill-rule="evenodd"/>
	</mask>
	<path id="Union" d="M100 1L320 1C331.046 1 340 9.95435 340 21L340 171C340 182.046 331.046 191 320 191L257.5 191L223.249 218.401C221.939 219.448 220 218.516 220 216.839L220 191L100 191C88.9541 191 80 182.046 80 171L80 21C80 9.95435 88.9541 1 100 1Z" clip-rule="evenodd" fill="#FFFFFF" fill-opacity="1.000000" fill-rule="evenodd" mask="url(#mask_27_27)"/>
	<path id="Union" d="M100 0L320 0C325.799 0 330.749 2.05029 334.85 6.15076C338.95 10.2512 341 15.201 341 21L341 171C341 176.799 338.949 181.749 334.85 185.849C330.749 189.95 325.799 192 320 192L257.5 192L257.5 191L258.125 191.781L223.874 219.181C222.892 219.967 221.834 220.088 220.7 219.543C219.566 218.998 219 218.097 219 216.839L219 191L220 191L220 192L100 192C94.2012 192 89.251 189.95 85.1504 185.849C81.0498 181.749 79 176.799 79 171L79 21C79 15.201 81.0498 10.2512 85.1504 6.15076C89.251 2.05029 94.2012 0 100 0L100 0ZM100 2C94.7529 2 90.2754 3.85498 86.5654 7.56494C82.8555 11.2749 81 15.7533 81 21L81 171C81 176.247 82.8555 180.725 86.5654 184.435C90.2754 188.145 94.7529 190 100 190L221 190L221 216.839C221 217.258 221.188 217.558 221.566 217.74C221.944 217.922 222.297 217.882 222.625 217.62L257.149 190L320 190C325.247 190 329.725 188.145 333.435 184.435C337.145 180.725 339 176.247 339 171L339 21C339 15.7533 337.145 11.2749 333.435 7.56494C329.725 3.85498 325.247 2 320 2L100 2L100 2Z" fill="url(#paint_linear_27_27_0)" fill-opacity="1.000000" fill-rule="nonzero"/>
	<path id="baseLayer" d="M149.38 298.46C163.24 297.82 176.03 297.28 186.21 292.29C198.87 286.06 209.21 268.86 201.07 251.61C191.5 231.32 172.9 220.24 150.31 212.33C150.59 202.51 147.89 194.54 144.12 186.8C137.12 172.52 129.72 158.12 111.62 153.13C105.03 151.31 97.47 151.22 100.17 159.3C106.57 174.93 130.78 180.43 132.97 199.14C133.62 204.56 132.76 209.66 131.12 213.73C127.74 218.75 125.7 211.99 123.69 208.96C121.83 206.16 120.16 204.22 119.05 202.51C115.95 197.8 113.72 192.58 110.69 188.76C106.6 183.66 99.02 179.11 93.36 175.58C86.76 171.48 79.99 167.52 71.07 167.72C69.9 169.09 68.81 170.52 68.91 173.05C71.44 184.83 86.7 185.37 95.21 191.85C102.33 197.26 106.42 204.19 111 214.29C112.02 216.17 108.43 220.86 106.98 222.43C104.56 225.07 100.45 226.5 97.38 228.88C94.91 230.82 92.37 233.37 89.64 235.62C86.98 237.8 84.01 240.3 82.21 242.63C77.88 248.27 73.27 257.47 75.41 269.28C75.99 272.57 80.02 278.71 82.21 281.07C87.85 287.16 100.72 292.29 110.69 295.1C122.76 298.49 135.82 299.11 149.38 298.46ZM11.4 337.49C14.06 337.49 21.3 337.21 25.17 338.13C25.73 330.5 27.62 323.12 31.18 316.17C34.58 309.52 39.32 303.32 46.03 296.7C46.03 296.44 46.03 296.19 46.03 295.91C47.21 294 48.88 292.51 50.68 291.14C50.92 291.2 51.14 291.25 51.39 291.28C55.35 287.77 59.68 284.15 64.91 281.4C64.91 281.21 64.88 281.01 64.88 280.79C68.01 279.33 70.52 277.31 74.17 276.3C76.03 279.75 78.04 283.31 80.98 285.56C86.92 290.13 95.86 294.17 105.12 297.34C121.09 302.81 138.58 303.32 157.42 301.55C162.81 311.68 161.45 327.28 159.59 339.71C157.67 352.56 155.14 365.04 147.83 371.97C145.57 368.74 143.47 364.37 140.71 359.35C138.98 356.15 135.23 347 130.19 348.96C129.14 353.31 132.11 361.37 128.95 365.52C126.1 359.4 122.2 354.24 114.1 352.89C114.37 347.93 112.76 345.46 111.62 341.39C108.12 328.76 103.66 320.21 95.21 313.05C93.26 311.4 88.37 308.23 85.93 311.93C86.92 313.78 89.27 313.56 90.88 314.46C93.02 315.66 95.83 318.72 98 321.19C105 329.21 109.42 343.83 109.14 355.14C112.08 357.61 117.19 356.26 119.67 359.06C120.78 360.33 122.3 363.97 121.83 366.64C121.46 368.74 117.59 371.8 115.02 372.81C110.66 374.55 103.51 374.24 96.14 373.93C89.12 373.63 81.75 373.65 76.03 373.09C66.99 372.22 58.23 369.64 50.96 367.48C47.92 366.58 44.86 366.53 42.29 365.8C34.89 363.69 31.8 359.71 28.36 354.01C27.93 353.31 27.56 352.56 27.22 351.77C25.05 352.11 22.14 351.6 23.13 353.48C19.94 355.45 16.23 356.96 11.68 357.69C8.06 354.72 5.55 349.61 5.86 343.47C5.74 343.38 5.58 343.27 5.49 343.16L5.15 342.88L5.15 342.51C5.18 339.37 7.5 337.49 11.4 337.49Z" fill="#D3D3D3" fill-opacity="1.000000" fill-rule="evenodd"/>
	<path id="しっぽ_2_" d="M14.93 357.66C18.3 357.66 21.52 355.7 23.25 352.5L23.69 351.69L23.41 350.68C22.11 345.96 17.47 342.79 13.97 342.79C10.07 342.79 7.75 346.38 7.72 352.44L7.72 353.15L8.03 353.62C9.64 356.23 12.08 357.66 14.93 357.66Z" fill="#FFFFFF" fill-opacity="1.000000" fill-rule="evenodd"/>
	<path id="足" d="M114.13 357.75C114.13 357.75 98.62 366.61 63.8 357.66C63.8 357.66 36.87 342.82 31.15 359.35C28.95 365.66 39.5 367.96 39.5 367.96C39.5 367.96 94.07 378.59 110.69 375.9C127.31 373.21 127.16 356.46 114.13 357.75Z" fill="#FFFFFF" fill-opacity="1.000000" fill-rule="evenodd"/>
	<path id="おなか" d="M149.28 371.94C149.28 371.94 154.92 344 138.79 333.62C122.67 323.24 107.53 329.13 107.53 329.13L115.46 354.6L128.39 369.59L135.67 361.25L149.28 371.94Z" fill="#FFFFFF" fill-opacity="1.000000" fill-rule="evenodd"/>
	<path id="Vector" d="M110.94 212.02C106.3 201.81 102.18 194.79 94.91 189.24C91.87 186.94 88 185.34 84.26 183.82C77.17 180.93 70.49 178.21 68.94 170.92L67.11 171.06C66.8 179.81 74.17 186.99 78.56 190.53C82.53 193.67 86.98 196.45 91.28 199.14C95.03 201.5 98.59 203.72 101.5 205.96C102.52 206.77 103.51 207.81 104.47 208.82C106.08 210.53 107.75 212.3 109.79 213.11L111.9 213.93L110.94 212.02Z" fill="#FFFFFF" fill-opacity="1.000000" fill-rule="evenodd"/>
	<path id="Vector" d="M132.14 213.84C133.97 209.3 134.8 203.04 134.21 197.94C132.94 187.13 124.62 180.63 116.54 174.31C110.13 169.32 103.51 164.69 100.76 158.01C101.19 162.81 102.3 167.07 104.56 170.95C104.87 171.51 105.21 172.07 105.52 172.6C106.36 174.06 107.13 175.6 107.87 177.06C109.3 179.87 110.78 182.79 112.67 185.31C113.54 186.49 114.59 187.47 115.61 188.43C116.57 189.35 117.5 190.22 118.24 191.2C119.33 192.61 120.22 194.09 121.18 195.69C121.62 196.39 122.05 197.15 122.54 197.88C125.7 202.85 128.49 207.42 130.53 212.89L131.12 215.16L132.14 213.84Z" fill="#FFFFFF" fill-opacity="1.000000" fill-rule="evenodd"/>
	<path id="あご" d="M77.36 253.82C77.36 253.82 58.69 292.29 127.4 300.43C127.4 300.43 140.34 303.57 150.28 297.9L150.8 297.87C128.33 293.75 92.74 284.43 77.36 253.82Z" fill="#FFFFFF" fill-opacity="1.000000" fill-rule="evenodd"/>
	<path id="輪郭" d="M147.4 379.29C151.55 379.29 154.61 373.15 156.47 369.5C156.68 369.08 156.87 368.72 157.02 368.41C159.47 363.72 161.73 359.15 162.66 354.44C167.14 331.77 167.36 314.23 163.31 302.31C179 301.1 190.76 297 198.31 290.07C205.99 283.03 209.92 273.1 209.11 262.77C207.91 247.48 197.75 236.46 189.03 228.57C178.66 219.17 165.1 213 154.33 208.71C154.14 198.55 149.78 188.62 146.53 181.97C142.63 174.06 138.24 165.98 132.76 160.42C127.74 155.35 118.09 149.09 107.41 148.08C106.88 148.02 106.33 148 105.74 148C102.15 148 97.57 149 95.99 151.25C93.08 155.4 95.83 163.34 97.13 166.6C98.09 168.93 99.27 170.95 100.41 172.85C101 173.86 101.59 174.85 102.12 175.83C101.22 175.27 100.32 174.68 99.36 174.06C96.7 172.32 93.7 170.38 90.42 168.65C83.24 164.89 77.57 163.03 73.12 163.03C70.89 163.03 68.97 163.51 67.45 164.46C64.14 166.54 63.15 171.84 63.64 175.91C64.88 186.1 74.26 192.86 81.78 198.3L82.25 198.64C84.6 200.35 87.01 201.95 89.33 203.52C95.15 207.42 100.66 211.09 104.69 215.84C103.48 218.98 100.45 221.05 97.54 223.05C97.07 223.36 96.64 223.66 96.17 223.97C93.14 226.13 90.57 228.46 87.88 230.93C87.41 231.35 86.95 231.77 86.49 232.19C86.12 232.53 85.71 232.89 85.34 233.23C79.21 238.76 73.95 243.5 71.1 252.76C69.68 257.33 69.06 267.26 71.1 272.73C59.22 277.31 48.82 285.05 38.45 297.09C37.62 298.04 36.75 299.02 35.94 299.95C32.38 303.96 28.7 308.09 25.98 313.22C22.63 319.48 21.15 326.63 19.88 334.01C16.82 332.94 13.84 332.38 11.15 332.38C4.99 332.38 1 335.41 0.2 340.69C-0.42 344.78 0.41 349.95 2.42 354.46C4.53 359.15 7.35 362.15 10.22 362.68C10.84 362.8 11.46 362.85 12.11 362.85C15.27 362.85 18.05 361.48 20.75 360.16C22.14 359.49 23.44 358.84 24.71 358.42C29.23 367.73 40.71 370.18 52.87 372.78C54.21 373.07 55.54 373.35 56.9 373.65C58.57 374.02 60.21 374.44 61.97 374.89C66.46 376.01 71.1 377.19 76.21 377.61C80.23 377.95 84.91 377.97 89.43 378C92.68 378.03 96.02 378.03 99.15 378.17C101.03 378.26 102.7 378.28 104.28 378.28C112.45 378.28 121.31 377.36 125.82 370.88C125.92 371.05 126.01 371.24 126.1 371.41C126.75 372.67 127.53 374.27 129.79 374.27C129.94 374.27 130.1 374.27 130.25 374.24C133.84 373.93 135.23 366.36 135.76 361.84C136.72 363.64 137.71 365.35 138.73 367.12C139.81 368.97 140.93 370.88 142.01 372.92C142.2 373.29 142.41 373.74 142.63 374.24C143.65 376.46 144.83 378.99 146.69 379.29C146.96 379.29 147.18 379.29 147.4 379.29ZM89.05 309.38C87.41 309.38 86.05 310.11 85.12 311.51L84.88 311.9L85.09 312.32C85.9 313.87 87.48 314.29 88.75 314.62C89.36 314.79 89.95 314.96 90.42 315.21C92.49 316.39 95.34 319.51 97.29 321.75C103.82 329.24 108.52 343.61 108.24 355.17L108.24 355.56L108.55 355.81C110.13 357.16 112.21 357.49 114.16 357.8C116.08 358.11 117.9 358.42 118.95 359.63C119.88 360.69 121.34 364.12 120.93 366.56C120.66 368.24 117.16 371.1 114.68 372.08C112.45 372.95 109.2 373.37 104.47 373.37C101.81 373.37 98.84 373.23 96.24 373.12C93.79 373.01 91.28 372.95 88.84 372.87C84.23 372.76 79.86 372.62 76.18 372.28C67.11 371.41 58.35 368.8 51.29 366.7C49.62 366.19 47.98 365.97 46.37 365.71C45.01 365.52 43.74 365.32 42.63 365.01C35.33 362.91 32.35 358.81 29.23 353.62C27.37 350.56 26.19 346.38 25.95 342.2C25.61 320.07 36.87 306.15 46.75 296.5L46.81 296.41L46.87 296.33C48.05 294.39 49.78 292.96 51.29 291.79L51.33 291.76L51.36 291.73C55.47 288.08 59.96 284.27 65.38 281.49C66.52 280.96 67.61 280.34 68.63 279.75C70.3 278.79 71.85 277.9 73.73 277.28C75.59 280.73 77.57 283.96 80.42 286.15C87.32 291.45 97.5 295.57 104.84 298.07C114.99 301.55 126.32 303.23 139.44 303.23C144.86 303.23 150.59 302.95 156.9 302.39C161.97 312.55 160.37 328.43 158.69 339.54C156.93 351.38 154.64 363.5 147.99 370.51C146.59 368.35 145.2 365.77 143.65 362.8C143 361.53 142.29 360.24 141.58 358.9C141.36 358.5 141.11 358 140.84 357.44C138.89 353.59 135.95 347.79 131.64 347.79C131.06 347.79 130.47 347.9 129.88 348.12L129.45 348.29L129.35 348.71C128.92 350.54 129.11 352.84 129.32 355.28C129.57 358.2 129.85 361.2 129.04 363.44C126.51 358.5 122.7 353.65 115.12 352.13C115.18 348.77 114.4 346.52 113.57 344.14C113.23 343.18 112.89 342.2 112.58 341.11C108.8 327.53 103.97 319.2 95.9 312.35C95 311.71 92 309.38 89.05 309.38ZM21.92 353.15C18.89 354.91 15.61 356.09 11.93 356.74C8.71 353.87 5.8 348.4 6.97 341.22L6.97 341.16L6.97 341.11C7 338.33 9.39 337.77 11.37 337.77C14.43 337.77 18.08 339.23 19.08 340.8C19.48 344.84 20.13 349.41 21.92 353.15ZM105.24 152.96C106.94 152.96 109.05 153.3 111.37 153.92C129.48 158.91 136.81 173.89 143.28 187.11C146.47 193.62 149.69 201.72 149.38 212.27L149.35 212.86L149.97 213.09C176.43 222.37 191.93 234.35 200.2 251.92C207.91 268.22 198.68 285.19 185.75 291.53C175.93 296.33 163.4 296.95 150.15 297.56L149.32 297.59C146.16 297.73 143.13 297.82 140.28 297.82C129.04 297.82 119.45 296.67 110.94 294.25C100.94 291.45 88.31 286.34 82.9 280.48C80.67 278.07 76.83 272.12 76.3 269.09C74.2 257.47 78.75 248.52 82.96 243.05C84.63 240.86 87.35 238.56 90.26 236.18C91.53 235.14 92.77 234.02 93.95 232.95C95.34 231.69 96.67 230.48 97.97 229.47C99.21 228.52 100.63 227.68 102.06 226.89C104.07 225.74 106.17 224.56 107.69 222.91C107.75 222.85 113.38 216.68 111.84 213.84L111.68 213.56L111.37 213.45C109.7 212.81 108.24 211.26 106.73 209.61C105.74 208.54 104.72 207.45 103.57 206.55C100.6 204.22 97.01 201.98 93.2 199.62C88.96 196.95 84.54 194.2 80.67 191.12C76.49 187.81 69.56 181.05 69.83 172.99L69.83 172.97L69.83 172.94C69.77 170.89 70.55 169.66 71.54 168.48C71.6 168.48 71.66 168.48 71.72 168.48C79.83 168.48 86.08 171.98 92.83 176.19L93.95 176.89C99.39 180.29 106.2 184.53 109.92 189.18C111.65 191.37 113.14 194.01 114.68 196.81C115.8 198.81 116.94 200.88 118.24 202.85C118.77 203.66 119.39 204.47 120.1 205.43C120.93 206.55 121.89 207.78 122.88 209.3C123.29 209.89 123.66 210.65 124.09 211.43C125.36 213.82 126.66 216.29 128.73 216.29C129.85 216.29 130.9 215.56 131.89 214.07L132.11 213.73L131.98 213.37C129.91 207.76 127.09 203.13 123.88 198.08C123.41 197.35 122.98 196.62 122.54 195.92C121.62 194.37 120.63 192.77 119.51 191.29C118.68 190.19 117.65 189.24 116.69 188.31C115.67 187.36 114.74 186.46 113.94 185.39C112.11 182.98 110.75 180.26 109.27 177.4C108.49 175.91 107.72 174.37 106.85 172.85C106.54 172.29 106.2 171.73 105.89 171.17C103.73 167.44 101.47 163.59 101.1 159.13L101.1 159.05L101.06 158.97C100.32 156.78 100.35 155.15 101.16 154.17C101.87 153.41 103.26 152.96 105.24 152.96Z" fill="#000000" fill-opacity="1.000000" fill-rule="evenodd"/>
	<path id="口内色" d="M129.57 249.64C129.45 258.06 137.65 266.81 147.52 267.88C151.23 268.27 157.36 268.58 159.59 267.88C162.9 266.81 167.48 261.04 167.33 256.66C161.6 256.69 157.52 258.9 152.47 258.06C144.74 256.77 136.53 252 129.88 249.64C129.82 249.34 129.57 249.48 129.57 249.64Z" fill="#FFFFFF" fill-opacity="0.400000" fill-rule="evenodd"/>
	<path id="ノーマル" d="M153.28 273.3C161.29 273.3 167.08 270.43 170.98 264.51C171.91 263.11 174.73 255.31 173.3 251.86C172.96 251.02 172.37 250.46 171.57 250.21C171.14 250.07 170.77 250.01 170.39 250.01C169.19 250.01 168.54 250.71 168.04 251.24C167.7 251.61 167.39 251.94 166.93 252.14C164.42 252.23 162.35 252.62 160.52 252.95C158.72 253.29 157.21 253.57 155.54 253.57C155.26 253.57 154.98 253.57 154.7 253.54C147.49 253.12 135.14 246.98 129.6 243.81C128.92 243.42 128.21 243.22 127.47 243.22C126.72 243.22 125.98 243.42 125.27 243.81L125.05 243.92L124.99 244.15C123.19 250.23 124.18 256.21 127.81 261.43C131.77 267.15 138.67 271.33 146.19 272.62C148.7 273.07 151.08 273.3 153.28 273.3ZM166.71 257.22C166.46 261.15 162.41 266.39 159.41 267.35C158.85 267.52 157.64 267.74 155.04 267.74C152.85 267.74 150.09 267.57 147.61 267.32C138.48 266.34 130.53 258.51 130.22 250.35C132.35 251.13 134.64 252.14 137.03 253.21C142.04 255.45 147.24 257.75 152.38 258.59C153.18 258.73 153.99 258.79 154.86 258.79C156.87 258.79 158.76 258.43 160.74 258.03C162.59 257.7 164.54 257.3 166.71 257.22Z" fill="#000000" fill-opacity="1.000000" fill-rule="evenodd"/>
	<path id="Vector" d="M131.33 240.11C131.46 240.11 131.55 240.11 131.67 240.11C133.72 240.02 135.64 238.67 136.56 236.68C137.15 235.45 137.31 234.02 137.03 232.67C136.94 232.25 136.01 228.55 131.24 228.27L131.21 228.27L131.18 228.27C130.28 228.32 127.22 228.74 125.92 230.96C125.48 231.72 125.3 232.61 125.33 233.57C125.52 237.61 127.84 240.11 131.33 240.11Z" fill="#FFFFFF" fill-opacity="0.600000" fill-rule="evenodd"/>
	<path id="Vector" d="M172.9 243.56C174.05 243.72 177.92 243.89 179.15 239.63C179.62 238 179.71 236.57 179.46 235.31C179 233.01 177.45 232.05 176 231.41L175.93 231.38L175.87 231.38C172.53 230.93 170.49 232.25 169.81 235.31C169.37 237.22 169.37 238.98 169.81 240.41C170.39 242.49 171.85 243.42 172.9 243.56Z" fill="#FFFFFF" fill-opacity="0.600000" fill-rule="evenodd"/>
	<path id="Vector" d="M131.74 237.86C133.84 241.26 139.17 242.1 141.33 239.54C148.88 230.57 134.43 221.62 131.12 231.97C131.06 232.11 130.99 232.28 130.96 232.42C130.38 234.49 131.33 237.08 131.74 237.86Z" fill="#000000" fill-opacity="1.000000" fill-rule="evenodd"/>
	<path id="Vector" d="M174.45 241.51C174.82 240.08 175.47 238.87 175.38 237.02C174.88 233.15 171.04 228.32 165.78 230.57C158.08 233.85 164.54 250.49 174.45 241.51Z" fill="#000000" fill-opacity="1.000000" fill-rule="evenodd"/>
	<path id="Приветствуем в Академии будущего ХОД! Вам у нас понравится:)" d="M112.92 41L112.92 28.4L101.78 28.4L101.78 41L104.08 41L104.08 30.37L110.62 30.37L110.62 41L112.92 41ZM123.82 31.77Q122.8 31.27 121.54 31.27Q120.55 31.27 119.73 31.62Q119.3 31.8 118.94 32.07Q118.62 32.32 118.35 32.64L118.35 31.38L116.21 31.38L116.21 44.49L118.46 44.49L118.46 39.83Q118.83 40.25 119.29 40.54Q120.23 41.12 121.54 41.12Q122.82 41.12 123.85 40.62Q123.95 40.57 124.05 40.51Q124.54 40.24 124.94 39.87Q125.44 39.4 125.79 38.77Q125.81 38.73 125.84 38.69Q126.42 37.59 126.42 36.19Q126.42 34.78 125.83 33.69Q125.81 33.65 125.79 33.62Q125.45 33.01 124.97 32.55Q124.56 32.17 124.05 31.89Q123.94 31.83 123.82 31.77ZM161.39 36.91Q161.43 36.48 161.43 36.24Q161.43 34.77 160.81 33.64Q160.47 33.04 159.99 32.58Q159.59 32.18 159.08 31.9Q158.95 31.83 158.82 31.76Q157.81 31.27 156.57 31.27Q155.39 31.27 154.4 31.71Q154.2 31.8 154.01 31.91Q153.43 32.23 152.99 32.68Q152.55 33.11 152.24 33.66Q152.12 33.88 152.02 34.11Q151.6 35.06 151.6 36.19Q151.6 37.36 152.04 38.32Q152.14 38.54 152.26 38.74Q152.5 39.14 152.8 39.48Q153.35 40.09 154.12 40.49Q155.33 41.12 156.91 41.12Q158.16 41.12 159.14 40.73Q159.86 40.44 160.41 39.95Q160.61 39.76 160.78 39.55L159.57 38.17Q159.2 38.55 158.76 38.79Q157.97 39.21 156.96 39.21Q155.84 39.21 155.04 38.7Q154.96 38.65 154.89 38.59Q154.53 38.33 154.29 37.98Q153.97 37.52 153.85 36.91L161.39 36.91ZM174.21 40.57Q175.34 41.12 176.75 41.12Q178.15 41.12 179.22 40.54Q179.78 40.23 180.21 39.78Q180.59 39.38 180.85 38.87L179.12 37.86Q178.76 38.44 178.24 38.77Q178.17 38.82 178.09 38.86Q177.91 38.96 177.72 39.03Q177.26 39.19 176.73 39.19Q175.87 39.19 175.22 38.83Q174.9 38.65 174.63 38.38Q174.45 38.2 174.31 37.99Q173.81 37.26 173.81 36.19Q173.81 35.15 174.3 34.42Q174.44 34.2 174.64 34Q174.95 33.7 175.32 33.5Q175.94 33.18 176.73 33.18Q177.24 33.18 177.7 33.34Q177.9 33.41 178.09 33.52Q178.17 33.56 178.26 33.62Q178.77 33.94 179.12 34.51L180.85 33.51Q180.59 32.99 180.21 32.58Q179.79 32.15 179.24 31.85Q178.17 31.27 176.75 31.27Q175.26 31.27 174.09 31.89Q174.07 31.9 174.06 31.91Q173.36 32.28 172.84 32.82Q172.48 33.19 172.21 33.65Q172.08 33.87 171.98 34.09Q171.55 35.04 171.55 36.19Q171.55 37.33 171.98 38.28Q172.08 38.52 172.21 38.74Q172.48 39.19 172.84 39.57Q173.36 40.12 174.07 40.49Q174.14 40.53 174.21 40.57ZM222.47 36.91Q222.5 36.48 222.5 36.24Q222.5 34.77 221.88 33.64Q221.54 33.04 221.07 32.58Q220.66 32.18 220.15 31.9Q220.03 31.83 219.9 31.76Q218.89 31.27 217.64 31.27Q216.46 31.27 215.47 31.71Q215.28 31.8 215.09 31.91Q214.51 32.23 214.06 32.68Q213.63 33.11 213.31 33.66Q213.19 33.88 213.09 34.11Q212.68 35.06 212.68 36.19Q212.68 37.36 213.12 38.32Q213.21 38.54 213.33 38.74Q213.57 39.14 213.88 39.48Q214.43 40.09 215.2 40.49Q216.4 41.12 217.99 41.12Q219.23 41.12 220.22 40.73Q220.94 40.44 221.48 39.95Q221.68 39.76 221.86 39.55L220.65 38.17Q220.28 38.55 219.83 38.79Q219.05 39.21 218.04 39.21Q216.91 39.21 216.11 38.7Q216.03 38.65 215.96 38.59Q215.6 38.33 215.36 37.98Q215.04 37.52 214.93 36.91L222.47 36.91ZM130.9 31.38L128.65 31.38L128.65 41L130.72 41L136.01 34.66L136.01 41L138.26 41L138.26 31.38L136.21 31.38L130.9 37.72L130.9 31.38ZM149.66 36.93Q149.21 36.28 148.25 35.99Q148.93 35.7 149.31 35.19Q149.33 35.17 149.34 35.15Q149.43 35.02 149.5 34.89Q149.73 34.44 149.73 33.87Q149.73 33.27 149.48 32.81Q149.23 32.35 148.74 32.03Q147.75 31.38 145.98 31.38L141.29 31.38L141.29 41L146.18 41Q148.09 41 149.06 40.3Q149.46 40.01 149.7 39.62Q150.04 39.06 150.04 38.3Q150.04 37.48 149.66 36.93ZM167.78 33.29L171.15 33.29L171.15 31.38L162.15 31.38L162.15 33.29L165.53 33.29L165.53 41L167.78 41L167.78 33.29ZM186.99 33.29L190.36 33.29L190.36 31.38L181.36 31.38L181.36 33.29L184.74 33.29L184.74 41L186.99 41L186.99 33.29ZM200.36 36.93Q199.92 36.28 198.96 35.99Q199.64 35.7 200.02 35.19Q200.03 35.17 200.05 35.15Q200.14 35.02 200.2 34.89Q200.44 34.44 200.44 33.87Q200.44 33.27 200.18 32.81Q199.94 32.35 199.45 32.03Q198.46 31.38 196.69 31.38L191.99 31.38L191.99 41L196.89 41Q198.8 41 199.77 40.3Q200.17 40.01 200.4 39.62Q200.74 39.06 200.74 38.3Q200.74 37.48 200.36 36.93ZM207.71 41.77L212.21 31.38L210.05 31.38L207.01 38.49L203.98 31.38L201.65 31.38L205.84 41.03L205.68 41.41Q205.35 42.13 204.96 42.43Q204.92 42.47 204.88 42.49Q204.51 42.74 203.98 42.74Q203.96 42.74 203.93 42.74Q203.51 42.73 203.09 42.56Q202.65 42.38 202.33 42.08L202.33 42.08L201.43 43.73Q201.88 44.15 202.58 44.38Q203.12 44.56 203.67 44.6Q203.83 44.61 204 44.61Q205.12 44.61 205.94 44.12Q206.06 44.05 206.18 43.97Q207.08 43.33 207.71 41.77ZM234.42 34.62L234.42 41L236.45 41L236.43 31.38L234.33 31.38L230.75 37.4L227.33 31.38L224.97 31.38L224.97 41L227.02 41L227.02 34.61L230.21 39.99L231.18 39.99L234.42 34.62ZM145.79 35.4L143.43 35.4L143.43 33.02L145.79 33.02Q146.99 33.02 147.36 33.58Q147.53 33.83 147.53 34.19Q147.53 34.58 147.35 34.84Q146.97 35.4 145.79 35.4ZM196.49 35.4L194.13 35.4L194.13 33.02L196.49 33.02Q197.69 33.02 198.07 33.58Q198.24 33.83 198.24 34.19Q198.24 34.58 198.06 34.84Q197.67 35.4 196.49 35.4ZM155.24 33.38Q155.82 33.08 156.57 33.08Q157.36 33.08 157.96 33.41Q158.2 33.54 158.41 33.73Q158.67 33.96 158.86 34.24Q159.2 34.75 159.29 35.41L153.84 35.41Q153.94 34.7 154.32 34.18Q154.5 33.93 154.74 33.72Q154.97 33.52 155.24 33.38ZM216.31 33.38Q216.9 33.08 217.64 33.08Q218.43 33.08 219.03 33.41Q219.27 33.54 219.48 33.73Q219.74 33.96 219.93 34.24Q220.27 34.75 220.36 35.41L214.91 35.41Q215.02 34.7 215.39 34.18Q215.57 33.93 215.81 33.72Q216.05 33.52 216.31 33.38ZM122.68 38.87Q122.07 39.19 121.29 39.19Q120.65 39.19 120.11 38.96Q119.96 38.9 119.83 38.82Q119.61 38.7 119.42 38.53Q119.05 38.22 118.81 37.77Q118.43 37.09 118.43 36.19Q118.43 35.29 118.81 34.61Q119.06 34.14 119.44 33.83Q119.62 33.67 119.83 33.55Q119.96 33.47 120.11 33.41Q120.65 33.18 121.29 33.18Q122.06 33.18 122.67 33.5Q123.03 33.7 123.33 34.01Q123.51 34.2 123.65 34.41Q124.13 35.15 124.13 36.19Q124.13 37.24 123.65 37.97Q123.51 38.18 123.33 38.37Q123.03 38.67 122.68 38.87ZM147.69 38.76Q147.31 39.36 146 39.36L143.43 39.36L143.43 36.89L146.08 36.89Q146.99 36.89 147.42 37.21Q147.55 37.3 147.65 37.43Q147.86 37.71 147.86 38.15Q147.86 38.51 147.69 38.76ZM198.4 38.76Q198.01 39.36 196.71 39.36L194.13 39.36L194.13 36.89L196.78 36.89Q197.7 36.89 198.13 37.21Q198.26 37.3 198.35 37.43Q198.56 37.71 198.56 38.15Q198.56 38.51 198.4 38.76ZM166.53 57.57Q167.3 58.25 168.76 58.25Q170.21 58.25 170.99 57.57Q171.12 57.46 171.24 57.32Q171.77 56.67 171.78 55.6L170.25 55.6Q170.24 56.09 170.01 56.42Q169.93 56.53 169.83 56.63Q169.78 56.68 169.72 56.72Q169.33 57.01 168.74 57.01Q168.11 57.01 167.73 56.7Q167.69 56.66 167.65 56.63Q167.57 56.55 167.51 56.47Q167.26 56.12 167.24 55.6L165.75 55.6Q165.76 56.68 166.3 57.33Q166.41 57.46 166.53 57.57ZM119.55 68.63Q120.61 69.12 121.9 69.12Q123.27 69.12 124.38 68.58Q124.46 68.54 124.55 68.49Q125.22 68.13 125.72 67.61Q126.09 67.22 126.37 66.74Q126.49 66.53 126.6 66.3Q127.03 65.34 127.03 64.19Q127.03 63.03 126.59 62.07Q126.49 61.86 126.37 61.65Q126.1 61.19 125.74 60.81Q125.23 60.28 124.55 59.91Q124.45 59.85 124.35 59.81Q123.26 59.27 121.9 59.27Q120.63 59.27 119.57 59.76Q119.42 59.83 119.27 59.91Q118.59 60.27 118.09 60.8Q117.72 61.18 117.45 61.65Q117.33 61.85 117.24 62.05Q116.79 63.01 116.79 64.19Q116.79 65.36 117.23 66.32Q117.33 66.54 117.45 66.74Q117.73 67.22 118.11 67.62Q118.61 68.14 119.27 68.49Q119.41 68.57 119.55 68.63ZM160.18 60.29Q159.06 59.27 156.93 59.27Q155.74 59.27 154.68 59.58Q153.62 59.89 152.86 60.46L153.74 62.1Q154.28 61.65 155.07 61.4Q155.64 61.22 156.22 61.17Q156.44 61.15 156.66 61.15Q157.85 61.15 158.45 61.69Q158.57 61.79 158.67 61.92Q159.06 62.43 159.06 63.23L159.06 63.38L156.57 63.38Q154.5 63.38 153.54 64.16Q153.11 64.51 152.88 64.95Q152.57 65.51 152.57 66.24Q152.57 66.77 152.75 67.23Q152.85 67.49 153.01 67.73Q153.07 67.81 153.12 67.88Q153.55 68.43 154.27 68.75Q155.08 69.12 156.16 69.12Q157.24 69.12 158 68.79Q158.62 68.52 159.01 68.05Q159.1 67.94 159.18 67.83L159.18 69L161.31 69L161.31 63.36Q161.31 61.5 160.38 60.49Q160.28 60.39 160.18 60.29ZM223.99 68.63Q225.05 69.12 226.34 69.12Q227.71 69.12 228.81 68.58Q228.9 68.54 228.98 68.49Q229.65 68.13 230.15 67.61Q230.53 67.22 230.81 66.74Q230.93 66.53 231.03 66.3Q231.47 65.34 231.47 64.19Q231.47 63.03 231.03 62.07Q230.93 61.86 230.81 61.65Q230.54 61.19 230.18 60.81Q229.67 60.28 228.98 59.91Q228.89 59.85 228.79 59.81Q227.69 59.27 226.34 59.27Q225.06 59.27 224.01 59.76Q223.86 59.83 223.71 59.91Q223.03 60.27 222.52 60.8Q222.16 61.18 221.88 61.65Q221.77 61.85 221.67 62.05Q221.23 63.01 221.23 64.19Q221.23 65.36 221.67 66.32Q221.76 66.54 221.88 66.74Q222.17 67.22 222.55 67.62Q223.05 68.14 223.71 68.49Q223.85 68.57 223.99 68.63ZM254.27 64.91Q254.31 64.48 254.31 64.24Q254.31 62.77 253.69 61.64Q253.35 61.04 252.87 60.58Q252.47 60.18 251.96 59.9Q251.83 59.83 251.7 59.76Q250.69 59.27 249.45 59.27Q248.27 59.27 247.28 59.71Q247.08 59.8 246.89 59.91Q246.31 60.23 245.87 60.68Q245.43 61.11 245.12 61.66Q245 61.88 244.9 62.11Q244.48 63.06 244.48 64.19Q244.48 65.36 244.92 66.32Q245.02 66.54 245.14 66.74Q245.38 67.14 245.68 67.48Q246.23 68.09 247 68.49Q248.21 69.12 249.79 69.12Q251.04 69.12 252.02 68.73Q252.74 68.44 253.29 67.95Q253.49 67.76 253.66 67.55L252.45 66.17Q252.08 66.55 251.64 66.79Q250.85 67.21 249.84 67.21Q248.72 67.21 247.92 66.7Q247.84 66.65 247.77 66.59Q247.41 66.33 247.17 65.98Q246.85 65.52 246.73 64.91L254.27 64.91ZM109.88 64.93Q109.43 64.28 108.47 63.99Q109.15 63.7 109.53 63.19Q109.55 63.17 109.56 63.15Q109.65 63.02 109.72 62.89Q109.95 62.44 109.95 61.87Q109.95 61.27 109.7 60.81Q109.45 60.35 108.96 60.03Q107.97 59.38 106.2 59.38L101.51 59.38L101.51 69L106.4 69Q108.31 69 109.28 68.3Q109.68 68.01 109.92 67.62Q110.26 67.06 110.26 66.3Q110.26 65.48 109.88 64.93ZM131.5 59.38L129.25 59.38L129.25 69L131.5 69L131.5 65.2L136.34 65.2L136.34 69L138.59 69L138.59 59.38L136.34 59.38L136.34 63.29L131.5 63.29L131.5 59.38ZM150.33 69L150.33 59.38L142.55 59.38L142.38 63.09Q142.31 64.51 142.21 65.28Q142.12 66.04 141.77 66.59Q141.62 66.83 141.41 66.97Q141.13 67.14 140.75 67.14Q140.57 67.14 140.31 67.09L140.21 68.98Q140.95 69.18 141.45 69.18Q142.15 69.18 142.65 68.86Q142.93 68.69 143.15 68.43Q143.77 67.68 144.03 66.39Q144.29 65.11 144.38 63.2L144.47 61.29L148.08 61.29L148.08 69L150.33 69ZM166.34 59.38L164.09 59.38L164.09 69L166.16 69L171.45 62.66L171.45 69L173.7 69L173.7 59.38L171.65 59.38L166.34 65.72L166.34 59.38ZM178.98 59.38L176.73 59.38L176.73 69L178.98 69L178.98 65.2L183.82 65.2L183.82 69L186.07 69L186.07 59.38L183.82 59.38L183.82 63.29L178.98 63.29L178.98 59.38ZM208.23 69L208.23 59.38L205.98 59.38L205.98 67.09L202.29 67.09L202.29 59.38L200.04 59.38L200.04 67.09L196.31 67.09L196.31 59.38L194.06 59.38L194.06 69L208.23 69ZM213.5 65.14L215.25 65.14L218.15 69L220.79 69L217.07 64.01L220.56 59.38L218.15 59.38L215.3 63.27L213.5 63.27L213.5 59.38L211.25 59.38L211.25 69L213.5 69L213.5 65.14ZM242.29 69L242.29 59.38L234.51 59.38L234.35 63.09Q234.28 64.51 234.18 65.28Q234.08 66.04 233.74 66.59Q233.59 66.83 233.37 66.97Q233.09 67.14 232.71 67.14Q232.53 67.14 232.28 67.09L232.17 68.98Q232.91 69.18 233.41 69.18Q234.11 69.18 234.62 68.86Q234.89 68.69 235.11 68.43Q235.74 67.68 235.99 66.39Q236.25 65.11 236.35 63.2L236.43 61.29L240.04 61.29L240.04 69L242.29 69ZM106.01 63.4L103.65 63.4L103.65 61.02L106.01 61.02Q107.21 61.02 107.58 61.58Q107.75 61.83 107.75 62.19Q107.75 62.58 107.57 62.84Q107.19 63.4 106.01 63.4ZM248.12 61.38Q248.7 61.08 249.45 61.08Q250.24 61.08 250.84 61.41Q251.08 61.54 251.29 61.73Q251.55 61.96 251.74 62.24Q252.08 62.75 252.17 63.41L246.72 63.41Q246.82 62.7 247.2 62.18Q247.38 61.93 247.62 61.72Q247.85 61.52 248.12 61.38ZM123.28 66.88Q122.67 67.19 121.9 67.19Q121.12 67.19 120.52 66.87Q120.16 66.67 119.86 66.37Q119.68 66.18 119.54 65.97Q119.06 65.24 119.06 64.19Q119.06 63.15 119.54 62.41Q119.68 62.2 119.86 62.01Q120.16 61.7 120.53 61.5Q121.13 61.18 121.9 61.18Q122.67 61.18 123.27 61.5Q123.64 61.69 123.95 62.01Q124.15 62.21 124.29 62.44Q124.76 63.16 124.76 64.19Q124.76 65.22 124.29 65.95Q124.14 66.17 123.95 66.37Q123.65 66.68 123.28 66.88ZM227.71 66.88Q227.11 67.19 226.34 67.19Q225.56 67.19 224.95 66.87Q224.59 66.67 224.29 66.37Q224.12 66.18 223.98 65.97Q223.49 65.24 223.49 64.19Q223.49 63.15 223.97 62.41Q224.11 62.2 224.29 62.01Q224.6 61.7 224.96 61.5Q225.56 61.18 226.34 61.18Q227.1 61.18 227.7 61.5Q228.08 61.69 228.39 62.01Q228.58 62.21 228.73 62.44Q229.2 63.16 229.2 64.19Q229.2 65.22 228.72 65.95Q228.58 66.17 228.39 66.37Q228.08 66.68 227.71 66.88ZM157.94 67.2Q157.35 67.48 156.63 67.48Q155.76 67.48 155.27 67.12Q155.04 66.95 154.92 66.72Q154.79 66.47 154.79 66.15Q154.79 65.77 154.97 65.5Q155.38 64.87 156.73 64.87L159.06 64.87L159.06 65.99Q158.91 66.36 158.67 66.65Q158.44 66.91 158.12 67.1Q158.03 67.15 157.94 67.2ZM107.91 66.76Q107.53 67.36 106.22 67.36L103.65 67.36L103.65 64.89L106.3 64.89Q107.21 64.89 107.64 65.21Q107.77 65.3 107.87 65.43Q108.08 65.71 108.08 66.15Q108.08 66.51 107.91 66.76ZM144.08 85.64Q144.39 85.8 144.78 85.8Q145.2 85.8 145.53 85.62Q145.68 85.53 145.82 85.39Q145.99 85.22 146.09 85Q146.22 84.73 146.22 84.4Q146.22 84.12 146.12 83.88Q146.01 83.65 145.8 83.47Q145.67 83.35 145.53 83.27Q145.2 83.1 144.78 83.1Q144.39 83.1 144.08 83.26Q143.9 83.35 143.75 83.49Q143.56 83.67 143.46 83.89Q143.34 84.15 143.34 84.45Q143.34 84.75 143.46 85Q143.56 85.23 143.75 85.41Q143.9 85.55 144.08 85.64ZM140.69 83.64L138.44 83.64L138.44 97L140.69 97L140.69 83.64ZM166.01 87.95Q165.02 87.27 163.57 87.27Q162.57 87.27 161.74 87.59Q161.04 87.86 160.52 88.34Q160.44 88.42 160.37 88.5L160.37 83.64L158.12 83.64L158.12 97L160.37 97L160.37 92.13Q160.37 90.78 161.04 90.03Q161.07 90.01 161.09 89.99Q161.25 89.82 161.44 89.69Q162.09 89.24 163.05 89.24Q163.97 89.24 164.54 89.69Q164.65 89.77 164.74 89.88Q165.33 90.51 165.33 91.77L165.33 97L167.58 97L167.58 91.49Q167.58 89.5 166.59 88.45Q166.54 88.39 166.49 88.34Q166.26 88.12 166.01 87.95ZM111.14 97L111.14 95.04L104.03 95.04L104.03 91.56L110.11 91.56L110.11 89.63L104.03 89.63L104.03 86.36L110.89 86.36L110.89 84.4L101.69 84.4L101.69 97L111.14 97ZM185.08 97L185.08 95.04L177.97 95.04L177.97 91.56L184.06 91.56L184.06 89.63L177.97 89.63L177.97 86.36L184.83 86.36L184.83 84.4L175.63 84.4L175.63 97L185.08 97ZM238.99 84.4L236.33 84.4L236.76 92.82L238.54 92.82L238.99 84.4ZM233.8 96.96Q234.37 96.8 234.76 96.47L234.13 94.87Q234.07 94.92 234 94.97Q233.53 95.27 232.87 95.27Q232.31 95.27 231.98 94.99Q231.93 94.95 231.88 94.9Q231.54 94.53 231.54 93.83L231.54 89.26L234.11 89.26L234.11 87.45L231.54 87.45L231.54 85.26L229.29 85.26L229.29 87.45L227.71 87.45L227.71 89.26L229.29 89.26L229.29 93.88Q229.29 95.33 230.01 96.15Q230.08 96.22 230.15 96.3Q230.2 96.34 230.25 96.38Q231.1 97.12 232.6 97.12Q233.23 97.12 233.8 96.96ZM121.42 87.95Q120.43 87.27 118.99 87.27Q117.92 87.27 117.07 87.62Q116.47 87.86 116.02 88.27Q115.83 88.43 115.67 88.62L115.67 87.38L113.53 87.38L113.53 97L115.78 97L115.78 92.13Q115.78 90.78 116.46 90.03Q116.48 90.01 116.5 89.99Q116.66 89.82 116.85 89.69Q117.5 89.24 118.46 89.24Q119.38 89.24 119.95 89.69Q120.06 89.77 120.15 89.88Q120.75 90.51 120.75 91.77L120.75 97L123 97L123 91.49Q123 89.5 122.01 88.45Q121.95 88.39 121.9 88.34Q121.68 88.12 121.42 87.95ZM135.49 95.54L135.49 87.38L133.35 87.38L133.35 88.66Q133.1 88.36 132.79 88.12Q132.4 87.81 131.92 87.62Q131.06 87.27 130.02 87.27Q128.78 87.27 127.76 87.74Q127.65 87.79 127.54 87.85Q126.94 88.16 126.48 88.62Q126.09 89 125.8 89.48Q125.7 89.64 125.62 89.81Q125.16 90.74 125.16 91.9Q125.16 93.04 125.6 93.97Q125.69 94.15 125.8 94.33Q126.08 94.81 126.46 95.19Q126.93 95.66 127.54 95.98Q127.68 96.05 127.81 96.11Q128.82 96.56 130.02 96.56Q131.01 96.56 131.84 96.24Q132.43 96 132.9 95.61Q133.08 95.46 133.24 95.29L133.24 95.79Q133.24 97.26 132.51 97.98L132.5 97.98Q131.77 98.7 130.18 98.7Q129.92 98.7 129.67 98.68Q128.94 98.62 128.23 98.39Q127.27 98.08 126.64 97.55L125.63 99.25Q126.44 99.91 127.68 100.26Q128.92 100.61 130.31 100.61Q132.96 100.61 134.25 99.29Q135.49 98.02 135.49 95.54ZM150.24 96.98Q151.02 97.12 151.82 97.12Q153.83 97.12 155 96.31Q155.66 95.85 155.95 95.22Q156.17 94.74 156.17 94.15Q156.17 93.16 155.68 92.61Q155.66 92.59 155.64 92.57Q155.39 92.3 155.08 92.1Q154.75 91.89 154.37 91.77Q153.63 91.54 152.48 91.36Q151.33 91.16 150.78 90.94Q150.46 90.81 150.33 90.57Q150.23 90.4 150.23 90.17Q150.23 90.02 150.28 89.89Q150.39 89.59 150.75 89.39Q151.26 89.09 152.25 89.09Q153.41 89.09 154.39 89.51Q154.71 89.64 155 89.81L155.87 88.1Q155.24 87.73 154.24 87.5Q153.25 87.27 152.27 87.27Q150.32 87.27 149.18 88.1Q148.57 88.53 148.29 89.12Q148.04 89.64 148.04 90.28Q148.04 91.27 148.53 91.85Q148.56 91.88 148.58 91.91Q148.91 92.26 149.31 92.48Q149.58 92.63 149.88 92.73Q150.63 92.96 151.82 93.14Q152.95 93.32 153.46 93.52Q153.76 93.64 153.88 93.85Q153.98 94.01 153.98 94.22Q153.98 94.45 153.88 94.63Q153.54 95.29 151.96 95.29Q151.08 95.29 150.17 95.03Q149.26 94.76 148.62 94.33L147.75 96.04Q148.42 96.51 149.53 96.81Q149.88 96.91 150.24 96.98ZM205.22 87.77Q204.2 87.27 202.94 87.27Q201.95 87.27 201.13 87.62Q200.69 87.8 200.33 88.07Q200.01 88.32 199.75 88.64L199.75 87.38L197.61 87.38L197.61 100.49L199.86 100.49L199.86 95.83Q200.23 96.25 200.69 96.54Q201.63 97.12 202.94 97.12Q204.21 97.12 205.25 96.62Q205.35 96.57 205.45 96.51Q205.94 96.24 206.34 95.87Q206.84 95.4 207.19 94.77Q207.21 94.73 207.23 94.69Q207.81 93.59 207.81 92.19Q207.81 90.78 207.23 89.69Q207.21 89.65 207.19 89.62Q206.84 89.01 206.36 88.55Q205.96 88.17 205.45 87.89Q205.34 87.83 205.22 87.77ZM218.96 92.91Q218.99 92.48 218.99 92.24Q218.99 90.77 218.37 89.64Q218.03 89.04 217.56 88.58Q217.15 88.18 216.64 87.9Q216.52 87.83 216.39 87.76Q215.38 87.27 214.13 87.27Q212.95 87.27 211.96 87.71Q211.77 87.8 211.58 87.91Q211 88.23 210.55 88.68Q210.12 89.11 209.8 89.66Q209.68 89.88 209.58 90.11Q209.17 91.06 209.17 92.19Q209.17 93.36 209.61 94.32Q209.7 94.54 209.82 94.74Q210.06 95.14 210.37 95.48Q210.92 96.09 211.69 96.49Q212.89 97.12 214.48 97.12Q215.72 97.12 216.71 96.73Q217.43 96.44 217.97 95.95Q218.17 95.76 218.35 95.55L217.14 94.17Q216.77 94.55 216.32 94.79Q215.54 95.21 214.53 95.21Q213.4 95.21 212.6 94.7Q212.52 94.65 212.45 94.59Q212.09 94.33 211.85 93.98Q211.53 93.52 211.42 92.91L218.96 92.91ZM223.71 88.27Q223.48 88.5 223.29 88.79L223.29 87.38L221.15 87.38L221.15 97L223.4 97L223.4 92.33Q223.4 90.93 224.1 90.17Q224.12 90.15 224.14 90.13Q224.27 89.99 224.42 89.88Q225.11 89.36 226.19 89.36Q226.43 89.36 226.72 89.42L226.72 87.27Q224.73 87.27 223.71 88.27ZM145.9 87.38L143.65 87.38L143.65 97L145.9 97L145.9 87.38ZM190.95 93.66L193.42 97L195.95 97L192.19 92.08L195.79 87.38L193.36 87.38L191.01 90.54L188.65 87.38L186.14 87.38L189.73 92.12L185.98 97L188.47 97L190.95 93.66ZM212.8 89.38Q213.39 89.08 214.13 89.08Q214.92 89.08 215.52 89.41Q215.76 89.54 215.97 89.73Q216.23 89.96 216.42 90.24Q216.76 90.75 216.85 91.41L211.4 91.41Q211.51 90.7 211.88 90.18Q212.06 89.93 212.3 89.72Q212.54 89.52 212.8 89.38ZM132 94.24Q131.31 94.66 130.36 94.66Q129.37 94.66 128.66 94.21Q128.44 94.07 128.25 93.89Q127.95 93.61 127.76 93.27Q127.43 92.68 127.43 91.9Q127.43 91.14 127.75 90.57Q127.94 90.22 128.25 89.94Q128.43 89.77 128.64 89.64Q129.35 89.18 130.36 89.18Q131.32 89.18 132.02 89.61Q132.25 89.75 132.46 89.94Q132.77 90.22 132.96 90.57Q133.28 91.15 133.28 91.9Q133.28 92.67 132.95 93.26Q132.76 93.61 132.46 93.89Q132.24 94.09 132 94.24ZM204.07 94.87Q203.47 95.19 202.69 95.19Q202.04 95.19 201.5 94.96Q201.36 94.9 201.23 94.82Q201.01 94.7 200.82 94.53Q200.45 94.22 200.2 93.77Q199.82 93.09 199.82 92.19Q199.82 91.29 200.2 90.61Q200.46 90.14 200.83 89.83Q201.02 89.67 201.23 89.55Q201.36 89.47 201.5 89.41Q202.04 89.18 202.69 89.18Q203.46 89.18 204.06 89.5Q204.43 89.7 204.73 90.01Q204.91 90.2 205.05 90.41Q205.53 91.15 205.53 92.19Q205.53 93.24 205.05 93.97Q204.91 94.18 204.73 94.37Q204.43 94.67 204.07 94.87ZM236.94 96.95Q237.25 97.12 237.66 97.12Q238.04 97.12 238.34 96.97Q238.53 96.87 238.68 96.72Q238.86 96.54 238.96 96.32Q239.08 96.05 239.08 95.72Q239.08 95.37 238.95 95.1Q238.85 94.89 238.68 94.73Q238.53 94.59 238.36 94.5Q238.05 94.33 237.66 94.33Q237.24 94.33 236.91 94.51Q236.75 94.6 236.62 94.73Q236.43 94.9 236.33 95.11Q236.2 95.38 236.2 95.72Q236.2 96.03 236.32 96.3Q236.42 96.53 236.62 96.72Q236.76 96.86 236.94 96.95ZM290.41 133.41Q289.97 134.8 289.23 136.1L290.68 136.1Q291.61 134.64 292.11 132.73Q292.6 130.8 292.6 128.61Q292.6 126.4 292.11 124.48Q291.61 122.56 290.68 121.12L289.23 121.12Q289.97 122.42 290.41 123.81Q290.54 124.22 290.64 124.64Q291.1 126.48 291.1 128.61Q291.1 130.74 290.64 132.58Q290.54 133 290.41 133.41ZM110.43 128.16Q109.85 127.46 108.71 127.19Q109.44 126.91 109.88 126.38Q109.95 126.31 110 126.23Q110.06 126.15 110.11 126.07Q110.46 125.48 110.46 124.68Q110.46 123.83 110.08 123.23Q109.83 122.84 109.43 122.54Q108.39 121.8 106.55 121.8L101.74 121.8L101.74 133L106.86 133Q108.89 133 109.95 132.19Q110.37 131.88 110.63 131.46Q111.02 130.82 111.02 129.94Q111.02 129 110.58 128.36Q110.51 128.25 110.43 128.16ZM106.44 126.72L103.32 126.72L103.32 123.06L106.44 123.06Q107.6 123.06 108.22 123.53Q108.43 123.69 108.57 123.9Q108.84 124.3 108.84 124.9Q108.84 125.51 108.55 125.92Q108.42 126.11 108.23 126.26Q107.61 126.72 106.44 126.72ZM286.49 126.55Q286.68 126.63 286.91 126.63Q287.12 126.63 287.29 126.56Q287.49 126.48 287.65 126.32Q287.76 126.2 287.83 126.07Q287.96 125.83 287.96 125.52Q287.96 125.19 287.82 124.95Q287.75 124.83 287.66 124.74Q287.53 124.61 287.38 124.54Q287.17 124.43 286.91 124.43Q286.68 124.43 286.49 124.51Q286.3 124.59 286.14 124.75Q286 124.88 285.92 125.05Q285.82 125.26 285.82 125.52Q285.82 125.82 285.94 126.05Q286.01 126.2 286.14 126.32Q286.3 126.47 286.49 126.55ZM119.15 125.3Q118.22 124.44 116.46 124.44Q115.44 124.44 114.52 124.72Q113.61 125 112.96 125.52L113.6 126.68Q114.09 126.26 114.81 126.02Q115.3 125.85 115.8 125.79Q116.04 125.77 116.28 125.77Q117.4 125.77 117.98 126.29Q118.07 126.38 118.15 126.48Q118.56 126.98 118.56 127.81L118.56 128.12L116.12 128.12Q114.35 128.12 113.53 128.8Q113.19 129.09 112.99 129.45Q112.72 129.95 112.72 130.6Q112.72 131.18 112.95 131.64Q113.16 132.07 113.57 132.41Q114.43 133.09 115.85 133.09Q116.83 133.09 117.54 132.78Q118.1 132.53 118.46 132.11Q118.55 132 118.63 131.87L118.63 133L120.09 133L120.09 127.87Q120.09 126.32 119.32 125.47Q119.24 125.38 119.15 125.3ZM169.99 125.3Q169.05 124.44 167.29 124.44Q166.27 124.44 165.35 124.72Q164.44 125 163.79 125.52L164.43 126.68Q164.92 126.26 165.64 126.02Q166.13 125.85 166.63 125.79Q166.87 125.77 167.12 125.77Q168.24 125.77 168.81 126.29Q168.9 126.38 168.98 126.48Q169.39 126.98 169.39 127.81L169.39 128.12L166.96 128.12Q165.18 128.12 164.37 128.8Q164.02 129.09 163.82 129.45Q163.55 129.95 163.55 130.6Q163.55 131.18 163.78 131.64Q163.99 132.07 164.4 132.41Q165.26 133.09 166.69 133.09Q167.66 133.09 168.37 132.78Q168.93 132.53 169.29 132.11Q169.39 132 169.47 131.87L169.47 133L170.92 133L170.92 127.87Q170.92 126.32 170.15 125.47Q170.07 125.38 169.99 125.3ZM175.21 132.61Q176.18 133.09 177.39 133.09Q178.54 133.09 179.44 132.62Q179.93 132.37 180.3 131.99Q180.62 131.67 180.84 131.27L179.68 130.53Q179.34 131.04 178.87 131.34Q178.78 131.39 178.68 131.44Q178.59 131.49 178.5 131.53Q177.98 131.75 177.37 131.75Q176.66 131.75 176.07 131.48Q175.97 131.43 175.88 131.38Q175.59 131.22 175.36 131.01Q175.05 130.72 174.83 130.33Q174.46 129.65 174.46 128.76Q174.46 127.89 174.82 127.21Q174.83 127.2 174.83 127.19Q175.05 126.8 175.37 126.51Q175.6 126.3 175.88 126.15Q175.97 126.1 176.07 126.05Q176.66 125.78 177.37 125.78Q177.98 125.78 178.5 126Q178.59 126.04 178.68 126.09Q178.77 126.13 178.86 126.19Q179.34 126.48 179.68 127L180.84 126.24Q180.61 125.82 180.28 125.5Q179.91 125.14 179.44 124.9Q178.54 124.44 177.39 124.44Q176.15 124.44 175.17 124.94Q175.12 124.96 175.07 124.99Q174.52 125.29 174.1 125.71Q173.75 126.07 173.48 126.52Q173.38 126.69 173.3 126.87Q172.91 127.72 172.91 128.76Q172.91 129.78 173.29 130.62Q173.38 130.81 173.48 130.99Q173.73 131.42 174.07 131.77Q174.51 132.22 175.07 132.53Q175.14 132.57 175.21 132.61ZM199.61 132.68Q200.51 133.09 201.6 133.09Q202.69 133.09 203.59 132.67Q203.73 132.61 203.86 132.53Q204.39 132.23 204.81 131.81Q205.16 131.44 205.42 130.99Q205.52 130.82 205.6 130.64Q206 129.79 206 128.76Q206 127.71 205.59 126.85Q205.52 126.68 205.42 126.52Q205.15 126.05 204.78 125.67Q204.38 125.27 203.86 124.99Q203.75 124.93 203.63 124.87Q202.72 124.44 201.6 124.44Q200.48 124.44 199.56 124.87Q199.44 124.92 199.32 124.99Q198.79 125.28 198.37 125.7Q198.01 126.06 197.75 126.52Q197.66 126.67 197.59 126.83Q197.18 127.7 197.18 128.76Q197.18 129.8 197.58 130.66Q197.65 130.83 197.75 130.99Q198 131.43 198.35 131.79Q198.77 132.22 199.32 132.53Q199.46 132.61 199.61 132.68ZM225.56 124.85Q224.68 124.44 223.61 124.44Q222.69 124.44 221.92 124.78Q221.9 124.79 221.88 124.8Q221.53 124.96 221.22 125.2Q220.87 125.48 220.59 125.86L220.59 124.52L219.12 124.52L219.12 136.1L220.65 136.1L220.65 131.71Q220.96 132.11 221.36 132.4Q221.63 132.6 221.94 132.74Q221.98 132.76 222.01 132.78Q222.74 133.09 223.61 133.09Q224.68 133.09 225.56 132.68Q225.69 132.62 225.82 132.55Q226.28 132.29 226.65 131.93Q227.06 131.54 227.35 131.02Q227.37 130.98 227.39 130.94Q227.9 129.99 227.9 128.76Q227.9 127.49 227.36 126.53Q227.35 126.51 227.35 126.5Q227.06 126 226.67 125.61Q226.3 125.25 225.82 124.98Q225.69 124.91 225.56 124.85ZM235.76 125.3Q234.83 124.44 233.07 124.44Q232.04 124.44 231.13 124.72Q230.22 125 229.56 125.52L230.2 126.68Q230.7 126.26 231.42 126.02Q231.91 125.85 232.41 125.79Q232.65 125.77 232.89 125.77Q234.01 125.77 234.59 126.29Q234.68 126.38 234.76 126.48Q235.16 126.98 235.16 127.81L235.16 128.12L232.73 128.12Q230.96 128.12 230.14 128.8Q229.79 129.09 229.59 129.45Q229.33 129.95 229.33 130.6Q229.33 131.18 229.56 131.64Q229.77 132.07 230.18 132.41Q231.04 133.09 232.46 133.09Q233.43 133.09 234.15 132.78Q234.71 132.53 235.07 132.11Q235.16 132 235.24 131.87L235.24 133L236.7 133L236.7 127.87Q236.7 126.32 235.93 125.47Q235.85 125.38 235.76 125.3ZM269.44 132.61Q270.4 133.09 271.61 133.09Q272.76 133.09 273.67 132.62Q274.15 132.37 274.52 131.99Q274.84 131.67 275.07 131.27L273.9 130.53Q273.56 131.04 273.09 131.34Q273 131.39 272.9 131.44Q272.81 131.49 272.72 131.53Q272.2 131.75 271.6 131.75Q270.88 131.75 270.29 131.48Q270.19 131.43 270.1 131.38Q269.82 131.22 269.59 131.01Q269.27 130.72 269.06 130.33Q268.68 129.65 268.68 128.76Q268.68 127.89 269.04 127.21Q269.05 127.2 269.06 127.19Q269.28 126.8 269.6 126.51Q269.82 126.3 270.1 126.15Q270.19 126.1 270.29 126.05Q270.88 125.78 271.6 125.78Q272.2 125.78 272.72 126Q272.81 126.04 272.9 126.09Q273 126.13 273.09 126.19Q273.56 126.48 273.9 127L275.07 126.24Q274.83 125.82 274.5 125.5Q274.14 125.14 273.67 124.9Q272.76 124.44 271.61 124.44Q270.37 124.44 269.39 124.94Q269.35 124.96 269.3 124.99Q268.75 125.29 268.33 125.71Q267.97 126.07 267.7 126.52Q267.61 126.69 267.53 126.87Q267.13 127.72 267.13 128.76Q267.13 129.78 267.51 130.62Q267.6 130.81 267.7 130.99Q267.96 131.42 268.3 131.77Q268.73 132.22 269.3 132.53Q269.37 132.57 269.44 132.61ZM132.64 133L132.64 124.52L131.2 124.52L127.77 130.24L124.44 124.52L122.86 124.52L122.86 133L124.27 133L124.27 126.79L127.4 132.03L128.07 132.03L131.24 126.8L131.24 133L132.64 133ZM143.39 133.84L147.5 124.52L146 124.52L143.07 131.3L140.11 124.52L138.51 124.52L142.25 132.98L141.98 133.57Q141.68 134.29 141.3 134.59Q141.24 134.63 141.17 134.67Q140.84 134.88 140.37 134.88Q140 134.88 139.68 134.77Q139.23 134.62 138.85 134.26L138.19 135.41Q138.57 135.8 139.15 136Q139.39 136.08 139.64 136.12Q140 136.19 140.37 136.19Q141.21 136.19 141.86 135.83Q141.99 135.76 142.12 135.67Q142.85 135.14 143.39 133.84ZM154.91 124.52L153.37 124.52L153.37 133L154.91 133L154.91 129.44L159.74 129.44L159.74 133L161.27 133L161.27 124.52L159.74 124.52L159.74 128.12L154.91 128.12L154.91 124.52ZM194.99 133L194.99 124.52L187.13 124.52L187.13 133L188.67 133L188.67 125.86L193.45 125.86L193.45 133L194.99 133ZM209.75 124.52L208.22 124.52L208.22 133L209.75 133L209.75 129.44L214.59 129.44L214.59 133L216.12 133L216.12 124.52L214.59 124.52L214.59 128.12L209.75 128.12L209.75 124.52ZM246.51 129.36Q246.1 128.81 245.25 128.6Q245.82 128.36 246.17 127.95Q246.21 127.9 246.24 127.85Q246.33 127.73 246.4 127.59Q246.6 127.19 246.6 126.69Q246.6 126.15 246.37 125.74Q246.16 125.36 245.76 125.09Q244.91 124.52 243.41 124.52L239.47 124.52L239.47 133L243.55 133Q245.21 133 246.05 132.39Q246.39 132.14 246.59 131.81Q246.89 131.32 246.89 130.66Q246.89 129.87 246.51 129.36ZM250.83 124.52L249.29 124.52L249.29 133L250.7 133L255.88 126.82L255.88 133L257.42 133L257.42 124.52L256.03 124.52L250.83 130.69L250.83 124.52ZM263.61 125.86L266.72 125.86L266.72 124.52L258.97 124.52L258.97 125.86L262.07 125.86L262.07 133L263.61 133L263.61 125.86ZM283.58 133L283.58 124.52L279.87 124.52Q278.12 124.52 277.13 125.28Q276.82 125.51 276.61 125.81Q276.14 126.48 276.14 127.49Q276.14 128.37 276.54 128.99Q276.59 129.07 276.65 129.15Q276.68 129.18 276.71 129.22Q277.22 129.83 278.12 130.1L276.06 133L277.71 133L279.56 130.31L282.2 130.31L282.2 133L283.58 133ZM243.28 128.16L240.97 128.16L240.97 125.7L243.28 125.7Q244.5 125.7 244.89 126.27Q245.07 126.53 245.07 126.92Q245.07 127.28 244.91 127.54Q244.8 127.71 244.61 127.84Q244.16 128.16 243.28 128.16ZM202.79 131.51Q202.24 131.75 201.6 131.75Q200.93 131.75 200.38 131.5Q200.25 131.44 200.13 131.37Q199.89 131.23 199.69 131.05Q199.34 130.74 199.1 130.32Q199.09 130.3 199.08 130.28Q198.73 129.61 198.73 128.76Q198.73 127.89 199.09 127.21Q199.1 127.2 199.1 127.19Q199.35 126.75 199.71 126.45Q199.9 126.28 200.13 126.15Q200.23 126.09 200.34 126.04Q200.91 125.78 201.6 125.78Q202.27 125.78 202.82 126.03Q202.94 126.08 203.06 126.15Q203.31 126.29 203.51 126.47Q203.85 126.78 204.07 127.19Q204.44 127.87 204.44 128.76Q204.44 129.62 204.08 130.3Q204.08 130.31 204.07 130.32Q203.85 130.72 203.53 131.02Q203.32 131.22 203.06 131.37Q202.93 131.45 202.79 131.51ZM224.7 131.5Q224.15 131.75 223.48 131.75Q222.91 131.75 222.41 131.56Q222.21 131.48 222.03 131.37Q221.74 131.21 221.51 130.99Q221.21 130.7 221 130.32Q220.64 129.64 220.64 128.76Q220.64 127.87 221.01 127.2Q221.23 126.8 221.55 126.51Q221.77 126.31 222.03 126.16Q222.2 126.06 222.37 125.99Q222.89 125.78 223.48 125.78Q224.17 125.78 224.74 126.04Q224.84 126.09 224.95 126.15Q225.18 126.28 225.38 126.46Q225.73 126.76 225.97 127.19Q225.98 127.2 225.98 127.21Q226.35 127.89 226.35 128.76Q226.35 129.61 225.99 130.28Q225.98 130.3 225.97 130.32Q225.74 130.73 225.4 131.04Q225.2 131.23 224.95 131.37Q224.83 131.44 224.7 131.5ZM278.03 128.59Q277.71 128.2 277.71 127.54Q277.71 126.92 278 126.53Q278.51 125.86 279.92 125.86L282.2 125.86L282.2 129.2L279.85 129.2Q278.78 129.2 278.24 128.8Q278.12 128.7 278.03 128.59ZM109.07 130.94Q108.48 131.73 106.83 131.73L103.32 131.73L103.32 127.94L106.83 127.94Q108.11 127.94 108.75 128.4Q108.94 128.53 109.07 128.69Q109.4 129.12 109.4 129.81Q109.4 130.5 109.07 130.94ZM117.63 131.52Q116.99 131.91 116.11 131.91Q115.23 131.91 114.73 131.54Q114.51 131.37 114.38 131.15Q114.24 130.88 114.24 130.53Q114.24 130.12 114.43 129.84Q114.84 129.22 116.19 129.22L118.56 129.22L118.56 130.4Q118.39 130.83 118.09 131.14Q117.89 131.36 117.63 131.52ZM168.46 131.52Q167.82 131.91 166.94 131.91Q166.06 131.91 165.56 131.54Q165.34 131.37 165.22 131.15Q165.07 130.88 165.07 130.53Q165.07 130.12 165.26 129.84Q165.68 129.22 167.02 129.22L169.39 129.22L169.39 130.4Q169.22 130.83 168.92 131.14Q168.72 131.36 168.46 131.52ZM234.24 131.52Q233.59 131.91 232.72 131.91Q231.84 131.91 231.34 131.54Q231.12 131.37 230.99 131.15Q230.84 130.88 230.84 130.53Q230.84 130.12 231.03 129.84Q231.45 129.22 232.8 129.22L235.16 129.22L235.16 130.4Q234.99 130.83 234.7 131.14Q234.5 131.36 234.24 131.52ZM244.87 131.51Q244.39 131.81 243.44 131.81L240.97 131.81L240.97 129.27L243.53 129.27Q244.48 129.27 244.91 129.59Q245.04 129.68 245.13 129.79Q245.35 130.09 245.35 130.56Q245.35 130.96 245.17 131.23Q245.05 131.39 244.87 131.51ZM286.49 133.01Q286.68 133.09 286.91 133.09Q287.12 133.09 287.29 133.02Q287.49 132.94 287.65 132.78Q287.76 132.67 287.83 132.53Q287.96 132.3 287.96 131.99Q287.96 131.66 287.82 131.41Q287.75 131.3 287.66 131.2Q287.53 131.07 287.38 131Q287.17 130.9 286.91 130.9Q286.68 130.9 286.49 130.98Q286.3 131.06 286.14 131.21Q286 131.35 285.92 131.51Q285.82 131.73 285.82 131.99Q285.82 132.28 285.94 132.52Q286.01 132.66 286.14 132.78Q286.3 132.93 286.49 133.01Z" fill="#000000" fill-opacity="1.000000" fill-rule="evenodd"/>
</svg>
