<svg width="77.278931" height="44.605103" viewBox="0 0 77.2789 44.6051" fill="none" xmlns="http://www.w3.org/2000/svg" xmlns:xlink="http://www.w3.org/1999/xlink">
	<desc>
			Created with Pixso.
	</desc>
	<defs/>
	<path id="path" d="M67.7 36.21C68.03 35.21 67.48 33.87 66.67 32.05C65.6 29.63 64.13 26.31 64.25 22.5C64.51 14.22 51.86 9.45 49.63 8.68C49.02 3.91 44.95 0.19 39.97 0.19C34.98 0.19 30.91 3.91 30.3 8.68C28.08 9.45 15.42 14.22 15.68 22.5C15.8 26.31 14.34 29.63 13.27 32.05C12.46 33.87 11.9 35.21 12.23 36.21L0.19 36.21L0.19 44.4L77.08 44.4L77.08 36.21L67.7 36.21ZM30.82 27.24C31.19 27.13 31.57 27.06 31.94 27.06C33.03 27.06 33.88 27.55 34.13 28.32C34.47 29.37 33.55 30.62 32.07 31.1L17.24 35.81C15.78 36.26 14.26 35.76 13.93 34.73C13.58 33.67 14.51 32.43 15.99 31.95L30.82 27.24ZM24.64 34.79L24.64 36.21L20.2 36.21L24.64 34.79ZM25.94 34.38L32.46 32.31C34.62 31.62 35.92 29.65 35.36 27.93C34.94 26.63 33.6 25.79 31.94 25.79C31.44 25.79 30.92 25.87 30.43 26.03L25.07 27.73C24.96 26.27 24.67 23.31 23.99 21.76C25.6 21.39 31.74 21.71 37.47 22.26L37.79 36.2L25.94 36.21L25.94 34.38ZM65.58 34.91C65.27 35.93 63.74 36.49 62.29 36.05L47.37 31.65C45.91 31.22 44.93 29.97 45.24 28.91C45.48 28.14 46.38 27.62 47.48 27.62C47.83 27.62 48.19 27.67 48.54 27.77L63.46 32.17C64.92 32.61 65.9 33.86 65.58 34.91ZM66.5 35.87C66.5 35.88 66.5 35.9 66.5 35.91C66.49 35.92 66.47 35.92 66.47 35.93C66.48 35.92 66.49 35.89 66.5 35.87ZM51.87 27.42L48.9 26.55C46.77 25.93 44.52 26.85 44.01 28.55C43.49 30.3 44.83 32.23 47 32.87L51.6 34.23L51.6 36.21L39.12 36.21L39.44 22.26C45.17 21.71 51.3 21.39 52.92 21.76C52.25 23.27 51.97 26.03 51.87 27.42ZM52.89 34.61L58.3 36.21L52.89 36.21L52.89 34.61ZM39.97 1.47C44.65 1.47 48.46 5.24 48.46 9.87C48.46 14.51 44.65 18.28 39.97 18.28C35.29 18.28 31.48 14.51 31.48 9.87C31.48 5.24 35.28 1.47 39.97 1.47ZM16.98 22.46C16.76 15.63 27.19 11.22 30.21 10.08C30.32 15.32 34.64 19.56 39.97 19.56C45.29 19.56 49.61 15.32 49.73 10.08C52.75 11.22 63.18 15.63 62.96 22.46C62.85 26.05 64.01 29.12 65.06 31.54C64.68 31.31 64.28 31.08 63.83 30.95L53.14 27.8C53.25 26.22 53.57 23.1 54.23 22.01C54.41 21.72 54.42 21.38 54.24 21.1C53.6 20.09 48.39 20.08 38.74 21.05L38.45 21.08L38.16 21.05C28.52 20.08 23.31 20.09 22.67 21.1C22.49 21.38 22.49 21.72 22.68 22.01C23.34 23.09 23.69 26.44 23.81 28.13L15.6 30.74C15.42 30.8 15.28 30.91 15.11 30.98C16.09 28.65 17.08 25.78 16.98 22.46ZM75.78 43.12L1.48 43.12L1.48 37.49L75.78 37.49L75.78 43.12Z" fill="#00093C" fill-opacity="1.000000" fill-rule="nonzero"/>
	<path id="path" d="M66.67 32.05C65.6 29.63 64.13 26.31 64.25 22.5C64.51 14.22 51.86 9.45 49.63 8.68C49.02 3.91 44.95 0.19 39.97 0.19C34.98 0.19 30.91 3.91 30.3 8.68C28.08 9.45 15.42 14.22 15.68 22.5C15.8 26.31 14.34 29.63 13.27 32.05C12.46 33.87 11.9 35.21 12.23 36.21L0.19 36.21L0.19 44.4L77.08 44.4L77.08 36.21L67.7 36.21C68.03 35.21 67.48 33.87 66.67 32.05ZM31.94 27.06C33.03 27.06 33.88 27.55 34.13 28.32C34.47 29.37 33.55 30.62 32.07 31.1L17.24 35.81C15.78 36.26 14.26 35.76 13.93 34.73C13.58 33.67 14.51 32.43 15.99 31.95L30.82 27.24C31.19 27.13 31.57 27.06 31.94 27.06ZM24.64 36.21L20.2 36.21L24.64 34.79L24.64 36.21ZM32.46 32.31C34.62 31.62 35.92 29.65 35.36 27.93C34.94 26.63 33.6 25.79 31.94 25.79C31.44 25.79 30.92 25.87 30.43 26.03L25.07 27.73C24.96 26.27 24.67 23.31 23.99 21.76C25.6 21.39 31.74 21.71 37.47 22.26L37.79 36.2L25.94 36.21L25.94 34.38L32.46 32.31ZM62.29 36.05L47.37 31.65C45.91 31.22 44.93 29.97 45.24 28.91C45.48 28.14 46.38 27.62 47.48 27.62C47.83 27.62 48.19 27.67 48.54 27.77L63.46 32.17C64.92 32.61 65.9 33.86 65.58 34.91C65.27 35.93 63.74 36.49 62.29 36.05ZM66.5 35.91C66.49 35.92 66.47 35.92 66.47 35.93C66.48 35.92 66.49 35.89 66.5 35.87C66.5 35.88 66.5 35.9 66.5 35.91ZM48.9 26.55C46.77 25.93 44.52 26.85 44.01 28.55C43.49 30.3 44.83 32.23 47 32.87L51.6 34.23L51.6 36.21L39.12 36.21L39.44 22.26C45.17 21.71 51.3 21.39 52.92 21.76C52.25 23.27 51.97 26.03 51.87 27.42L48.9 26.55ZM58.3 36.21L52.89 36.21L52.89 34.61L58.3 36.21ZM48.46 9.87C48.46 14.51 44.65 18.28 39.97 18.28C35.29 18.28 31.48 14.51 31.48 9.87C31.48 5.24 35.28 1.47 39.97 1.47C44.65 1.47 48.46 5.24 48.46 9.87ZM30.21 10.08C30.32 15.32 34.64 19.56 39.97 19.56C45.29 19.56 49.61 15.32 49.73 10.08C52.75 11.22 63.18 15.63 62.96 22.46C62.85 26.05 64.01 29.12 65.06 31.54C64.68 31.31 64.28 31.08 63.83 30.95L53.14 27.8C53.25 26.22 53.57 23.1 54.23 22.01C54.41 21.72 54.42 21.38 54.24 21.1C53.6 20.09 48.39 20.08 38.74 21.05L38.45 21.08L38.16 21.05C28.52 20.08 23.31 20.09 22.67 21.1C22.49 21.38 22.49 21.72 22.68 22.01C23.34 23.09 23.69 26.44 23.81 28.13L15.6 30.74C15.42 30.8 15.28 30.91 15.11 30.98C16.09 28.65 17.08 25.78 16.98 22.46C16.76 15.63 27.19 11.22 30.21 10.08ZM1.48 43.12L1.48 37.49L75.78 37.49L75.78 43.12L1.48 43.12Z" stroke="#00093C" stroke-opacity="1.000000" stroke-width="0.390625"/>
</svg>
