<svg width="74.022461" height="60.000000" viewBox="0 0 74.0225 60" fill="none" xmlns="http://www.w3.org/2000/svg" xmlns:xlink="http://www.w3.org/1999/xlink">
	<desc>
			Created with Pixso.
	</desc>
	<defs/>
	<path id="Vector" d="M69.7 3.98L66.64 3.98L66.64 1.07C66.64 0.48 66.16 0 65.56 0L59.03 0C58.43 0 57.95 0.48 57.95 1.07L57.95 3.98L22.15 3.98L22.15 1.07C22.15 0.48 21.66 0 21.07 0L14.54 0C13.94 0 13.46 0.48 13.46 1.07L13.46 3.98L10.94 3.98C8.3 3.98 6.14 6.14 6.14 8.78L6.14 35.15C6.14 35.74 6.62 36.23 7.22 36.23C7.82 36.23 8.3 35.74 8.3 35.15L8.3 8.78C8.3 7.33 9.47 6.14 10.94 6.14L69.72 6.14C70.88 6.14 71.82 7.08 71.82 8.24L71.82 44.07C71.82 45.22 70.88 46.17 69.72 46.17L67.41 46.17L67.41 42.06C67.41 41.47 66.93 40.98 66.33 40.98L54.7 40.98C54.1 40.98 53.62 41.47 53.62 42.06L53.62 46.17L36.21 46.17L40.31 45.05C42.43 44.47 44.3 43.26 45.68 41.56L52.66 33.09C52.79 32.91 52.89 32.7 52.91 32.49L53.52 24.4C53.58 23.61 53.1 22.82 52.37 22.51C52.7 22.32 52.93 21.97 52.93 21.57C52.93 20.97 52.44 20.49 51.85 20.49L47.11 20.49C46.51 20.49 46.03 20.97 46.03 21.57C46.03 22.17 46.51 22.65 47.11 22.65L50.65 22.65C50.54 22.72 50.42 22.82 50.33 22.92L46.36 26.88C45.59 27.65 44.95 28.62 44.28 29.47C43.91 29.93 43.97 30.62 44.45 30.99C44.91 31.35 45.61 31.3 45.97 30.81L47.22 29.27L50.42 32.47L44.08 40.19C42.97 41.54 41.5 42.51 39.81 42.97L22.71 47.9C21.38 48.32 22.05 50.38 23.36 49.96L27.12 48.75L27.12 57.82L25.61 57.82C25.02 57.82 24.53 58.3 24.53 58.9C24.53 59.49 25.02 59.98 25.61 59.98L32.24 59.98C32.84 59.98 33.32 59.49 33.32 58.9C33.32 58.3 32.84 57.82 32.24 57.82L29.29 57.82L29.29 48.34L69.76 48.34C72.11 48.34 74.02 46.43 74.02 44.08L74.02 8.26C73.96 5.89 72.05 3.98 69.7 3.98ZM60.09 2.15L64.46 2.15L64.46 3.96L60.09 3.96L60.09 2.15ZM15.6 2.15L19.97 2.15L19.97 3.96L15.6 3.96L15.6 2.15ZM51.31 24.94L50.92 29.95L48.61 27.64L51.31 24.94ZM55.74 46.17L55.74 43.14L65.21 43.14L65.21 46.17L55.74 46.17Z" fill="#00093C" fill-opacity="1.000000" fill-rule="nonzero"/>
	<path id="Vector" d="M20.37 57.82L6.47 57.82L6.47 52.06C6.47 48.4 7.31 44.76 8.91 41.48C9.8 39.69 11.65 38.54 13.65 38.54L31.91 38.54C35.73 38.54 39.44 37.19 42.37 34.74C42.83 34.36 42.89 33.68 42.51 33.22C42.12 32.76 41.45 32.7 40.98 33.09C38.44 35.21 35.22 36.38 31.93 36.38L24.07 36.38C25.29 35.11 26.04 33.39 26.04 31.51L26.04 27.52C28.83 27.33 31.03 25.02 31.03 22.18C31.03 19.24 28.62 16.83 25.67 16.83C23.86 16.79 22.15 17.21 20.89 18.58C20.28 19.26 19.39 19.64 18.49 19.64L15.5 19.64C13.02 19.64 10.99 21.66 10.99 24.15L10.99 32.28C10.99 33.2 11.21 34.11 11.76 34.86C12.01 35.21 12.32 35.49 12.67 35.73C13.05 35.98 13.59 36.07 13.9 36.38C10.99 36.32 8.24 37.92 6.97 40.54C5.21 44.12 4.29 48.09 4.29 52.08L4.29 57.84L1.07 57.84C0.48 57.84 0 58.32 0 58.92C0 59.51 0.48 60 1.07 60L20.37 60C20.97 60 21.45 59.51 21.45 58.92C21.47 58.3 20.97 57.82 20.37 57.82ZM18.68 36.34C18.08 36.3 17.48 36.15 16.95 35.9C17.2 35.76 17.45 35.61 17.66 35.44C18.56 34.69 19.06 33.59 19.06 32.34L19.06 27.52L23.86 27.52L23.86 31.49C23.86 34.17 21.68 36.36 18.99 36.36C18.87 36.36 18.78 36.36 18.68 36.34ZM13.17 32.26L13.17 24.13C13.17 22.84 14.23 21.78 15.52 21.78L18.49 21.78C20.01 21.78 21.45 21.14 22.49 20.03C23.34 19.1 24.5 18.93 25.69 18.97C27.44 18.97 28.87 20.39 28.87 22.15C28.87 23.9 27.44 25.32 25.69 25.32L17.99 25.32C17.39 25.32 16.91 25.81 16.91 26.4L16.91 32.32C16.91 33.59 15.79 34.38 14.58 34.15C13.61 33.99 13.17 33.2 13.17 32.26Z" fill="#00093C" fill-opacity="1.000000" fill-rule="nonzero"/>
	<path id="Vector" d="M37.09 16.54L42.99 16.54C43.58 16.54 44.07 16.06 44.07 15.46L44.07 11.48C44.07 10.88 43.58 10.4 42.99 10.4L37.09 10.4C36.5 10.4 36.01 10.88 36.01 11.48L36.01 15.46C36 16.06 36.48 16.54 37.09 16.54ZM38.17 12.55L41.91 12.55L41.91 14.36L38.17 14.36L38.17 12.55Z" fill="#00093C" fill-opacity="1.000000" fill-rule="nonzero"/>
	<path id="Vector" d="M36 23.53C36 24.13 36.48 24.61 37.07 24.61L42.97 24.61C43.57 24.61 44.05 24.13 44.05 23.53L44.05 19.55C44.05 18.95 43.57 18.47 42.97 18.47L37.07 18.47C36.48 18.47 36 18.95 36 19.55L36 23.53ZM38.17 20.64L41.91 20.64L41.91 22.45L38.17 22.45L38.17 20.64Z" fill="#00093C" fill-opacity="1.000000" fill-rule="nonzero"/>
	<path id="Vector" d="M47.07 14.54L66.29 14.54C66.89 14.54 67.37 14.06 67.37 13.46C67.37 12.86 66.89 12.38 66.29 12.38L47.07 12.38C46.47 12.38 45.99 12.86 45.99 13.46C45.99 14.06 46.47 14.54 47.07 14.54Z" fill="#00093C" fill-opacity="1.000000" fill-rule="nonzero"/>
</svg>
