<svg width="322.505005" height="70.253418" viewBox="0 0 322.505 70.2534" fill="none" xmlns="http://www.w3.org/2000/svg" xmlns:xlink="http://www.w3.org/1999/xlink">
	<desc>
			Created with Pixso.
	</desc>
	<defs>
		<linearGradient x1="3.391113" y1="34.724609" x2="321.391052" y2="34.724609" id="paint_linear_27_7584_0" gradientUnits="userSpaceOnUse">
			<stop stop-color="#F7941D"/>
			<stop offset="1.000000" stop-color="#27AAE1"/>
		</linearGradient>
	</defs>
	<path id="14 795" d="M29.97 5.02L29.97 65.22L16.03 65.22L16.03 16.19L4 16.19L4 5.02L29.97 5.02ZM103.74 52.58L93.94 52.58L93.94 65.22L80.35 65.22L80.35 52.58L47.93 52.58L47.93 43.19L76.32 5.02L90.93 5.02L64.63 41.22L80.79 41.22L80.79 29.97L93.94 29.97L93.94 41.22L103.74 41.22L103.74 52.58ZM195.68 5.02L195.68 14.05L173.31 65.22L158.18 65.22L179.78 16.36L159.81 16.36L159.81 26.17L147.43 26.17L147.43 5.02L195.68 5.02ZM231.19 4Q243.83 4 250.97 11.7Q258.11 19.39 258.11 33.83Q258.11 44.06 254.29 51.38Q250.47 58.69 243.5 62.47Q236.53 66.25 227.41 66.25Q222.61 66.25 218.22 65.18Q213.83 64.11 210.74 62.13L215.89 51.89Q220.28 54.89 227.16 54.89Q234.8 54.89 239.28 50.38Q243.75 45.86 244.11 37.36Q238.69 42.77 229.14 42.77Q223.38 42.77 218.64 40.47Q213.91 38.13 211.16 33.87Q208.41 29.61 208.41 24.03Q208.41 18 211.41 13.44Q214.44 8.89 219.62 6.45Q224.83 4 231.19 4ZM232.24 32.36Q236.8 32.36 239.68 29.84Q242.55 27.3 242.55 23.33Q242.55 19.39 239.76 16.89Q236.97 14.39 232.05 14.39Q227.58 14.39 224.79 16.8Q222 19.22 222 23.33Q222 27.47 224.79 29.93Q227.58 32.36 232.24 32.36ZM293.64 27.64Q306.36 27.64 312.43 32.72Q318.5 37.78 318.5 46.3Q318.5 51.8 315.73 56.32Q312.98 60.83 307.35 63.54Q301.72 66.25 293.47 66.25Q287.09 66.25 280.94 64.57Q274.81 62.89 270.5 59.8L276 49.14Q279.45 51.72 283.92 53.15Q288.39 54.55 293.12 54.55Q298.37 54.55 301.37 52.5Q304.39 50.42 304.39 46.72Q304.39 42.86 301.24 40.89Q298.11 38.91 290.37 38.91L274.98 38.91L278.06 5.02L314.78 5.02L314.78 16.19L289.67 16.19L288.73 27.64L293.64 27.64Z" stroke="url(#paint_linear_27_7584_0)" stroke-opacity="1.000000" stroke-width="4.000000"/>
</svg>
