<svg width="57.000000" height="57.000000" viewBox="0 0 57 57" fill="none" xmlns="http://www.w3.org/2000/svg" xmlns:xlink="http://www.w3.org/1999/xlink">
	<desc>
			Created with Pixso.
	</desc>
	<defs/>
	<path id="Vector" d="M0 37.76C0 44.09 5.14 49.24 11.46 49.24C17.79 49.24 22.93 44.13 22.93 37.76C22.93 31.43 17.79 26.28 11.46 26.28C5.14 26.28 0 31.43 0 37.76ZM2.68 41.37C2.22 40.26 2 39.06 2 37.76C2 36.47 2.22 35.26 2.68 34.15C3.14 33.03 3.84 32 4.77 31.06C5.71 30.12 6.74 29.42 7.87 28.96C8.98 28.51 10.17 28.28 11.46 28.28C12.75 28.28 13.95 28.51 15.05 28.96C16.18 29.42 17.21 30.12 18.15 31.06C19.08 32 19.78 33.03 20.24 34.15C20.7 35.26 20.93 36.47 20.93 37.76C20.93 39.09 20.69 40.33 20.21 41.46C19.75 42.56 19.06 43.56 18.15 44.47C17.23 45.39 16.22 46.08 15.11 46.54C13.99 47.01 12.77 47.24 11.46 47.24C10.17 47.24 8.98 47.02 7.87 46.56C6.74 46.1 5.71 45.4 4.77 44.46C3.84 43.53 3.14 42.5 2.68 41.37Z" fill="#00093C" fill-opacity="1.000000" fill-rule="evenodd"/>
	<path id="Vector" d="M38.55 0.39L26.12 20.74C25.77 21.33 26.15 22.06 26.81 22.06L51.69 22.06C52.35 22.06 52.73 21.29 52.38 20.74L39.94 0.39C39.6 -0.14 38.87 -0.14 38.55 0.39ZM39.25 3.08L28.87 20.06L49.63 20.06L39.25 3.08ZM50.67 21.77C50.68 21.78 50.68 21.79 50.69 21.79L50.67 21.77ZM40.26 1.44L40.27 1.41C40.27 1.42 40.26 1.43 40.26 1.44Z" fill="#00093C" fill-opacity="1.000000" fill-rule="evenodd"/>
	<path id="Vector" d="M22.64 5.9C22.98 5.59 22.98 5.06 22.64 4.72L18.15 0.23C17.84 -0.08 17.29 -0.08 16.97 0.23L12.04 5.17C11.73 5.48 11.17 5.48 10.86 5.17L5.92 0.23C5.61 -0.08 5.06 -0.08 4.74 0.23L0.26 4.72C-0.05 5.03 -0.05 5.59 0.26 5.9L5.19 10.84C5.51 11.15 5.51 11.71 5.19 12.02L0.26 16.96C-0.05 17.27 -0.05 17.83 0.26 18.14L4.74 22.63C5.06 22.94 5.61 22.94 5.92 22.63L10.86 17.69C11.17 17.38 11.73 17.38 12.04 17.69L16.97 22.63C17.29 22.94 17.84 22.94 18.15 22.63L22.64 18.14C22.95 17.83 22.95 17.27 22.64 16.96L17.7 12.02C17.39 11.71 17.39 11.15 17.7 10.84L22.64 5.9ZM17.56 2.47L13.45 6.58C13.2 6.84 12.92 7.03 12.61 7.17C12.26 7.33 11.87 7.4 11.45 7.4C11.03 7.4 10.64 7.33 10.28 7.17C9.98 7.03 9.7 6.84 9.44 6.58L5.33 2.47L2.5 5.31L6.61 9.43C7.28 10.09 7.61 10.76 7.61 11.43C7.61 12.1 7.28 12.77 6.61 13.44L2.5 17.55L5.33 20.39L9.44 16.28C9.7 16.02 9.98 15.83 10.28 15.69C10.64 15.54 11.03 15.46 11.45 15.46C11.87 15.46 12.26 15.54 12.61 15.69C12.92 15.83 13.2 16.02 13.45 16.28L17.56 20.39L20.4 17.55L16.29 13.44C15.62 12.77 15.29 12.1 15.29 11.43C15.29 10.76 15.62 10.09 16.29 9.43L20.4 5.31L17.56 2.47Z" fill="#00093C" fill-opacity="1.000000" fill-rule="evenodd"/>
	<path id="Vector 146" d="M46.35 35.67C46.35 35.67 49.64 34.62 50.41 36.03C50.69 36.52 52.3 39.77 53.21 42.28C53.81 43.94 54.37 46.19 54.7 47.64C54.9 48.49 54.49 49.37 53.73 49.79L47.2 53.39C46.53 53.76 45.71 53.71 45.09 53.28C42.26 51.29 34.51 45.82 34.35 45.53C33.53 44.04 35.02 43.22 35.78 43.44C36.03 43.52 40.39 45.95 39.63 44.57C38.81 43.08 34.28 34.85 34.15 34.6C33.87 34.11 34.16 33.52 34.59 33.06C34.89 32.74 35.14 32.59 35.58 32.52C36.19 32.4 36.84 32.47 37.12 32.97C37.97 34.52 39.31 36.95 39.31 36.95L41.5 40.94M39.31 36.95C39.31 36.95 40.41 35.89 41.29 35.86C41.91 35.84 42.83 36.31 42.83 36.31M47.99 38.66L46.35 35.67C46.35 35.67 45.9 34.69 45.8 34.67C43 34.27 42.83 36.31 42.83 36.31L44.47 39.3" stroke="#00093C" stroke-opacity="1.000000" stroke-width="2.000000"/>
</svg>
